<?xml version="1.0" standalone="no"?>
<!DOCTYPE svg PUBLIC "-//W3C//DTD SVG 20010904//EN"
 "http://www.w3.org/TR/2001/REC-SVG-20010904/DTD/svg10.dtd">
<svg version="1.0" xmlns="http://www.w3.org/2000/svg"
 width="896.000000pt" height="896.000000pt" viewBox="0 0 896.000000 896.000000"
 preserveAspectRatio="xMidYMid meet">
<metadata>
Created by potrace 1.11, written by Peter Selinger 2001-2013
</metadata>
<g transform="translate(0.000000,896.000000) scale(0.100000,-0.100000)"
fill="#000000" stroke="none">
<path d="M3984 8947 c-46 -53 -142 -252 -158 -328 -3 -13 -7 -35 -10 -48 -71
-326 56 -696 314 -912 103 -86 228 -157 305 -173 28 -5 32 -2 69 56 34 55 86
159 86 173 0 3 6 19 15 35 8 16 14 33 13 37 -1 4 4 26 10 48 37 133 32 360
-10 484 -6 20 -13 41 -14 47 -1 6 -17 44 -37 86 -94 205 -263 374 -467 467
-85 38 -103 43 -116 28z"/>
<path d="M3419 8877 c-12 -4 -34 -9 -50 -12 -17 -3 -38 -9 -47 -14 -9 -5 -39
-19 -67 -32 -50 -24 -145 -96 -177 -134 -53 -63 -71 -88 -97 -141 -42 -85 -61
-160 -65 -256 -4 -88 9 -178 27 -190 10 -6 124 -2 162 6 80 18 192 64 223 94
7 6 18 12 22 12 13 0 110 96 142 140 49 67 91 157 103 218 2 9 4 17 5 17 10 0
16 193 7 238 -14 70 -12 68 -93 65 -41 -2 -84 -6 -95 -11z"/>
<path d="M5538 8775 c-2 -2 -28 -5 -58 -8 -113 -12 -251 -69 -350 -146 -68
-53 -135 -128 -181 -204 -47 -77 -96 -210 -102 -278 l-4 -46 61 -22 c93 -33
146 -42 246 -43 79 -1 165 9 188 21 9 5 19 9 22 8 27 -3 188 70 218 100 7 7
17 13 22 13 14 0 158 149 165 170 3 11 11 20 16 20 5 0 9 7 9 15 0 8 3 15 8
15 19 0 89 194 96 268 4 48 3 51 -25 61 -63 24 -85 31 -109 35 -14 2 -36 7
-50 10 -26 7 -167 15 -172 11z"/>
<path d="M6352 8459 c-4 -3 -34 -13 -67 -23 -88 -27 -262 -121 -273 -148 -2
-4 -8 -8 -13 -8 -12 0 -113 -101 -160 -160 -161 -202 -235 -504 -184 -750 3
-14 8 -40 10 -59 3 -18 8 -38 12 -45 4 -6 8 -14 9 -18 1 -5 2 -9 4 -10 1 -2 3
-10 5 -18 1 -8 17 -47 35 -86 34 -77 28 -74 102 -55 5 1 22 4 38 8 17 3 33 10
36 14 3 5 13 9 23 9 17 0 177 78 203 99 7 6 40 32 73 59 68 55 144 137 182
198 64 99 124 238 139 319 2 11 8 43 13 70 10 48 8 269 -2 310 -3 11 -11 43
-18 70 -6 28 -22 74 -35 103 -13 29 -23 53 -23 55 1 1 -7 19 -17 39 -15 32
-21 36 -51 35 -19 -1 -37 -5 -41 -8z"/>
<path d="M1880 8138 c-199 -29 -372 -155 -462 -336 -23 -46 -43 -93 -45 -105
-2 -12 -4 -28 -5 -34 -1 -7 -4 -13 -7 -13 -7 0 -8 -17 -11 -115 -2 -81 5 -136
20 -164 9 -18 19 -20 78 -17 71 4 151 19 192 37 152 67 231 130 311 253 39 59
71 134 84 196 13 62 14 215 2 261 l-12 45 -45 0 c-25 0 -70 -4 -100 -8z"/>
<path d="M2523 8066 c-178 -66 -320 -232 -360 -420 -8 -38 -7 -178 1 -225 7
-46 26 -104 37 -115 5 -6 9 -16 9 -24 0 -7 6 -20 14 -27 12 -13 22 -12 67 1
60 18 141 58 179 89 95 76 186 206 206 295 11 50 11 50 14 53 2 1 4 31 6 67 1
36 4 67 5 70 1 3 1 9 -1 15 -1 5 -3 25 -6 45 -5 42 -19 88 -46 153 -24 55 -33
57 -125 23z"/>
<path d="M3200 7888 c-94 -45 -225 -131 -234 -154 -3 -8 -12 -14 -20 -14 -8 0
-16 -4 -18 -9 -1 -5 -21 -29 -43 -53 -53 -56 -125 -152 -125 -166 0 -5 -3 -12
-7 -14 -12 -5 -56 -98 -91 -193 -6 -16 -17 -52 -23 -80 -6 -27 -13 -59 -16
-70 -10 -41 -12 -272 -2 -320 5 -27 12 -63 15 -79 2 -16 9 -37 15 -47 5 -11 7
-19 5 -19 -7 0 17 -65 49 -136 30 -65 111 -193 134 -210 13 -10 68 9 136 48
11 6 37 21 58 32 20 11 37 23 37 28 0 4 6 8 13 8 7 0 23 9 35 20 12 11 26 20
32 20 6 0 8 5 5 10 -3 6 -2 10 3 10 10 0 91 77 132 125 69 81 172 273 186 347
4 18 11 39 17 46 5 6 7 12 4 12 -3 0 -2 13 3 29 33 115 31 306 -5 453 -9 35
-17 70 -19 79 -14 57 -85 196 -139 272 -27 37 -49 67 -50 67 -1 -1 -40 -19
-87 -42z"/>
<path d="M7209 7845 c-3 -2 -27 -7 -54 -10 -210 -28 -401 -175 -484 -374 -12
-29 -24 -62 -26 -73 -2 -11 -7 -28 -10 -39 -4 -10 -8 -50 -10 -89 -4 -79 -1
-83 70 -95 39 -6 166 -7 195 -1 66 13 177 52 190 66 3 3 17 11 32 19 15 8 37
22 47 33 11 10 23 18 26 18 16 0 114 120 148 182 23 42 68 169 66 186 -1 4 0
9 1 12 1 3 3 34 4 68 3 60 2 64 -23 74 -14 5 -54 11 -88 13 -34 2 -66 6 -71 9
-5 3 -11 4 -13 1z"/>
<path d="M3735 7648 c-19 -40 -38 -86 -41 -103 -3 -16 -9 -44 -13 -62 -5 -17
-9 -65 -9 -106 0 -273 165 -501 435 -601 l43 -16 23 38 c20 32 31 57 64 152
16 46 22 190 10 265 -28 186 -164 368 -337 452 -136 66 -133 66 -175 -19z"/>
<path d="M5328 7594 c-2 -2 -22 -6 -44 -9 -102 -16 -267 -72 -379 -130 -85
-44 -127 -67 -135 -75 -3 -3 -27 -21 -55 -40 -77 -53 -83 -59 -180 -155 -103
-104 -185 -215 -251 -339 -40 -76 -100 -222 -109 -266 -2 -8 -10 -42 -18 -75
-24 -97 -33 -173 -36 -320 -1 -47 6 -190 9 -190 1 0 3 -14 5 -31 7 -62 67
-281 85 -309 4 -5 14 -31 24 -58 27 -74 33 -76 114 -61 89 17 295 83 304 98 4
6 8 8 8 3 0 -9 158 74 219 116 216 147 389 347 495 570 38 82 78 187 91 243 2
10 9 37 14 59 48 198 47 436 -3 650 -18 75 -52 178 -77 229 -10 22 -19 45 -19
52 0 21 -49 51 -62 38z"/>
<path d="M7579 7156 c-2 -2 -29 -6 -59 -9 -84 -8 -205 -38 -235 -58 -5 -3 -23
-9 -40 -13 -16 -4 -36 -13 -43 -19 -8 -6 -20 -12 -27 -13 -7 -1 -26 -11 -42
-21 -15 -11 -55 -38 -87 -59 -189 -124 -375 -397 -420 -615 -3 -13 -7 -33 -10
-45 -2 -12 -7 -44 -11 -72 -6 -50 -6 -51 27 -66 40 -18 117 -43 155 -51 111
-23 180 -30 258 -29 83 2 109 4 190 19 17 3 39 7 50 9 11 2 37 11 58 19 21 9
41 16 45 17 31 2 223 97 242 119 3 4 17 14 33 24 86 55 232 222 296 339 74
136 132 338 122 425 -2 20 -179 78 -270 89 -55 6 -228 14 -232 10z"/>
<path d="M6188 7018 c-88 -70 -142 -134 -192 -228 -37 -70 -81 -205 -71 -219
3 -6 2 -12 -3 -15 -10 -6 -8 -172 2 -233 11 -61 52 -169 84 -221 15 -24 32
-54 39 -66 7 -11 40 -49 75 -83 l63 -61 60 45 c233 177 335 503 243 778 -20
59 -40 106 -69 155 -34 60 -151 190 -170 190 -4 0 -31 -19 -61 -42z"/>
<path d="M1337 7044 c-1 -1 -33 -4 -72 -8 -38 -3 -80 -8 -92 -11 -13 -3 -33
-7 -44 -10 -12 -2 -24 -6 -26 -9 -7 -7 -6 -175 1 -239 22 -191 95 -383 203
-536 42 -59 176 -200 229 -241 81 -64 254 -160 314 -175 3 0 28 -8 55 -18 28
-9 68 -19 90 -23 22 -3 44 -8 49 -11 10 -6 119 -15 196 -16 88 -1 202 11 235
23 17 6 31 11 33 11 16 -5 20 18 17 132 -3 142 -6 162 -36 277 -31 116 -41
143 -87 230 -19 36 -40 75 -46 87 -6 13 -14 23 -18 23 -5 0 -8 5 -8 11 0 29
-167 205 -260 275 -51 37 -175 114 -186 114 -2 0 -23 9 -47 19 -102 46 -204
74 -326 87 -54 6 -170 12 -174 8z"/>
<path d="M694 7010 c-36 -21 -108 -100 -150 -160 -89 -131 -121 -314 -85 -484
24 -111 82 -214 168 -301 74 -74 73 -74 147 -4 36 33 75 77 88 97 12 21 25 39
28 42 3 3 14 23 24 45 9 22 21 49 26 60 5 11 12 31 15 45 2 14 9 44 14 68 8
39 7 188 -2 222 -41 162 -112 279 -225 372 -19 15 -22 15 -48 -2z"/>
<path d="M3648 6609 c-10 -5 -18 -8 -18 -5 0 3 -21 -6 -47 -21 -27 -14 -57
-31 -68 -37 -77 -42 -184 -149 -236 -237 -79 -131 -112 -252 -110 -394 2 -71
6 -130 11 -130 1 0 3 -9 5 -19 11 -58 20 -82 64 -176 40 -86 64 -114 88 -106
10 3 21 6 26 5 10 0 104 50 141 76 106 72 190 167 247 275 13 25 24 47 24 50
1 3 11 34 22 70 39 122 44 223 17 374 -14 81 -109 274 -139 282 -5 2 -18 -1
-27 -7z"/>
<path d="M8173 6428 c-120 -127 -207 -304 -230 -468 -14 -102 -4 -301 18 -342
5 -10 8 -18 5 -18 -7 0 34 -113 46 -127 6 -7 8 -13 4 -13 -9 0 84 -149 110
-176 6 -7 21 -25 35 -40 35 -42 144 -134 157 -134 7 0 12 -3 12 -8 0 -4 14
-13 31 -21 30 -13 32 -13 75 34 57 59 119 144 128 173 4 12 12 22 17 22 5 0 9
6 9 13 0 6 7 26 16 42 42 80 66 198 69 332 2 73 -1 150 -6 170 -5 21 -12 49
-15 63 -20 99 -113 282 -174 341 -9 9 -25 28 -36 41 -31 39 -197 168 -217 168
-2 0 -26 -24 -54 -52z"/>
<path d="M5580 6247 c0 -4 15 -30 33 -59 29 -46 54 -95 87 -173 11 -25 41
-114 45 -135 2 -8 4 -15 5 -15 2 0 6 -18 25 -110 34 -165 34 -381 1 -520 -35
-141 -94 -274 -166 -370 -27 -36 -181 -185 -191 -185 -5 0 -19 -9 -31 -19 -11
-11 -50 -32 -87 -47 -36 -14 -77 -31 -91 -37 -14 -6 -27 -11 -30 -12 -33 -8
-80 -31 -80 -39 0 -5 -3 -7 -6 -3 -13 13 -375 -186 -404 -222 -3 -3 -25 -22
-50 -41 -68 -52 -115 -94 -227 -205 l-102 -100 -103 101 c-95 92 -163 148
-258 213 -19 13 -37 26 -40 30 -3 3 -12 11 -21 16 -9 6 -76 51 -149 100 -124
84 -188 131 -285 207 -51 40 -285 277 -285 288 0 5 -11 20 -24 34 -87 94 -217
370 -257 544 -15 66 -16 71 -23 122 -3 25 -8 54 -10 65 -16 81 -22 339 -12
503 3 36 1 60 -5 57 -5 -4 -9 -10 -9 -15 0 -5 -5 -21 -11 -37 -6 -15 -11 -30
-11 -33 0 -3 -8 -25 -18 -50 -9 -25 -23 -70 -29 -100 -7 -30 -15 -62 -18 -70
-3 -8 -7 -28 -9 -45 -2 -16 -6 -43 -9 -60 -3 -16 -8 -86 -11 -155 -4 -69 -7
-126 -9 -128 -1 -1 -22 5 -46 14 -51 18 -73 24 -113 30 -16 2 -43 8 -60 12
-41 11 -190 13 -246 2 -25 -4 -63 -11 -85 -14 -21 -4 -42 -10 -45 -14 -3 -4
-12 -8 -20 -10 -36 -8 -119 -57 -169 -100 -130 -111 -217 -267 -276 -496 -19
-73 -14 -82 10 -19 111 294 283 479 487 521 60 12 208 8 273 -8 134 -33 325
-118 325 -145 0 -21 1 -27 11 -53 5 -12 11 -33 13 -45 17 -94 168 -435 197
-445 5 -2 9 -8 9 -14 0 -9 78 -124 105 -155 5 -6 24 -28 40 -49 84 -104 345
-349 459 -429 109 -78 255 -191 322 -250 6 -5 47 -41 91 -80 121 -107 118
-100 72 -171 -22 -32 -60 -96 -86 -141 l-46 -82 -33 33 c-84 84 -194 147 -281
162 -102 18 -215 -2 -295 -53 -21 -12 -40 -23 -42 -23 -6 0 -91 -76 -134 -120
-18 -19 -60 -71 -93 -115 -33 -44 -63 -84 -67 -90 -4 -5 -31 -46 -60 -90 -67
-103 -80 -121 -122 -170 -47 -54 -47 -54 -110 -106 -74 -61 -138 -97 -234
-129 -69 -24 -97 -28 -192 -28 -253 0 -517 122 -735 338 -68 67 -83 79 -71 53
9 -18 19 -33 24 -33 4 0 8 -5 8 -11 0 -18 114 -151 191 -223 135 -125 300
-222 465 -272 78 -24 107 -27 231 -28 79 -1 143 -3 143 -6 0 -3 -28 -39 -61
-80 -90 -112 -188 -211 -303 -308 -71 -60 -214 -139 -315 -174 -72 -25 -190
-50 -202 -42 -5 3 -9 2 -9 -3 0 -4 -37 -9 -83 -10 -45 -1 -93 -2 -107 -3 l-25
-1 23 -10 c13 -5 35 -11 50 -15 300 -63 522 -24 822 147 14 8 27 16 30 20 3 3
22 15 43 28 20 12 37 27 37 32 0 5 6 9 13 9 7 0 20 8 29 18 8 9 35 33 59 52
85 70 258 252 369 390 25 30 47 57 50 60 3 3 27 34 55 70 27 36 53 70 57 75
22 28 111 143 126 163 47 62 134 164 182 212 57 58 132 110 159 110 26 0 117
-89 159 -155 18 -27 37 -57 42 -65 33 -47 36 -64 24 -115 -7 -27 -15 -61 -18
-75 -3 -14 -7 -34 -10 -46 -2 -12 -7 -45 -11 -74 -4 -29 -8 -62 -10 -72 -3
-15 -16 -191 -18 -233 0 -15 15 -297 18 -320 1 -11 5 -31 8 -45 4 -14 9 -44
11 -68 3 -24 7 -46 10 -50 2 -4 7 -23 10 -42 3 -19 12 -57 20 -85 8 -27 17
-61 20 -75 22 -107 143 -365 232 -497 72 -106 72 -93 -1 -169 -64 -67 -159
-178 -228 -269 -47 -62 -77 -105 -77 -110 0 -6 -39 -65 -50 -75 -3 -3 -31 -54
-62 -115 -53 -104 -110 -255 -122 -320 -3 -16 -7 -42 -11 -57 -5 -25 -2 -28
32 -36 21 -5 70 -15 108 -21 39 -6 84 -14 100 -17 59 -10 85 -10 86 0 2 29 11
70 22 104 l12 37 485 0 c267 1 490 -1 497 -3 10 -3 25 -49 38 -120 7 -38 15
-43 58 -37 23 3 58 8 77 10 67 7 125 17 161 26 34 8 37 12 33 42 -2 17 -6 41
-8 52 -3 11 -10 40 -16 65 -10 43 -16 61 -41 125 -7 17 -13 32 -13 35 -2 7
-85 171 -99 195 -94 161 -272 390 -404 520 -18 18 -33 35 -33 39 0 4 23 40 50
81 28 41 50 78 50 84 0 5 4 11 9 13 11 4 107 195 117 232 3 14 10 26 15 26 5
0 8 3 7 7 -1 5 9 40 22 78 13 39 25 75 26 82 5 28 49 165 87 268 73 203 146
341 248 475 49 65 86 104 205 217 12 13 27 23 33 23 5 0 11 4 13 8 4 11 139
101 198 133 25 13 47 26 50 29 3 3 109 58 237 122 273 138 351 184 498 293
128 96 223 187 318 305 64 80 187 275 186 294 0 5 3 12 8 15 15 11 116 231
106 231 -3 0 -1 6 4 13 16 19 96 265 128 392 5 17 9 35 11 40 2 6 6 23 9 39 3
16 9 34 12 39 3 6 1 7 -5 3 -7 -4 -12 -11 -12 -16 0 -5 -5 -21 -12 -37 -6 -15
-12 -31 -13 -35 -2 -5 -4 -10 -5 -13 -1 -3 -3 -8 -5 -12 -2 -8 -20 -55 -32
-83 -3 -8 -7 -17 -8 -20 -3 -11 -68 -148 -95 -200 -80 -158 -179 -322 -212
-351 -10 -9 -18 -20 -18 -24 0 -26 -189 -219 -300 -306 -100 -78 -390 -239
-431 -239 -6 0 -23 -6 -37 -14 -15 -8 -124 -49 -242 -92 -118 -42 -242 -89
-275 -105 -33 -15 -70 -30 -82 -34 -13 -3 -23 -11 -23 -16 0 -5 -3 -8 -7 -7
-8 2 -119 -50 -138 -65 -5 -4 -48 -33 -94 -64 -87 -58 -110 -76 -192 -151
l-47 -43 -7 38 c-4 21 -9 49 -12 63 -14 80 -73 280 -106 360 -5 14 -11 30 -12
36 -7 32 -133 273 -189 364 l-66 105 134 130 c136 132 161 155 170 155 3 0 33
20 68 44 202 141 496 292 898 461 25 11 47 22 50 25 3 3 12 6 20 8 59 13 568
264 590 292 3 3 30 21 60 40 30 19 57 37 60 40 3 3 28 23 55 45 145 115 259
268 310 415 1 3 4 12 8 20 12 29 26 96 33 150 5 50 5 53 -9 35 -8 -11 -13 -23
-11 -27 3 -5 0 -8 -5 -8 -6 0 -11 -7 -11 -15 0 -8 -4 -15 -10 -15 -5 0 -10 -5
-10 -11 0 -31 -153 -211 -246 -289 -48 -40 -194 -134 -269 -172 -71 -36 -210
-98 -229 -103 -6 -1 -24 -7 -41 -14 -72 -30 -266 -93 -271 -88 -3 2 4 21 15
41 12 20 18 36 16 36 -3 0 1 13 10 29 8 17 16 38 18 48 1 10 6 24 10 31 5 6 6
12 3 12 -2 0 0 15 5 33 29 94 39 264 26 417 -6 63 -15 115 -42 230 -33 150
-146 366 -242 465 -57 58 -103 100 -103 92z m-1193 -2979 c47 -90 83 -169 89
-193 1 -5 5 -18 9 -28 7 -16 -4 -17 -173 -15 l-180 2 23 63 c27 70 107 232
138 276 23 34 22 36 94 -105z m144 -377 c7 -1 15 -28 34 -113 8 -35 25 -131
25 -138 0 -3 -126 -6 -280 -6 l-281 0 5 25 c6 33 29 144 31 151 1 3 5 22 9 42
6 27 14 38 30 40 17 2 404 1 427 -1z m76 -514 c1 -65 0 -123 -3 -130 -3 -9
-74 -12 -297 -12 l-292 0 -2 120 c-1 66 2 124 7 130 5 6 109 10 297 9 l288 0
2 -117z m-22 -312 c-2 -16 -6 -39 -9 -50 -2 -11 -7 -40 -11 -65 -4 -25 -10
-49 -13 -55 -4 -5 -8 -19 -9 -30 -2 -10 -7 -22 -12 -25 -5 -3 -107 -5 -226 -5
-226 1 -233 2 -236 45 0 8 -2 22 -4 30 -7 28 -26 125 -31 155 l-4 30 280 0
281 1 -6 -31z m-115 -414 c-9 -25 -28 -70 -43 -98 -15 -29 -26 -54 -25 -56 2
-1 -3 -9 -10 -17 -8 -8 -28 -38 -45 -67 -18 -29 -37 -49 -42 -45 -17 11 -89
132 -127 212 -61 129 -75 116 130 117 l178 0 -16 -46z m-47 -891 c51 -56 117
-138 117 -144 0 -3 -106 -6 -236 -6 l-235 0 60 73 c32 40 87 102 120 136 l61
63 45 -48 c25 -27 56 -60 68 -74z m251 -330 c14 -22 27 -43 27 -47 1 -5 10
-21 21 -36 11 -16 17 -31 13 -35 -4 -4 -196 -7 -427 -8 -364 0 -421 2 -426 15
-3 8 0 17 6 19 7 2 12 8 12 13 0 6 16 34 35 64 l35 55 339 0 338 0 27 -40z"/>
<path d="M7476 6025 c-20 -14 -39 -25 -42 -25 -8 0 -154 -149 -174 -176 -61
-85 -110 -197 -135 -309 -13 -59 -14 -236 -2 -302 11 -57 29 -118 39 -130 6
-7 8 -13 4 -13 -7 0 71 -148 87 -165 7 -7 21 -26 32 -41 11 -16 37 -45 59 -66
40 -39 52 -39 94 0 7 6 17 12 22 12 17 0 156 145 192 200 41 63 96 176 102
211 3 13 5 25 7 27 2 2 2 5 13 57 13 62 15 209 5 255 -5 24 -11 54 -13 69 -14
108 -119 293 -218 389 l-34 33 -38 -26z"/>
<path d="M1279 5951 c-105 -115 -137 -189 -144 -336 -4 -87 14 -170 57 -254
35 -69 138 -181 167 -181 24 0 110 94 143 155 102 193 73 427 -73 582 -43 45
-81 77 -96 80 -6 1 -31 -19 -54 -46z"/>
<path d="M205 5938 c-33 -4 -71 -12 -84 -18 -23 -11 -24 -12 -18 -113 3 -56 8
-111 11 -122 29 -119 87 -264 108 -273 4 -2 8 -8 8 -13 0 -34 146 -188 234
-247 156 -105 303 -151 491 -154 35 0 140 13 174 22 l40 11 -3 92 c-5 104 -14
174 -27 199 -5 9 -9 24 -9 32 0 28 -70 169 -117 234 -92 130 -215 228 -358
289 -62 26 -102 39 -195 59 -42 9 -191 10 -255 2z"/>
<path d="M6638 5904 c-2 -1 -21 -5 -43 -8 -45 -7 -79 -13 -82 -16 -2 -2 -7 -4
-13 -5 -5 -1 -11 -3 -12 -5 -2 -1 -11 -3 -20 -5 -35 -6 -146 -75 -198 -122
-80 -72 -167 -203 -185 -282 -3 -9 -9 -36 -15 -61 -17 -71 -14 -249 5 -268 8
-8 130 -9 174 0 278 50 477 247 529 523 12 64 5 232 -11 242 -8 5 -125 12
-129 7z"/>
<path d="M5534 5768 c-16 -5 -40 -11 -54 -14 -25 -5 -167 -72 -205 -96 -80
-52 -210 -187 -246 -255 -8 -15 -16 -30 -20 -33 -12 -11 -53 -120 -74 -195
-43 -154 -25 -366 43 -518 20 -45 23 -47 54 -44 18 3 40 7 48 10 8 2 35 10 60
17 138 38 305 155 397 277 15 21 30 40 33 43 20 18 83 160 105 235 39 134 39
301 -1 435 -9 30 -18 62 -20 73 -2 11 -10 27 -19 37 -8 9 -15 22 -15 28 0 13
-39 13 -86 0z"/>
<path d="M3755 5622 c-54 -39 -148 -266 -162 -392 -16 -145 9 -360 47 -406 7
-7 9 -14 5 -14 -4 0 0 -11 9 -25 9 -14 14 -25 11 -25 -3 0 6 -18 20 -40 14
-22 25 -42 25 -46 0 -11 102 -138 139 -173 66 -61 143 -113 225 -151 121 -56
120 -56 155 -1 26 41 98 188 98 201 0 3 7 37 16 75 8 39 15 77 16 85 6 101 6
160 0 160 -4 0 -5 9 -2 19 3 10 -1 45 -7 78 -44 215 -154 391 -325 523 -57 44
-199 120 -224 120 -10 0 -21 4 -27 10 -5 5 -14 6 -19 2z"/>
<path d="M2132 5067 c-40 -86 -60 -147 -83 -255 -5 -24 -12 -48 -15 -54 -5 -7
-2 -8 6 -3 9 6 11 4 4 -6 -11 -19 -14 -238 -2 -245 4 -3 6 -9 4 -13 -7 -11 22
-146 46 -210 24 -66 50 -121 84 -176 13 -22 27 -47 31 -55 4 -8 9 -17 12 -20
4 -3 18 -21 33 -40 42 -55 109 -123 163 -166 28 -21 52 -42 53 -46 2 -5 10 -8
18 -8 8 0 14 -4 14 -10 0 -5 5 -10 10 -10 6 0 29 -12 51 -26 38 -24 176 -83
209 -89 8 -2 15 -4 15 -6 0 -1 9 -3 20 -5 33 -5 79 -14 92 -19 14 -5 36 19 26
28 -3 4 -2 7 4 7 6 0 13 8 16 18 3 9 15 42 27 72 24 60 40 119 56 205 13 64
10 288 -4 348 -7 34 -15 69 -16 77 -4 27 -28 94 -52 148 -13 29 -24 55 -24 57
0 9 -82 138 -96 152 -8 8 -14 17 -14 21 -1 14 -106 119 -165 165 -33 26 -65
51 -71 56 -66 52 -327 161 -366 153 -4 -1 -18 2 -32 8 -24 9 -27 6 -54 -53z"/>
<path d="M335 4867 c-16 -40 -30 -74 -31 -77 0 -3 -10 -36 -21 -75 -36 -120
-46 -195 -45 -345 0 -164 10 -228 57 -376 104 -327 336 -597 644 -749 79 -39
255 -100 312 -108 19 -3 34 -6 34 -7 0 -1 17 -3 38 -4 22 -1 37 2 37 9 0 6 9
30 20 52 27 56 68 183 75 235 4 23 8 45 10 48 7 12 18 142 18 220 0 106 -10
200 -32 285 -5 22 -10 41 -11 43 0 1 0 3 -1 5 0 1 -2 9 -4 17 -7 36 -71 189
-102 244 -19 34 -39 71 -45 84 -6 12 -15 22 -20 22 -4 0 -8 5 -8 11 0 22 -155
193 -235 259 -88 73 -108 85 -230 150 -98 51 -246 102 -333 115 -15 2 -43 6
-62 9 l-35 5 -30 -72z"/>
<path d="M7858 4835 c-2 -2 -20 -6 -41 -9 -86 -14 -224 -75 -297 -132 -47 -36
-126 -119 -156 -164 -38 -56 -85 -140 -78 -140 2 0 0 -8 -5 -18 -55 -103 -63
-365 -16 -479 14 -33 14 -33 72 -27 32 3 85 12 118 20 67 17 215 83 215 96 0
4 6 8 14 8 14 0 143 122 180 169 45 58 125 233 117 258 0 2 5 20 12 40 8 23
12 77 10 133 -2 109 -4 126 -22 197 l-13 53 -54 -1 c-29 -1 -55 -3 -56 -4z"/>
<path d="M8735 4822 c-295 -51 -533 -224 -654 -477 -13 -27 -28 -57 -32 -67
-10 -19 -36 -118 -46 -173 -8 -44 -7 -242 1 -291 10 -59 57 -193 69 -197 16
-5 150 20 206 39 124 42 256 126 350 223 101 104 196 279 217 398 3 16 9 45
14 66 25 114 -5 359 -56 459 -13 26 -22 28 -69 20z"/>
<path d="M1660 4756 c-34 -35 -67 -72 -73 -82 -6 -11 -13 -21 -17 -24 -16 -11
-80 -149 -96 -205 -26 -91 -27 -273 -3 -359 22 -82 67 -181 105 -233 31 -42
162 -173 174 -173 19 0 106 82 158 149 59 78 114 204 129 297 10 66 5 279 -7
279 -1 0 -4 11 -6 25 -5 30 -43 122 -70 169 -48 85 -179 221 -212 221 -10 0
-47 -29 -82 -64z"/>
<path d="M6587 4754 c-1 -1 -29 -5 -62 -8 -84 -7 -209 -36 -240 -54 -5 -4 -15
-7 -21 -8 -6 -1 -33 -12 -60 -24 -27 -13 -52 -22 -56 -22 -5 1 -8 -2 -8 -8 0
-5 -5 -10 -10 -10 -11 0 -114 -63 -136 -83 -7 -7 -25 -22 -41 -34 -67 -52
-157 -151 -219 -243 -31 -46 -103 -182 -110 -210 -2 -8 -15 -51 -28 -95 -13
-44 -27 -98 -31 -120 -9 -49 -14 -257 -7 -307 4 -34 8 -39 41 -47 88 -21 286
-19 391 3 14 3 39 8 55 12 27 5 115 34 155 51 8 3 17 7 20 8 12 3 106 51 115
58 6 4 39 26 74 50 77 50 200 169 260 250 85 116 182 337 195 447 3 19 5 35 6
35 4 0 11 88 11 160 1 88 -5 157 -15 173 -3 6 -32 14 -64 18 -53 7 -210 13
-215 8z"/>
<path d="M5180 4072 c-83 -28 -244 -201 -266 -286 -3 -14 -9 -26 -13 -26 -4 0
-8 -6 -8 -12 -1 -7 -7 -40 -15 -73 -31 -124 4 -358 62 -415 3 -3 11 -16 18
-30 7 -14 28 -43 47 -64 l33 -40 57 35 c86 51 216 201 230 263 1 6 7 25 14 41
17 41 37 153 35 195 -5 93 -15 151 -33 195 -33 81 -64 136 -98 174 -13 14 -23
29 -23 32 0 10 -23 17 -40 11z"/>
<path d="M1915 3628 c-71 -6 -79 -8 -151 -27 l-42 -11 4 -53 c7 -101 55 -259
91 -299 9 -10 12 -18 7 -18 -5 0 -2 -6 6 -13 8 -7 22 -25 30 -41 23 -45 161
-168 231 -206 127 -69 212 -92 349 -93 112 -1 161 5 225 27 36 13 40 18 41 50
1 47 -16 148 -27 161 -5 5 -9 18 -9 30 0 21 -62 145 -95 190 -46 63 -113 130
-172 172 -62 44 -221 119 -231 108 -3 -2 -11 0 -18 5 -6 6 -16 10 -20 9 -5 -1
-20 1 -34 4 -39 11 -108 13 -185 5z"/>
<path d="M7217 3503 c-1 -1 -22 -4 -47 -6 -25 -3 -45 -6 -45 -7 0 -1 -11 -3
-25 -6 -263 -47 -534 -301 -596 -559 -1 -5 -3 -16 -5 -24 -7 -24 184 -116 261
-127 8 -1 33 -5 55 -10 50 -9 195 -10 255 0 96 15 179 46 290 107 143 78 283
253 346 432 19 54 18 70 -9 84 -147 75 -193 92 -317 109 -42 6 -159 11 -163 7z"/>
<path d="M8396 3503 c-1 -1 -17 -5 -36 -8 -225 -38 -424 -164 -539 -343 -17
-26 -34 -51 -38 -57 -9 -11 -25 -51 -59 -150 -16 -43 -27 -103 -31 -160 -6
-101 -3 -108 57 -119 19 -3 49 -8 65 -11 17 -3 68 -6 115 -6 106 -1 151 6 244
37 28 10 53 17 56 17 9 0 114 60 155 88 126 85 270 278 291 388 3 13 9 31 13
40 5 9 12 36 16 61 4 25 9 53 11 63 9 50 6 107 -6 122 -7 8 -15 13 -18 11 -2
-3 -13 -1 -24 5 -25 14 -261 33 -272 22z"/>
<path d="M145 3368 c-14 -46 -29 -144 -27 -173 3 -37 12 -113 15 -125 14 -57
24 -84 56 -150 66 -137 223 -269 371 -311 62 -17 69 -19 118 -23 39 -3 45 0
54 23 39 100 40 309 2 383 -8 15 -12 28 -9 28 3 0 -11 33 -32 73 -45 86 -153
200 -233 244 -72 41 -171 74 -242 80 l-57 5 -16 -54z"/>
<path d="M6080 2679 c-19 -4 -48 -10 -65 -13 -314 -55 -601 -299 -714 -608
-36 -96 -47 -144 -55 -233 l-4 -50 68 -23 c74 -25 101 -32 141 -36 14 -2 30
-5 35 -8 5 -3 24 -5 42 -4 17 0 32 -1 32 -4 0 -6 93 -4 178 4 210 19 458 143
598 299 64 71 84 97 84 107 0 6 4 10 9 10 9 0 102 177 115 220 11 33 13 40 16
43 1 1 3 10 5 21 2 10 9 39 15 65 6 25 12 67 14 92 l4 47 -57 21 c-32 12 -65
21 -73 21 -8 0 -18 3 -21 7 -4 3 -17 7 -29 9 -13 1 -36 5 -53 9 -45 10 -245
13 -285 4z"/>
<path d="M1240 2641 c-8 -6 -18 -7 -22 -5 -4 3 -36 -2 -70 -11 -35 -9 -67 -18
-73 -19 -5 -2 -23 -8 -40 -15 -189 -77 -332 -198 -449 -379 l-28 -44 47 -45
c67 -64 198 -144 300 -184 31 -12 126 -39 133 -37 4 1 15 -2 25 -7 9 -4 26 -5
37 -2 11 3 22 2 24 -2 6 -9 153 -6 226 4 133 18 322 100 425 185 86 71 235
253 235 287 0 41 -262 212 -365 239 -5 1 -37 10 -70 19 -68 19 -311 30 -335
16z"/>
<path d="M3397 2604 c-1 -1 -15 -5 -32 -7 -246 -44 -451 -198 -571 -427 -16
-30 -30 -63 -31 -73 -2 -10 -8 -28 -15 -40 -7 -12 -13 -31 -14 -42 -1 -11 -7
-42 -12 -69 -15 -73 -11 -219 7 -295 l16 -66 85 2 c46 0 114 9 150 18 142 38
301 132 385 227 20 24 45 52 54 63 66 76 147 274 155 381 3 32 6 61 6 64 8 24
-6 156 -22 223 l-12 48 -74 -3 c-40 -1 -74 -3 -75 -4z"/>
<path d="M7304 2395 c-140 -25 -277 -77 -389 -148 -73 -47 -82 -54 -170 -142
-87 -88 -115 -120 -115 -134 0 -5 -4 -11 -9 -13 -5 -1 -30 -43 -56 -92 l-48
-88 40 -37 c99 -92 318 -194 467 -218 52 -9 299 -9 348 0 99 17 253 72 320
114 21 12 40 23 43 23 3 0 20 10 37 23 143 102 271 250 344 400 l29 59 -50 44
c-28 24 -55 44 -61 44 -6 0 -17 7 -24 15 -7 8 -51 33 -99 56 -93 45 -154 66
-248 85 -13 2 -35 7 -50 10 -57 11 -240 11 -309 -1z"/>
<path d="M1767 1774 c-1 -1 -31 -5 -66 -8 -35 -3 -66 -8 -70 -11 -4 -2 -22 -7
-41 -10 -91 -16 -235 -79 -335 -146 -72 -48 -185 -150 -185 -166 0 -11 63 -88
105 -126 49 -46 143 -117 153 -117 6 0 12 -4 14 -9 3 -9 124 -73 144 -77 6 -1
27 -9 45 -17 42 -18 116 -38 209 -55 51 -9 266 -8 330 1 71 11 95 15 95 17 0
1 7 3 15 5 74 15 290 110 290 127 0 4 5 8 11 8 15 0 82 53 148 116 53 50 54
53 39 76 -18 27 -109 122 -153 158 -116 97 -324 193 -465 214 -19 3 -48 8 -63
11 -28 6 -215 13 -220 9z"/>
<path d="M3219 1485 c-41 -13 -91 -30 -110 -40 -66 -34 -152 -109 -203 -177
l-27 -36 44 -44 c24 -24 55 -52 68 -63 32 -27 147 -84 181 -90 15 -3 38 -9 50
-13 13 -5 59 -10 103 -11 163 -5 311 55 433 176 40 40 72 81 72 91 0 47 -158
163 -275 202 -99 33 -233 35 -336 5z"/>
<path d="M5286 1443 c-2 -2 -13 -5 -24 -8 -82 -15 -218 -99 -266 -163 -16 -21
-16 -25 -2 -47 44 -68 154 -144 248 -172 68 -21 197 -25 258 -9 14 4 30 8 35
9 60 14 194 109 229 162 16 25 16 26 -41 84 -48 48 -152 121 -173 120 -3 0
-12 2 -20 5 -54 20 -229 33 -244 19z"/>
<path d="M6555 1309 c-22 -5 -58 -14 -80 -21 -22 -6 -46 -13 -54 -14 -25 -5
-134 -65 -186 -103 -74 -54 -154 -144 -204 -230 -12 -22 -10 -27 30 -66 24
-22 58 -50 74 -62 45 -30 145 -83 145 -76 0 3 6 1 13 -5 17 -14 128 -42 185
-47 26 -2 49 -4 52 -5 3 -1 8 -2 12 -1 5 0 36 3 70 5 35 2 86 9 113 15 52 12
171 57 193 74 7 5 26 17 42 26 81 44 250 233 250 280 0 19 -46 60 -131 117
-79 52 -166 88 -263 110 -39 9 -221 11 -261 3z"/>
<path d="M2598 965 c-2 -2 -32 -6 -66 -9 -35 -3 -82 -11 -105 -17 -23 -6 -46
-12 -52 -14 -42 -9 -185 -80 -217 -108 -14 -12 -42 -35 -62 -52 -20 -16 -43
-40 -51 -52 -13 -20 -10 -25 45 -81 81 -83 167 -140 275 -182 57 -23 170 -47
213 -46 23 0 42 -1 42 -4 0 -12 168 5 245 25 60 16 235 93 235 104 0 3 17 17
37 31 41 28 102 90 103 104 0 17 -123 131 -180 167 -67 42 -153 83 -200 94 -3
1 -24 7 -46 13 -23 7 -75 15 -115 18 -41 3 -79 7 -86 9 -6 2 -13 2 -15 0z"/>
<path d="M5538 735 c-1 -2 -19 -6 -38 -8 -19 -3 -35 -6 -35 -7 0 -1 -10 -3
-22 -6 -68 -12 -197 -88 -262 -153 -77 -77 -76 -76 -50 -113 37 -53 129 -138
149 -138 6 0 10 -3 10 -7 0 -5 12 -14 28 -21 161 -80 295 -100 457 -68 99 20
238 101 316 184 l59 62 -23 27 c-62 75 -163 163 -186 163 -6 0 -11 3 -11 8 0
8 -128 58 -175 68 -34 7 -211 15 -217 9z"/>
</g>
</svg>
