<?xml version="1.0" standalone="no"?>
<!DOCTYPE svg PUBLIC "-//W3C//DTD SVG 20010904//EN"
 "http://www.w3.org/TR/2001/REC-SVG-20010904/DTD/svg10.dtd">
<svg version="1.0" xmlns="http://www.w3.org/2000/svg"
 width="992.000000pt" height="992.000000pt" viewBox="0 0 992.000000 992.000000"
 preserveAspectRatio="xMidYMid meet">
<metadata>
Created by potrace 1.11, written by Peter Selinger 2001-2013
</metadata>
<g transform="translate(0.000000,992.000000) scale(0.100000,-0.100000)"
fill="#000000" stroke="none">
<path d="M8137 9647 c-9 -18 -27 -59 -42 -92 -32 -69 -69 -150 -115 -250 -18
-38 -34 -72 -35 -75 -5 -14 -26 -62 -59 -132 -31 -66 -39 -76 -58 -73 -12 3
-26 9 -32 15 -5 5 -19 10 -31 10 -12 0 -25 4 -30 9 -8 7 -132 52 -155 56 -3 1
-44 14 -92 29 -49 15 -94 29 -100 30 -7 2 -33 9 -58 16 -50 15 -55 16 -90 25
-61 16 -107 27 -135 31 -16 3 -37 8 -45 11 -8 3 -22 7 -30 8 -8 1 -28 5 -45 9
-35 7 -62 12 -145 26 -33 6 -72 12 -87 15 -48 8 -186 27 -233 31 -25 3 -67 7
-95 10 -124 12 -257 17 -475 17 -282 1 -441 -9 -655 -38 -16 -3 -50 -7 -75
-10 -25 -3 -97 -15 -160 -26 -63 -11 -126 -22 -140 -24 -14 -2 -25 -4 -25 -5
0 -2 -16 -6 -60 -14 -28 -5 -53 -11 -92 -20 -10 -2 -49 -13 -88 -24 -38 -11
-74 -20 -80 -21 -14 -2 -87 -22 -105 -29 -8 -3 -19 -6 -25 -7 -24 -6 -323
-109 -355 -123 -19 -9 -40 -16 -46 -18 -11 -2 -140 -57 -188 -80 -16 -8 -35
-14 -43 -14 -7 0 -13 -4 -13 -10 0 -5 -6 -10 -14 -10 -18 0 -312 -150 -446
-228 -114 -66 -106 -66 -150 -2 -66 97 -381 525 -389 528 -6 2 -55 -31 -168
-114 -13 -9 -30 -22 -38 -28 -13 -9 4 -37 110 -181 70 -93 134 -181 143 -195
9 -14 27 -38 39 -55 29 -38 26 -33 103 -140 35 -49 68 -91 72 -93 4 -2 8 -10
8 -17 0 -7 3 -15 8 -17 4 -1 24 -29 45 -60 34 -52 67 -75 67 -48 0 6 5 10 10
10 6 0 16 5 23 10 56 47 74 60 85 60 6 0 12 4 12 8 0 5 10 14 23 20 12 6 45
25 72 42 28 17 61 36 75 43 14 6 27 14 30 17 16 17 286 155 401 205 57 25 113
50 124 55 69 31 115 48 115 43 0 -3 7 1 16 8 9 7 21 14 28 15 6 1 64 21 129
44 65 23 126 43 135 46 9 2 55 15 102 29 81 25 288 79 340 89 14 3 36 8 50 11
14 3 39 7 56 9 16 2 39 6 50 9 28 9 74 17 119 22 22 3 51 7 65 10 14 3 48 7
75 10 28 3 61 7 75 10 14 2 66 7 115 10 50 4 105 8 123 10 20 3 32 0 33 -8 1
-7 2 -48 4 -92 2 -44 4 -80 4 -80 1 0 4 -74 7 -165 2 -91 6 -203 8 -250 4 -99
1 -113 -24 -100 -9 5 -19 7 -21 5 -3 -2 -35 -6 -72 -10 -37 -3 -82 -7 -100 -9
-18 -3 -54 -8 -82 -11 -93 -12 -120 -16 -150 -24 -16 -4 -42 -7 -57 -7 -16 1
-28 -2 -28 -6 0 -4 -10 -8 -22 -8 -13 0 -70 -12 -128 -26 -58 -13 -114 -27
-125 -29 -32 -6 -168 -45 -190 -55 -11 -5 -45 -16 -75 -25 -30 -9 -62 -19 -70
-22 -8 -4 -17 -7 -20 -7 -16 -4 -215 -83 -268 -107 -34 -16 -64 -29 -67 -29
-3 0 -37 -16 -75 -35 -38 -19 -73 -35 -76 -34 -4 0 -10 -3 -13 -8 -3 -4 -26
-18 -51 -31 -76 -40 -125 -67 -130 -73 -3 -3 -25 -15 -48 -27 -42 -22 -276
-173 -317 -206 -11 -9 -63 -48 -115 -88 -52 -40 -100 -77 -106 -83 -6 -5 -38
-32 -69 -60 -94 -81 -105 -91 -210 -195 -103 -102 -216 -223 -256 -275 -13
-17 -28 -35 -34 -41 -5 -6 -21 -26 -35 -44 -14 -18 -30 -38 -35 -44 -26 -27
-195 -267 -195 -276 0 -5 -4 -10 -10 -10 -5 0 -10 -5 -10 -10 0 -6 -20 -41
-45 -79 -25 -38 -45 -73 -45 -80 0 -6 -3 -11 -7 -11 -5 0 -13 -10 -19 -23 -6
-12 -38 -73 -72 -135 -93 -174 -228 -491 -272 -638 l-12 -41 -47 14 c-25 8
-50 16 -56 17 -5 1 -30 9 -55 16 -25 7 -48 13 -52 12 -4 -1 -24 6 -45 14 -21
9 -47 18 -58 19 -11 2 -45 11 -75 20 -30 9 -62 18 -70 20 -74 20 -196 58 -202
63 -6 6 18 83 68 217 8 22 16 45 18 50 10 34 118 289 125 295 3 3 6 10 6 15 1
13 64 142 86 175 9 14 17 27 17 30 0 12 26 60 32 60 4 0 7 6 7 13 0 13 99 188
145 254 15 23 28 47 28 53 0 6 7 13 15 16 8 4 15 12 15 19 0 8 6 20 13 27 7 7
48 65 92 128 43 63 83 118 88 121 5 4 1 15 -10 25 -22 21 -153 112 -253 176
-36 23 -66 45 -68 50 -2 4 -8 8 -13 8 -12 0 -132 82 -137 93 -2 4 -9 7 -16 7
-7 0 -21 8 -32 18 -10 9 -55 41 -99 70 -44 28 -87 57 -95 62 -8 6 -44 31 -79
55 -36 25 -65 44 -66 42 -1 -1 -36 -52 -77 -113 l-76 -111 46 -30 c26 -17 114
-77 195 -132 82 -56 153 -101 158 -101 5 0 9 -3 9 -7 0 -5 32 -28 70 -52 39
-24 70 -48 70 -52 0 -5 5 -9 10 -9 16 0 80 -44 80 -55 0 -8 -68 -118 -121
-195 -31 -46 -139 -244 -202 -370 -40 -80 -76 -148 -80 -151 -5 -3 -8 -8 -7
-10 2 -5 -15 -49 -43 -112 -13 -29 -45 -108 -72 -177 -26 -69 -51 -132 -55
-141 -11 -21 -33 -104 -29 -105 2 0 -1 -7 -7 -15 -6 -8 -16 -34 -24 -59 -7
-25 -19 -63 -25 -85 -13 -40 -34 -116 -40 -145 -2 -8 -11 -40 -19 -72 -8 -31
-17 -68 -20 -82 -3 -14 -7 -34 -10 -44 -3 -9 -7 -28 -10 -42 -3 -14 -7 -36
-10 -50 -30 -135 -69 -394 -81 -540 -3 -36 -8 -87 -11 -115 -2 -27 -6 -160 -9
-294 -2 -134 -7 -246 -10 -250 -3 -3 -25 -6 -48 -7 -23 -1 -87 -4 -142 -8
-132 -9 -241 -15 -345 -22 -47 -3 -105 -7 -130 -9 -25 -2 -57 -4 -73 -4 l-27
-1 6 -92 c3 -51 7 -110 9 -131 2 -37 20 -61 37 -51 4 3 31 7 60 9 85 6 252 16
333 20 42 2 80 7 85 10 6 3 10 0 10 -7 0 -8 3 -9 8 -3 4 6 34 10 67 10 33 -1
64 1 69 4 5 2 50 6 100 7 50 2 127 6 171 8 44 3 86 5 93 5 10 1 11 28 5 129
-9 160 -9 439 0 602 8 136 8 131 32 334 3 24 8 54 10 67 3 13 7 41 10 64 3 22
8 51 10 65 3 14 7 41 10 60 3 19 8 42 10 50 2 8 7 31 11 50 8 45 12 65 14 65
1 0 4 11 7 25 2 14 6 30 7 35 2 6 6 27 11 48 4 20 11 37 16 37 6 0 288 -79
374 -104 6 -2 13 -4 17 -5 4 -1 22 -7 40 -12 18 -6 69 -21 113 -34 44 -13 112
-33 150 -45 39 -11 77 -23 85 -24 8 -2 35 -10 60 -17 86 -24 79 -32 135 156
55 182 88 276 128 368 14 31 23 57 20 57 -3 0 1 8 10 18 10 10 14 22 10 25 -3
4 -2 7 4 7 5 0 10 6 10 13 0 12 73 167 83 177 3 3 18 32 35 65 16 33 32 62 35
65 3 3 19 31 35 62 17 32 33 58 37 58 5 0 7 3 6 8 -3 10 198 311 222 332 3 3
17 21 30 40 14 19 34 45 45 57 11 12 36 42 55 65 128 155 335 358 510 502 52
42 106 86 118 97 13 10 28 19 33 19 5 0 9 5 9 10 0 6 6 10 14 10 8 0 16 4 18
8 2 5 60 47 130 94 115 77 128 84 141 69 23 -27 97 -150 97 -161 0 -5 4 -10 8
-10 4 0 20 -24 35 -52 16 -29 42 -75 59 -101 17 -26 29 -49 27 -51 -2 -1 -44
-29 -94 -61 -75 -49 -121 -81 -210 -147 -123 -91 -383 -335 -495 -463 -99
-113 -280 -354 -280 -373 0 -6 -4 -12 -9 -14 -9 -4 -111 -166 -111 -178 0 -4
-7 -13 -15 -20 -8 -7 -15 -21 -15 -30 0 -10 -4 -20 -9 -22 -16 -6 -148 -288
-196 -418 -15 -41 -31 -84 -35 -95 -4 -11 -8 -24 -10 -30 -1 -5 -7 -21 -12
-35 -22 -56 -78 -260 -71 -260 3 0 1 -6 -4 -12 -6 -7 -11 -20 -11 -28 0 -16
-7 -49 -16 -78 -6 -19 -12 -55 -22 -121 -4 -25 -8 -55 -10 -66 -26 -136 -36
-272 -37 -515 -1 -245 10 -388 48 -595 3 -16 7 -43 10 -60 3 -16 7 -41 10 -55
3 -14 7 -36 10 -50 3 -14 12 -50 20 -80 22 -81 27 -75 -75 -105 -3 -1 -12 -4
-20 -8 -43 -17 -247 -89 -260 -92 -8 -2 -27 -8 -42 -14 -16 -6 -28 -9 -28 -7
0 2 -11 48 -24 102 -14 54 -27 113 -30 129 -3 17 -8 41 -11 55 -3 14 -8 41
-11 60 -3 19 -9 60 -14 90 -5 30 -12 71 -15 90 -19 119 -21 124 -38 113 -7 -4
-23 -9 -37 -9 -14 -1 -25 -3 -25 -4 0 -1 -11 -3 -25 -5 -24 -3 -60 -8 -143
-21 -23 -3 -44 -7 -47 -9 -3 -2 -26 -6 -50 -10 -25 -3 -52 -8 -60 -10 -8 -2
-31 -7 -50 -10 -19 -3 -71 -12 -115 -20 -44 -8 -98 -17 -120 -20 -23 -3 -52
-7 -65 -10 -51 -10 -136 -25 -170 -30 -19 -2 -44 -6 -55 -9 -11 -2 -25 -5 -31
-5 -12 -1 -12 -41 -1 -96 7 -31 18 -107 22 -138 3 -34 18 -37 95 -23 41 8 93
17 115 20 22 2 61 9 87 15 27 6 51 11 55 10 5 -1 10 0 13 1 13 5 48 11 82 14
21 3 52 8 70 12 34 7 46 9 108 18 19 3 57 10 85 15 27 5 51 8 53 6 4 -4 30
-130 36 -170 2 -16 6 -37 10 -45 3 -8 8 -26 10 -40 3 -14 5 -27 6 -30 1 -3 3
-9 5 -15 1 -5 3 -12 4 -15 2 -3 4 -12 6 -20 10 -48 38 -147 65 -225 17 -49 31
-92 31 -95 5 -19 91 -240 124 -315 15 -33 60 -127 101 -209 58 -114 72 -151
62 -157 -7 -5 -16 -9 -20 -9 -4 0 -14 -7 -22 -16 -9 -9 -23 -17 -31 -18 -8 -1
-22 -9 -32 -18 -19 -16 -59 -39 -105 -60 -16 -7 -28 -16 -28 -20 0 -4 -7 -8
-15 -8 -8 0 -15 -5 -15 -11 0 -5 -4 -8 -9 -5 -5 3 -14 -1 -21 -9 -7 -8 -16
-15 -21 -15 -4 0 -51 -27 -103 -60 -53 -32 -96 -56 -96 -53 0 3 -8 -1 -17 -9
-10 -8 -51 -34 -90 -57 -40 -23 -73 -48 -73 -56 0 -8 5 -15 10 -15 6 0 10 -5
10 -11 0 -20 105 -189 118 -189 7 0 45 20 85 43 39 24 106 64 147 88 41 24 84
49 95 56 11 7 27 15 35 19 8 4 33 19 55 33 22 14 49 30 60 36 41 23 362 209
417 241 l56 34 -44 78 c-56 96 -62 107 -97 161 -53 86 -166 325 -227 483 -43
110 -47 128 -27 128 6 0 62 19 122 41 61 22 115 41 120 42 6 1 24 8 40 14 55
20 70 26 80 29 6 2 71 23 144 48 74 25 141 46 147 46 24 0 23 17 -6 111 -17
52 -32 103 -35 114 -2 11 -11 45 -20 75 -8 30 -17 66 -20 80 -10 51 -15 76
-20 100 -11 52 -15 76 -20 110 -2 19 -7 58 -11 85 -21 155 -26 238 -26 415 0
91 3 194 6 230 4 36 9 90 12 120 2 30 6 69 9 85 2 17 7 48 10 70 7 43 11 67
19 101 2 12 7 38 10 59 4 20 8 40 11 44 4 7 6 18 21 89 7 37 44 162 54 187 16
37 44 130 42 138 -4 13 35 7 84 -14 27 -11 58 -24 69 -29 11 -4 41 -17 67 -29
26 -12 52 -21 58 -21 5 0 25 -9 44 -19 19 -11 37 -17 40 -14 10 10 7 -13 -5
-44 -6 -15 -12 -35 -14 -43 -2 -8 -13 -52 -24 -98 -32 -122 -56 -249 -66 -342
-2 -19 -7 -55 -9 -80 -16 -136 -22 -428 -12 -580 7 -95 16 -194 21 -220 3 -14
8 -41 11 -60 2 -19 9 -58 15 -86 5 -28 12 -62 14 -77 3 -15 9 -37 15 -51 5
-13 6 -26 3 -29 -3 -3 -1 -12 3 -19 5 -7 10 -24 12 -37 2 -13 9 -36 17 -51 8
-15 12 -30 9 -32 -3 -3 0 -16 5 -29 15 -38 85 -223 86 -229 4 -16 31 -66 40
-72 5 -4 6 -8 2 -8 -7 0 34 -81 106 -210 32 -58 147 -227 162 -240 8 -7 15
-17 15 -23 0 -5 11 -20 25 -33 14 -13 25 -27 25 -31 0 -5 8 -15 18 -24 9 -8
32 -33 50 -55 18 -21 59 -66 92 -99 l58 -60 -46 -52 c-26 -29 -64 -72 -84 -96
-20 -23 -48 -54 -60 -68 -13 -14 -34 -38 -46 -53 -12 -16 -50 -60 -84 -98 -35
-39 -66 -75 -69 -80 -6 -9 -83 27 -114 52 -5 5 -13 9 -17 9 -4 1 -13 3 -20 6
-7 2 -34 11 -61 19 -46 15 -133 21 -190 12 -39 -6 -110 -53 -133 -90 -36 -54
-47 -103 -40 -174 4 -36 11 -70 15 -76 5 -6 10 -14 10 -19 6 -65 132 -230 247
-326 65 -52 212 -139 251 -146 10 -2 18 -4 18 -5 0 -7 55 -13 130 -14 84 -1
93 1 137 29 27 17 48 33 48 36 0 3 11 18 25 33 13 14 22 26 20 26 -2 0 1 15 6
33 15 48 11 128 -10 189 -22 64 -33 84 -84 155 -43 60 -43 62 -19 89 16 18
118 135 169 194 12 14 33 39 48 55 14 17 54 63 88 102 34 40 65 73 70 73 5 0
31 -18 57 -40 26 -22 51 -40 55 -40 3 0 13 -6 20 -12 26 -24 40 -33 78 -53 20
-11 37 -22 37 -26 0 -3 18 -14 40 -24 22 -10 40 -23 40 -28 0 -6 3 -7 7 -4 3
4 11 3 17 -2 32 -26 320 -158 361 -165 12 -2 31 -9 41 -15 15 -8 113 -42 134
-46 63 -13 120 -30 120 -36 0 -13 -21 -113 -27 -129 -3 -8 -7 -22 -8 -30 -1
-8 -10 -49 -20 -91 l-18 -77 -76 -12 c-136 -21 -232 -63 -304 -132 -91 -89
-128 -172 -127 -288 1 -30 1 -63 1 -72 0 -10 4 -18 9 -18 5 0 7 -6 4 -13 -5
-13 58 -145 74 -157 4 -3 20 -20 35 -38 15 -19 27 -31 27 -28 0 3 16 -10 35
-29 19 -19 37 -35 40 -35 2 0 26 -13 53 -30 55 -34 186 -91 213 -93 10 -1 19
-4 19 -7 0 -4 6 -7 13 -7 6 -1 44 -9 82 -18 97 -23 301 -28 390 -9 210 44 360
186 383 362 9 65 -2 153 -24 196 -7 16 -14 35 -14 43 0 7 -4 13 -10 13 -5 0
-10 6 -10 13 0 22 -99 125 -166 173 -46 33 -63 51 -60 63 20 62 54 225 50 232
-3 5 0 9 5 9 6 0 10 3 9 7 -2 8 9 75 17 103 4 13 37 15 212 16 224 1 363 9
498 29 22 3 57 8 77 10 21 3 57 9 80 14 31 7 39 6 27 -1 -15 -10 -12 -22 23
-112 22 -56 41 -108 44 -116 2 -8 22 -63 45 -123 l41 -107 -28 -23 c-27 -20
-92 -86 -121 -121 -24 -29 -70 -122 -83 -169 -13 -48 -17 -154 -7 -192 3 -11
6 -20 7 -20 1 0 3 -7 5 -16 13 -69 115 -188 194 -229 100 -50 276 -76 386 -55
129 24 192 40 209 54 7 6 15 9 18 6 7 -7 130 49 202 92 169 102 296 254 322
385 11 54 11 141 1 173 -21 66 -51 131 -69 147 -10 9 -18 19 -18 23 0 10 -34
40 -86 75 -72 51 -197 83 -321 83 -47 0 -52 2 -58 25 -3 14 -14 42 -22 61 -9
20 -17 38 -17 41 -2 7 -36 100 -46 125 -4 11 -15 36 -23 55 -8 19 -20 52 -25
73 -9 33 -8 39 6 44 117 39 469 245 558 328 6 5 54 46 107 90 53 44 96 86 96
93 1 6 5 12 10 12 5 0 31 23 58 50 l48 50 27 -22 c34 -29 47 -40 143 -118 44
-35 82 -67 85 -70 3 -3 27 -24 55 -45 27 -22 55 -44 61 -49 7 -7 0 -31 -25
-80 -47 -95 -50 -103 -61 -162 -13 -71 -6 -152 16 -199 43 -92 104 -128 214
-129 41 -1 84 3 95 8 11 5 29 11 40 13 10 2 22 7 25 11 3 4 22 15 42 26 20 10
46 27 58 38 11 10 20 16 20 13 0 -7 145 139 172 172 9 12 21 30 27 41 6 11 17
26 24 34 11 11 55 97 78 153 51 123 39 270 -27 345 -56 62 -159 88 -249 63
-28 -7 -57 -15 -65 -17 -26 -7 -128 -71 -163 -103 -38 -34 -30 -37 -122 42
-34 30 -149 123 -180 148 -5 4 -30 25 -55 47 -25 22 -49 40 -53 40 -10 0 21
56 46 84 17 20 16 21 -25 42 -24 12 -46 23 -50 23 -4 1 -47 21 -95 45 -49 24
-144 69 -213 101 -69 32 -168 78 -220 103 -52 25 -97 46 -100 47 -3 0 -32 14
-65 30 -208 99 -322 151 -332 150 -6 0 -40 -25 -75 -56 -168 -151 -376 -277
-573 -346 -16 -6 -39 -14 -50 -19 -32 -11 -35 -12 -140 -39 -101 -25 -125 -29
-250 -44 -70 -8 -370 -6 -435 3 -28 4 -115 17 -140 21 -3 0 -9 3 -15 6 -5 4
-18 5 -27 4 -10 -2 -18 1 -18 6 0 4 -6 6 -12 4 -16 -6 -293 89 -308 106 -3 3
-21 13 -40 22 -62 30 -157 92 -220 142 -64 52 -210 209 -256 276 -60 87 -114
184 -114 205 0 8 -3 14 -8 14 -4 0 -13 12 -19 28 -20 43 -72 206 -78 242 -3
18 -8 36 -10 40 -2 4 -7 21 -10 39 -3 18 -7 38 -8 43 -1 6 9 14 23 17 14 3
976 6 2138 6 l2112 -1 1 35 c5 236 -2 547 -15 606 -2 11 -7 53 -10 94 -4 41
-9 77 -11 80 -2 3 -6 31 -10 61 -10 77 -18 122 -30 159 -4 14 3 21 27 31 18 6
42 16 53 21 58 25 232 89 243 89 6 0 12 4 12 8 0 5 22 14 50 21 l49 13 68 -69
c144 -147 282 -197 443 -160 148 33 272 170 309 342 16 77 6 266 -20 360 -12
44 -22 86 -22 93 0 6 -4 12 -9 12 -4 0 -8 8 -8 18 0 22 -100 222 -111 222 -5
0 -9 5 -9 11 0 13 -57 86 -105 134 -122 123 -293 180 -430 145 -56 -15 -115
-41 -115 -52 0 -5 -4 -7 -9 -4 -12 8 -97 -80 -126 -129 -47 -79 -68 -166 -69
-281 -1 -69 -1 -72 -31 -85 -16 -7 -32 -14 -35 -15 -3 0 -18 -6 -35 -13 -16
-6 -50 -19 -75 -28 -25 -9 -51 -21 -57 -26 -7 -5 -13 -6 -13 -3 0 4 -10 1 -22
-6 -13 -6 -27 -13 -33 -14 -5 -2 -33 -12 -62 -23 l-52 -21 -41 83 c-22 45 -54
105 -71 132 -16 28 -32 58 -36 68 -3 9 -9 17 -14 17 -5 0 -9 7 -9 15 0 8 -4
15 -8 15 -5 0 -14 11 -20 25 -10 22 -85 129 -102 145 -3 3 -17 21 -31 40 -28
37 -38 48 -125 146 -31 34 -56 66 -56 70 -1 4 80 88 180 188 154 155 183 180
199 171 10 -5 20 -13 23 -17 10 -12 158 -87 187 -94 15 -4 62 -8 104 -10 68
-2 81 0 127 27 147 84 157 279 23 484 -43 66 -186 225 -202 225 -4 0 -20 11
-35 25 -15 14 -39 31 -53 38 -14 8 -43 24 -64 36 -21 11 -47 23 -57 24 -11 2
-22 6 -26 10 -6 5 -121 23 -134 20 -3 -1 -23 -4 -45 -7 -145 -23 -218 -182
-162 -356 11 -36 23 -67 26 -70 3 -3 17 -25 30 -50 14 -25 31 -51 39 -59 16
-16 25 -5 -211 -239 -143 -143 -171 -164 -187 -144 -10 14 -182 137 -235 169
-155 93 -252 142 -427 217 -50 21 -115 42 -139 45 -15 1 -13 13 47 256 20 83
39 153 43 156 3 4 33 9 66 13 254 25 426 178 441 391 8 123 -36 233 -134 333
-91 94 -168 143 -307 195 -144 54 -229 69 -395 69 -115 0 -158 -4 -178 -15 -6
-5 -12 -6 -12 -3 0 9 -104 -32 -154 -60 -59 -33 -158 -140 -164 -179 -2 -11
-8 -24 -12 -30 -13 -16 -28 -112 -23 -158 11 -119 50 -199 144 -295 34 -36
100 -87 122 -95 20 -8 18 -29 -13 -152 -12 -44 -23 -91 -26 -105 -3 -14 -8
-34 -11 -45 -4 -11 -8 -26 -9 -33 -1 -7 -8 -34 -15 -61 l-12 -48 -41 3 c-122
9 -271 16 -346 16 -100 0 -304 -10 -339 -17 -13 -2 -47 -7 -75 -10 -55 -6 -80
-9 -140 -20 -21 -4 -48 -8 -60 -9 -12 -1 -27 -6 -34 -10 -7 -4 -12 -5 -12 -2
0 2 -39 -6 -87 -20 -49 -14 -99 -27 -112 -30 -13 -3 -32 -9 -41 -14 -9 -5 -28
-11 -41 -14 -33 -7 -159 -57 -251 -100 -42 -20 -81 -36 -87 -36 -5 0 -11 -3
-13 -7 -1 -5 -23 -18 -47 -31 -64 -33 -105 -56 -111 -63 -3 -3 -23 -16 -45
-29 -56 -33 -253 -181 -317 -237 -73 -65 -248 -243 -278 -283 -14 -18 -35 -42
-47 -53 -13 -11 -23 -27 -23 -34 0 -7 -4 -13 -8 -13 -24 0 -228 -319 -302
-475 -23 -47 -43 -85 -46 -85 -5 0 -326 130 -337 137 -14 9 141 288 241 433
64 92 193 256 246 314 25 27 46 50 46 52 0 5 139 142 202 199 67 61 84 75 173
145 39 30 72 57 75 60 7 8 228 153 270 177 44 26 104 60 153 86 20 12 37 24
37 27 0 15 -122 230 -131 230 -5 0 -8 3 -7 8 1 4 -5 18 -14 32 -41 63 -208
343 -208 350 0 6 85 48 228 113 26 12 50 20 55 19 4 -1 7 3 7 9 0 5 4 8 8 5 5
-3 19 1 33 8 26 13 194 76 219 81 8 2 29 9 45 15 36 14 23 10 210 60 83 22
166 42 185 45 19 3 42 7 50 10 8 2 31 6 50 9 19 3 44 7 55 10 26 5 112 18 150
22 93 12 117 14 185 19 120 8 231 14 294 14 l58 1 -7 183 c-14 348 -15 383
-20 517 -3 74 -7 160 -9 191 -2 31 -1 60 2 66 8 11 161 11 180 0 7 -5 12 -3
12 3 0 6 4 9 8 6 5 -3 53 -8 108 -11 54 -3 117 -8 139 -10 158 -16 215 -22
270 -32 22 -3 51 -7 65 -8 14 -2 25 -3 25 -4 0 -2 11 -4 25 -7 14 -2 37 -6 53
-9 15 -3 42 -7 60 -10 17 -3 50 -10 72 -15 22 -6 51 -12 65 -15 14 -2 63 -14
110 -26 47 -11 92 -22 100 -24 8 -2 26 -8 40 -13 14 -5 28 -10 33 -10 45 -2
492 -163 587 -212 21 -11 40 -16 44 -13 3 4 6 1 6 -5 0 -7 10 -12 23 -12 18 0
28 16 61 93 22 50 57 130 79 177 62 135 71 155 69 163 -1 4 2 7 8 7 6 0 10 5
10 10 0 6 39 95 86 198 47 103 92 201 100 219 l13 31 -46 22 c-48 23 -94 42
-103 45 -3 0 -15 6 -27 13 -59 33 -70 33 -86 -1z m185 -2565 c73 -37 218 -170
218 -199 0 -7 4 -13 8 -13 10 0 52 -73 52 -89 0 -15 -87 30 -123 63 -15 14
-30 26 -33 26 -20 0 -164 190 -164 216 0 17 -1 18 42 -4z m-2248 -1167 c81 -3
159 -12 225 -26 25 -5 56 -11 67 -13 33 -6 196 -63 261 -91 54 -24 212 -112
223 -125 3 -3 24 -18 46 -33 70 -47 189 -159 250 -232 44 -54 114 -152 114
-160 0 -2 13 -26 28 -52 27 -47 78 -165 100 -231 l11 -33 -62 0 c-34 1 -69 1
-77 0 -8 0 -51 0 -95 0 -44 0 -87 0 -95 0 -8 -1 -31 -1 -50 0 -19 1 -42 1 -50
0 -8 -1 -51 -1 -95 0 -44 0 -87 1 -95 0 -8 0 -51 0 -95 0 -44 0 -87 0 -95 0
-8 -1 -31 -1 -50 0 -19 1 -42 1 -50 0 -8 -1 -51 -1 -95 0 -44 0 -87 1 -95 0
-8 0 -51 0 -95 0 -44 0 -87 0 -95 0 -8 -1 -31 -1 -50 0 -19 1 -42 1 -50 0 -8
-1 -51 -1 -95 0 -44 0 -87 1 -95 0 -8 0 -51 0 -95 0 -44 0 -87 0 -95 0 -8 -1
-31 -1 -50 0 -19 1 -42 1 -50 0 -8 -1 -51 -1 -95 0 -44 0 -87 1 -95 0 -8 0
-51 0 -95 0 -44 0 -87 0 -95 0 -8 -1 -31 -1 -50 0 -19 1 -42 1 -50 0 -8 -1
-51 -1 -95 0 -44 0 -87 1 -95 0 -8 0 -51 0 -95 0 -44 0 -88 0 -97 0 -10 0 -33
1 -50 2 -18 0 -37 0 -43 -1 -5 -1 -22 -2 -36 -1 l-26 1 33 70 c19 39 33 73 33
76 0 4 3 10 8 13 4 3 21 31 37 61 17 30 45 79 63 107 18 29 33 56 32 59 0 4 4
10 9 13 5 3 27 29 47 56 68 90 157 181 227 232 86 63 328 201 328 188 0 -2 28
8 62 22 35 14 69 27 78 29 8 2 49 12 90 23 41 11 93 22 115 26 22 3 53 8 69
11 17 3 74 7 129 9 54 2 101 6 104 9 3 3 10 3 16 -1 6 -3 42 -7 81 -8z m2908
-3842 c-5 -10 -22 -44 -37 -77 -16 -32 -35 -61 -42 -63 -7 -3 -13 -10 -13 -17
0 -25 -163 -176 -191 -176 -12 0 6 52 36 105 48 87 103 151 183 212 48 37 78
44 64 16z m-5644 -475 c7 -7 12 -9 12 -5 0 9 112 -61 122 -77 4 -6 8 -8 8 -4
0 11 104 -101 140 -150 17 -24 29 -46 26 -49 -3 -3 -21 2 -40 11 -19 9 -37 16
-40 16 -9 0 -106 71 -145 105 -36 33 -121 142 -121 156 0 13 24 11 38 -3z"/>
</g>
</svg>
