<svg version="1.0" xmlns="http://www.w3.org/2000/svg" viewBox="0 0 1142 1280">
  <path d="M308 36.6c-3 .8-9.5 3.7-14.5 6.5-15.8 8.7-24.9 12.9-30.1 13.8-7.8 1.5-13.1 4-19.6 9.2-7.3 5.8-13.8 14.1-17.8 22.5-5.3 11.1-16.3 18.4-37.5 24.9-18.4 5.7-28.5 9.5-33.8 12.6-6.8 4.1-28.2 22.3-50.4 42.7-25 23.1-26.1 25.2-32.9 59.2-6.3 31.9-9.9 41.3-20.3 53.5-7.2 8.3-11.1 15.3-14.3 25.5-1.9 6.3-2.3 9.6-2.3 21 .1 15.3 1.8 23.4 8.1 36.9 7.6 16.2 16.3 39.8 22.4 60.7 4.4 15.1 6.5 19.6 15.2 32.5 9.5 14.3 32.1 42.2 36.6 45.3 7.4 5.1 15 6.7 31.1 6.7 7.9 0 15.8-.3 17.6-.7 4.8-.9 15.8 2.2 29 8 17.3 7.7 18.7 8.1 30.5 8 7.8 0 14.8-.9 27.3-3.4l16.8-3.3 5.2 2.1c12.9 5.3 19.5 5.9 38.5 3.6l5.3-.7 4.4 4.7c2.6 2.9 6.7 9.5 10.4 17 9.7 19.5 17.3 25.4 35.1 26.6 10.8.8 15.6 2.7 22.6 9.2 2.4 2.2 5.6 6.6 7.1 9.7 2.4 4.8 2.8 6.7 2.7 13.6-.2 11.3-2.4 18.6-11.4 37.6-10.1 21.2-11.4 25.9-11.4 37.9 0 13.6 1.9 18.7 13.2 35.3 16.5 24.3 24.9 44.1 27.1 63.9 2.8 24.7 6.3 88.5 5.2 92.5-2.5 8.7-8.2 16.8-27 38.3-11.8 13.6-15.3 20.4-17.7 35-4 24.4-.4 43.3 17.1 89.5 4 10.4 7.8 21.5 8.5 24.5.8 3.4 1.5 18.3 2 39.5.9 39.7.5 37.9 12.8 66.5 13.4 31 17.2 46.8 15.1 62-.6 4.1-.8 9.7-.5 12.5 1.3 11.6 11.4 24.7 21.4 27.8 3 1 11.3 1.7 23.1 2.1 24.6.9 32.5 2.1 34.6 5.3 3.6 5.4 5.6 5.6 41.4 3.9 17.9-.9 40.9-1.5 51.1-1.4 16.4.2 19.5-.1 27.3-2.1 20.6-5.3 42.6-17 69.2-36.8 17.5-13 29.6-25.7 36.5-38.2 6.9-12.5 13.2-17.6 30-24.1 15.6-6 23.4-11.9 27-20.3 1.9-4.4 2.3-7.8 2.9-24.6.9-22.5 1.8-25.8 9.2-33 11.2-10.9 24.7-17.6 56.4-28.1 27.2-9 31.2-10.7 36.9-16 10.5-9.7 15.5-25.8 19.7-63.5.9-8.6.9-15.5 0-31-2.7-47.7-.6-72.7 8.2-94.1 4.8-11.9 14.3-23.2 26.7-31.9 3-2.2 18.8-13.8 35-25.9 16.2-12.1 36.3-26.2 44.5-31.4 31.9-20 45.7-31 57.4-45.7 9.8-12.2 35.1-54.3 44.8-74.5 4.9-10.3 5.5-12 5-16.2-1.6-13.2-15-24.8-27.4-23.5-2.6.2-9.1 1.3-14.3 2.2-5.7 1.1-14.3 1.8-21.5 1.8-10.2 0-13.2-.4-20-2.6-9.6-3.1-16.5-7.8-21-14.1-3.9-5.6-5.3-9.1-10.6-27.6-6.2-22-7.4-24-23.3-38.9-12.1-11.3-22.9-30.8-29.2-53.1-1.7-5.9-5.5-14.8-10-23.5-8.6-16.6-11.4-24.7-11.4-32.9 0-14.9-5.2-31.9-16.6-54.8-8.1-16.2-13-28.1-15.4-37.2-1-3.9-6.1-18.6-11.3-32.6-10.2-27.5-19.7-55.4-21.6-63.6-3.1-13.2-16.6-20-43.1-21.9-18.7-1.3-40.7-10.8-81-34.7l-19.6-11.6-38.7-4.3c-36.3-4.1-38.8-4.3-41.3-2.8l-2.7 1.7-6.3-7.2c-11.8-13.5-23.6-21.4-35.4-23.6-7.5-1.4-12.7-4.2-18.2-9.6-10-9.8-11.9-19-6.9-33.5 5.4-15.5 5.3-22.3-.1-28.4-3-3.5-3.1-3.5-11.2-3.5-14.7 0-24.1-1.6-64.1-11-24.5-5.8-39.7-7.1-54.5-4.7-7.1 1.2-9.3 1-41-3.5-18.4-2.6-35.3-4.7-37.6-4.7-5.5-.1-12.3 2.3-22.6 8.1l-8.6 4.8-6.7-1.5c-8.8-2.1-15.3-4.6-21.2-8.2-6-3.7-12.1-4.6-19.3-2.7zM106.1 162.9c-.8.6-.9 1.1-.3 1.5.6.3 1.4.1 1.7-.5.9-1.4.2-2-1.4-1zM1016 1025.1c-12.4.4-26.4.9-31.3 1.1-4.8.2-8.7-.1-8.7-.5 0-1.7-1.8-.1-9 8.3-17.5 20.3-28.9 30.3-41.3 36.1-6 2.8-7.7 3.1-16.9 3.2-9.1.2-11 .5-16.1 3-7.5 3.7-14.6 10.8-18.2 18.1-2.3 4.7-3 7.8-3.5 15.6-1.1 15.7-4.4 22.7-19.5 41.5-15.7 19.5-19 26.7-19 41.5 0 8 .4 10.3 2.3 14.3 3.4 6.8 10.2 13.2 16.7 15.6 7.1 2.7 9.3 2.6 16.8-.3l6.2-2.5 33 1.3 33 1.3 4.9-2.5c5.8-3.2 10.8-8.8 21.5-24.7 4.5-6.6 13.5-19.4 20.2-28.5 15.9-21.7 42.6-62 52.7-79.3 10.1-17.3 10.7-19.8 9.8-41.3-.3-8.8-.9-17.4-1.2-19.2-.6-3.1-.8-3.2-5.3-3-2.5 0-14.7.5-27.1.9z"/>
</svg>
