<svg version="1.0" xmlns="http://www.w3.org/2000/svg" viewBox="0 0 1280 993">
  <path d="M340.6 1.4c-1.5.9-4.6 1.6-6.7 1.6-4.4 0-5.4 1.1-3.8 4.1 1.1 2.1 1.6 2.1 11.3 1.6 5.5-.4 12.4-.9 15.1-1.2 4.6-.4 4.4-.3-2.4 1.5-8.5 2.3-8.6 2.3-7.7 4.6.5 1.2 1.4 1.5 3.7 1 1.7-.3 4.5 0 6.4.8 1.8.8 6.8 1.7 11.1 2.1 4.4.4 11 1.3 14.8 2.1 8.9 1.7 13.6-.2 8.9-3.8-1-.7-2.3-2.2-2.9-3.3-1-1.7-2.2-2-7.5-2-3.5 0-7.4-.6-8.5-1.2-1.2-.7-4-1.5-6.2-1.9-3.1-.5-3.9-1-3.5-2.3.7-2.9-1.8-3.9-10.7-4.6-6.7-.5-9.1-.3-11.4.9zM404.2 15.1c-2.6 1-4.6 5.4-3.8 8.5.8 2.9 3.8 3.8 8 2.4 1.8-.6 6.9-1 11.4-.9 8.9.3 11.9-.9 10.2-4.1-1-1.8-6.2-2.8-16.7-3.3-2.5-.1-4.3-.6-4.3-1.3 0-1.7-2.1-2.3-4.8-1.3zM425.1 30.9c-.8 1.3-.8 2.8-.1 4.6 1.4 3.8 1.4 3.8-3.4 3.1-3.8-.6-4.4-.4-4.9 1.4-.4 1.5-1.3 2-4.1 2-1.9 0-5.7.5-8.5 1.1-4 .8-5.5.7-8-.5-4.4-2.3-14.3-2.1-15.8.2-.9 1.6-2.9 2-11.3 2.6-6.7.4-11.2 1.2-13.3 2.4-1.8.9-4.8 1.9-6.7 2.2-5.4.8-4.2 2.8 3.9 6.9 4.1 2 7.3 4 7 4.6-.2.6-3.5.9-7.9.7-4.1-.2-8.2-.3-9-.2-.8.1-6.8.3-13.3.5-6.4.1-12 .5-12.3.8-1.1 1.1 1.6 4.6 3.8 4.9 1.4.2 2.4 1.2 2.8 2.8.6 2.3 1 2.5 5.3 2.2 2.9-.2 5.6.2 7.4 1.2 1.5.9 5.3 2.5 8.3 3.6 3 1.1 5.3 2 5 2-.3.1-3.9.1-8 .1-8.5 0-15.8-.9-16.6-2.2-.3-.5-2-.9-3.7-.9-1.8 0-5.5-.9-8.4-2-5.6-2.1-7.8-1.3-4.9 1.9 2.2 2.4 2 3.4-.3 2.1-3-1.5-9.2-1.3-8.5.4.9 2.2 4.9 3.5 10.6 3.2 4.6-.2 6 .1 8.3 2.1 1.5 1.3 2.5 2.7 2.2 3-.7.6-23.2-3.4-26.4-4.7-1.3-.5-2.3-1.8-2.3-2.9 0-3.3-2.1-6.8-4.7-8-3.8-1.7-4.9-1.3-2.5 1 2.5 2.2 2.1 3.9-.8 3.9-1.1 0-2.4.9-3 1.9-.8 1.7-.4 2.5 2.2 5 1.8 1.7 3.8 3.1 4.5 3.1 2 0 4.3 3 4.3 5.8.1 1.7 1.6 4.4 3.9 7.1l3.9 4.3 12 .2c10 .2 12.4.5 14.8 2.1 1.6 1.1 3.8 2.4 4.9 3 1.1.6 2.1 1.9 2.3 3 .5 2.7 2.2 4.5 4.9 5.6 3.4 1.3 2.8 2.9-1 2.9-3.6 0-6-1.9-7.2-5.9-.5-1.5-2.5-3.1-6.2-4.8-5-2.3-6.2-2.5-11.2-1.7-4 .6-5.7 1.4-5.9 2.6-.2.9.5 1.9 1.6 2.3 1.6.4 2.1 1.7 2.4 5.8.5 5.5-.3 7.3-3.7 8.8-1.1.5-3.1 1.7-4.5 2.8-2.3 1.8-3.1 1.8-11.8.7-5.1-.7-9.8-1.8-10.4-2.4-.7-.7-2-1.2-3-1.2s-1.8-.5-1.8-1c0-1.3 2.6-1.3 5.2.1 1.1.6 4.5 1.4 7.5 1.8 5.8.8 6.3.5 11-7.4 2.4-4 2.5-4.6.9-6.4-.9-1-1.6-2.4-1.4-3.2.2-.7-1.5-2.2-3.7-3.4-2.2-1.2-5-3.7-6.2-5.6-1.2-1.9-3.1-4.3-4.1-5.4-1.1-1.1-2.2-3.2-2.6-4.7-.3-1.4-2.9-4.7-5.7-7.2-2.8-2.5-4.8-5-4.4-5.6 1-1.6-1.3-6.7-3.3-7.6-1-.4-6.4-1.2-12.1-1.8-9.1-1-10.6-1-12.3.4-1.7 1.4-1.8 1.9-.7 4.3 1.7 3.8 0 7.3-4.1 8.2-3.6.8-3.9 3.8-.4 4.3 2.4.3 5.4 5 5.4 8.6 0 2.9 2.5 4.6 6.8 4.6 1.6 0 3.7.9 4.7 2s2.8 2 4 2c2.6 0 5.5 2.9 5.5 5.4 0 2 0 2-12.3-.8-3.8-.9-7.7-2-8.7-2.6-3.6-2-3.9-.9-1 3.7 1.7 2.6 3 5.5 3 6.4 0 1.1-2.2 3-5.7 5-6.9 4-13.3 9.6-13.3 11.6 0 .9 1.4 4.3 3 7.7 1.7 3.3 3.9 9.2 5 13.1 4.2 14.6 11 46.1 11 51.1 0 3.5.5 5.6 1.6 6.5 2.5 2 6.9 9 8.8 13.8 1.5 3.9 1.5 4.6.1 6.7-.9 1.4-3.5 2.9-6.4 3.8-11.9 3.5-13.3 5.8-8.1 13.9 4.1 6.5 10.3 9.5 15.8 7.9 2.4-.8 5.5-2.9 8.1-5.7l4.2-4.5 2.4 2.4c1.9 1.9 2.5 3.6 2.5 6.7 0 2.3.5 7.1 1.1 10.6.6 3.5.8 8.8.4 11.8-.6 4.9-1.1 5.9-4.9 9l-4.3 3.5-7.9-3.3c-4.4-1.9-10.1-4.6-12.9-6-7.2-3.8-12.7-4.4-17.5-2.1l-3.9 1.9 2 3.2c1.7 2.6 1.8 3.5.8 5.2-1.4 2.1-4.5 2.8-15.4 3.7-8 .7-9.6 1.8-13 8.4-1.3 2.5-3.5 5.6-4.9 7-2.2 2-3 2.2-4.4 1.2-3.1-2.2-4.2-2.4-5.8-1.1-1.2 1-1.5 2.5-1.1 6.2.4 4.2 1 5.5 4.6 8.7 3.9 3.6 4.1 4.1 4.1 9.6.1 3.7.8 7.2 1.9 9.3l1.8 3.4 2.1-3c1.7-2.4 3.1-3.1 6.9-3.6 3.7-.4 5.2-1.1 7.3-3.8l2.7-3.2 4.5 2.1c3.8 1.9 4.8 2 7.7.9 2.9-1.1 3.4-1 4.7.7.8 1.2 1.4 4.3 1.4 7.7 0 3.2.5 6.1 1 6.4 2.5 1.6.5 2-4.8 1.1-3.3-.5-6.6-.6-7.5-.3-2.1.8-2.2 5.3-.2 6.1 2 .7 1.9 3.6-.1 3.6-.8 0-2.4-.5-3.5-1.1-1.5-.7-2.4-.7-3.4.1-1.9 1.6-.2 5 2.5 5 1 0 2.1.9 2.5 1.9.3 1.1 1.7 2.6 3 3.5 1.4.9 2.5 2.3 2.5 3.1 0 .9.9 1.5 2.3 1.5s2.6.9 3.2 2.2c.7 1.6 1.9 2.3 4 2.3 2.7.1 3 .4 3.7 4.5 1 5.9 4.9 15.1 6.2 14.7 1.1-.4 1.3-3.5.5-7.2-.3-1.4.4-2.2 2.4-2.9 2.6-.9 3.1-.7 6.8 3.7 2.2 2.6 4.7 4.7 5.4 4.7.7 0 2.1.7 2.9 1.6 1.2 1.2 1.4 2 .5 3.6-.9 1.7-1.7 1.9-4.7 1.4-2.1-.4-5.6-.9-7.9-1.2l-4.3-.6v4.1c0 3.8.2 4.2 3.1 4.8 3.7.7 4.5 2.3 3 6.3-1.3 3.9-.8 5 3.5 7.8 3.6 2.4 4.7 4.3 7 13 2.7 10.2 3.3 9.7-12.3 10-13.1.3-13.7.2-16.2-2.1-4.5-4.1-7.4-5.7-10.6-5.7-4.2 0-7.1-2.3-7.9-6.2-1.8-8.8-1.8-9.8 0-12.6 1.1-1.5 2.1-4.3 2.4-6.2.5-3.3.7-3.5 4.3-3.4 6.3.2 3.7-4.3-3.5-6-1.5-.3-4.3-2.6-6.3-5-3.9-4.8-3.1-4.5-20.2-6.5-9.2-1-17.8-4.6-25.1-10.6-4.3-3.5-9.4-4.6-10.7-2.5-1.3 2-6.4 1-9.8-2-5.7-5-13.2-6.6-17.3-3.6-2.1 1.6-2.2 1.4 2.8 4.5 2.9 1.7 4 3.3 5.1 6.9 1.8 6.1.9 7.7-5.6 10.6-4.2 1.8-6.8 2.2-13.7 2.1-4.7-.1-9.7-.7-11.3-1.3-1.5-.7-4.8-1.1-7.3-1-3.9.2-5-.2-6.8-2.4-2.7-3.3-6.8-4.1-22.6-4.2-11.1-.1-13 .2-16.7 2.1-2.3 1.3-4.8 3.2-5.7 4.4-1.4 2-2.1 2.1-8.3 1.6-3.8-.3-7.5-.7-8.3-.9-2-.4-2.5 3.3-.6 4.4 4.6 2.6-1 4.6-14.1 5-5.7.2-10.7.8-11.2 1.3-.4.6-1.1 2.7-1.4 4.8-.6 3.7-.5 3.9 3.9 5.7 5 2.2 5.7 4.7 2.3 8.1-1.4 1.4-2.7 1.9-4.2 1.4-5.4-1.7-6.7-1.7-6.7-.3 0 2.5 3.6 4.9 8.2 5.5 5 .7 6.8 1.8 6.8 4.3 0 1 .9 2 2.1 2.3 1.8.5 1.9.8.8 2.6-1.1 1.7-1 2.3.5 4 1.5 1.6 3.1 2.1 7.2 2.1 4.8 0 5.6.3 7.6 3s2.7 3 7.7 3c5.2 0 5.7-.3 7.3-3 2.5-4.4 6.1-4.9 12.2-1.5 2.8 1.5 5.8 3.4 6.7 4.1 2.4 2.2 10.5.6 15.5-2.9 3.7-2.6 4.6-2.8 7.3-1.9 2.4.9 3.9.8 6.6-.4 3.1-1.2 3.5-1.2 3.5 0 0 .8-.5 1.8-1.1 2.2-.7.4-1 4.9-1 12.3.1 15.2-.8 25-2.4 27.5-.8 1.2-2.1 5-3 8.6-1.7 6.7-3.8 11.5-5.4 12.5-.5.3-4.9.1-9.7-.5-4.8-.5-9-.8-9.2-.6-.5.6 6.4 15.2 7.6 16 .6.3 1.8 3 2.6 5.9.8 2.9 3.1 7.1 4.9 9.2 1.9 2.2 3.6 4.9 3.8 6 .7 3.3 3.7 3 5.9-.7 1.4-2.3 2-5 2-9.1 0-3.1.4-5.7.9-5.7 1.5 0 2.2 3 1.1 5-1.1 2.1-1.3 8.9-.4 11.4.3.9 1.6 1.6 2.8 1.6 3.2 0 6.2 2.5 10.1 8.3 1.9 2.9 5.5 7.9 7.9 11.2 2.4 3.3 4.7 7.6 5 9.6.3 1.9 1.5 4.4 2.6 5.4s2 2.4 2 3.2c0 .7 1.2 1.8 2.7 2.4 6.2 2.3 12.6 11.2 13 17.9.6 12.2 1.3 15 5.1 20.8 2.9 4.4 4.4 5.8 6.6 6 4.4.5 8.4 5.2 9.8 11.4.7 3.4 2 6 3.5 7.1 1.2 1 2.3 2.4 2.3 3.1 0 .7 2 3.6 4.5 6.5s4.5 6.1 4.5 7.2c0 1.1 1.1 2.4 2.4 3 2.4 1.1 4.6 4.7 4.6 7.4 0 .8-.9 1.9-2 2.5-2.6 1.4-2.6 4.9.1 10 1.1 2.2 2.3 5.9 2.6 8.2.4 2.4 1.2 5.3 2 6.5.9 1.4 1.2 3.3.8 5.5-.6 3-.3 3.7 1.9 5.1 3.9 2.6 7.5 2.1 18.7-2.8 5.7-2.4 11.4-4.5 12.7-4.5 3 0 8.4-2.3 10.1-4.3 1-1.2 1.8-1.4 3.1-.7 2.3 1.2 6.1-.1 8.8-3.1 2.4-2.5 15.7-8.8 18.7-8.9 1.1 0 4.4-1.1 7.4-2.5l5.4-2.5-.5-4.4c-.5-4.2-.4-4.5 3.4-7 2.2-1.4 5.9-2.9 8.1-3.2 2.3-.4 5.9-1.5 8-2.6 2.8-1.4 4.2-1.6 5.6-.8 2.5 1.3 5.8 1.3 6.6 0 .4-.6-.1-2.2-1-3.6-2.3-3.6-1.3-5.1 3.7-5.9 5.2-.9 6.8-2 6.8-4.9 0-1.3 1.9-4 4.5-6.6 4.4-4.3 7.5-10.8 7.5-15.7 0-1.7.6-2.3 2.3-2.3 2.6 0 4.7-1.7 4.7-3.9 0-.8 1.9-3.4 4.2-5.8 3.5-3.5 4.1-4.9 4.2-8.5.1-3.2-.3-4.3-1.4-4.3-2.5 0-7.2-5.4-6.5-7.6.5-1.4 0-2.1-2-2.9-1.4-.5-3.6-1-4.8-1-4.7 0-9.4-2.3-14.4-6.9-4.6-4.2-5.4-5.4-5.9-9.7-.4-2.7-1.5-5.9-2.6-7.1-1.8-1.9-1.8-2.2-.3-3.1.9-.5 1.5-1.7 1.4-2.7-.5-2.2-2.9-3.2-2.9-1.2 0 .8-1.3 3-3 4.8-1.6 1.9-3 3.9-3 4.5 0 .6-.9 1.9-2 2.9s-2 2.6-2 3.5c0 2.5-5.1 6.8-10.3 8.6-4.3 1.5-4.8 1.4-7.6-.2-2.4-1.4-3.3-1.6-4.3-.6-1.4 1.4-4.2 1.6-6.6.3-.9-.5-2.5-1.2-3.5-1.5-1.6-.5-1.7-1.4-1.1-9 .7-8.5.7-8.5-2-9.7-1.4-.7-2.9-.9-3.3-.5-.4.4-.6 3.3-.5 6.6.1 3.2-.2 6.1-.7 6.4-1.5 1-4.3-2.5-3.7-4.7.3-1.4-.5-2.9-2.5-4.8-2.3-2.2-3.1-3.9-3.5-7.6-.3-3.5-1-5.3-2.7-6.5-4.5-3.4-8.7-8.5-11.5-13.9-5-9.6-6.8-12.2-9-13-3.3-1.3-2.7-2.7 2.8-6.1 2.8-1.7 5-3.5 5-3.9 0-1.6 3.9-.9 4.9.8.7 1.4 1.2 1.5 2.4.5 1.4-1.2 4.7-.7 4.7.7 0 .3 1.8 3 4 5.8 2.1 2.9 5.3 8.5 7 12.5 1.7 4 3.6 7.6 4.3 8 .7.4 2.9.8 4.9.8 2 0 3.9.4 4.2.9 1 1.5 11.4 7.1 13.3 7.1 1 0 3.3.9 5.1 2 4.5 2.7 5.6 2.6 10.3-1.7 3.6-3.2 4.7-3.7 9.1-3.7 4.4 0 5.4.4 7.9 3.2 2.1 2.3 2.9 4.3 2.9 6.8 0 4.9 4.4 8.8 10.2 9 7.1.3 20 2.4 24.8 4.1 5.3 1.9 8.4 1.9 20.5.3 5-.7 10.2-1.2 11.8-1.1 1.5 0 5.3.2 8.5.3 4.2.2 6.6-.2 8.5-1.5 5-3.3 10.3-1.8 9.1 2.7-.5 2.3-.2 2.8 3 4.1 2.4 1 4.2 2.8 5.6 5.5 1.1 2.2 3.4 4.7 5.1 5.6 1.7.8 5.1 3.4 7.6 5.6 4.6 4.3 10.9 6.2 15.1 4.7 3.3-1.2 3.5.7.5 3.1-2 1.5-3.6 2-5.8 1.6-1.6-.3-3.7-.1-4.5.4-1.2.8.3 2.7 7.9 10 5.1 4.9 9.9 9 10.5 9 .7 0 3.5-.7 6.3-1.5 5.7-1.7 7.3-4.3 6.6-10.6-.3-2.3 0-3.9 1-4.7 1.3-1.1 1.8-.6 3.2 3.2.9 2.4 1.4 4.9 1 5.5-.3.6.3 2.3 1.4 3.7 2.5 3.2 2.7 6.6.6 9.8-1.9 2.8-1.3 5.5 3.9 20.1 2.5 7.1 3.6 11.7 3.6 15.7 0 4.9.4 6.2 2.9 9 1.5 1.8 4.3 6.2 6.1 9.8 1.8 3.6 4.4 7.8 5.8 9.3 2.6 2.7 3 4 6.1 21.5.6 3 1.8 5.2 4.2 7.5 4.2 3.8 11.9 21.6 12.7 28.9.3 3.2 1.2 5.4 2.8 6.9 1.3 1.2 2.4 3.1 2.4 4 0 2.3 2.9 3.9 7.3 3.9 3.1 0 3.6-.4 5.2-4.5.9-2.6 3.2-5.8 5.1-7.3 2-1.6 3.4-3.6 3.4-4.9 0-1.2.5-2.5 1-2.8.6-.4.8-1.5.5-2.6-.5-1.5-.1-1.9 1.8-1.9 3.9 0 5.2-2.4 3.8-6.9-1.6-5.6-1.4-10.9 1-17.9 1.7-5 1.9-6.8 1-9-.5-1.5-1-4.8-1-7.3s-.5-6.5-1.1-8.9c-1.8-6.7 1.2-12 6.8-12 1.4 0 2.1-.9 2.6-3.1.5-2.7.9-3 3-2.5 3.1.8 7.1-2.4 8.6-6.9.6-1.9 2.3-4.4 3.8-5.6 1.5-1.1 2.9-3 3.2-4.2.3-1.3 1.5-2.3 2.7-2.5 1.3-.2 3.4-2.3 5.3-5.3 3.3-5.1 14.8-15.9 16.9-15.9.7 0 2.3-1.1 3.6-2.5 2-2 2.5-3.4 2.5-7.8 0-4 .5-5.8 1.8-7 1-1 2.2-1.7 2.7-1.7s1.7-.8 2.7-1.7c1.6-1.4 2.1-1.5 2.7-.4.6 1 1.4 1.1 2.6.3 1-.5 3.5-.7 5.6-.5 4.7.7 8.9-.3 8.9-2.1 0-.9.8-1.2 2.4-.9 1.3.3 2.7 0 3-.6.4-.6 1.6-1.1 2.6-1.1 1.4 0 2-.9 2.2-3.7.2-3 .7-3.8 2.3-3.8 3.2 0 6.7 8.4 6.9 16.4.1 6 .5 7.1 4 11.6 2.1 2.7 4 5.2 4.1 5.3.2.2 1.7-.4 3.4-1.4 3.8-2.2 7.3-.9 9.6 3.5 1.4 2.8 1.4 3.1-.5 4.1-3.9 2.1-1.5 6.9 2.6 5.3 2.6-1 6.1 3.5 8.4 10.8 2 6 2.1 7.6 1.1 10.8-1.5 5.1-1.4 9.6.3 11 .8.7 4 1 8.1.8 6-.3 7.1-.7 9-3 1.1-1.5 2.8-2.7 3.8-2.7 1.3 0 1.7-.9 1.7-4 0-5 2.4-6.5 5.2-3.1 1 1.3 1.8 3 1.8 3.9 0 .9 1.2 2.8 2.6 4.3 2 2.1 2.8 4.2 3.4 9.1.4 3.5 1.5 8.1 2.5 10.3 1.1 2.5 1.5 5.1 1.1 7.4-.5 3-.1 3.9 2 5.6 2.3 1.9 2.5 2.7 2.6 11.1.2 8.1.4 9.2 2.2 10 2.9 1.2 3.2 4.3.7 6-2.7 1.9-2.8 7.3-.2 10.5 1.9 2.3 1.9 2.4-.4 6.4-1.6 2.8-2.4 5.9-2.6 10-.2 5.9-.2 6 2.4 5.7 2.1-.2 3.9 1 8.8 6 3.3 3.5 6.8 7.6 7.6 9.3.8 1.6 2.7 4.2 4.1 5.8 2.1 2.2 2.8 4.2 3.5 10.5.5 4.2.8 8.8.8 10.1-.1 1.3 1.2 3.8 2.8 5.6 1.6 1.8 3.9 6.3 5.1 10 1.7 5 2.8 6.9 4.8 7.8 1.5.7 4.6 3.1 6.9 5.4 2.4 2.3 6.4 4.8 9 5.7 4.2 1.4 4.9 1.4 7 .1 1.7-1.1 2.3-2.5 2.3-5.1 0-3.4-1-4.9-6.4-9.2-1.3-1-1.6-3.4-1.6-12 0-9.2-.4-11.4-2.4-15.9-1.4-2.8-3.6-5.9-4.9-6.8-1.4-.9-2.7-2.5-3-3.5-.3-1.2-1.4-2-2.5-2-1.3 0-2.4-1-3-2.9-.8-2.1-2-3.2-4.9-4.1-6.4-1.9-8.1-3.1-9.9-6.9-.9-2-3-5.8-4.7-8.4-1.6-2.6-3.3-6.2-3.6-8-.5-2.2-1.4-3.3-3-3.7-1.7-.4-2.9-1.9-4.2-5.3-2.2-5.6-1.6-9.4 2.6-17.4 2.1-3.9 2.5-6 2.5-13.4 0-7.9.2-8.9 2.2-10.3 1.2-.9 3.3-1.6 4.5-1.6 2.1 0 2.3.4 2.1 4.2l-.3 4.2 4.9.8c3.4.5 5.7 1.5 7.3 3.2 1.3 1.4 3.4 2.6 4.7 2.6 1.5 0 2.7.9 3.4 2.5.6 1.4 1.6 2.5 2.2 2.5.5 0 1 1.8 1 4 0 3.2.4 4 1.8 4 1 0 2.6 1.3 3.5 3 1.4 2.3 2.5 3 5 3 2.2.1 4.4 1.2 6.9 3.4 3.6 3.1 3.7 3.4 2.6 6.8-1.4 4.7-.3 10.8 2 10.8s3.7-1.1 5.1-3.8c.6-1.2 1.8-2.2 2.6-2.2 1.8 0 9.5-9.7 9.5-12 0-2.5 1.8-3.6 6.9-4.4 6-.9 7.2-1.7 12-7.9 4.1-5.4 4.1-5.6 4.3-13.8.1-10.2-.9-15.6-3.3-18.8-1.1-1.3-1.9-3.5-1.9-4.8 0-2.8-2.2-7.4-4.4-9.2-.9-.8-1.6-2.4-1.6-3.8 0-1.7-1-2.9-3.1-4.1-1.7-.9-5-3.2-7.3-5-2.2-1.8-5.2-4-6.5-5-5.4-4-8.1-7.1-8.1-9.6 0-1.9-.5-2.6-2-2.6-1.1 0-2-.4-2-.9s-.8-1.7-1.7-2.6c-.9-1-2-4.4-2.5-7.7-.8-5.8-.7-6.2 2.2-9.5 2.1-2.3 3-4.4 3-6.8 0-2.9.4-3.5 2.2-3.5 1.2 0 3.3-1.1 4.7-2.4 3.8-3.4 10.7-5.9 13.1-4.6 1 .5 2.9.9 4.2.7 2.1-.2 2.3.1 2 3.5-.3 3.6 1.1 7.6 3.2 9 1.8 1.2 6.3.9 7.5-.6.7-.8.9-3.1.5-5.9-.9-6.4.4-7.7 7.5-7.7 3.4 0 7.3-.8 10-2 2.4-1.1 4.9-2 5.7-2 .7 0 2.1-1.1 3-2.5 1.4-2.1 2.1-2.4 5.8-1.9 4.4.6 8.4-.8 13.5-4.7 1.3-1.1 3.9-1.9 5.8-1.9 2.6 0 3.6-.5 4.2-2.3.5-1.2 3.2-4.1 6-6.5 2.8-2.4 5.1-5 5.1-5.8 0-.8 1.6-2.4 3.5-3.5 2.4-1.5 3.5-2.8 3.5-4.5 0-1.4 1-3 2.4-3.9 2.3-1.5 2.4-2.2 2.5-11 0-6.1.5-10.4 1.4-12.2.8-1.5 1.7-4.1 2.1-5.6.4-1.7 1.6-3.1 3.1-3.7 1.3-.5 2.7-2 2.9-3.2.9-4.6 1.6-15.6 1-17.1-.4-1-2.7-1.7-7.5-2.2-7.6-.8-8.5-2.1-2.8-4 2.6-.9 3.5-1.8 3.7-3.9.2-1.5-.1-3.3-.6-3.9-.5-.7-1.2-3.2-1.6-5.6-.9-5.8-2.2-8.1-4.7-8.1-4.8 0-9.9-4.2-13.5-11.1-4.6-8.8-9.3-14.1-14.3-16.4-6.4-2.8-6.4-3.5 1.2-16.9 1.8-3.3 3-4.1 6.7-5 3.4-.8 4.8-1.8 5.8-3.9 2.1-4.4.9-6.1-3.7-5.3-2.6.4-4.9.1-6.7-.9-5.4-2.8-13.7-1.4-14.7 2.4-.3 1.2-1.2 2.1-2.1 2.1-2 0-9.3-6.5-10.1-9.1-.4-1.3-1.6-1.9-3.6-1.9-3.6 0-11.9-6.3-11.9-9 0-1.4 1-1.7 6.2-1.8 4.2-.1 6.6-.6 7.7-1.7 1.5-1.5 1.5-1.7-.1-2.9-2.5-1.8-2.3-2.9 1.1-5.4 1.6-1.2 3.4-3.6 4-5.4.9-2.8 1.9-3.6 5.6-4.7 5.1-1.5 6.5-.9 9 3.9 1.2 2.4 1.2 3-.6 6-1.7 2.7-1.9 3.7-.9 6.1.7 1.5.9 4.1.5 5.8-1.1 5.3 2.4 3.9 7.5-3 1-1.4 4-3.4 6.7-4.4 4.2-1.6 5.5-1.7 12.3-.6 4.1.7 8.2 1.7 9.1 2.2 2.4 1.2 3.1 5.2 1.9 10.2-.8 3-.8 5.1-.1 7 1 2.7 1.3 2.8 7.8 2.6 8.5-.3 12.7 1.4 13.1 5.5.2 1.6-.1 3.3-.7 3.9-2 2-1.2 5.5 1.8 7.6 3 2.2 5.1 8 5.1 14.4 0 8.4 2.9 13.7 7.5 13.7 3.1 0 3.8-1.2 2.5-4.5-2.3-6 .9-8.4 12.5-9.4 6.2-.5 7.1-.9 8.2-3.1 1.6-3.5.2-9.5-3.1-12.9-1.4-1.5-2.6-3.4-2.6-4.2 0-.8-5.1-6.5-11.3-12.7-8.6-8.5-12-11.2-14-11.2-2.9 0-4.3-1.6-3.9-4.3.2-1.1-.3-1.7-1.7-1.7-1.1 0-2.6-1-3.2-2.2-1-1.9-.9-2.4 1.1-3.7 1.3-.9 3.8-3 5.6-4.8 4-3.7 4.5-8.1 1.4-12.8-2.4-3.6-2.5-6.1-.4-6.9.9-.4 1.4-1.3 1-2.1-.3-.8 0-1.5.7-1.5s1.7-1.4 2.2-3.2c.6-1.7 1.9-3.7 3-4.4 1.7-1.1 2.6-.9 6.4 1.6 7.1 4.8 12 4 19.7-3.2 2.8-2.6 3.1-3.4 2.7-7.2-.4-2.9 0-5.1 1-6.7.8-1.3 1.8-4 2.2-5.9.3-1.9 1.4-5.4 2.2-7.8 1.3-3.6 1.4-5.3.4-11.2-1.6-9.7-1.4-12 1.1-14.7 1.8-2 2-2.7 1-4.1-.6-.9-2.6-4.6-4.2-8.2-1.7-3.6-4.6-8.1-6.4-10-4.1-4.2-6.1-8.1-7.7-14.6-.8-3.5-2.3-6-5.3-8.9-2.2-2.2-5.6-6.1-7.3-8.8-2-2.8-4-4.7-5.1-4.7-1.1 0-3.4-1-5.3-2.3-4-2.7-15.4-6.5-18.8-6.3-2.3.1-3.4 1.3-4.5 4.8-.8 2.8-3.9 2.1-5.8-1.2-1.4-2.4-2.4-3-5.1-3-2.4 0-4.1-.8-6.2-3-2.7-2.8-3.4-3-9.8-3-6.7 0-6.9-.1-6.3-2.3.3-1.2.6-3 .6-3.9 0-1.1 1.4-2.4 3.5-3.2 2.6-1.1 3.5-2.1 3.5-3.8 0-1.3.4-2.9.9-3.7.6-.9.5-2.1-.1-3.1-1.5-2.3-.3-5 2.2-5 1.3 0 2-.7 2-2 0-1.1.5-2.9 1.2-4 .9-1.5.9-2.4-.1-4.3-1.1-2-1-3 .6-6.3l1.8-3.9h14c7.7-.1 14.6-.4 15.3-.9.7-.4 2.2-.4 3.5.1 1.2.4 4.5.8 7.2.9 2.8.1 5.9.3 7 .5 1.6.3 1.9-.1 1.7-1.7-.1-1.2.4-2.7 1.2-3.3 1.3-1.1 2.2-.9 5 .9 2.9 1.7 4.4 2 8.2 1.4 5.2-.8 7.7.9 6.7 4.6-.5 1.8 0 2 4.1 2 2.6 0 5.5-.4 6.5-.9 1-.6 2.3-.6 3.1-.1 1 .6 2.1.4 3.2-.7 1.1-.9 3.9-1.6 7.5-1.7 4.5-.1 5.9-.5 6.1-1.8.3-1.7-2-2.5-9.8-3-3-.3-3.5-.7-3.8-3.1-.2-1.6.2-3.5 1-4.4.8-1 1.2-3.7.9-7.9l-.3-6.4h4.9c2.6.1 7.4-.2 10.5-.6 5.6-.6 5.7-.5 9.9 3.5 2.4 2.3 5.3 4.1 6.5 4.1 1.2 0 2.4.7 2.8 1.5.9 2.5 4.5 1.8 5.8-1.3.7-1.5 2-3.8 3-5.1 2.5-3.3 2.3-3.8-2.2-6.1-2.2-1.1-4-2.4-4-2.9 0-1 7.8-2.4 9.1-1.5.5.3 2.7 2.9 4.9 5.7 2.2 2.9 5 6.4 6.2 7.9l2.2 2.8-2.3 2.4c-2.8 2.9-4 8.5-4.1 17.9 0 8.4-1.1 10.7-5 10.7-3.3 0-3.5.3-2 3 .6 1.1 1.2 3.9 1.3 6.2.4 6.2 7.5 14.9 21.9 26.4 6.5 5.2 12.8 11 14 12.9 1.3 1.9 5.1 5 8.7 7 3.7 2.2 9.7 7.1 14.3 11.9 9 9.3 10.1 9.2 9.6-1-.3-4.8-1-6.9-3.1-9.7-1.5-2-2.7-3.8-2.7-4.1 0-.2 1.2-.6 2.8-.8 4-.4 4.3-5 .6-8.9-3.5-3.7-2.7-5.7 2.8-6.1 5.6-.4 6.3-3 1.6-5.4-1.8-.9-5.4-3.5-8-5.8-5-4.2-4.9-5.6.5-5.6 1.6 0 3-.7 3.4-1.6.8-2.1-4.4-6.3-7.9-6.4-1.8 0-3.4-1-5-3.1-5.2-7-8.8-10.1-10.9-9.6-4.6 1.2-11.9-3.8-11.9-8.2 0-1.4-1.3-3.8-3-5.6-3.5-3.6-3.3-7.2.4-6 5.1 1.7 7.1 1.1 8.1-2.3 1.2-4.1 4.3-4.1 6.3 0 1.8 3.8 3.7 3.5 5.9-1 1.4-2.8 2.5-3.8 4.7-4 5.6-.7 11.6.9 14.9 3.7 3.4 2.9 9.2 4.7 10.2 3.1.3-.5-.1-2.3-1-4-1.4-2.7-1.4-3.1 0-3.6.8-.3 1.5-1.7 1.5-3.1 0-4.1 1.8-6.3 5.1-6.3 2.2 0 3.2-.6 3.9-2.4.5-1.4 1.8-3 3-3.6 1.1-.6 2-2 2-3 0-2.1 2.4-2.7 3.5-1 .3.5 2.7 1 5.3 1 2.6 0 6.2.4 7.9.9 1.8.5 4.5.6 6 .2 2.7-.7 2.2-1.2-10.7-10.8-16-11.9-46.8-32.8-70.5-47.8l-17-10.8-11.5-.1c-9.3-.1-12.2-.5-15-2-3.8-2.1-11.7-2.3-21.6-.8-3.5.6-6.5.4-9.4-.4-5.6-1.7-16.3-2.1-16.7-.7-.7 1.9 4 4.3 8.2 4.3 4.7 0 8.5 2.3 8.5 5.1 0 2.5-3.4 2.5-8.5-.1-2.2-1.1-5.7-2-7.8-2-2.1 0-5.6-1-7.8-2.3-3.4-1.9-3.9-2.5-3.3-4.9.5-2.4.3-2.7-1.3-2.1-1 .3-3.1 1.7-4.6 3-3.4 2.7-3.6 2.7-21.1.7-10.2-1.2-14.5-1.3-16.8-.5-1.7.6-6 1.1-9.4 1.1-5.8 0-6.7-.3-10.1-3.4-5.4-4.7-6.7-5.2-19.4-7.9-15.2-3.3-34.1-4.2-40.1-2.1-5.2 1.9-11.5 1.4-17.8-1.5-2.5-1.1-6.1-2.1-8-2.1-1.9 0-6.1-.7-9.2-1.4-3.1-.8-5.9-1.2-6.2-.9-.2.3-1 .2-1.6-.2-.8-.5-.8-1.1.1-2.1.6-.8 1-1.6.8-1.8-.2-.3-3.8-.9-8-1.5-4.1-.6-8.3-1.3-9.2-1.7-1.3-.5-2.1.3-3.2 3-1.8 4.2-5 5.1-4.3 1.1.8-4-1.4-4.9-13-5.2-5.9-.2-15.6-1-21.7-1.9-10.4-1.4-11.1-1.4-12.3.3-.7 1-2.1 1.7-3.2 1.5-1-.2-2.1.2-2.5.8-1 1.7 1.4 4 4.3 4 1.4 0 3.5 1.1 4.8 2.6l2.4 2.5-14.7-.3c-8.2-.1-17.3.1-20.3.6-5 .7-6.2.6-10.8-1.8-2.8-1.4-5.4-2.6-5.7-2.6-1.1 0-.4 2.4 1.2 4.2 1.4 1.6 1.5 2 .2 3.3-2.1 2.1-14.9.4-18.5-2.4-1.5-1.1-3.4-2.1-4.2-2.1-.9 0-4.5-1.5-8.1-3.3-5.4-2.6-7.7-3.2-12.8-3.1-7.8.1-9.4-1.9-3.3-4.3 5.9-2.3 5-4.6-2-5.4-3-.3-6.3-.9-7.2-1.3-.9-.4-2.8-.1-4.3.6-2.2 1.2-3.7 1.1-11.8-.9-8.6-2.2-13.7-2.3-13.7-.5 0 1.1 6.6 4.2 8.8 4.2 2.2 0 6 2.6 5.1 3.4-.3.4-3 0-6-.7-3-.8-11.4-1.4-18.7-1.5-12.6-.2-13.6-.4-19.3-3.2-5.6-2.7-6.7-2.9-19.2-3.1-8.6-.1-14.1.2-15.5 1-1.9 1-2.7.8-5.6-1.4-3.8-2.9-4.9-3.1-6.6-1-1.7 2.1-5.3 1.9-8.3-.5-3.3-2.6-11.7-1.8-11.7 1.1 0 .9.8 2 1.8 2.2 1.1.3.8.5-.9.6-1.5 0-4.6.8-6.9 1.6-6.2 2.2-8.2 2-7.8-.7.2-1.3 1.1-2.4 2.3-2.6 1.1-.2 3.4-1.7 5-3.3 1.7-1.5 4.6-3.4 6.5-4.1 8-2.7 12-6.5 8.9-8.3-.5-.4-1.4-1.8-1.9-3-.7-1.8-1.9-2.5-4.7-3-2.1-.3-7.4-1.7-11.8-3-8.7-2.8-15.6-3.1-27-1.4-12 1.8-12 1.8-11.7-1.5.4-2.9.4-2.9-4.1-2.3-6.4.9-11.7-.2-12.6-2.6-.7-1.8-1.9-2-11.4-2.4-9.8-.4-10.6-.3-11.6 1.6zM301.2 339c.7 1.1 1.8 2 2.5 2s1.7-.9 2.3-2c.6-1.1 1.7-2 2.5-2 1.8 0 1.8.8 0 4-2.6 4.5-1.9 8.6 1.9 11.5 4.7 3.5 5.1 5.2 2 8-2.1 1.9-2.5 3.1-2.3 6.9.2 2.5.1 4.7-.2 4.9-.2.3-2.3.7-4.5 1.1-3.3.5-4.3.3-4.8-1s-1.6-1.5-6.1-.9c-5.4.6-5.5.6-5.5-1.9 0-1.5-.8-3-2-3.6-1.9-1-2.1-1.9-1.8-9.3l.3-8.2 2.9-.3c1.8-.2 3-1.1 3.3-2.3.3-1 1.4-1.9 2.5-1.9 1.5 0 1.8-.5 1.3-2-.7-2.3 1-5 3.1-5 .8 0 1.9.9 2.6 2zM387.1 31.9c-.7.5-1 1.4-.7 2 .8 1.3 4.6-.3 4.6-1.9 0-1.2-2-1.3-3.9-.1zM675.4 42.5c-.4.8.6 3.1 2 5 2.3 2.9 3.3 3.5 6.5 3.5 2.2 0 4.9.8 6.2 1.8 3.8 2.9 5.5 3.2 11.1 1.8 8.5-2.2 16.5-2.8 20.1-1.7 3.5 1.2 10.8-.6 11.5-2.8.6-1.9-1.9-4.2-4.2-3.9-4 .5-23.1-2.3-26.9-3.9-4.2-1.8-5.7-1.1-3.9 1.7 1.5 2.5 1.6 2.5-6.4-.5-7.6-2.9-15.1-3.3-16-1zM666 45.5c0 1.7 2.2 4.5 3.6 4.5 2.5 0 1.3-4.4-1.3-4.8-1.3-.2-2.3-.1-2.3.3zM739 49c0 1.9 3.1 3 8.6 3 4 0 7.7.7 10.5 2 5 2.2 14.8 2.7 16.7.8 2.6-2.6 1.3-3.8-4.2-3.8-2.9 0-6.9-.7-8.9-1.5-3.4-1.4-22.7-1.9-22.7-.5zM717 59.5c0 1.1 1.1 1.5 3.8 1.5 3.5-.1 3.6-.2 1.8-1.5-2.6-1.9-5.6-1.9-5.6 0z"/>
  <path d="M726.5 64c-1 1.1-1.6 2.2-1.4 2.4.2.2 4.9.9 10.3 1.5 5.5.6 11 1.4 12.4 1.8 1.9.4 2.3.2 2-1.2-.4-2.1-8.2-4.9-16.2-5.9-4.5-.6-5.5-.4-7.1 1.4zM979.8 99.1c-2.4 1.4-2.2 2.5.4 3.3 3 .7 4.7-1 2.8-2.9-1.1-1-2-1.1-3.2-.4zM1145 249.7c0 1.3 5.3 6.3 6.7 6.3 2.7 0 1.2-2.7-2.9-5.3-3-1.8-3.8-2.1-3.8-1zM1161 252.4c0 1.4 3.6 4.6 5.3 4.6.4 0-.2-1.4-1.5-3-2.4-3.3-3.8-3.8-3.8-1.6zM957.4 256.5c-.4 1 .3 2.6 1.9 4.3 1.9 1.9 2.5 3.4 2 5-.4 1.8 1 3.8 7.3 10.5 4.2 4.5 9.5 9.4 11.7 10.9 3.9 2.7 10.6 12 10.7 14.7 0 .7 1.8 3 4 5 2.5 2.3 5 5.9 6.5 9.6 1.9 4.9 2.9 6.1 5.3 6.7 2.5.7 3 1.4 3.6 4.7.3 2.2 2.1 6 4.1 8.5 1.9 2.6 3.5 5.2 3.5 6 0 1.8 3.3 4.6 5.3 4.6 1.1 0 1.7-.8 1.7-2.5 0-2.9 1.5-3.2 6.7-1.3 2.4.9 3.6.9 4.4.1.8-.8.1-1.7-2.7-3.1-6-3.1-17.4-14-17.4-16.7 0-1.2-.9-3.4-2-4.8-2.4-3-2.5-4.3-.5-5.1 2.2-.8 5.9.9 8.7 3.9 1.6 1.7 3 2.4 4.1 1.9 2.5-.9 2.1-2-1.5-4.5-1.8-1.2-5.6-4.4-8.5-7.1-2.8-2.6-5.7-4.8-6.4-4.8-2.6 0-7.7-5.1-10.8-10.9-2.6-5-3.9-6.3-6.2-6.8-1.6-.3-3.4-1.4-4-2.4-.5-1.1-1.6-1.9-2.3-1.9-.8 0-2.4-2-3.6-4.5-2.2-4.6-10.6-12.5-13.3-12.5-.9 0-2.6-1.3-3.9-2.9-1.3-1.5-3.5-3.6-5-4.6-2.6-1.6-2.8-1.6-3.4 0zM1225.4 274.1c-.7 1.3 1.3 2.9 3.6 2.9 1.7 0 4.7-1.7 4-2.3-1.3-1.1-7-1.5-7.6-.6zM1238 278.5c0 1.8 2.4 3 3.9 2.1 1.6-1 .1-3.6-2-3.6-1 0-1.9.7-1.9 1.5zM1277.6 283.7c-1.1 1.1-.6 2.3.9 2.3.8 0 1.5-.4 1.5-.9 0-1.3-1.6-2.2-2.4-1.4zM1101.3 293.7c-1.6.6-1.7 3.3-.3 3.3 1.1 0 2.6-2.8 1.9-3.4-.2-.2-1-.1-1.6.1zM1105.7 297.5c-2.1 2.1-3.1 5.5-2 6.6 1.8 1.8 6.3-.8 6.3-3.5 0-3.4-2.3-5.1-4.3-3.1zM1106.6 308.8c-.3.6-.1 1.4.5 1.7 1.5 1 2.5-.3 1.2-1.6-.7-.7-1.3-.7-1.7-.1zM1092.4 348.6c-1.1 1.6-1.4 2.8-.7 3.5 1.4 1.4 4.3 0 4.3-2.2 0-1 .5-1.9 1-1.9.6 0 1-.5 1-1 0-2-4-.9-5.6 1.6zM1079.4 356.6c-1.8 2.6-2.3 7.8-1 9.1 1.1 1.1 4.1-1.2 4.4-3.4.2-1.2 1.2-2.9 2.3-3.9 2.8-2.5 2.4-4.4-1.1-4.4-2.1 0-3.5.8-4.6 2.6zM1027 356.5c-1.1 1.3-.7 2.1 2.4 4.9 2.3 2.3 3.6 4.4 3.6 6 0 1.4.5 2.6 1 2.6 1.1 0 2.6 3.2 3.2 6.6.2 1.3-.3 1.9-1.8 2-3.6.2-4.5 1.3-3.3 3.6.9 1.6.7 2.6-1 4.9-1.2 1.5-2.1 3.4-2.1 4.2 0 1.9 2.1 3.7 4.3 3.7 1 0 3.1 1.4 4.6 3 2.5 2.8 2.9 3 6.2 1.9 1.9-.7 3.8-1.6 4.3-2 1.4-1.2-2.1-4.6-5.9-5.9-3.1-1-5.2-3.6-4-4.8.3-.3 1.7 0 3.1.7 2.2 1 3 .9 4.4-.4 2.4-2.2 3.8-1.9 8.4 1.8 8.8 7.2 11.6 7.3 11.6.4 0-5 1.1-6.4 5.5-6.9 2.2-.2 3.1-.9 3.3-2.6.2-1.3-.1-2.9-.7-3.6-.6-.7-.8-2.7-.5-4.4.8-4.1-.2-6.8-1.9-5.4-.7.6-4.3 1.4-7.9 1.8-6.1.6-7.2.4-13.2-2.4-3.7-1.7-9.2-4.9-12.3-7.2-5.9-4.2-9.2-5-11.3-2.5zM1049 401.4c-1.9.7-3.5 1.8-3.5 2.5 0 .6-.7 1.6-1.5 2.1-1.2.7-1.2 1.2-.2 2.2.6.6 1.2 3.1 1.2 5.3 0 4.1 2.2 7.5 4.7 7.5 1.2 0 2.3 7 2.4 15.3.1 4-.4 6.4-1.5 7.6-.9 1-1.6 2.3-1.6 2.9 0 1.6-3.9 3.5-5.7 2.8-.9-.4-1.3-1.4-1-2.6.6-2.2-1.1-3.1-3.5-1.8-1.3.6-1.8 2.1-1.8 4.9 0 2.2-.7 5.6-1.5 7.5-.8 2-1.2 4.7-.9 6 .7 2.8.5 2.9-4 .8-3.1-1.5-4.3-1.6-11.3-.3-7.6 1.3-8 1.5-13.3 7-3 3.2-6.4 5.9-7.4 6.1-2.5.4-3 1.9-1.3 4.2 2 2.7 12.8 3.1 16.1.5 1.3-1 3.3-1.9 4.4-1.9 1 0 3-.8 4.3-1.9 1.6-1.2 4.7-2 9.7-2.3l7.2-.5v4.2c0 4.3 1.5 6.5 5.4 7.9 2.2.8 6.6-1.8 6.6-3.9 0-.7.8-2.1 1.7-3.1 1.6-1.6 1.5-1.8-1.1-3.9-1.6-1.3-2.5-2.8-2.2-3.4 1.2-1.9 4.3-1.2 6 1.5 1.7 2.4 2 2.5 8.9 1.8 7.6-.7 10.5-2 8.7-3.8-3-3 .9-5.9 4.1-3 2 1.8 2.1 1.8 4-.5 2.5-3.1 2.4-5.4-.6-8.9-1.6-1.9-3-5.3-3.6-8.9-.6-3.2-1.7-7.3-2.5-9.2-1.3-3-1.2-3.6.2-5.2 1.5-1.7 1.5-2.2-.6-7.6-4.2-10.6-6.7-14.8-10.9-18.1-2.2-1.8-4.9-3.2-5.8-3-1.5.2-1.8-.4-1.8-3.7 0-4.5-1.1-5.1-6.5-3.1zM78 464.5c-.7.8-2.7 1.5-4.5 1.5-3.6 0-7.1 3.1-6.2 5.5.4 1 1.9 1.5 4.5 1.5 7.4 0 16.1-8.9 9.6-9.8-1.1-.2-2.7.4-3.4 1.3z"/>
  <path d="M1024.4 481.5c-.4.9-1.9 1.5-3.8 1.5-2.6 0-3.4.6-4.8 3.8-1.5 3.2-1.6 4.3-.6 7 2 5.1 8.7 5.7 7.4.7-.9-3.6 1.5-4.9 5.9-3.4 4.3 1.6 5.5.5 5.5-5.4 0-3.1-.4-3.9-2.6-4.7-3.7-1.4-6.4-1.2-7 .5zM992.2 487.8c-2.1 1.8-2.9 3.1-2.3 3.7.5.6 1.1 2.1 1.3 3.5.4 3.5 3.3 3.7 5 .3 1.5-3.2 4.5-3.7 6.2-1.1.8 1.3.8 2.3-.1 3.7-.8 1.2-.8 2.2-.1 2.9.6.6.6 1.6-.3 2.9-1 1.7-.9 2.4.4 4.4 1 1.3 1.7 3.1 1.7 4.1 0 1.7 3.6 4.8 5.5 4.8 1.2-.1 5.5-6.6 5.5-8.5 0-.8-.5-1.7-1.1-2-.6-.4-1-3-.9-5.9.2-7.3.3-7.1-2.6-10.5-1.9-2.3-3.4-3.1-5.9-3.1-1.9 0-3.7-.5-4-1-1.1-1.8-4.9-1-8.3 1.8zM958 488.5c-.7.8-1.1 1.8-.8 2 .9 1 6.9-.8 6.5-1.9-.6-1.8-4.2-1.8-5.7-.1zM1009.9 523.6c-1.1 1.4-1 1.5 1.1 1.2 1.3-.1 2.5-.9 2.8-1.6.5-1.7-2.3-1.5-3.9.4zM1005 547c-3.5 3.5-2.4 4.7 2.8 3.4 2.5-.7 3-3.9.7-4.8-.9-.3-2.4.3-3.5 1.4zM298.7 561.8c-1.6 1.8-1.6 2-.1 3.2 2 1.7 4.9.2 4.9-2.6 0-2.6-2.7-2.9-4.8-.6zM997.6 566.2c-1.1 1.6-1.3 2.5-.4 3.5 1.5 1.9 2.8 1.6 2.8-.6 0-1 .7-2.2 1.6-2.5.8-.3 1.2-1 .9-1.6-1-1.7-3.3-1.1-4.9 1.2zM248 568.4c0 .8.4 1.7.9 2 1 .7 2.3-1.9 1.4-2.8-1.1-1.1-2.3-.6-2.3.8zM936.8 583.7c-3 3.6-6 14.3-5.6 19.9.5 5.9 5 13.7 7.6 13.2.8-.2 2-2.4 2.7-5.1.7-2.7 1.7-5.3 2.4-6 1.6-1.6 1.4-4.3-.5-6.2-1.4-1.3-1.5-2.1-.5-4.1 3.5-7.7-1.4-17.2-6.1-11.7zM833.9 643c-7.6 4-10.8 10.8-7.4 15.7 2.9 4.2 16.5 4.1 16.5-.1 0-.8.7-1.9 1.5-2.6.9-.7 1.3-2.1 1-3.1-.4-1.2-.1-2.1.9-2.5 1.6-.6 2.1-4.8 1-7.8-.9-2.3-8.9-2-13.5.4zM945.2 659.3c-2 2.3-2.3 6.4-1.3 13.8.6 4.1 1.4 8.5 1.7 9.9.6 2.1.4 2.3-.7 1.2-1.8-1.6-4.4-1.5-5.9.3-.9 1.1-.4 2.8 2.7 8.5 2.4 4.4 4.5 7.2 5.8 7.5 8.1 1.6 7.8 1.4 7.3 4.8-.8 5.2-.2 5.7 6.8 5.7 5.9 0 6.5.2 8.6 3 2.6 3.6 4.4 3.8 5.1.8.6-2.1.7-2.1 2.7-.3 2.1 1.9 2.7 4.5 1 4.5-1.6 0-1.1 2.8.7 3.9 1.6.9 1.6 1.1-.2 4.5-1.1 1.9-1.7 3.7-1.5 3.9.3.3 2.6.8 5.3 1.1l4.7.7v-3.6c0-2 .5-4.5 1.1-5.7.9-1.6.7-2.4-1-3.9-1.2-1.1-2.1-3.2-2.1-4.9 0-3.2-4.7-7.4-7.3-6.4-.8.3-1.7-.2-2-1-.5-1.2-2.1-1.6-6.2-1.6-4.8 0-5.5-.2-5.5-2 0-1-.8-2.4-1.9-2.9-1.2-.7-2-2.6-2.4-5.5-.6-3.8-.1-5.4 3.5-12.1l4-7.8-3-6.1c-1.7-3.4-3.5-7.3-4-8.7-1-2.4-1.5-2.6-8-2.7-4.5-.1-7.4.3-8 1.1zM676.7 715.4c-2.2 2.2-3 15.9-1.2 20.2 1 2.5 2 3.4 3.2 3.2 1.5-.3 1.8-1.9 2.1-12.6.3-10.4.1-12.2-1.1-12.2-.9 0-2.2.6-3 1.4z"/>
  <path d="M953 715.2c0 .6 1.1 2.3 2.5 4 2.6 3.1 3.2 6.2 1.5 7.3-1.8 1.1-1.1 2.5 1.3 2.5 1.3 0 3.1-.8 4-1.8 2.1-2.3 2.2-8.5.2-10.2-2-1.7-9.5-3-9.5-1.8zM287.3 722.6c-.7.3-1.3 1.4-1.3 2.5 0 1.5.7 1.9 3.5 1.9 1.9 0 3.5-.4 3.5-.9s1.1-1.1 2.5-1.3c4.6-.5 3.1-2.3-2-2.5-2.7-.1-5.6 0-6.2.3zM994.2 726.7c-.6 1.6-1.7 5-2.3 7.8-1.8 7.9-3.1 9.3-8.6 9.7-4.6.3-4.8.4-5.3 3.9-.4 1.9-1.4 4.6-2.3 5.9-2.5 3.5-2.1 5.8 1.4 9.1 4.7 4.4 6.3 3.9 9.8-3.7 1.7-3.6 3.6-8.3 4.2-10.5.7-2.2 1.8-4.4 2.4-4.9 1.2-1 1.9.2 3.9 6.2.7 2.2 4.4 2.4 5.3.2.3-.8.1-2.6-.5-3.8-.8-1.8-.7-2.9.4-4.5 1.6-2.2 1.2-8.8-.8-14.1-1.8-4.7-6-5.4-7.6-1.3zM968.6 726.8c-.4.7-.2 2.9.4 5.1.7 2.7.7 4.8 0 6.6-1.5 4-1.2 8.2.6 8.9 2 .8 10.1-4.2 10.7-6.6.8-2.7-2.1-5.9-5.1-5.6-2.2.3-2.7-.2-3.2-2.7-.9-4.3-2.6-7-3.4-5.7zM947.4 728.5c-1 2.5.4 4.7 2.8 4.3 2.8-.4 3.3-2.1 1.3-4.2-2-2-3.4-2-4.1-.1zM942 743.9c0 1.7-.5 3.3-1 3.6-.6.4-2.3 2.5-3.7 4.8-1.5 2.3-5.3 6.9-8.5 10.2-5.5 5.7-7 8.7-4.9 10 1.6.9 7.9-2.7 8.5-4.9.3-1.2 1.8-2.8 3.4-3.7 2.1-1.2 3.1-2.7 3.6-5.2.4-2.2 1.3-3.7 2.5-4 1-.2 2.6-2 3.6-4 1.5-3.2 1.5-3.8 0-6.6-2-3.9-3.5-4-3.5-.2zM675.5 745c.3.5 1.3 1 2.1 1s1.4-.5 1.4-1c0-.6-.9-1-2.1-1-1.1 0-1.7.4-1.4 1z"/>
  <path d="M991.8 754.1c-2.2 1.2-2.3 5.5-.2 6.3.8.3 2.6-.2 4-1.1 4.8-3.1 1.1-8.2-3.8-5.2zM554 756.5c-1 1.2-1 1.9.3 3.8 1.6 2.5 1.4 9.4-.5 12.9-.5 1.1-.5 2.6.2 3.8.8 1.4.7 2.5-.2 3.9-1 1.6-1 2.7 0 5.4.7 1.8 1.2 4.7 1.2 6.3 0 4.1 1.6 5.4 6.7 5.4 3.7 0 4.9-.6 8.4-4 3.9-3.8 4.1-4.2 3.4-8.2-.4-2.4-1.3-5-1.9-5.8-2.3-2.8-6.6-11.2-6.6-13 0-1-.7-2.3-1.6-3.1-.9-.7-2.3-2.9-3.2-4.8-1.9-4-4.2-5-6.2-2.6zM1004.7 757.7c-.4.3-.7 2-.7 3.8 0 3.8-1.3 5.5-6.3 8.3-4.5 2.6-5.7 2.7-5.7.8 0-2.3-1.8-2.8-5.5-1.6-2.2.7-4.1 2.3-5 4.1-.9 1.6-2.2 2.9-2.9 2.9-.7 0-2.5.9-4 2.1-2 1.6-2.6 2.9-2.6 5.9 0 5.1 3 7.2 5.4 3.8.9-1.2 1.6-3 1.6-4 0-2.4 1.4-3 4.3-1.9 1.8.7 3 .6 4.3-.4 2.2-1.6 12-2 12.9-.5.3.5-.5 1.5-1.9 2.1-3.3 1.5-4 3.8-2.6 8.8.9 3.3 1.9 4.5 6.4 7 8.7 5 11 3.9 7.6-3.6-1.1-2.5-1.8-5.5-1.4-6.5.8-2.8 3.8-1.8 4.2 1.4.4 3.2 2.6 5.3 4.7 4.4 1.2-.4 1.5-2.4 1.5-8.9 0-7.6-.2-8.6-2.5-10.7-1.8-1.7-2.3-3-1.9-4.6.6-2.4-1.7-7-5.6-11.2-2.2-2.3-3.2-2.7-4.3-1.5zM1096.7 780.7c-1 .9-.9 6.3.1 6.3.8 0 1.6-1.4 4-6.3.5-.9-3.2-1-4.1 0zM690.7 785.2c-.5 1.6 1 4.8 2.4 4.8s.7-5.2-.7-5.7c-.7-.2-1.4.2-1.7.9zM919.2 789.6c-1.3.9-2.2 2.6-2.2 4.1 0 1.6-1.5 4.5-3.9 7.3-2.1 2.5-4 5.5-4.3 6.5-.3 1.6-1.2 2-4.2 2-3.1 0-4 .4-4.7 2.2-.5 1.3-1.5 2.3-2.4 2.3-.8 0-2.3 1.5-3.2 3.3-3.5 6.5-8.5 13.7-10.3 14.7-1 .6-3.9 1-6.3 1-4.3 0-4.6.2-7.1 4.4-1.4 2.5-2.6 5.8-2.6 7.5 0 3.8-1.6 4.8-4 2.6-1.1-1-2.6-1.4-3.8-1.1-1.2.4-2.5-.1-3.7-1.4-2.3-2.6-3.3-2.5-6.9.5-2.6 2.1-3 3.2-3.4 8.8-.3 4.6 0 7.3 1.3 9.6 1.2 2.4 1.3 3.6.5 4.6-.8 1-.5 1.9 1.2 3.8 6.2 6.6 6.8 7.8 7.2 14.3.3 4.1 1.1 7 2.1 8.1 1 1 1.4 2.5 1.1 3.9-.4 1.3-.1 2.4.6 2.6 1.1.4 8.8-.5 11.7-1.3.9-.2 1.7.6 2.1 2.1.5 2.1 1.2 2.5 4.5 2.6 2.2.1 5.1-.4 6.5-1.1 2.1-1.1 3.1-1.1 6 .2 1.9.8 4.8 1.5 6.4 1.6 2.5.2 3.1.8 4 4.2 1.5 5.3 3.8 5.5 9.9.9 5.9-4.3 10.7-13.4 10.7-20.3 0-4.1.4-4.8 5.1-9l5.2-4.6.1-7.7c.2-9.7 1.3-11.2 7.7-10.5 3 .4 5.3.1 6.4-.7 1.6-1.2 1.5-1.5-1.6-5-1.8-2.1-4.3-4.2-5.5-4.6-1.9-.8-2.2-1.4-1.7-4.9.5-3.4.2-4.3-2-6.3-3.5-3.3-4.8-11.9-2.2-14.8 1-1.1 2.4-2 3-2 .7 0 2.3-.8 3.5-1.8l2.3-1.9-2.2-1.5c-2-1.4-2.1-1.7-.6-3.2.9-.9 2.7-1.6 3.9-1.6 1.3 0 2.9-.7 3.6-1.5 1.1-1.3.9-2-1-4-1.3-1.4-3.2-2.5-4.2-2.5-1.8 0-7.6-3.5-9-5.5-.4-.5-.4-1.3-.2-1.7.3-.5-.9-2.2-2.6-3.8-3.6-3.4-7.3-3.8-10.8-1.4zM972.2 794.2c.6 1.8 2.2 2 4.3.3 1.9-1.4 1.8-1.4-1.3-1.5-2.2 0-3.2.4-3 1.2zM965.2 798.1c-1.3.5-2 1.3-1.7 1.9.8 1.3 4.2 1.3 5.1-.1 1-1.7-.9-2.8-3.4-1.8zM709.4 802.5c-1.1 2.7.6 8.5 3.5 11.8 1.5 1.7 3.4 4.2 4 5.5.7 1.3 3.2 3.2 5.6 4.2 2.4 1 4.9 2.9 5.6 4.2.7 1.3 2 2.9 3.1 3.6 1.1.9 1.8 2.6 1.8 4.8 0 5 1.5 7.2 5.6 8 4.4.8 5.7 2.9 8 12.8 1.7 6.9 2.2 8 4.7 8.8 1.5.6 2.7 1.4 2.7 1.9s1 1.9 2.2 3.1c1.2 1.2 3.2 5 4.4 8.4 1.2 3.4 3.3 8.1 4.7 10.5 1.4 2.4 3.7 6.6 5 9.4 1.3 2.7 3.4 5.9 4.7 7 1.2 1.1 2.8 3.2 3.6 4.7.8 1.6 2.9 3.4 4.7 4.2 3.5 1.5 13.7 11.2 13.7 13.1 0 .6.9 2 1.9 2.9 1.8 1.6 2.1 1.6 5.1.1 2.9-1.5 3.3-1.5 5.7 0 3.7 2.4 4.3.9 4.3-11.4 0-9.6.2-10.7 2.6-13.8l2.5-3.3-4.3-5c-2.7-3.1-5.1-5-6.4-5-2.7 0-8.4-8.4-8.4-12.2 0-2.9-2.1-5.1-4.5-4.6-3.1.6-4-2.5-2.2-7.8 1.4-4.5 1.4-5 0-6.6-.9-1.1-3-1.8-5-1.8-3.3 0-3.4-.1-2.8-3.3.8-4.3-1.4-6.7-6-6.7-3.1 0-3.4-.3-3.7-3.3-.3-2.9-.6-3.2-3.4-3-2.4.2-3.6-.3-4.8-2.2-1-1.6-2.6-2.5-4.2-2.5s-3.6-1.2-5.2-2.9c-1.5-1.7-4.1-4.5-5.8-6.4-1.8-1.9-3.7-4.4-4.3-5.6-.7-1.1-1.9-2.1-2.7-2.1-2.2 0-8.4-5.2-8.4-7.1 0-.9-1.5-3.3-3.3-5.3-3.2-3.4-3.6-3.6-9.9-3.6-5.6 0-7.1-.4-9.6-2.5-3.5-2.9-4.1-3-4.8-1zM1083 814.5c0 .8.9 1.9 2 2.5 1.6.9 2.2.8 2.6-.4.3-.8.3-2-.1-2.6-.9-1.5-4.5-1.2-4.5.5zM1021.4 817.5c-.7 1.7.4 3.7 1.7 3 1.2-.8 1.2-4.5-.1-4.5-.6 0-1.3.7-1.6 1.5zM712.9 834.6c-1 1.3-1 1.7.2 2.5.8.5 2.2.9 3.1.9.9 0 2.3.3 3.2.6 2.2.9 2.1-1.9-.2-3.9-2.3-2.1-4.6-2.2-6.3-.1zM1039.1 838.4c-1 1.2-1 2.2-.2 4.1 1.6 3.6 2.6 3.5 2.9-.4.4-4-1-5.8-2.7-3.7zM1033.7 844.8c-1 1-2.4 4-3.3 6.6-1.5 4.2-1.5 5 0 8.6 2.2 5.6 2 7.7-1.1 11.4l-2.6 3.1 3.4.3c1.9.2 4.2 1.1 5.1 1.9 1.4 1.3 2.1 1.3 3.2.3 1.3-1 1.3-1.5-.5-3.9-1.3-1.7-1.9-3.9-1.7-5.7.2-2.4.8-3 3.3-3.2 5.2-.5 5.7-.9 4.4-3.3-.8-1.6-.8-2.7.1-4.4.6-1.2 1-3.5.8-5.1-.3-2.9-1.5-3.4-5-1.9-1.4.5-1.8.2-1.8-1.3 0-2.6-1-5.2-2-5.2-.4 0-1.4.8-2.3 1.8zM1003.8 849.5c-.6 1.4-1.7 2.5-2.5 2.5-.7 0-1.8 1.1-2.3 2.5-.9 2.3-1.3 2.5-8.2 2.3-4 0-8.2-.5-9.3-1.1-1.1-.6-4.9-1.7-8.4-2.4-6.4-1.3-6.5-1.3-8.8 1.1-1.3 1.4-4.1 3.1-6.3 3.7-3.9 1.2-5.2 3-4.8 6.9.4 4.9-.4 11-1.7 12.2-.8.7-2.1 1.9-3 2.6-1 .9-1.5 3.1-1.5 6.7s-.7 6.5-2.1 8.9c-1.2 2.1-1.9 4.8-1.7 6.8.3 3 .6 3.3 3.5 3.1 6.3-.5 8.1 6.8 4.2 17.2-1.1 3.1-1.8 6.2-1.5 7 .7 1.9 9.1 2.1 10.2.3.5-.7.9-8.1.9-16.6.2-15.6.7-17.7 4.1-17 1.6.3 1.9 1.3 1.9 7.3 0 6.5.1 6.9 2.5 7.5 1.8.5 2.4 1.2 2.2 2.6-.2 1-.5 3.2-.5 4.9-.2 2.6.2 3 2.5 3.3 2.2.3 3-.2 3.8-2.3.8-2.2 1.5-2.6 4.2-2.3 2.8.3 3.3-.1 3.6-2.1.3-1.5-.6-3.3-2.4-5.2-2.5-2.6-2.6-3.1-1.4-5.4 1.2-2.3 1-2.8-3.4-8-5.4-6.2-5.5-8.7-.3-10.4 1.7-.7 4.7-2.6 6.5-4.4 1.8-1.8 4.3-3.2 5.5-3.2 2.6 0 3.6-3.6 1.5-5.2-1.8-1.5-11.8-.4-11.8 1.3 0 .8-1.6 1.4-4.2 1.6-3.4.2-4.3.7-4.3 2.2 0 2.8-2.9 4.3-5 2.6-.9-.7-1.4-1.9-1.1-2.6.3-.7-.5-2.1-1.8-3.1-1.6-1.2-2.5-3.2-2.9-6-.7-5.9.5-6.7 8.7-5.2 5.5 1 7.1 1 10.5-.3 2.3-.9 4.4-1.2 5.2-.7 2 1.2 15.6 1.1 18-.1 2-1.1 7.9-11.9 7.9-14.5 0-2.6-4.9-1.9-6.2 1zM485.7 860.2c-.7 2.7-.1 3.9 1.8 3.1 1.9-.7 2-5.3.1-5.3-.7 0-1.6 1-1.9 2.2zM801.4 868.1c-.3.6-.2 1.5.4 2.1 1.5 1.5 4.6.5 5-1.5.3-1.2-.3-1.7-2.2-1.7-1.4 0-2.8.5-3.2 1.1zM739.7 869.6c-1.4 1.4-.7 3.5 1.1 3.2.9-.2 1.7-1 1.7-1.7 0-1.6-1.8-2.5-2.8-1.5zM1060.6 875.7c-.9.9-.7 3.3.3 3.3 1.2 0 2.2-2.8 1.2-3.4-.5-.3-1.1-.3-1.5.1zM742.3 877.7c-3.2 1.1.3 7.3 4 7.3 2 0 2 .1.6-3.8-1.1-3.2-2.5-4.2-4.6-3.5z"/>
  <path d="M985.7 881.8c-2.4 2.6-2.1 3.2 1.6 3.2 3.9 0 6.6-1.5 5.2-2.8-2.2-2.1-5.2-2.2-6.8-.4zM1030.2 883.2c-1.4 1.4-1.6 4.4-.3 5.3.5.3 1.3 0 1.6-.6.4-.5 2.2-.9 4.1-.7 1.8.1 3.4-.1 3.4-.5v-1.5c0-1-4.4-3.2-6.3-3.2-.7 0-1.8.5-2.5 1.2zM811.5 885.1c-2.6 1.6-4.2 3.8-4.4 6.1-.1.4 1.6.8 3.6 1 3.1.2 3.8.8 4.4 3.1.8 3.1 6.5 9.4 7.5 8.4.4-.3.9-2.5 1.1-4.9.5-3.9.2-4.5-2.1-5.7-1.4-.8-2.6-2.3-2.6-3.3 0-2.5-1.6-5.4-3.2-6-.7-.3-2.6.3-4.3 1.3zM998.7 885.9c-.2 1.1 0 2.4.6 3 1.4 1.4 7.2 1.4 9.8 0 2-1 2-1.1.3-3-2.4-2.7-10-2.7-10.7 0zM1054.4 886.4c-.9 2.5.3 4.5 3.1 5.2 3.1.8 5.7-1.2 5.3-4-.2-1.6-1.1-2.2-4.1-2.4-2.6-.2-3.9.1-4.3 1.2zM753.5 892.1c-1 1.5.1 2.3 2 1.5.9-.3 1.3-1 1-1.6-.8-1.3-2.2-1.3-3 .1zM1015.7 892.7c-1.2 1.1-.8 2.3.8 2.3.8 0 1.5-.7 1.5-1.5 0-1.6-1.2-2-2.3-.8zM832.1 896.6c-2 2.1-2.2 2.8-1.3 4.9 1.3 2.8 2 3 5.6 1.4 3.6-1.7 3.9-4.5.7-6.8-2.7-1.9-2.7-1.9-5 .5zM1039.2 899.1c-1.9.7-2.3 1.5-2 4.6l.3 3.8 7.6-.3c7-.3 7.8-.2 10.7 2.3 3.9 3.3 8.5 3.2 9-.2.8-5.4-5.3-9.6-14.3-9.8-2.7-.1-5.9-.4-7-.7-1.1-.4-3-.2-4.3.3zM1018.3 901.8c-.6.4-.9 1.9-.6 3.5.7 3.6 5.4 6.2 8.3 4.7 2.2-1.2 2.7-5.2.8-6.8-1.8-1.4-7.1-2.3-8.5-1.4zM985.6 918.5c-.3.8-1.4 1.5-2.3 1.5-5.9 0-8.3 6.8-3.9 10.9 3.7 3.5 6.2 2.1 6.9-3.6.3-3.1 1.2-5.2 2.6-6.2 1.7-1.3 1.9-1.9.9-2.9-1.6-1.6-3.5-1.5-4.2.3zM1083 929.9c-.7 1.4-.7 2.2.1 2.6 1.3.8 1.5.6 2.3-2.3.9-2.7-.9-3-2.4-.3zM1099.1 931.2c-.5 1.3-1.8 3.1-2.9 4.2-2.4 2.1-4.7 8-3.7 9.6 1.1 1.8 4.3 1.1 6.3-1.4 1-1.4 2.7-4.5 3.6-7.1 1.4-3.6 1.5-4.9.6-6-1.7-2.1-2.9-1.9-3.9.7zM958 934.5c-1.6 1.9-.6 4.6 1.5 3.9 1.6-.7 2.1-3.9.6-4.8-.5-.3-1.4.1-2.1.9zM813.3 935.1c-.6.8-1.4 2.6-1.8 4.2-.5 2-1.3 2.7-3.1 2.7-2.1 0-2.4.3-1.8 2.7 1 4 1.4 4.4 3.5 3.8 1-.3 2.8-.7 3.8-1.1 1.5-.4 2.4.3 3.6 2.6 1.4 2.7 1.9 3 4.9 2.5 2-.4 4.7-.1 7.1.9 2.4 1 6.7 1.6 12 1.6 5.2 0 9.4.5 11.2 1.4 9.9 4.9 11.8 5.4 21.6 5.5 5.9 0 11.6.7 14.2 1.6 5.6 1.9 7.2 1.2 8.6-3.6 1.1-3.4 1-4.2-.6-5.9-1.5-1.7-2.9-2-7.3-1.8-5.4.3-5.4.3-6.5-3.2-1-2.9-1.8-3.5-5.2-4.2-2.2-.5-4.5-1.6-5.2-2.4-.8-1.1-2-1.4-3.7-1-1.9.5-2.6.2-2.6-.9 0-2.5-2.7-1.7-5 1.5-2.4 3.4-3.8 3.7-8.3 1.3-1.8-.9-5.4-1.7-8.2-1.8-4.3-.1-5-.5-5.3-2.3-.5-3.2-2.7-4-14.3-4.7-8.3-.6-10.7-.5-11.6.6z"/>
  <path d="M883.3 943.5c-.8 2.2 2.5 5.5 5.6 5.5 3.1 0 7.1-2.5 7.1-4.4 0-2.8-11.6-3.7-12.7-1.1zM1065.8 950c-5.6 7.2-6.5 8.6-6.1 9.7.9 2.6 4.1 1.2 8.4-3.8 2.4-2.8 4.6-5.2 4.8-5.5.7-.6-2.1-3.4-3.4-3.4-.7 0-2.4 1.3-3.7 3zM1015.4 952.7c-1.8.2-4 1.3-4.9 2.3-1.6 1.8-1.6 2-.1 2.6 2.3.9 8.2-.4 9.6-2.1 1.1-1.4.6-3.7-.8-3.3-.4 0-2.1.3-3.8.5zM924.5 962.1c-6.1 4.1-7.6 6.1-5.5 7.4 1.6 1 20.7-2.5 22.8-4.1 2.4-1.8.4-4.8-3.4-5.2-1.6-.2-3.3-.8-3.8-1.3-1.7-1.6-4-.9-10.1 3.2zM899 960.2c0 .7.8 2.3 1.8 3.6 1.7 2.2 1.9 2.2 5 .7 1.9-1 3.2-2.4 3.2-3.6 0-1.6-.7-1.9-5-1.9-3.3 0-5 .4-5 1.2zM911.5 963c-3.2 5.1-3.1 5.7.5 6.2 3.7.6 5-.8 5.7-6.2.5-3.6.3-4-1.6-4-1.3 0-2.9 1.4-4.6 4zM952.2 962.2c-7.7 4.8-6.8 7.1 3.2 8.1 4.8.5 6.6.2 10-1.6 2.3-1.1 6.4-2.4 9.1-2.7 4.8-.5 5-.6 5-3.5 0-3.4.1-3.4-7.7-1-5.6 1.7-5.7 1.7-8.4-.4-3.6-2.8-5-2.7-11.2 1.1zM985.2 960.2c-2.1 2.1-1.3 3.8 1.8 3.8 2.3 0 3-.5 3-1.9 0-1-.7-2.2-1.6-2.5-2-.8-1.8-.8-3.2.6zM1010.1 961.9c-7.3 1.5-8.8 2.2-11.2 5.1-1.6 1.8-5.7 5-9.1 7-5.7 3.2-6.3 3.9-6.6 7.1-.6 6.5 4.4 7.3 9.7 1.5 1.4-1.4 3.2-2.6 4.2-2.6.9 0 2.3-1 3.2-2.3.8-1.2 3.4-3.2 5.8-4.4 8.2-4 15.8-7.3 16.8-7.3 1.9 0 1.2-2.8-1.1-4.4-1.2-.9-2.5-1.6-2.8-1.5-.3 0-4.3.8-8.9 1.8zM941.7 972.4c-.8 1.9 2.1 5.6 4.3 5.6 1 0 2.8 1.1 4.1 2.5 3.1 3.2 5.7 3.2 6.5 0 .8-3.3-.1-5.5-2.3-5.5-1 0-2.3-.8-3-1.9-1.4-2.2-8.8-2.8-9.6-.7zM976.6 988.5c-2.3 1.7-1.4 4.5 1.4 4.5 2.4 0 6.3-3.6 5.5-5-.9-1.4-4.7-1.2-6.9.5z"/>
</svg>
