<svg version="1.0" xmlns="http://www.w3.org/2000/svg" viewBox="0 0 1280 871">
  <path d="M952.4 1.5c-.4 1 .1 2.4 1.3 3.7 1.8 1.8 2.4 1.9 6.4.7 8.3-2.3 7.8-4.3-1.3-5.4-4.9-.6-5.9-.5-6.4 1zM1047.3 5.5c-2.9 1.3-5.3 2.9-5.3 3.5v1.7c0 1.1 18.4 1.2 19.7.1 1.8-1.5 1.6-6.5-.3-7.2-3.3-1.3-9.1-.5-14.1 1.9zM894.2 8.2c-1.6 1.6-1.5 3.9.4 6.6 1.9 2.7 4.6 2.7 9.9.2 2.2-1.1 4.6-1.9 5.3-2 .6 0 1.2-.6 1.2-1.3 0-.9-2.6-2-6.9-3-8.2-2-8.4-2-9.9-.5zM867 8.9c-9.7.6-10.5.8-10.8 2.7-.2 1.1.6 3.2 1.7 4.5 1.9 2.3 2 2.4 4.8.7 2.8-1.6 3-1.6 5.1.4 2 2.1 2.3 2.1 8.3.7 6.9-1.7 8.5-3.2 7.5-7.2-.5-2.2-1.2-2.7-3.4-2.5-1.5.1-7.4.4-13.2.7zM1006.6 10.7c-.9 2.1 1.1 5.3 4 6.4 3.1 1.1 14.9.3 18.3-1.4 3.4-1.6 3.9-4.5.9-5.1-1.3-.3-6.9-.7-12.5-.9-8.3-.4-10.3-.2-10.7 1zM933.3 13.7c-.7 1.8 2.9 5.3 5.3 5.3 2.6 0 2.7-2.9.3-5-2.9-2.4-4.8-2.5-5.6-.3zM958.3 12.7c-1.6.6-1.7 3.9-.3 4.8 1.7 1 7.1-.5 7.7-2.2 1-2.5-3.6-4.2-7.4-2.6zM981 14c-8.7 2.3-10 3-10 4.7 0 2.3 8.5 5.6 11 4.3 1.1-.6 2-1.5 2-2s1.8-1.4 4.1-2c4-1.1 6-3.4 4.3-5-1.9-1.7-5.1-1.7-11.4 0zM546.4 17.2c-.9 3 .8 6.8 3.7 8.4 3.4 1.7 4 5.8 1 7.4-3.2 1.6-4 1.3-9.6-4.4-6.1-6.1-8.9-7-15.6-5l-4.8 1.5 2 2c2.2 2.2 2.2 4.7-.1 6.1-1.6 1.1-6.2-1.3-12.3-6.3-4.3-3.5-7.5-5.1-8.7-4.4-.6.3-1.9 2.8-3.1 5.5-2 4.6-4.1 6.6-5.9 5.5-.4-.3-2.2-3-3.9-6-4.2-7.4-5.6-7.9-16-6.1-11.2 1.9-16.1 5.5-12.5 9.1 1.3 1.3 2.7 1.5 6 1 5.2-.7 7.5.3 10.4 5 1.9 3.2 2.6 3.5 6.6 3.5 3.8 0 4.6.4 5.6 2.5 2.2 4.8 7.8 4.2 14.9-1.6 3.7-3 10.8-3.8 12.6-1.4.7 1.1 1.3 2.9 1.3 4.2 0 1.9-.5 2.3-2.9 2.3-2.7 0-13.6 3.5-15.3 4.9-.4.4-.3 1.3.2 2.1.6 1 2.6 1.5 6.5 1.5 5.3 0 7.8 1.7 3.5 2.3-2.6.4-3.6 2.8-2 4.7.8 1 2.8 1.4 5.6 1.3 3.5-.1 5.4.6 10.7 4 5.5 3.6 7.1 4.2 11.8 4.2 6.2 0 10.2-1.7 10.8-4.5.2-1.1 2.3-4.1 4.6-6.6 4.5-4.8 6.9-10.6 5.9-14.4-.9-3.8 1.7-4.8 7.9-3 6.5 1.9 8.5 4 12.2 12.3 3.2 7.1 4.6 8.2 10.5 8.2 4.9 0 9-2 11.9-5.6 2.9-3.7 2.6-7-.9-11.1-1.6-1.8-3-4-3-4.8 0-2.2-4.6-4.8-7.2-4.1-1.5.3-4.5-.6-8.5-2.5-3.8-1.9-7-2.8-8.2-2.4-2.6.8-9.1-2-9.1-3.9 0-1.1 1-1.6 3-1.6 1.7 0 4.5-.7 6.1-1.6 3.9-2 6.2-1.5 6.9 1.6.7 2.7.3 2.6 14 2 4.6-.3 6.1.1 9.4 2.3 5 3.5 10.3 3.5 17.5.2 3.8-1.8 6.3-2.4 8.6-1.9 2.5.4 3.8 0 6.4-2.2 1.8-1.5 4.6-3 6.3-3.3 4.2-.9 5.5-3.2 4-6.6-1.2-2.5-1.6-2.7-5-1.9-4 .9-17.5 1-63.5.3-27.1-.4-29.8-.3-30.3 1.3zM915.3 18c-3.3 1.3-3 4.8.5 5.6 1.5.3 3.9 1 5.5 1.6 2.9 1.1 5.7-.2 5.7-2.7 0-3.3-7.5-6.2-11.7-4.5zM1145 63c-.8.5-3 1-4.9 1-2.9 0-4.3.9-8 4.9l-4.6 5-11.8-.6c-10-.5-12.3-.3-15.7 1.2-3.6 1.6-4.8 1.7-10.8.6-7.3-1.3-9.7-.9-11.3 2-.7 1.4-2.1 1.9-5.7 1.9-2.6 0-6.8.7-9.4 1.5-2.6.7-6.2 1.1-8 .8-4.3-.6-7.4 1.8-9.3 7.2-1.3 3.9-1.4 4-5.9 3.7-3-.2-5.4.3-7.2 1.5-3.3 2.1-5.7 7.5-4.8 10.8.7 2.9-3.6 7.5-7.2 7.5-3 0-5.6 2.7-5.2 5.4.3 1.8.9 2.1 4.6 1.8 2.3-.1 4.2.2 4.2.7 0 1.9-3.2 4-6.8 4.6-6.7 1-8.6 2-9.6 4.8-.8 2.2-.6 3.3 1.2 5.7 1.2 1.6 2.2 3.6 2.2 4.4 0 1.6-5.4 3.8-7.5 2.9-2.5-.9-6.2.5-6.8 2.6-1.1 4.2 5.6 9.1 12.4 9.1 2.1 0 3.9.9 5.8 2.9 4.2 4.5 6.7 4.8 10 1.2 1.6-1.7 3.4-3.1 4-3.1.5 0 2.3 2.1 3.8 4.7 1.5 2.7 3.2 5.2 3.8 5.6.5.4 4 .6 7.7.4 4.9-.3 7.7 0 10.6 1.3 2.8 1.3 4.4 1.5 5.6.8 2-1.1 5.3-.7 11.5 1.7 2.4.9 6 1.5 8 1.3 3.1-.3 3.6-.7 3.9-3 .5-4-4.5-6.8-11.9-6.8-4.9 0-5.9-.4-8.5-3.1-1.6-1.7-4.2-3.7-5.7-4.5-1.5-.8-3.6-2.8-4.6-4.4-1-1.6-3.3-4-5.2-5.3-4.8-3.2-5.2-7.7-.9-11.7l3.2-3-2.6-1c-5.1-1.9-2.3-6.1 3.9-5.7 3.3.2 4-.2 5.7-3.1 1-1.9 3.2-4.5 4.8-5.8 1.6-1.4 3.2-3.5 3.6-4.7 1.3-4.4 3.4-5.7 9.2-5.7 5.2 0 5.7-.2 9.6-4.4 2.3-2.4 5.5-5.1 7.1-5.9 3.4-1.7 13.2-3.7 18.2-3.7 1.9 0 5.1-.9 7.2-2 2.1-1 6.6-2.4 9.9-2.9 3.3-.5 7.3-1.6 8.9-2.4 1.5-.8 6.1-1.7 10.2-2 9.1-.7 17.8-4.6 18.7-8.3.8-3.2-2-6.4-5.5-6.4-1.4-.1-3.7-.7-5.1-1.5-2.9-1.7-6.9-1.9-9-.5zM224.4 159.4c-.3.8-2.3 2.7-4.5 4.2-4.9 3.4-5.3 5.8-.6 4.9 6.7-1.4 11.6-5.6 10.4-8.9-.8-2-4.6-2.1-5.3-.2zM695.4 163.8c-7.5 8.9-9.4 9.8-9.4 4.3 0-3.3-1.6-5.1-4.6-5.1-2.7 0-6.4 4.4-6.4 7.6 0 2.5-4.3 6.4-7 6.4-3.5 0-3.2-3.1.7-6.7l3.7-3.6-2.1-1.7c-1.5-1.2-4.2-1.7-9.2-1.8l-7.1-.2-1.8 3.7c-3.6 7.8-12.3 10.3-23.2 6.7-6.1-2-9.1-1.6-10.7 1.6-.9 1.8-2.2 2.6-5 3-3 .4-3.9 1-4.1 2.7-.4 2.8-3.7 3.1-6.4.6-1.6-1.5-2.5-1.5-6.4-.5-2.4.7-5.5 1.2-6.9 1.2-1.7 0-2.9.9-4 3-1.2 2.3-2.2 3-4.4 3-4.6 0-16.4 4.8-19.2 7.9-1.5 1.6-3.4 5-4.3 7.7-3.6 10.1-3.3 9.9-11.3 9.9-8.1 0-11.3 1.9-11.3 6.6 0 2.4-1.4 3.9-9.5 9.9l-9.5 7.1v4.4c0 4.5 0 4.5-3.5 4.5-4.6 0-5.7 2.3-5.9 11.8l-.1 7.5-5.5 1.1c-6.9 1.4-7.6 1.9-8.4 5.6-.4 2.4-1.2 3.2-3.5 3.6-1.6.4-4 1.7-5.2 3-1.2 1.3-3.3 2.4-4.6 2.4-1.3 0-3.4 1.1-4.7 2.5-1.3 1.4-3.1 2.5-4 2.5-.9 0-1.9.8-2.2 1.7-1.4 4.5-2 4.8-7.6 4.5-6.4-.4-7.3.3-7.3 6.2 0 4.6-1.3 5.3-10 5.5-5.9.2-9.4 1.9-10.9 5.4-.6 1.4-3.6 4.2-6.6 6.3-4.8 3.2-6.2 3.7-10.7 3.5-8.1-.2-8.8 1-9.6 15.4-.6 10.2-.4 12.2 1 13.7 1 1.1 2.4 1.6 3.9 1.2 1.7-.4 2.7.1 3.9 2 2.2 3.3 1.3 7.5-2.5 11.1-3.8 3.7-3.8 6 .1 8.1l3.1 1.6-.3 8.6-.4 8.7h4.7c3.9 0 5.2.5 7.8 3.2 6.4 6.5 13.3 6.7 31 .8 9.4-3.1 11.4-4.2 15.9-8.5 3.4-3.4 5.9-5 7.6-5 2.9 0 6.5-4.9 6.5-8.8 0-3.6 3-4 5.7-.6 1.3 1.6 3.9 4.5 5.8 6.5 2.3 2.3 3.5 4.5 3.5 6.3 0 4.8 2.6 8.4 7 9.6 3.1.8 4.1 1.7 4.6 3.8.3 1.5 1.9 6.5 3.5 11.2 2.4 6.7 4 9.5 7.7 13.2 4.5 4.7 4.6 4.8 3.4 8.2-1.2 3.2-1.1 3.8 1.2 7.3 1.4 2.1 2.7 5 3 6.5.3 1.6.8 3.9 1.1 5.2.7 3.4 2.8 3.8 8.1 1.6 2.5-1.1 5.8-2 7.3-2 3.6 0 5.1-1.7 4.5-4.9-.8-3.7 1.1-7.9 4.1-9.3 1.9-.9 3.8-.8 8 .2 4.1 1 6.1 1 7.9.2 3.3-1.5 6.6-8.9 7.6-17 .5-3.7 1.4-8 1.9-9.6.6-1.5 1.1-6.2 1.1-10.4 0-9 1.3-12.2 5.5-13.5 1.7-.5 4.1-2 5.5-3.3 2.5-2.3 2.7-2.3 4.9-.7 2.3 1.6 2.5 1.5 4.3-.6 1-1.4 1.8-3.9 1.8-6.2 0-3.2.5-4.1 2.9-5.3 5-2.6 4.7-9.6-.4-9.6-2.5 0-3.4-.8-8.1-6.8-2.4-3-3-3.2-7.7-3-4.8.3-5.2.1-6.1-2.5-.7-1.9-.7-3.7.2-5.9 1-2.7.9-3.7-.7-6.4-1.9-3.2-1.9-3.3 0-5 1-.9 1.9-2.7 1.9-3.8.1-4.2 3.7-10.5 6.5-11.2 1.5-.4 3.6-2.2 5-4.4 1.6-2.5 3.4-4 5.4-4.5 1.6-.3 5.4-2.8 8.5-5.5 3-2.6 6.9-5.1 8.6-5.5 1.7-.4 5.2-2.7 7.6-5.1 2.5-2.4 5.2-4.4 5.9-4.4 2.2 0 2.4-2.6.4-5.9-3.8-6.2-2.1-10.1 5.6-13 4.8-1.9 5-2.1 4.7-5.5-.3-3.4-.1-3.6 4-4.7 4.8-1.3 16-.7 27.8 1.4 7.4 1.3 7.5 1.4 7.3 4.2-.2 2 .6 3.8 2.2 5.5 3.1 3.2 2.4 4-3 4-4.5 0-6.1 1.2-8.9 6.8-1 2-3.1 3.9-5 4.7-1.9.8-4.3 3-5.4 4.8-1.4 2.5-2.9 3.6-5.4 4.1-1.9.3-4.7 2-6.3 3.6-1.8 1.9-3.9 3-5.6 3-1.6 0-3.3.6-3.8 1.2-.6.7-2.6 3.2-4.5 5.4-2 2.3-3.6 5.1-3.6 6.3 0 3 2.6 7.9 6.7 12.5 3.5 3.9 3.6 4.3 1.2 10.3-1.1 2.8-1 3.9 1.2 9.5 2.1 5.3 2.9 6.3 5.2 6.6 1.6.2 3.5 1.5 4.7 3.3 2 2.8 2.4 2.9 7.6 2.3 5.2-.7 5.5-.6 8.7 2.8 6.6 7 10.8 7.4 21.6 2.3 5.1-2.5 8.6-3.5 12-3.5 2.6 0 8.3-.9 12.6-2 5.2-1.3 11.1-2 17.6-2 7.4 0 10.5-.4 12.9-1.8 3.1-1.6 3.2-1.6 4.3.2 2.7 4.3 4.4 5.3 11.2 6 8.1.8 12.9 2.7 14.5 5.6 1.8 3.3.6 3.4-4.4.5-4.3-2.5-5-2.6-9.4-1.6-2.6.7-7.7 3.2-11.5 5.7-9 5.9-13.8 6.6-20.7 3-2.9-1.5-7.4-3-10.2-3.3-5.3-.6-16.4.9-23.8 3.2-2.5.8-6.4 1.7-8.8 2.1-8.9 1.4-7.9 6.9 3.2 17.5 7 6.5 7.6 7.5 7.4 10.8-.1 2 .2 5.2.6 7.2.7 3.5.6 3.7-4 6.4-7 4.1-8.6 3.7-16.3-3.9-7.9-7.8-9.6-8.1-17.5-3.1-4.4 2.8-6.2 4.8-9.1 10.2l-3.6 6.8 2.7 6.4c3.5 8.1 4.2 15.6 2 20-2 3.7-7 7.1-10.6 7.1-3.5 0-5 1.7-5 5.6 0 3.8-1.2 4.9-7 6.4-8.9 2.3-11.7 2.4-12.9.2-.6-1.1-.7-2.2-.4-2.6 1-1-2.6-4.4-5.4-5.1-1.4-.3-3.9-.1-5.7.4-1.7.6-6.5 1.3-10.6 1.5-4.1.2-7.6.5-7.7.5-.2.1-.9 1.7-1.7 3.6-.8 1.9-2.1 3.5-2.8 3.6-.7.1-5 .2-9.5.3-6.8.1-8.6.5-10.5 2.3-6.7 6-11.9 5.9-22.3-.7-6.1-3.9-8.8-5-12-5-6.6 0-11.8 1.9-15.2 5.6-4.2 4.5-7.4 4.5-10 .1-1.6-2.5-3.4-3.7-8.6-5.5-6.1-2.2-6.6-2.6-6.9-5.5-.3-2.7-.7-3.3-3.3-3.5-3.5-.4-4.5-1.6-4.5-5.5 0-1.5-.5-3.6-1.2-4.6-1-1.6-.7-2.4 2-5.1 1.8-1.7 3.2-3.6 3.2-4.1 0-2 4.2-4.9 7-4.9 4.9 0 7-6.3 2.6-8-3.9-1.4-5-4.5-3.6-9.6 1.1-3.7 1-4.8-.6-8.1-2.8-5.6-5.4-5.5-9 .1-1.6 2.5-3.1 4.6-3.4 4.7-.3 0-3.8.1-7.8.2-6.9.2-7.5.4-10.2 3.4-3.7 4.2-6.4 13-5.5 18.3.4 2.2 2 5.8 3.6 8s3.2 5.5 3.6 7.3c.3 1.8 2.5 7 4.9 11.5 5.6 10.8 5.6 13.1.2 18.2-2.4 2.2-4.7 4-5.2 4-.6 0-2.2-1.1-3.6-2.5-2.7-2.6-4-2.9-10.6-2.7-3.8.2-4.2.5-4.8 3.3-.5 2.7-.9 3-2.8 2.4-5.8-1.7-6.9-1.6-13 1.4-3.5 1.7-8.5 4.7-11.2 6.6-3.7 2.7-5.8 3.5-9.2 3.5-4.1 0-4.4.2-4.4 2.7 0 1.6-1.8 5.7-4 9.3-4.3 7-4.8 9.9-2.5 14.4.8 1.5 1.5 3.7 1.5 4.8 0 1.8-.5 1.9-8.2 1.2-8.2-.6-8.3-.6-12.3 2.6-3.4 2.7-4.6 3.1-7.7 2.6-2-.3-4.8-.1-6.3.6-2.5 1.1-2.8 1.8-4 9.3-.7 4.4-3.6 10.5-5.8 12.3-.8.7-3.6 1.5-6.3 1.9-2.7.3-5.2 1-5.5 1.5-.3.5-.1 2.7.5 4.9 1.3 4.9-.1 6.9-3.4 4.6-1.6-1.1-4-1.4-10.6-.9l-8.5.5-4.3-4.7c-4.8-5.1-7-5.6-11-2.5-3.1 2.5-3.3 4.1-.5 7.8 2.4 3.3 4.4 11 3.1 12.3-.5.5-4.1 1-7.9 1.1-5.8.2-7.5-.2-9.3-1.8-3.3-2.9-9.2-2.6-12.7.7-2.6 2.5-3.4 2.7-11 2.5-10-.2-11.8.9-7.5 4.8 2.6 2.3 2.9 3.2 2.5 6.5-.6 4.3 1.3 6.1 6.3 5.8 1.6-.1 6.3.4 10.4 1.1 6.9 1.2 7.8 1.7 11.5 5.7 2.9 3.1 4.9 4.4 6.8 4.4 2.5 0 2.7.3 2.7 4.3 0 3.6.6 4.8 3.8 8 2 2 5.2 4.1 7 4.8 3.5 1.2 3.5 1.3 4.9 12.8 1.1 9.3-.1 19.5-3.3 28.6-1.4 3.8-2.9 8.7-3.3 10.7-1.5 7.2-5.1 9.3-17.4 10.1-8 .6-8.9.4-10.7-1.5-2-2.2-2.2-2.1-10 .7-6.2 2.3-14 1.5-21.6-2.3-5.9-2.9-6-3-20.4-2.6-12.9.3-14.9.2-18.3-1.6-2-1.1-4.5-2-5.5-2-2.9 0-5.9 2.7-6.5 6-.6 3-.7 3-7.2 3-5.7 0-6.9.3-9 2.5-3.7 3.6-3.3 7.6 1.5 14.2 4.6 6.4 4.7 7.4 2 14.3-2.7 6.8-2.5 8.6 1 10.7 1.8 1 3 2.6 3 3.8 0 3.8-4.7 15.3-7.8 19.3-2.4 3-3.2 5-3.2 8.1 0 2.8-.5 4.4-1.5 4.8-2.9 1-4.5 6-4.5 13.4v7.1l3.4-.6c5.2-1 6.8 2.2 6.7 14 0 5.2-.3 9.9-.6 10.5-.4.5-.4 2-.1 3.3.5 1.9 1.7 2.4 8 3.5 7.2 1.3 7.6 1.3 10.6-.9 4.8-3.4 9.1-4.1 13.8-2 3.8 1.7 6 4.9 4.8 6.8-1.3 2.2 1.6 8.2 5 10.3 2 1.2 4 3.2 4.4 4.5 1.4 3.5 4 3 8-1.6 5.1-5.9 11.1-7.1 37.7-7.7 14.8-.3 21.5-.8 22.2-1.6.5-.7 1.8-3.7 2.8-6.6 2.2-6.5 6.1-9.1 13.8-9.1 2.7 0 5.5-.4 6.1-.8 1.5-1 3.4-6.9 3.4-10.6 0-4 1.6-5.6 5.4-5.6 4.9 0 7.3-1 8.4-3.5.6-1.3 2.6-2.8 4.5-3.4 2.2-.8 3.7-2 4.1-3.4.7-2.8-1.9-6.7-4.4-6.7-4.2 0-4.8-7-1.5-16 .8-1.9 2.1-6.1 2.9-9.2 2.2-7.8 5.3-11.1 13.5-14.3 6.3-2.4 10.6-4.9 19-11 1.9-1.4 4.6-2.5 6-2.5 6.5 0 10.5-7.7 7.6-14.6-.8-2-1.5-5.8-1.5-8.3 0-6 2.4-8.4 10.5-10.6 10.1-2.6 17.6-1.6 22.4 2.8 3.3 3.1 8.2 4.7 14.2 4.7 4.1 0 5.8-.7 11.6-4.7 6.9-4.7 14.7-8.3 18.2-8.3 3.6 0 6.4-3.4 7-8.6l.6-4.9 4.1.2c2.2.1 8.2 1.6 13.3 3.4 10.4 3.6 12.3 5.3 17.7 16.2 2 3.8 5.5 9 7.9 11.6 2.5 2.7 4.7 6.3 5.4 8.7 1.2 4.5 2.5 5.4 7.2 5.4 2.5 0 3.3.6 4.4 3.5 1.2 2.7 2.9 4.1 8.2 6.8 3.8 1.9 8.4 4.4 10.3 5.6 2.6 1.5 5.1 2.1 9.8 2.1 6.7 0 7.2.4 8.6 7 .7 3.6 5.4 6 11.8 6 6.9 0 7.8.7 7.5 5.5-.2 3.6.1 4.1 3.7 6.1 6.2 3.5 14.5 12.2 15.1 15.8 1.4 8 1.1 10.1-1.3 10.4-2.7.4-3.8 2.3-4.7 8.5-.6 3.6-.3 5.3.9 7.2 2.9 4.4 5.6 3.2 10.6-4.8 2.5-3.9 5-8.4 5.7-9.9.9-2 1.9-2.8 3.7-2.8 1.4 0 3.1-.9 4-2.2 3.6-5.1.6-11.7-6.2-13.9-2-.6-4.3-1.6-4.9-2.2-2-1.5-1.5-5.4.9-7.7 1.2-1.1 2.3-3.3 2.4-4.7.2-4.7 2.7-5.2 9.2-1.8 5.2 2.8 5.7 3.3 6 6.7.3 3 .8 3.9 2.7 4.4 3.9 1 7.4-2.3 7.5-6.9 0-3.2-.5-4-3.1-5.5-1.7-.9-9-5.2-16.2-9.4-7.2-4.3-14.7-8.1-16.7-8.4-5.9-.9-6.3-1.2-5.5-3.7 2.8-8.9 1.2-10.6-11.1-11.3-10.3-.6-16.7-2.6-18.6-5.7-.8-1.2-2.7-5.4-4.3-9.2-1.6-3.9-4.1-8.8-5.5-11-1.5-2.2-3.9-6.3-5.4-9.1-2.9-5.5-5.8-7.4-10.7-7.4-2.1 0-4-1-6.1-3-2.9-2.9-3-3.4-2.3-8.3.5-2.9.9-7.7.9-10.7l.1-5.4 3.9-1.1c2.1-.6 4.7-2.3 5.8-3.8 2.4-3.4 4.8-3.4 7.8-.2 1.9 2 2.2 3.1 1.7 6.7-.3 2.6 0 5.5.8 7.5 1.3 3.1 1.7 3.3 6 3.3 3.9 0 4.7.3 5.5 2.5 1.2 3.2 3.3 3.2 5 0 2.1-3.9 4.2-3.3 3.4 1.1-.5 2.7-.2 4 1.3 5.7 1.1 1.2 2.5 4.1 3.2 6.5 1 3.6 2 4.7 6.2 7 2.8 1.5 8.5 4.6 12.6 6.9 6.1 3.4 8.6 4.3 12.5 4.3 5.6 0 7.3 1.3 11.8 9.3 2.8 4.9 6.1 7.7 9.4 7.7.7 0 4.3 1.5 8.2 3.3 3.8 1.9 8.4 4 10.2 4.7 6.4 2.5 6.3 2 4.7 30.2l-.4 7.6 3.3 2c2.8 1.7 3.4 2.7 3.8 6.6.7 5.6 2.2 7.6 5.7 7.6 3.4 0 7 3.7 10.5 10.7 1.6 3.2 3.4 5.4 4.8 5.8 1.3.4 4.2 1.6 6.4 2.6 3.5 1.5 5.1 1.7 10 .9 4.3-.7 7.5-.6 12.7.5 8.2 1.7 9.5 2.6 9.9 6.8.3 3.1.5 3.2 4.6 3.2 2.8 0 4.8.6 5.5 1.6 1.3 1.7 5 3.9 6.6 3.9 1.9 0 4.1-3.2 4.1-5.9 0-2.9-4.3-7.7-9.5-10.5l-3-1.6 4 .6c2.2.4 4.2.8 4.4 1 .2.2 1.2-.1 2.2-.7 3.9-2 1.4-6.5-5.6-10.2-1.6-.9-4-2.1-5.3-2.8-1.8-1-2.7-1-4.8.1-1.8 1-3 1.1-4.2.4-2.3-1.5-2.7-4.8-.7-6.4 2.4-2 1.8-3.4-3.4-7.8-4.7-4-4.9-4.3-5.3-10.4-.7-9 1.7-11.5 5.2-5.5 1.1 1.9 3.1 3.9 4.5 4.5 1.4.6 2.5 1.8 2.5 2.6 0 2.5 2.1 2.9 4.3.8 1.2-1.1 3.2-2.3 4.5-2.7 1.9-.5 2.2-1.2 2-4.7-.4-5.9 2.5-7.8 12.2-8 12.3-.2 16.6.9 18.9 4.8 2.3 3.9 5.1 4.3 13.6 2 6.1-1.6 9.2-3.1 12.5-6.1 2.3-2.1 3.7-2.4 14.5-2.7l12-.4v-3.5c0-3.3-.2-3.4-4.6-4-9.5-1.4-15.9-6.7-15.9-13.1 0-3.2-.6-4.5-3-6.6-3.4-3-3.6-5.1-1.8-13.4 1.4-6.4 2.1-7.5 6.7-9.6 4.9-2.4 5.7-5.6 4.2-16.4-1.8-12.2-1.3-12.8 10.1-14.3l4.7-.6.7-8.1c.7-7.8.8-8.1 4.1-10 1.8-1.1 4.1-3.4 4.9-5 .8-1.6 2.6-3.4 4-4 1.4-.7 2.8-2.4 3.2-4.2 1-3.9 5.4-4.9 7.2-1.7.6 1.2 2.1 2.1 3.5 2.1 1.3 0 3.1.9 3.9 2.1 1.4 2.1 11.1 5.9 14.8 5.9 1 0 4.8-.7 8.4-1.6 6.7-1.7 9-1.2 7.9 1.8-.3.8-3.7 3-7.6 4.8-3.8 1.9-7.9 4.4-9.1 5.7-1.9 2-2 2.5-.7 3.8.8.8 4.1 1.7 7.4 2.1 8.7.9 10.5 2.4 10.5 8.2 0 3.5.6 5.4 2 7 3.7 3.9 11 2.1 11-2.7 0-3.5 2.4-4.3 6.5-2.4l3.8 1.8 1.6-2.5c.9-1.3 2.6-3.6 3.8-5l2.2-2.5 4.3 2.3c5.3 2.7 9.9 2.8 12.2.3 4.3-4.8-2.5-9-11.3-7-8.3 1.9-13.4-.7-17.4-8.7-1.1-2.1-2.6-3.3-4.7-3.7-1.6-.4-3-1.1-3-1.7 0-1.1.7-1.4 5.5-2.5 1.6-.4 4.8-2.6 7-5l4-4.3 11.9-.5c11.5-.5 11.9-.6 15-3.6 5.2-5 12.7-6.8 14.4-3.3.6 1.1.1 5.1-1.4 11.7-1.3 5.5-2.4 11.8-2.4 14 0 5.6-2.2 8.5-6.6 8.5-2.7 0-3.4.4-3.4 2 0 3.8 5.6 7.8 14 10 2.5.6 5.6 2.2 7 3.5 1.4 1.3 4.5 2.8 7 3.4 2.9.6 5.4 2 7 3.9 1.4 1.6 5.9 6.8 9.9 11.5 5.6 6.5 8.4 9 11 9.7 5.3 1.4 7.7 1.2 11.3-1 2.6-1.5 5.1-2 11.1-2 12 0 17.4 3 24.3 13.8 4.3 6.7 7.1 7.8 13.7 5.6 9.7-3.2 19.4-.3 27.4 8.4l5.3 5.7 13.2.8c7.3.5 16.9 1 21.3 1.2 5.9.1 8.9.7 11.5 2.3 4.6 2.6 9.1 3.5 14 2.7l3.9-.7-5.5-6.6c-3.1-3.7-7.4-8.9-9.6-11.5-2.2-2.6-5.9-6-8.1-7.4-5.9-3.7-6.6-5-6.7-12.1 0-6.9-.5-8.2-6.2-16-3.5-4.7-4.2-5.2-7.8-5.2-6.3 0-6.7-2.3-2-13 1.5-3.6 3.2-8.3 3.6-10.5.8-3.7 1.2-4 5-4.7 9.3-1.5 20.2-9.7 18.8-14.1-.5-1.7-.2-1.8 2.5-1.2 2 .4 3.7.2 4.6-.5.9-.7 2.7-1 4.4-.7 1.5.3 3.2.2 3.7-.3s2.5-1 4.4-1.2c2.9-.2 3.6-.8 4.3-3.3.5-1.7 1.3-3.7 1.7-4.5 1.2-2.6 7-2.3 14.2.6 3.7 1.5 7.1 2.5 7.4 2.2.3-.4-1.1-3.1-3.1-6-2-3.2-3.3-6.1-3-7 .4-.9-.5-4.3-1.9-7.7-1.5-3.5-2.6-8-2.6-10.6 0-5.8-2.7-11-7.9-15.3-2.8-2.2-5.2-5.6-7.5-10.6-1.8-4-4.4-8-5.7-8.9-1.2-.9-2-1.9-1.7-2.3.4-.3 0-2.1-.8-3.9-.8-1.9-1.4-3.6-1.4-3.9 0-1.4 6.9-2.4 13.6-1.9 6.1.4 8.8.2 11.9-1.1 2.2-1 6.8-2 10.3-2.3 5.2-.5 6.2-.9 6.2-2.5 0-1 .5-2.7 1.2-3.7.9-1.5.6-2.9-2.1-7.6-1.8-3.1-3.1-5.8-2.9-5.9.2 0 2.9-1.4 6.1-3 5.2-2.6 6.4-2.8 13.5-2.4 7.9.5 12.4 2.1 25.2 9.2 2.5 1.4 10.7 5.1 18.3 8.2l13.7 5.7 4.3-3.3c10-8 11.7-9.6 11.7-11.4 0-1 .7-4.5 1.6-7.9 1.4-5.5 1.4-6.9-.1-16.1-.9-5.6-2-14.9-2.5-20.8-.8-11.6-2.3-15.4-7.3-19.2l-2.9-2.1-2.1 3c-3.9 5.6-11.8 12.6-16.3 14.6-9.7 4.1-20.1 1.2-28.7-8-5.2-5.6-9.7-13.8-9.7-17.8 0-5.9 3.9-8.3 20.9-13.3 12.3-3.6 15.3-8.5 11.6-19.1-2.1-6-8.4-16.4-14.2-23.5l-4.8-5.9-.6-12c-.4-7.6-1.3-14.5-2.6-19-1.2-3.9-4.2-16.5-6.7-28-7.9-36.2-16-62.1-23.1-73.6-3.4-5.5-3.5-6-2.2-9.1 2.3-5.5 12.7-13.8 28-22.2 9.1-5.1 9.1-7.5-.6-21.8-4.9-7.4-5.3-7.8-9.7-8.4-2.5-.3-6.9-1.7-9.9-3.1-3.4-1.6-8.4-2.8-13.5-3.3-4.5-.4-9.9-1.4-12.1-2.2-2.4-.9-10.1-1.8-18.8-2.2-12.8-.6-14.8-.5-15.3.8-1.2 3.2.5 6.4 4.1 7.6 4.3 1.4 7.1 6 5.5 9-.6 1.1-1.5 2-2 2s-2.5 1.3-4.3 3c-1.9 1.6-4.2 3-5 3-.9 0-3.5-2.7-5.7-6-4.3-6.3-7.1-7.6-8.9-4.1-2.1 3.9-8.5 5.3-26.6 5.7l-17 .3-2.8 3.6c-3.7 4.5-7.6 4.7-11.8.6-1.6-1.6-2.9-3.8-2.9-4.9 0-2.6-3.7-7.2-5.9-7.2-.9 0-3.2 1.1-4.9 2.4-1.9 1.3-5.3 2.6-8.2 2.9-2.7.3-7 1.7-9.7 3.1-2.6 1.5-6 2.6-7.5 2.6-4.1 0-11.4 3.1-18.7 7.8-4.9 3.2-7.4 4.2-10.5 4.2-5.2 0-5.9.5-8.4 6.2-3.5 7.9-9.6 9.4-21.4 5.2-2.2-.8-5.3-1.4-6.7-1.4-3.4 0-5.1-1.7-5.1-5.2s3-5.2 9.5-5.3c4.4 0 5-.3 5.3-2.3.2-1.3-.3-3.3-1.1-4.5-2-3-13-8.5-19.7-9.7-9.1-1.8-22.6-2-24.6-.6-1.6 1.2-1.5 1.5 1.2 3.1 11.8 7.3 11.5 6.8 8.8 15.3-.9 2.8-1.4 5.7-1.1 6.5.3.7 3.1 1.9 6.3 2.6 3.3.7 6.7 1.7 7.7 2.2 2.1 1.2 2.2 4.2.1 6-1 .8-1.4 2.2-1.1 3.8 1.3 6.4 1.3 6.6-1.4 6.9-1.4.2-5.6-.8-9.4-2.3-3.7-1.4-10-2.8-13.9-3.1-10.7-.8-11.2-1-14-5.8-1.4-2.4-3.7-5.1-5-6-1.7-1-3-3.2-3.7-6.1-1.3-5.1-2.4-6-8.9-6.9-2.8-.4-6.5-2-9.5-4.1-5.6-4-10.1-5.5-16.6-5.5-5.8 0-9.4-1.3-17.8-6.1-5-3-7.6-3.9-11.1-3.9-2.6 0-8.6-1.4-13.5-3-5.1-1.7-11-3-13.9-3-2.9 0-5.9-.7-7-1.5-2.5-1.9-5-1.9-10.3.1-5.6 2.2-8.5 1.3-10.6-3.1-3-6.3-14.2-9.4-19.6-5.6-4.1 3-11.4 3.7-17 1.7-2.4-.9-6-1.6-8-1.6-4.3 0-6.1-1.4-6.1-4.8 0-1.9.4-2.2 2-1.8 1.1.3 2.8.8 3.8 1.1 2.6.7 12.5-1.3 13.4-2.8 1-1.7-.3-2.7-4.8-3.3-2.1-.3-6-1.4-8.6-2.5-5.7-2.3-11.8-2.4-15.9-.3-1.7.8-4.2 1.4-5.7 1.2-2.2-.2-2.8-.9-3.2-3.8-.5-3.3-.7-3.5-4.7-3.8-3.2-.2-4.6.2-5.9 1.6zm-62.7 400.8c-.3.3-1.2.4-1.9.1-.8-.3-.5-.6.6-.6 1.1-.1 1.7.2 1.3.5z"/>
  <path d="M636.5 165c-1.1.5-3.2.9-4.7.9-1.6.1-2.8.5-2.8.9 0 1.4 6.9 4.2 10.6 4.2 2.7 0 3.7-.5 4.6-2.6 1-2.1.9-2.7-.3-3.5-1.7-1.1-4.7-1-7.4.1zM1105.7 173.5c-3.9 3.9-1.2 6.7 8.3 9 4.1.9 8.8 2.4 10.3 3.2 3.6 1.8 5.7 1.1 5.7-2s-1.8-4.7-5.1-4.7c-1.8 0-3.8-1.1-5.7-3.1-3.6-3.9-10.8-5.2-13.5-2.4zM981.1 190.6c-2.7 3.4-2.6 5 .4 7.9 1.9 2 3.4 2.5 7.7 2.5 6.6 0 15.6-2 16.2-3.7.9-2.3-2.9-5.1-10.1-7.2-9.4-2.8-11.7-2.7-14.2.5zM544.8 195c-7.4 2.6-12.8 5.8-12.8 7.7 0 2.7 8.1 1.1 12.6-2.5 2.2-1.6 4.9-3.3 6.2-3.7 2.2-.6 2.6-2.6.6-3.2-.5-.1-3.4.6-6.6 1.7zM546.6 201.1c-3.1 3.6-3.1 4.1-.8 6.1 2.7 2.4 7.9.5 9.6-3.5 1.6-3.9.5-5.7-3.4-5.7-1.9 0-3.7 1-5.4 3.1zM528 209.3l-5.5 2.1 4.5 1.3c7.3 2.2 14 0 12.4-4.1-.8-2.1-4.5-1.9-11.4.7zM512.5 213.9c-.6 1.1 3.3 3.6 4.2 2.7.3-.3.3-1.2 0-2.1-.7-1.7-3.3-2-4.2-.6zM109.7 240.7c-.4.3-.7 1.7-.7 2.9 0 1.6-.7 2.5-2.2 2.8-1.3.3-3.6.8-5.3 1.1-1.6.3-4 .9-5.3 1.2-1.3.3-3.3.1-4.5-.5-2.4-1.1-10.4-2.3-17.7-2.5-4.1-.2-4.5 0-4.8 2.3-.8 7.7-2.9 9.5-6.4 5.5-2.3-2.7-8.1-5-10.3-4.1-.9.3-1.5 1.8-1.5 3.5 0 2.6-.7 3.3-4.9 5.5-2.7 1.3-5.2 2.2-5.5 1.9-.3-.4-.6-2.1-.6-3.9 0-5.3-1.7-8.4-5.5-10-6.5-2.7-9.2-2.8-12.1-.5-1.5 1.1-4.1 2.1-5.8 2.1-3.4 0-5 .8-11.9 5.9-5.3 3.9-5.7 5.3-2.5 7.5 3.1 2.2 4.1 2 7.7-1 2.3-1.9 4.6-2.7 9.1-3.1 6.9-.7 9 .5 9 4.8 0 2.2-.7 3.2-3 4.4-2.7 1.4-4.1 1.4-11.2.4-7.5-1.2-8.1-1.2-9.4.6-2.7 3.7-1 7.5 3.3 7.5 3 0 7.2 2.1 9.7 4.8 1.4 1.6 1.6 2.9 1.1 5.9-.5 3.1-.2 4.2 1.2 5.5 2.7 2.3 8.7 2.8 14.9 1.2 7.4-1.9 8.2-1.8 14.9 1.2l5.6 2.6 6.2-2.3c6-2.3 7.2-2.4 35.9-2.5 23.3 0 30-.3 31.3-1.4 2.6-2.1 4.5-6.6 4.5-10.3 0-4.5 3.2-8.4 8.7-10.8 2.3-1 4.4-2.4 4.4-3.1.5-5.5-1.9-8.6-7-9-3.1-.3-3.8-.8-4.6-3.5-.6-1.8-2.2-4.4-3.5-5.8-2.5-2.6-4.4-2.8-9.2-1-1.1.4-2.7-.5-4.9-2.9-3-3.4-5.7-4.5-7.2-2.9zM228 315.5c0 2.2 3.6 8.6 5.1 9 2.1.7 6.6-1.3 7.3-3.2.8-1.9-2.9-5.3-5.6-5.3-1.3 0-3.3-.3-4.5-.6-1.3-.4-2.3-.3-2.3.1zM312.2 346.7c-3.8 1.5-3.4 7.1.8 9.3 2.5 1.3 8.4-1 9.9-3.9 2.2-4-5-7.7-10.7-5.4zM625.2 352.6c-1.5 1-2.2 2.4-2 3.7.2 1.8 1 2.2 3.7 2.2 4.1 0 6.2-2.5 4.5-5.3-1.5-2.3-3.5-2.6-6.2-.6zM288.8 373.2c-3.3 1.1-3.7 4.2-.9 5.7 1.3.8 3.2.6 6.5-.5 5.1-1.8 6-3.9 2-5.4-3-1.2-4-1.2-7.6.2zM665.9 377.1l-3.3 3.1 2.4 1.9c4.7 3.6 13 1.6 13-3.2 0-1.5-5.2-4.9-7.5-4.9-.7 0-2.8 1.4-4.6 3.1zM677.5 385.5c-2.2.8-5.8 1.4-8 1.4-4.7.1-11.5 1.9-11.5 3 0 .4 1 2.8 2.3 5.2 3.2 5.9 6.2 6.3 11.9 1.5 2.3-2 5.9-4.1 8-4.7 2.7-.7 3.9-1.6 4.4-3.4 1.1-4.6-.3-5.2-7.1-3zM258.2 387.2c-.6.6-1.2 2.5-1.2 4 0 3.9-2.9 6.4-9.7 8.4-3.2.9-6.2 1.9-6.8 2.2-1.1.6 1-2.2 3.8-5 1.7-1.8 2.2-5.3 1.1-8.2-1.7-4.4-13.5.3-16.9 6.7-1.8 3.4-1.9 3.9-.5 6.4 1.1 2 2.5 2.9 4.7 3.1 3 .3 3.1.5 2.3 2.8-2.3 5.9.1 10.1 4.7 8.3 3.1-1.1 5.3.3 5.3 3.5 0 1.2 1.4 3.3 3.2 4.7 3.2 2.6 3.2 2.7 2.2 8.3-1.2 6.6-.6 7.6 4.7 6.9 4.5-.6 6.9.8 6.9 4.3 0 1.2.5 2.6 1 2.9 2.1 1.3.9 4.7-3 8.4-4.2 3.9-5.1 7.4-2.4 8.5 4.7 1.8 13.8-.5 17.5-4.5 3.3-3.6 4.4-2.6 5.3 5.1.6 4.8 1.3 6 5.2 9.6 5.4 5 6 9 1.8 12.3-5.3 4.2-12 4.7-17.2 1.3-3.7-2.4-4.6-.3-5.2 11.6l-.5 10.7-3.6 1.7c-4.7 2.2-8.1 6.5-7.7 9.7.3 2.6.4 2.6 13.1 3.4 15 .9 18 1.8 17.5 5-.3 2-1 2.3-7 2.8-5.2.4-7.6 1.2-10.9 3.5-2.3 1.6-6 4.1-8.3 5.6-4.4 2.9-11.6 11.2-11.6 13.4 0 3.7 8.6 2.6 13.6-1.8 2.7-2.4 4-2.9 6.2-2.3 8.7 2.2 9.6 2 15.2-3.4s7.4-6 12-3.6c3.6 1.9 6.7 1.3 13.6-2.6 5-2.8 5.5-2.9 20.3-2.9 16.2 0 20.2-.8 25.1-5.4 1.4-1.3 3.4-2.9 4.5-3.5 1.8-1.1 1.7-1.2-1.1-.7-3.7.6-7.4-1.6-7.4-4.4 0-2 3.1-4.5 10-8 2.5-1.2 4.8-2.8 5.2-3.4 1.1-1.6-.1-9.7-1.9-12.4-1.2-2-2-2.3-5.2-1.7-5.3.9-9.2-2.2-8.4-6.8.4-2.8.1-3.5-1.8-4.3-1.5-.7-2.6-2.4-3.3-5.5-1-3.9-1.5-4.4-4.1-4.7-3.3-.4-5.7-2.6-4.9-4.7.9-2.3-1.5-5.4-5.6-7.5-2.2-1.1-5.9-3.3-8.2-4.9-4-2.7-4.3-3.3-4.3-7.5-.1-4.2-.5-5.1-5.2-9.8l-5.2-5.2-8 .3c-11.4.3-16.2-3.3-8.6-6.5 2-.8 4.1-2.6 4.7-4 .6-1.3 2.3-2.7 3.7-3 7.3-1.5 8.4-3.3 9.7-16.5.6-6.3.5-6.8-1.7-8.3-2.3-1.4-3-1.3-10.4 1-9.6 3-16.1 2.9-15.8-.1.1-1.1 1.1-2.7 2.3-3.5 3.5-2.4 7-5.8 7-6.9 0-2.1-3.2-4.2-5.4-3.4-2.2.8-9.7.7-18.1-.2-3.3-.4-5.4-.2-6.3.7zM613.5 401.1c-7.1 1.7-10.7 7.2-6.6 10.1 1.1.8 2.1 2.7 2.3 4.3.5 5.1 5.7 4.3 5.8-.9 0-1 1.4-3.4 3-5.3 1.7-1.8 3-4.2 3-5.1 0-1.8-1.8-4.3-2.9-4.1-.4.1-2.4.5-4.6 1zM586.3 419.2c-1.8 2.5-3.4 11.1-2.3 12.2 2 2 6.3-1.5 7.7-6.4 1.6-5.4 1.1-7-2-7-1.4 0-2.9.6-3.4 1.2z"/>
  <path d="M238.3 424.7c-2.1.8-1.5 5.1.7 5.8 2.5.8 4-.1 4-2.5 0-2.1-2.8-4-4.7-3.3zM520.2 437.5c-1.9 2.1-3 2.5-8.2 2.5-5.5 0-6 .2-6.6 2.5-.9 3.5.1 5.3 3.7 7.3 1.7.9 4.7 2.7 6.6 4 2 1.3 4 2.1 4.5 2 .5-.2 1.8-2.6 2.8-5.3.9-2.8 2.3-6.4 3.1-8.2 1.2-2.8 1.1-3.4-.6-5.2-2.3-2.7-2.7-2.6-5.3.4zM239.6 439.2c-2.2 3-.3 4.8 2.4 2.3 1.1-1 2-2.4 2-3.2 0-2.1-2.7-1.5-4.4.9zM245.6 445.9c-.8 1.2 2.1 3.4 3.4 2.6.8-.5.8-1.1-.1-2.1-1.3-1.6-2.5-1.8-3.3-.5zM212.6 452.3c-6 1.5-9.8 3.1-11.8 4.9-3.7 3.4-3.5 4.5.7 6.2 4.1 1.7 5.1 3.6 3.6 6.5-2 3.7-4.9 3.6-10.5-.3-6.1-4.2-11.2-4.8-14.1-1.6-2.8 3.1-1.3 6.7 3.5 8 4.5 1.2 4.7 1.6 2.4 4.8-.9 1.4-2.6 2.2-4.3 2.2-3 0-4.5 1.9-3.5 4.4.3.8 2.7 1.7 5.9 2.1 2.9.3 6.1 1.2 7.1 1.9 1.7 1.3 1.4 1.7-3.7 6.4-2.9 2.8-6.3 5.1-7.3 5.2-2.4 0-11.6 9.8-11.6 12.3 0 1 2 3.8 4.5 6.3 4.2 4.1 4.9 4.4 9.8 4.4 7.9 0 21.6-4 26.2-7.7 4.8-3.8 10.5-5.4 18.3-5.2 3.3.1 6.5-.2 7.2-.6 3.9-2.4 8.3-20.8 7.3-31-.4-5.1-.2-6.4 1.6-8.7 1.2-1.5 3.4-3.3 4.9-4 1.5-.7 2.7-1.9 2.7-2.6 0-2-9.8-15.1-11.8-15.8-1-.3-2.4 0-3.2.6-.9.8-2.7 1-4.7.6-7.3-1.5-10.7-1.4-19.2.7zM563.4 451.5c-.7 1.8 1.2 4.5 3.2 4.5s3.6-3.4 2.2-4.8c-1.7-1.7-4.8-1.5-5.4.3zM504.7 457.6c-.4.4-.7 1.5-.7 2.3 0 2.3 10.9 4.9 12.1 2.9 1.6-2.5-1.5-5.3-6.3-5.6-2.4-.2-4.7 0-5.1.4zM486.6 703.3c-1 1.4-3.2 3.1-5 3.7-6.4 2.1-7.8 11.9-1.9 14.1 2.1.8 2.3 1.3 1.8 4.3-.6 2.8-.3 3.6 1.4 4.5 3.7 2 7.1-1 9.2-8.2 1.3-4.5-.1-16.4-2.1-19l-1.7-2.1-1.7 2.7zM485 738.7c-3.5 1.9-5.5 2.4-8.8 2-6.5-.7-10.2 4.2-4.7 6.3 2.2.8 2.4 1.3 1.5 2.9-1.7 3.4-1.2 5.9 1.7 7.3 2.4 1.2 2.7 1.9 2.8 6.8.1 3-.5 6.8-1.2 8.3-1.2 2.5-1.2 3.2.2 5.3.8 1.3 2 2.4 2.5 2.4s1 1 1.2 2.2c.2 1.7 1.1 2.4 3.1 2.6 2.1.3 3.6-.6 6.8-3.7 2.2-2.3 4.8-4.1 5.9-4.1 2.5 0 3.2-2.6 2-7.5-.5-2.2-.7-7.8-.3-12.5.7-10.2-.7-16.1-4.4-18.9-3.1-2.5-2.7-2.5-8.3.6zM376.2 766.6c-1.2.8-2.2 2.1-2.2 2.9 0 1.6 7.2 5.5 10.3 5.5 4.5 0 6.6-3.9 4.2-7.6-1.2-1.9-2.4-2.4-5.8-2.4-2.3 0-5.3.7-6.5 1.6zM355.8 778.7c-3.7 1-2.5 6.8 1.7 7.9 5 1.2 7.5-4.1 3.3-7-1.2-.9-2.5-1.5-2.8-1.5-.3.1-1.2.3-2.2.6zM588.6 797c-4 2.6-10.2 3.2-16.6 1.8-6.4-1.3-22.9-1.1-24.7.4-.7.6-1.3 2.8-1.3 4.9 0 4.3 2.7 7.9 6 7.9 1 0 3.5 1.3 5.3 3 3.5 3.1 6.1 3.8 7.2 2 1.2-2 3.4-.9 3.7 1.7.2 2.3.8 2.8 2.9 2.8 1.7 0 3.5 1 4.9 2.7 1.5 2 3.1 2.8 5.3 2.8 1.8 0 5.1.9 7.5 2 3.5 1.6 4.7 1.7 6.8.8 4.9-2.2 4.4-8.8-.9-10.3-4.6-1.4-4.8-4.6-.3-9.5 4-4.4 4.3-6.3 2.2-11.5-1.7-4-3.6-4.3-8-1.5zM699.6 801c-4 1.2-7.6 4.9-7.6 7.7 0 1.9 1 2.8 4.8 4.5 2.6 1.1 4.8 2.1 4.9 2.2.1.1.5 2.1.8 4.5.8 7 2.1 8.4 6.5 7.7 4.3-.7 5.6.4 6.6 5.3.9 4.2 2.4 5 2.4 1.2 0-4 2.2-4.1 5.9-.1 1.5 1.7 3 2.7 3.4 2.4 1-1.1-.4-12.6-2-15.7-1.9-3.8-1.1-5.6 2.1-5 3.4.7 3.4-1 0-5.6-3.7-4.9-5.3-6.1-8.6-6.1-1.6 0-4.6-.9-6.8-2-4.1-2.1-7.6-2.4-12.4-1zM749 801.9c0 1.4 1.1 2.5 3.3 3.4 1.7.8 3.8 2.1 4.6 3.1 1 1.2 1.7 1.3 2.7.5 2-1.7.2-5-3.7-6.4-1.9-.7-4.2-1.6-5.1-2-1.4-.5-1.8-.2-1.8 1.4zM752 824.4c-4.6 1.7-4.7 4.2-.2 3.9 3.4-.1 7.6-2.9 6.6-4.4-.7-1.2-2.1-1-6.4.5zM765.7 834.7c-1.2 1.1 1.4 3.3 3.9 3.3 3.2 0 3.1-1.8-.2-3-3-1.2-2.9-1.2-3.7-.3zM737.6 850.3c-2.1 1.5-2.4 6-.6 8.1.6.8 3.3 1.8 5.8 2.1 8.1 1.1 12.5 2.6 17.2 5.5 5.4 3.4 16.4 5.7 18.6 3.9 3-2.5.4-11.7-3.9-13.6-1.2-.6-6.6-.8-12.2-.6-10 .5-10 .5-13.9-2.6-2.1-1.7-4.5-3.1-5.2-3.1-.7 0-1.8-.2-2.6-.5-.7-.3-2.2.1-3.2.8z"/>
</svg>
