<svg version="1.0" xmlns="http://www.w3.org/2000/svg" viewBox="0 0 1280 761">
  <path d="M1179 1c-9 .4-15.4 1.1-16.9 1.9-1.9 1.1-3.4 1.1-7.5.2-3.8-.9-7.8-.9-16.1-.1-6 .6-15.6 1.1-21.2 1.1-9.2 0-10.5.2-13.9 2.6-3.6 2.4-3.9 2.4-6.5.9-4.2-2.5-7.5-2-9.9 1.4-2.6 3.6-3.6 3.7-9.6.5-6.1-3.2-7.5-3.1-9.9.8-2.5 4-4.9 4.5-8.6 1.8-2.3-1.7-3.2-1.9-4.7-1-1.5 1-2.4.8-4.8-1-2.8-2-3.4-2.1-16.9-1.2-12.5.9-15 1.4-23.5 4.7-8.9 3.4-10.3 3.7-21.5 3.9-13 .2-24.1 2-24.9 4-.2.7.2 2.5 1 4s1.4 2.8 1.4 3c0 .8-9.5 2.5-13.6 2.5-6.3 0-35.7 4-36.7 5-.5.4-.6 1.7-.2 2.8.6 2 1.3 2.1 15.9 2 8.3-.1 15.8.2 16.6.7.9.6-1.7 1.6-7.8 3.1-8.4 2.1-9.6 2.2-13.3.9-5.3-1.9-10.1-1-9.7 1.9.3 1.8.9 2.1 4.5 1.8 4.3-.4 4.3-.4 3.7 2.6-.6 2.8-.4 2.9 3.6 3.6 3.1.5 4.9.2 6.6-.9 3.2-2 8-1.9 9.4.2.9 1.6 1.2 1.5 3.5-1.2s2.7-2.8 3.6-1.3c1.3 2.4 4 2.3 7.2-.2 3.1-2.4 4.9-2.6 4.5-.4-.3 1.4.8 1.7 6.3 1.8 4.6.1 7.3.6 8.5 1.7 1.1.9 3.2 1.9 4.7 2.3 2.2.5 2.7 1.2 2.5 2.9-.2 1.7.3 2.3 2.3 2.5 2.2.3 2.7 1 3.8 6 1.5 6.7.3 13.1-3.5 19.8-3.5 5.9-3.2 7.7.9 6.9 1.7-.3 4.4-1.1 5.8-1.6 2.1-.8 3.4-.5 7.2 1.8 5.3 3.2 6.1 4.4 4.2 6.9-1.2 1.7-1.5 1.7-5.1.1-5.1-2.2-12.9-2.7-12.9-.8 0 .8 1.9 1.9 4.5 2.5 11.6 3 15.4 6.9 12.5 12.5-1.6 3.2-1.6 3.2-7.4 2.5-5.5-.6-5.9-.5-9 2.5-1.7 1.7-3.6 3.1-4.1 3.1-.4 0-2.2 1.2-3.9 2.6-3.8 3.1-4.4 8.3-1.1 9.1 2.2.6 2.7 2.3.7 2.3-1.8 0-4.7 3.3-4.7 5.3 0 .9 1.2 2.7 2.7 4.1 2.7 2.5 2.7 2.6 1.6 9.2-1.4 7.8-.2 12.1 4.1 14.9 2.1 1.4 2.3 2 1.3 3.5-.9 1.6-.8 2.4.9 4.7 1.2 1.5 2.6 4.5 3.3 6.6.7 2 2.1 4.2 3.1 4.7 2.8 1.5 11.6 1.2 12.9-.4 1-1.2 1.8-1.1 5.1.8 3 1.6 4.1 2.9 4.6 5.3.7 3.6 1.5 4.1 3.4 1.8 1-1.2 2.4-1.4 5.4-1 4 .6 4.2.5 8.8-5.2 2.6-3.2 5.8-6.8 6.9-8 1.7-1.7 2.1-2.9 1.6-5.7-.6-3.6 1.4-6.9 2.8-4.6 1.1 1.7 2.4 1.1 4-2 .9-1.7 2.3-3 3.3-3 2.7 0 6.2-2.9 6.2-5.1 0-1.2-.7-1.9-2-1.9-3.1 0-2.4-2 .9-2.6 2.7-.6 2.9-.9 2.4-4-.6-3.4-.6-3.4 3.5-3.4 2.4 0 4.2-.5 4.5-1.4.3-.8 3-1.6 6.8-2 7.6-.9 9.7-1.9 10.1-4.8.2-1.3 1.1-2.4 2.1-2.6 1.5-.3 1.8 0 1.2 1.8-.6 2-.4 2.1 4.7 1.8 3.9-.2 5.3-.7 5.3-1.8s1.2-1.5 4.3-1.7c5.1-.2 7.2-1.4 14.4-8.7 3.6-3.6 6.5-5.6 8.4-5.8 2.5-.2 2.9-.8 3.2-3.6.4-3.9.8-3.9 4.3-.6 2.7 2.6 2.7 2.6 8 1 3-.8 9.3-1.9 14.1-2.5 5.6-.6 10.4-1.9 13.5-3.4 4.3-2.2 11.9-5.3 25.6-10.2 4.9-1.7 5.8-2.9 3.1-3.9-2.9-1.1-24.8.6-27.2 2.1-1.3.8-3.1 1.2-3.9.9-2.5-1 1.3-4.4 5.6-5.1 6.5-1.1 8.1-2.2 8.1-5.5 0-3 .2-3.1 3.7-2.8 2.9.2 4 .9 5.3 3.3 1.4 2.5 2.3 3 5.6 3.1 2.1 0 4.7.4 5.6.8 3.6 1.6 5.3.3 5.2-3.9-.1-3.5-.4-4-2.3-3.7-1.5.2-2.1-.2-2.1-1.7 0-2.3-1.8-3.7-4.3-3.3-1 .2-2.9-.3-4.1-1.2-2.4-1.5-6.2-8.3-5.2-9.3.5-.6 4.4.5 14.5 4.2 2.7 1 4.8 1.2 5.3.7.6-.6.6-1.2-.1-1.6-3.5-2.2 2.7-7.5 8.9-7.7 1.9 0 5.5-.8 8-1.9 3.9-1.6 4.5-2.1 4.2-4.5l-.3-2.7 5.4.7c4.2.5 5.6.3 6.6-.9 1.6-2 .6-3.6-2.3-3.6-1.3 0-2.9-.7-3.6-1.6-1.1-1.3-1-1.6.7-2 1.6-.4 2-1.3 1.9-4.2-.1-3.1.3-3.7 2.2-4 1.5-.2 2.2-.9 2-2-.2-1.3-1.6-1.8-5.1-2-2.6-.2-4.7-.7-4.7-1.3 0-.5.4-.9.9-.9.6 0 3.1-1.8 5.6-4 2.5-2.2 5.3-4 6.1-4 2 0 1.7-2-.7-4.6-2.5-2.7-1.6-4.8 1.7-4.1 1.3.2 2.9-.2 3.5-.9.6-.8 2.2-1.4 3.5-1.4 1.2 0 3-.7 3.8-1.6 1.1-1.1 2.5-1.4 4.5-.9 2.1.4 3.5 0 5.7-1.8 2-1.7 4.8-2.6 8.9-3.1 6.6-.7 9.2-2.2 5.4-3-12.5-2.6-19.3-2.9-24.5-1.2-2.7.8-7.9 1.7-11.5 1.9-4.6.2-7.2.9-8.4 2-.9.9-2.4 1.7-3.4 1.7-.9 0-4.1.9-7.1 1.9-3 1.1-5.8 1.7-6.2 1.5-1.6-1-.7-2.2 3-3.9 3.4-1.7 5.1-3.2 5.2-4.5 0-.3-4.3-.4-9.5-.2-9.3.4-11.2-.2-8.2-2.6.7-.6 5.8-1.3 11.2-1.4 6.4-.2 10-.7 10.2-1.5.3-.7-1.3-1.4-4.4-1.8-10.2-1.3-18-2.7-22.2-4.1-2.5-.8-5.4-1.3-6.5-1.2-1.2.1-8.6.4-16.6.8z"/>
  <path d="M930.7 3.7c-.5.4-9.8.8-20.8.9l-20 .2-2.4 2.6c-2.5 2.7-5.9 3.4-7 1.6-.8-1.3-9.6-.4-14.6 1.5-2.4.9-9.3 1.5-19.8 1.7-8.8.1-16.1.5-16.1.9s1.4 2 3 3.6l3 2.9 17.6.2c9.7.2 18.1.5 18.6.8.5.3.4 1.2-.3 2-1.4 1.7-17 2-20.1.3-1.6-.9-2.5-.6-4.7 1.4-1.4 1.3-3.9 2.8-5.6 3.1-2.9.7-2.9.7-1.1-1.3 1.9-2.1 1.6-5.1-.6-5.1-.6 0-2.2 1-3.5 2.2l-2.4 2.2-.6-2.2c-.4-1.7-1.3-2.2-3.9-2.2-2.7 0-3.6-.5-4.4-2.4-.5-1.5-2.2-2.9-4.3-3.5-3-1-4.6-.8-12 1.8-4.7 1.6-9.4 3.4-10.5 4-1.1.6-3.6 1.1-5.5 1.1-4.7 0-8.6 3.2-7.1 5.7 1.5 2.4 11.4 3.7 17.1 2.3 2.3-.5 5-1 6-1 1.6 0 1.6.1.1 1.6-1.2 1.2-3.7 1.7-9.7 1.8-7 .1-8.1.3-8.1 1.8 0 2.8 4 4.5 12.1 5.2 6.8.6 7.7.4 9.4-1.4 1-1.1 2.8-2 3.9-2 1.2 0 5.4-.9 9.4-2 3.9-1.1 9.1-2 11.5-2 6.1 0 10.6-1.8 11.3-4.4.5-2 .9-1.8 5.5 2.6 2.7 2.7 4.9 4.9 4.9 5.1 0 .1-6.5.1-14.5-.1l-14.4-.4-2.4 2.6c-1.5 1.6-3.5 2.6-5.3 2.6-3.5 0-4.9.9-5.8 3.5-.4 1.6-1.5 2.1-4.3 2.2-5.3.3-14.7 3.8-15.1 5.7-.5 2.5 2.5 3 10.8 1.7 5.7-1 8.3-1 9.8-.2s2.9.7 5.8-.5c3.1-1.3 4.5-1.4 7.6-.5 3 .9 4.8.9 8.6-.3 5.3-1.5 8.7-.7 6.4 1.6-.6.6-1.2 1.8-1.2 2.6 0 1.5.4 1.5 10-1.3 3-.9 8-1.9 11-2.3 4.9-.6 5.5-1 5.8-3.2.5-3.2 2-5 4.2-5 .9 0 2.5-.9 3.6-2.1 1.2-1.3 2.7-1.9 4.2-1.6 1.4.3 3.9.1 5.6-.3 1.7-.5 4.3-1.1 5.9-1.4 1.8-.4 2.7-1.3 2.7-2.6 0-1.1 1.1-2.7 2.4-3.5 1.3-.9 3.6-3.4 5-5.5 3.2-4.8 6.3-5.2 13.4-1.6 3.8 1.9 5.7 2.3 10.2 1.9 3.2-.3 6.3-1.3 7.5-2.3 1.4-1.2 4.3-1.9 9-2.2 4.4-.3 8.6-1.3 11.2-2.7 2.3-1.1 5.6-2.1 7.2-2.1 4.3 0 6.1-.9 6.1-3.1 0-1.9.8-2 15.1-1.8 9.4.1 15.5-.3 16.1-.9 2-2 0-4.1-4.4-4.6-2.4-.3-8.1-1-12.8-1.7-4.7-.6-17.5-1.3-28.5-1.4-11-.1-20.9-.5-22-.9-1.1-.4-2.4-.4-2.8.1zM723.3 32.6c-1.8 2-3.3 4.1-3.3 4.5 0 1.6 4.5 2 10.5 1.1 6.8-1.1 9.2-.3 10.1 3.3.3 1.4.7 2.5.9 2.5.8 0 9.6-5.3 10.1-6.1.3-.6-.1-2-.8-3.1-1.6-2.4-9.5-4.7-18.8-5.4-5.3-.5-5.6-.4-8.7 3.2zM681.8 33.4c-1 .7-1.8 1.9-1.8 2.7 0 1.1 1.7 1.4 7.8 1.3 10.7-.2 10.4-.1 10-2.7-.3-2-.9-2.2-7.3-2.4-4.7-.2-7.6.2-8.7 1.1zM762 35.5c-2.3 2.7.6 4.3 8.3 4.6 11.9.4 11.7-4.4-.3-5.6-5.5-.6-6.8-.4-8 1zM660.8 38.7c-1 .2-1.8 1.3-1.8 2.4 0 1.4.7 1.9 2.5 1.9 3 0 8.5-2.6 8.5-4 0-1-5.9-1.2-9.2-.3zM683 39c-.8.5-3.8 1-6.5 1-5.1 0-9.5 2-9.5 4.4 0 1.7 11.7.9 14.7-1 1.2-.8 3.4-1.4 4.8-1.4 2.8 0 3.5-2.4.9-3.4-2.1-.8-2.6-.7-4.4.4zM705.4 42.5c-1.3 1.9-1.4 2.8-.5 3.9 2.4 2.9 6-.2 6.1-5.2 0-2.2-3.9-1.3-5.6 1.3zM636 42.9c-1.4.5-5.4 1.4-8.9 2-5.4 1.1-6.5 1-8-.3-2.3-2.1-3.7-2-5.3.2-1.1 1.5-18.9 7.2-26.3 8.4-1.2.2-2 1.1-2 2.2 0 1.6 1 1.9 7.4 2.2 5.4.3 8 0 9.7-1.1 1.3-.8 3.5-1.5 5-1.5s4.4-.5 6.5-1.1c3-.9 4.2-.9 5.3 0 1.3 1.1 2.1.9 4.5-.8 1.6-1.2 4.2-2.1 5.8-2.1 1.5 0 4.2-.9 5.8-2 1.7-1.1 4-2 5.2-2 3 0 4-2 1.8-3.7-2.1-1.5-2.9-1.5-6.5-.4zM766 43.4c0 1.9 2.3 2.5 9.3 2.4 4.8 0 5.7-.3 5.5-1.7-.4-2.3-14.8-3-14.8-.7z"/>
  <path d="M794.2 43.1c-4.3 1.3-3.6 3.5.9 3.2 5.6-.5 7.9-1.3 7.9-2.8 0-1.7-3.6-1.9-8.8-.4zM753.8 48.7c-3.1.8-1.9 3.2 2.1 4.3 2.2.6 6.4.8 9.3.4 4.4-.5 5.6-.3 6.8 1.1 1.5 1.8 1.6 1.8-5.1 6.6-3.1 2.2-1.9 4.9 2.2 4.9 1.8 0 4.1.8 5.1 1.7 1.7 1.5 2.1 1.5 5.4 0 4.8-2.3 6.7-2.2 5.9.3-.8 2.5 1 2.6 9 .2 8.1-2.4 24-2.3 27.8.3 3.5 2.3 16.1 1.7 19.8-.8 1.3-1 3.1-1.7 4.1-1.7 1.2 0 1.8-.8 1.8-2.3 0-6.1-9.3-8.6-23.3-6.2-4.8.8-10 1.5-11.6 1.5-1.7 0-3.3.4-3.6 1-.9 1.5-6.9 1.2-9.1-.5-2.5-1.9-5.4-1.9-8.1 0-1.9 1.4-2.1 1.3-2.5-1-.3-1.3.1-3 .9-3.8 1.2-1.2.8-1.6-2.6-3.2-2.3-1-5.2-1.5-6.7-1.2-1.5.3-4.8-.1-7.3-.9-4.3-1.3-16.5-1.7-20.3-.7zM665.8 50.6c-3.2 1.7-3.2 1.8-1.6 4.3 1.7 2.7.3 5.1-2.9 5.1-4.8-.1-12.5-2.6-13.9-4.5-1.9-2.6-16.4-3.4-19.9-1.1-1.3.9-3.3 1.6-4.3 1.6s-2.9.8-4 1.9c-1.2 1-3.2 1.6-4.4 1.4-2.8-.5-9.1 3.3-8.5 5 .2.7 1.1 1 1.8.8.8-.3 2.7-.5 4.2-.5 1.5-.1 3.1-.6 3.5-1.2.4-.6 4-1.1 8-1.2 5.6-.1 7.2.2 7.2 1.3 0 1.7-3.3 2.7-7 2.3-1.6-.2-2.5.3-2.8 1.4-.5 2.4 4.2 3.4 9.5 2 2.4-.7 5.6-1.2 7.1-1.2s5.9-.9 9.7-2c4.9-1.4 10-2 16.8-2 16.3 0 27.1-4.2 22.5-8.8-1.7-1.7-3.5-1.5-6.8 1-3.9 2.9-6 1.3-3.5-2.5.9-1.5 1.4-3.1 1-3.7-.9-1.5-8.6-1.2-11.7.6zM722.1 51.1c-5.1 2-8.9 7.7-6.2 9.3.5.3.7 1.4.5 2.4-.4 1.4.3 1.7 5 2 4.4.2 6.6-.3 11.4-2.8 6.7-3.4 11.2-7.2 11.2-9.5s-2.5-2.9-5.3-1.1c-2.2 1.5-2.6 1.5-3.7.1-1.4-1.7-9-2-12.9-.4zM700 52.5c0 .9.7 1.8 1.5 2.1.8.4 1.5 1.5 1.5 2.5 0 2.5 2.2 3.4 4.9 2 2-1.1 2.3-4.3.7-6.9-1.1-1.8-8.6-1.6-8.6.3zM688.2 61.2c-2.4 2.4-1.4 4.1 2 3.4 3.3-.6 5.8-2.3 5.8-3.7 0-1.3-6.4-1.1-7.8.3zM741.8 62.1c-2.4 1.4-2.3 3.6.3 5 2.9 1.5 11 .5 12.4-1.5.7-.9 2-1.6 3-1.6 1.4 0 1.5-.3.5-1.5-1.5-1.8-13.4-2.1-16.2-.4zM552.1 69.9c-1.1 1.1-2.1 3-2.1 4 0 1.4-1.1 2.3-3.7 3.1-2.1.7-7.3 3.2-11.5 5.6-4.3 2.5-9.2 4.7-10.8 5.1-4 .7-4.5 1.9-2 4 1.1 1 2 2.5 2 3.4 0 3.7 2.7 4.3 8.9 2 3.2-1.1 7.8-2.1 10.3-2.1 3.3 0 5-.6 6.4-2.1 2.6-2.9 7-5 8.8-4.3.9.3 3.7-.7 6.3-2.4 2.7-1.6 6.8-3.3 9.3-3.7 2.5-.3 6.5-1.2 9-2 2.5-.7 7-1.6 10-2 9.2-1 10.4-3.3 3.6-7-3.1-1.7-4.1-1.8-8.1-.7-6 1.6-8.6 1.5-11.3-.4-1.5-1-5.6-1.7-12.6-2.1-9.6-.5-10.5-.4-12.5 1.6zM745 73c-3.1.4-6.5 1.2-7.7 1.8-1.2.7-3.3 1.2-4.7 1.2-1.6 0-2.6.6-2.6 1.4 0 .8-1.1 1.7-2.5 2-3.3.8-5.6 7.9-3.4 10.1 2 2 7.7.4 10.4-2.9 2.4-2.9 3.7-3.2 8.9-2.1 3.5.7 4.9.3 11.5-3 4.2-2.1 8.7-4.3 10.1-4.9 1.4-.7 2.5-1.8 2.5-2.6 0-1.2-1.7-1.5-8.5-1.6-4.7 0-11 .2-14 .6zM790 74c-1.4.4-7.7 2.5-14 4.5-10.6 3.3-11.9 4-17.3 9.1-5.8 5.7-6.4 7.4-2.3 7.4 2.8 0 8.7 1.9 10.1 3.3.7.6-1.6.7-6.5.3-5.8-.5-8-.3-9.5.8-1.9 1.4-1.9 1.5.5 3.5 1.9 1.5 3.9 2 8.6 2.1 3.3 0 6.4.4 7 .9.5.5 4.3 1.1 8.4 1.4 4.1.2 10.9 1 15 1.8s10.4 1.3 14 1.3c7.4-.2 14.2-2.6 13.4-4.8-.3-.8 0-1.7.6-2.1.7-.4 2.9 1.2 5.4 4.1 2.3 2.6 5.8 5.3 7.7 6l3.4 1.2-3.1.1c-3.8.1-8 3.2-7.2 5.2.7 1.9 8.7 1.3 9.5-.7.6-1.6 3-1.9 3.5-.4.2.5 2.3 2 4.8 3.3 4.4 2.3 4.5 2.5 4.5 7.3 0 3.9-.3 4.9-1.7 4.9-.9 0-2.5.8-3.5 1.8-1.1.9-3.1 1.7-4.5 1.7s-2.8.6-3.1 1.4c-.3.8-2.2 2-4.1 2.7-3.6 1.3-4.6 3.5-2.5 5.6 1.6 1.6.2 2.1-8.1 3.3-5.8.8-8 .7-11.6-.5-5.8-1.9-6.7-1.9-8.8.4-1 1.1-3.2 2.1-5 2.3-2.7.3-3.2.7-3.6 3.8-1.1 6.6.4 7.2 10.7 4.4 3.2-.8 10-1.6 15-1.7 8.1-.2 9.2 0 8.8 1.4-.6 1.9 1.3 3.8 5.1 4.8 3.5.9 4.2 2.8 1.2 3.3-1.4.2-2.4 1.1-2.6 2.4-.2 1.7.3 2.1 3 2.1 5.9.2 9.7 1.4 10.3 3.4.7 2 2 2.4 9.5 3.3 2.4.2 4.9 1.2 5.6 2 1.4 1.9 5.4 2.1 7.8.3 1.7-1.3 1.7-1.5.2-4.5-.9-1.8-2.1-3.2-2.6-3.2-1.7 0-10-6.4-10-7.7 0-1.5 2.6-1.8 3.5-.3.3.5 1.9 1 3.4 1 2.1 0 3.6.9 5.5 3.4 1.8 2.4 3.1 3.3 4.5 2.9 1.3-.3 2.3.2 3.1 1.8l1.3 2.3 1.4-2.7c.7-1.5 1.8-2.7 2.3-2.7.6 0 1-.9 1-2 0-1.3.7-2 2-2 2.7 0 3.6-2.5 2-5.5-.7-1.3-1-3.1-.6-4.1.8-2.1-1.1-4.4-3.6-4.4-2.4 0-7.8-5.5-7.8-7.9.1-2.2 4.5-7.1 6.6-7.1 3.6 0 9.3 4.3 11.3 8.6 1.8 3.7 2.4 4.2 6 4.6 4.8.4 6.1.1 6.1-1.7 0-2.3 2.8-3.9 5.2-2.8 1.8.8 2.8.4 5.5-2.3 1.8-1.8 3.3-3.8 3.3-4.3s1.2-.9 2.6-.8c3.3.2 5.4-2.5 3.8-5.1-.8-1.2-3.2-2-8.2-2.6-6.3-.8-7.2-1.2-7.2-3 0-3.8-1.7-5.1-6.7-5.2-2.6-.1-7-.9-9.6-1.9-8.2-3-7.3-6.8 1.2-5.9 2.6.3 5.2.1 5.9-.4 1.8-1.2.4-4.2-2.2-4.3-2.1 0-2.1 0 .2-.9 2.7-1.1 2.8-3.5.3-7.6-1.6-2.6-2.7-3.2-7.1-3.7-4.1-.5-6-1.4-9.2-4.3-4-3.6-4.6-3.7-10.5-1.9-1.8.6-2.6 0-4.7-3.4-3.4-5.3-6.5-7.2-11.2-6.9-2.2.1-5.8-.2-8.1-.6-3.8-.7-4.3-.5-5.8 1.8-1.8 2.7-5.3 3.4-7.2 1.5-.8-.8-2.3-.5-5.3 1.1-2.8 1.5-4.1 1.7-3.8.8.2-.7 2.1-2.1 4.1-3.1 2-1 3.7-2.2 3.7-2.5 0-.4-.9-2.1-1.9-3.8-2.6-4.3-8-5.1-15.9-2.5-3.2 1.1-6.9 1.7-8.2 1.4-1.5-.4-2.5-.1-3.2 1-.4.9-2.4 1.9-4.2 2.2-2.3.5-4.5 2.1-7 5-3.9 4.7-4.5 6.5-2.2 6.5 2.1 0 3 1.9 1.6 3.5-.9 1.1-1.7 1.1-3.6.3-3.8-1.8-4-5.1-.7-10.5 2.5-4 3.7-4.9 7.9-6.1 7.6-2.2 9.4-3 9.4-4.6 0-.7-1.4-1.6-3.1-2-3.8-.7-4.7-.7-7.9.4zM662.5 74.9c-1 .9-.4 2.9 1.3 5.1 1.7 2.1 2 2.1 7.5.9 4.2-1 5.7-1.8 5.7-3.1 0-.9-.6-2-1.2-2.5-1.4-.8-12.6-1.2-13.3-.4zM707 75.1c-8 .3-14.8.7-15.2.8-1.9.3-.5 2 2.3 3 4 1.4 3.3 3.3-1.5 4.5-3 .8-4.4.6-7.1-.8-2.6-1.4-3.7-1.6-5.4-.6-2.9 1.5-2.3 3 2.4 5.7 2.2 1.2 4.4 3.5 5.1 5.3 1.3 2.9 1.7 3.2 4.6 2.6 1.8-.3 6.1-.9 9.6-1.5 9.9-1.4 18.2-8.6 12.6-10.8-1.5-.6-1.5-.8.2-2 1-.7 2.9-1.3 4.3-1.3 3.5 0 5.4-1.4 4.9-3.5-.4-2.3.3-2.3-16.8-1.4z"/>
  <path d="M829.3 76.1c-1.9 2-1.6 3.7 1.1 5.4 2.1 1.4 3.1 1.4 6.8.4 2.6-.7 7-.9 11.1-.5 6.1.6 6.7.5 6.7-1.3 0-3.5-2.7-4.4-13.8-4.9-7.9-.3-11-.1-11.9.9zM644.3 82.2c-1.7 1.8-3.3 4.6-3.5 6.3-.4 3.6-5 6.7-6.9 4.8-.9-.9-.8-1.8.5-3.7 2.2-3.5 2-5.1-.9-6.4-3.4-1.6-5-1.5-6.5.3-.8.9-2.9 1.5-5.5 1.5-2.9 0-4.5-.5-4.9-1.5-.8-2.1-4.2-1.9-9.3.6-4.9 2.4-6.5 1.9-3.8-1.1 2.6-2.9 1.1-3.6-4.3-2.1-2.6.7-9.4 2.4-15.2 3.6-5.8 1.3-13.1 3.5-16.2 5-6.3 2.9-7.7 5.5-3 5.5 2.6 0 5.2 1.5 5.2 3.1 0 .4-2.7.9-6 1.1-6.6.5-7.5 1-6.6 3.3.6 1.7 1.1 1.7 25.2-.1 5.8-.4 7.5-.1 8.8 1.2 2.8 2.7 1.3 3.9-4.5 3.8-3-.1-11.6 0-19.2.3-11.2.4-14 .8-14.4 2.1-1.2 2.9 2.7 4.3 10.9 4 4.2-.1 8 .1 8.4.5.4.4-.3 1.9-1.7 3.3-2 2.1-2.1 2.7-.9 3.5 2 1.3 12.9.5 21-1.6 3.6-.9 10.8-2 16-2.4 5.8-.4 10.8-1.4 12.8-2.5 3.1-1.6 3.5-1.6 5.5-.2 1.2.9 3.1 2.2 4.2 3 1.6 1.2 3.8 1.3 12 .4 12.5-1.2 13.1-1.4 11.5-3.3-2.3-2.7.5-4.5 7-4.5 7.9 0 8.5-2 1.7-5.1-2.8-1.3-6-2.4-7.1-2.4-3.2 0-3.4-4.9-.3-7 2-1.3 2.6-2.7 3.1-7.7.9-7.2-.3-8.8-6.4-8.8-2.8 0-4.3.8-6.7 3.2z"/>
  <path d="M716.5 92.7c-1.1.3-2.8 1.2-3.7 2.1-1 .8-1.8 1.1-1.8.6 0-.5-2 1.3-4.5 4-2.4 2.7-5.4 5.4-6.6 6-3.2 1.6-2.7 2.9 1.7 4.6 5.9 2.3 6.7 2.9 5.3 4.6-.6.8-2.1 1.4-3.3 1.4-2.8 0-5 1.5-4.2 2.9.4.6 1.8 1.1 3.2 1.1 1.3 0 2.4.4 2.4 1 0 .5-1.3 1-2.9 1-1.6 0-3.4.7-4.1 1.5-.7.8-2.6 1.5-4.3 1.5-1.7 0-4.5.5-6.4 1.2-2.5.9-3.1 1.6-2.8 3.2.7 2.8-.8 4.9-3.1 4.4-2.9-.5-2.9-3.7.2-6.9 3-3.1 3-3.2-4.6-4.8-5-1.1-7.2-.2-12.1 5.1-2.7 3-2.7 3-8.2 1.7-4.3-.9-6.9-.9-11.3 0-5.5 1.1-6 1-9.6-1.4-2.7-1.8-4.5-2.4-6.4-1.9-2.9.7-7.6-2.9-6.7-5.2.8-2.2-4.3-2.8-10-1.1-2.9.9-7.3 1.9-9.9 2.3-3.3.4-4.8 1.1-4.8 2.1 0 1.5 3.8 1.5 15 0 3.3-.4 1.9 1.9-1.7 2.6-9.3 2.1-11.9 3.1-14.5 5.9l-2.8 3-3.9-4.3-3.8-4.3-4.9 1.1c-5.2 1.3-29.9 2.1-30.9 1.1-.4-.4-.4-1.6 0-2.7.5-1.8 1.4-2.1 5.9-2.1 6.7 0 8.8-1.8 5.6-5-1.9-1.9-2.9-2.1-7.8-1.5-3.9.4-7.6.1-11.7-1.1-3.3-.9-7.9-2-10.2-2.5-2.3-.4-5.9-1.7-8-2.9-5.2-2.7-10.2-2.6-14.8.6-4.1 2.7-6.5 2.6-6.5-.4 0-1.1-.7-2.5-1.5-3.2-1.3-1.1-2.1-.8-4.9 1.9-2.3 2.2-4.1 3.2-5.7 2.9-2-.2-2.4-1-2.7-4.6-.4-5-2.4-5.6-6.9-1.8-3.1 2.6-7.6 4.2-14.5 5.2-2.6.3-6.2 1.7-7.9 3-2.7 1.9-4.5 2.4-9.6 2.4-5.5 0-6.7.4-8.9 2.6-3.2 3.1-6.8 2.9-7.2-.4-.3-1.6.2-2.2 1.5-2.2 1 0 4.1-1.1 6.8-2.5 3.4-1.6 6.7-2.4 10.3-2.5 5 0 13.2-3.3 13.2-5.3 0-1-10.9.3-14.6 1.8-3.6 1.5-10.2 2.7-15.9 3-8.7.5-14.7 2.2-17.2 5-2.2 2.3-3.1 2.6-6.2 2.1-2-.3-6.3-1.9-9.5-3.6-4.1-2.1-7.3-3-10.7-3-3.6 0-5.5-.6-7.7-2.5-3.5-2.9-4.8-3.1-9.1-.9-2.9 1.4-3.6 1.4-7.9 0-7.4-2.4-26.8-4.9-33.4-4.3-5.1.4-6.2.2-7.8-1.5-1.6-1.7-2.7-2-6.4-1.5-3.6.5-4.9.2-7-1.4-4-3.1-9.8-3.6-13.3-1.1-2.3 1.6-4.8 2-13.8 2.4-9.3.3-11.6.7-15.2 2.8-3.8 2.1-4.6 2.2-6.7 1-2.7-1.4-5.4-.9-15.8 2.9-3.2 1.2-6.9 2.1-8.4 2.1s-4.1 1.3-6.1 3c-2.4 2.2-4.4 3-7.1 3-2.1 0-5.4.9-7.5 2-2.3 1.3-5.7 2-8.9 2-3.1.1-6.1.7-7.2 1.5-1.1.8-2.8 1.5-3.8 1.5-2.6 0-2.2 1.9.7 3 3.4 1.3 5.1 5.1 3.6 7.9-1.1 1.9-.9 2.1 1.9 2.1 3.5 0 3.8 1.2 1.2 5.5-1.6 2.6-2.5 3-6.3 3-2.4.1-5.2.5-6.1.9-1.3.6-1.8.4-1.8-.7 0-.9.9-1.9 2-2.2 4.1-1.3 1.8-2.5-4.7-2.5-5.2 0-7.6.5-10.3 2.2-1.9 1.2-5.3 2.3-7.5 2.4-3.5.3-16.9 4.5-18.2 5.8-1.2 1.2 1.1 2.6 4.5 2.7 2.7.1 3.1.3 1.2.6-1.3.3-3.5 1.3-4.8 2.3-2 1.7-2.1 1.9-.6 2.8 2 1.1 24.2.3 26.7-1 1.5-.8 1.7-.6 1.1 1.9-1 4.3-1.3 4.5-5.5 3.8-3.7-.6-4-.5-5.3 2.5-2.1 5.2-13 8.5-20.9 6.5-2.3-.6-3.8-.1-8.1 2.9-2.9 2-6.4 3.6-7.8 3.6-1.5 0-4.4 1.5-6.8 3.5-2.7 2.3-5.2 3.5-7.1 3.5-3.5 0-4.6 2.1-3 5.6.9 2.1.8 2.6-.7 3-4.8 1.5-5.9 3.4-4.7 8.1.7 2.8 1.7 2.8 10.7.2 2.6-.7 5.1-1 5.4-.6.9.9-3.5 5.7-5.3 5.7-.7 0-1.8 1.1-2.3 2.5-.5 1.3-2.3 3.1-4 4-1.6.8-3 1.8-3 2.1 0 .8 12.2-.7 14.2-1.7 3-1.6 6.6 0 7 2.9l.3 2.7 3.1-3.3c2.7-2.9 3.3-3.1 6-2.2 2.1.7 3.9.8 5.7.1 2.2-.9 2.7-.8 2.7.4 0 1-1.1 1.5-3.3 1.5-2.6 0-3.6.6-4.5 2.5-.7 1.4-2 2.5-3.1 2.5s-2.8 1.1-3.9 2.5c-1.6 2-2.9 2.5-6.1 2.5-4.6 0-8.6 1.7-11.5 4.9-1.1 1.2-3.1 2.1-4.9 2.1-1.7 0-5.3 1.1-8.1 2.4-7.8 3.6-11.6 4.8-17.6 5.5-3 .4-6.5 1.2-7.7 1.9-1.2.7-3.4 1.2-4.9 1.2-2.6 0-12.3 5.7-12.4 7.2 0 1.3 4.2 2 6.8 1 1.5-.6 4-1.3 5.6-1.7 1.5-.3 4-1.4 5.4-2.3 1.5-1 4.8-1.8 7.7-1.8 6.7-.2 11.6-1.3 13.7-3.1 1.1-1 2.7-1.3 4.7-.8 2.5.5 3.6.1 6.8-2.8 3.3-3 4.7-3.6 10.8-4.2 8-.9 12.1-2.6 13-5.5.3-1.1 1.4-2 2.3-2 1 0 2.8-.7 4-1.6 1.3-.9 4-1.6 6-1.7 2 0 4.4-.6 5.3-1.4.9-.8 4-1.7 6.8-2.2 3.5-.5 6.1-1.7 8-3.5 1.5-1.5 4.4-2.9 6.4-3.3 3.1-.5 3.6-.9 3.9-3.7.3-3.4 1.1-3.8 11.1-5.7 3.8-.7 6.9-2 9-3.8 4.3-3.7 9-6.1 12.2-6.1 1.5 0 4.1-1.1 5.8-2.4 3.8-2.9 10.2-3.9 10.2-1.6 0 1-1.4 1.7-4.6 2-2.6.3-6.6 1.9-9.5 3.7-2.7 1.7-6.2 3.4-7.8 3.7-1.7.4-4.4 2-6.2 3.6-1.8 1.5-3.8 3-4.5 3.2-.7.2-1 1.1-.6 2.1.9 2.5 5.8 2.1 11.3-.8 3.1-1.6 6.3-2.5 9.3-2.5 3.4 0 5.1-.5 6.4-2 1.3-1.5 3-2 6.9-2.1 9-.2 10.3-.9 10.3-5.4 0-3.4.3-4 2.4-4.3 3.7-.6 6.6.6 9.7 3.7 3 3.1 10.4 6.4 13.9 6.3 1.1-.1 3.6-.4 5.5-.7 4.1-.7 15.9 3.1 19.3 6.2 1.2 1.1 2.9 2.3 3.9 2.6.9.3 1.9 1.9 2.3 3.5.4 2.2 1.6 3.4 4.6 4.7 4.4 2 4.4 2.8-.2 2.7-2.7-.1-3 .2-2.4 2.1 1 3.2.9 4.7-.9 9.6-1 2.4-1.5 5-1.2 5.8.9 2.1 5.5-.7 9.1-5.6 2-2.7 3.8-4.1 5.3-4.1 1.7 0 2.7-1 3.8-3.6 1.4-3.3 1.4-3.8-.2-5.5-1.6-1.8-1.6-1.9.6-1.9 2.1 0 2.2.3 1.6 4.5-.5 3.3-.3 5.1.8 6.7 2.7 3.8 2.1 10.2-1.4 14.1-2.6 3-2.7 3.5-1.4 4.8.8.9 1.7 3.8 2 6.5.6 4.7.4 5.2-2.2 7.2-6 4.5-6.4 5.2-4.4 8.2.9 1.3 1.3 1.1 3.1-.9 2.9-3.6 4.7-1.3 2.3 2.8l-1.9 3.2 3.3 2.5c3.7 3 4.2 5.4 1 5.4-1.7 0-2.8 1.1-4.1 4.1-2.4 5.1-1.7 6.9 2.7 6.9 2.5 0 3.6.5 4.1 1.9.3 1.1 2.4 2.6 4.5 3.5 3.6 1.4 4 1.9 4 5.1 0 2.5.6 3.9 2.4 5 1.6 1.1 2.5 2.8 2.9 5.8.5 3.6.2 4.6-2 6.9-2.4 2.5-2.8 2.6-4.7 1.3-2.4-1.7-6.2-2-7.1-.5-1.1 1.7-4.3 1.1-5-1-.3-1.1-1.5-2-2.6-2-1.5 0-1.9.8-2.1 4.2-.2 5.7-.2 5.9.7 9 .6 2.3.2 3.2-2.4 5.6-1.9 1.7-3.2 4-3.5 6-.2 2-1.9 4.8-4.5 7.7-2.2 2.4-4.1 4.9-4.1 5.4 0 1.3-7.6 10.6-12.2 14.8-4.1 3.9-5.2 5.9-7.8 14.3-1.9 6.2-3.9 10.3-5.8 12.4-2.8 2.9-3 3.7-3.4 13.3-.4 8.1-.2 10.5 1 11.6 1.6 1.6 1.9 8.1.7 13.5-.6 2.9-.5 3.4 1.4 3.9 3.2.8 2.6 5.9-.6 5.6-1.4-.2-2.3.3-2.3 1.1 0 2.7 4.1 10.6 6.1 11.6 1.5.9 1.9 2 1.7 5.3l-.3 4.2 4.2-.3c3.4-.3 4.2 0 4.8 1.6.3 1.1 1.6 2.3 2.8 2.6 1.2.3 3.9 2.6 6 5.1 3.6 4.3 3.9 5 4.2 12.3.2 4.2 1 10.3 1.9 13.5.9 3.2 1.6 7.8 1.6 10.2 0 3.5.6 5.2 3 7.8 1.7 1.9 3 4.1 3 4.9 0 .8.9 2.3 2 3.3 2.7 2.4 2.5 4.1-.6 7.1-2.1 2.1-3.1 2.5-5.9 2-4.4-.9-5.6 1.1-2.3 3.9 1.3 1.1 2.7 2.8 3.1 3.8.7 1.9 7.1 4.9 9 4.1.7-.2 3.2 1.3 5.6 3.5 4.3 4 4.3 4.1 3.7 9.3-.8 7 .9 11.5 6.3 16.7 3.6 3.5 4.2 4.6 3.8 6.9-1.1 5.3 2.6 6.7 7.7 2.9 1.9-1.4 1.9-1.8.6-5.8-1.7-5.3-3.5-7.7-6.4-8.1-2.2-.3-2.6-1.9-4.2-17.7-.3-3-1.5-6.8-2.5-8.5-1-1.7-1.9-3.8-1.9-4.7 0-.9-.7-2.2-1.5-2.9-.9-.8-1.5-3-1.5-5.9 0-2.9-.8-5.9-2.1-8-1.6-2.7-1.8-3.6-.7-4.3 1-.7.9-1.2-.7-2.3-5.8-4.4-5.7-4.1-5.1-12.3.3-4.2.6-9 .6-10.6l.1-2.9 2.3 2.2c1.7 1.6 3.1 2.1 4.5 1.6 1.4-.4 2.3-.1 2.7.9.3.9 1.5 1.6 2.5 1.6 1.7 0 1.9.8 1.9 6.6 0 4.7.9 9.2 2.9 15.3 1.6 4.7 3.1 9.7 3.3 11.1.2 1.9 1.1 2.6 4.1 3.3 3.4.8 3.7 1.2 3.7 4.4 0 2.7.8 4.3 3.6 7.1 3.5 3.5 3.6 3.7 2 6.3-.9 1.5-1.6 3.5-1.6 4.6 0 1 4.6 6.5 10.4 12.2 5.8 5.8 10.7 11.6 11.1 12.9.3 1.4 2 4.5 3.7 6.8 2.3 3.2 2.9 5 2.5 7.1-.3 1.8.2 4.1 1.6 6.6l2.2 3.9-2.5 1.8c-2.4 1.8-2.4 2-.7 3.2 1.7 1.3 1.6 1.5-.8 4.8-3.2 4.3-3.2 5.5.4 9.1 1.7 1.6 3.3 3.8 3.6 4.9.4 1.1 1.5 2 2.6 2 1.4 0 2.5 1.2 3.5 3.6 1.2 2.8 1.9 3.5 3.5 3.1 1.1-.3 3.5.3 5.2 1.3 1.8 1 5.2 2.1 7.5 2.5 2.4.4 5.1 1.6 6 2.7 3.3 3.8 12.1 9.8 14.5 9.8 1.3 0 4.1 1.1 6.2 2.6 9.3 6.3 21.2 9.9 27.3 8.2 2.1-.5 4.9-2.3 6.4-3.9 2.1-2.2 3.6-2.9 6.5-2.9 3.9 0 8.3 2.2 8.3 4.1 0 2.1 6.4 10.6 12.6 16.6 6 5.9 6.7 6.3 11 6.3 3 0 5.9.8 8.1 2.1 1.8 1.2 6.1 2.9 9.5 4 6.1 1.8 6.3 1.8 9.6-.1 4.2-2.6 4.5-2.5 4 .5-.4 2 .7 3.9 5.5 9.3 8.3 9.4 8.8 10.4 9 16.9.1 4.8.5 6.1 2.7 8 1.4 1.2 3.3 2.3 4.4 2.3 1.5 0 1.7-.5 1.2-2.6-.9-3.6 1.1-2.1 2.9 2.2.8 1.9 2.5 3.8 3.9 4.4 2.1.8 2.5 1.7 2.8 5.7l.3 4.8 7.2-.3c8-.3 10.9.7 12.3 4.4.6 1.5 1.7 2.4 3 2.4s2.4 1 3 2.5c1.1 3 3.9 3.2 7.1.6l2.4-1.9-2.2-2.4c-2.8-3-2.9-3.8-.4-3.8 1.1 0 2.2-.9 2.6-1.9.9-3.1 4.5-7.1 6.3-7.1.8 0 3.7 1.5 6.4 3.3 4.5 3 6 5.8 3.8 7.2-1.5.9-1.2 3.1.6 4.9 1.4 1.5 1.8 1.5 4.4-.1 2.7-1.5 5-5 5-7.5 0-2.3-8.3-12-11.4-13.3-1.7-.7-5.2-1.6-7.7-2-4.3-.6-4.9-.4-7.8 2.4-1.8 1.7-4.2 3.1-5.6 3.1-1.3 0-4 .8-5.9 1.7-4.6 2.1-8.6.7-8.6-3.2 0-1.5-.9-3.1-2.4-4.1-1.4-.8-2.6-2.3-2.8-3.2-.2-.9-1.2-1.7-2.2-1.7-1.5 0-2.2-1.5-3.8-7.3l-1.9-7.4 2.5-7.1c1.8-5.4 2.3-8.4 1.9-12-.5-3.9-.2-5.4 1.4-7.6 1.1-1.5 2.4-4.5 2.7-6.7.8-4.5-.8-6.6-5.6-7.8-1.9-.4-2.8-1.3-2.8-2.6 0-2.9-5.3-4.7-12.5-4.3-5.7.4-10.7.4-19.2.2-2.1 0-5.4.3-7.4.6-5.6 1-5.9-1.1-1-5.6 3.3-3.1 4.1-4.5 4.1-7.4 0-2 .7-5 1.6-6.7.9-1.7 1.4-3.8 1.1-4.8-.2-.9 0-2.5.5-3.5.8-1.4 1.2-1.5 1.9-.4.4.7 1.1 1.1 1.4.7 1-1 2.4-7.8 2.5-11.5 0-2.2.6-3.6 2.1-4.3 1.1-.7 2.7-2.7 3.5-4.5.8-1.9 2.3-3.9 3.5-4.5 1.6-.9 1.9-1.7 1.4-3.8-1-4-2.5-5.3-4.9-4.6-1.2.4-3.3.7-4.8.6-1.5-.1-5 .7-7.8 1.8s-6.4 2-8 2c-6.6 0-10 4.1-10 12.1 0 1.8-.6 2.8-2 3.2-1.1.3-2.3 1.3-2.6 2.4-1.4 4.2-2.7 6.1-4 5.6-2.3-.9-4.5 1.6-3.8 4.3.5 1.9.2 2.4-1.4 2.4-1.1 0-2.6-1-3.4-2.2-1.5-2.2-1.5-2.2-6.2-.4-2.6 1-7.5 2.4-10.9 3.1-6.1 1.3-6.2 1.3-8.9-1.2-1.5-1.5-4.4-2.9-6.5-3.2-3.7-.6-3.8-.8-4.6-5.6-.5-2.8-1.1-6-1.3-7.2-.2-1.2-1.5-3.3-2.7-4.5-1.6-1.5-3.1-5.4-4.6-11.3l-2.2-9 2-6.5c1-3.6 2.2-8.5 2.6-11 .9-5.3 2.5-8.8 7.1-15.1 2.8-3.9 3.4-5.6 3.4-9.8 0-2.9-.7-6.5-1.5-8.2-1.5-2.9-1.5-3 2.1-6.2 2-1.7 4.7-3.8 6.1-4.5 1.3-.7 2.8-2.4 3.3-3.8.8-2 1.6-2.4 4.8-2.4 3 0 4.5-.7 6.8-3.1 1.6-1.7 4-3.5 5.3-4 1.3-.5 2.1-1.3 1.7-1.6-.6-.7 9.6-4.3 12.2-4.3.7 0 2.6 1 4.2 2.2 2.9 2.1 3 2.1 6.4.3 2.9-1.6 3.7-1.7 5-.6.9.8 1.6 2.5 1.6 3.8 0 2.3.3 2.5 3.8 1.9 9.3-1.5 11.2-1.4 12.3.5.5 1.1 2.1 1.9 3.5 1.9 2.4 0 2.6-.3 2-3.2-.4-1.8-.8-4.1-.9-5.1-.2-.9-1.2-2.4-2.3-3.1-3-2.2-.5-3.8 7.3-4.8 5.6-.6 7-.5 7.9.7 1 1.3 1.9 1.3 6 .4 5.7-1.3 14.1-.1 13.6 2-.5 2.5 2 4.1 6.3 4.1 2.6 0 4.7-.6 5.5-1.6 2.1-2.4 6.2-1.3 8 2.1.8 1.6 2.3 3.6 3.3 4.5 1.4 1.2 1.9 3.3 2.1 10.3.1 4.8-.1 9-.6 9.3-1.4.9-.9 3.8 1.2 6.4 1.1 1.4 2 3.2 2 4.1 0 .9 1.1 3.3 2.5 5.3s2.5 4.8 2.5 6.1c0 2.7 1 3.2 5.6 2.7 2.3-.3 3.4-.9 3.4-2.1 0-.9.7-3.6 1.6-6.1 2.7-7.7 2.8-22 .3-33.5-3.1-14.4-2.8-18.7 1.8-25.5 4.4-6.4 10.9-13 12.8-13 .7 0 2.7-1.1 4.3-2.5 1.7-1.4 3.9-2.5 5.1-2.5 1.4 0 2.1-.6 2.1-1.9 0-2.9 5.4-8.1 8.3-8.1 1.6 0 4.4-1.6 7.1-3.9 2.5-2.2 5.4-4.2 6.5-4.6 1.1-.3 2.8-2.4 3.7-4.6 1.5-3.4 2.2-3.9 5-3.9 3.4 0 5.9-2.1 5.1-4.4-.3-.7-.1-3.2.5-5.5.7-2.8.7-4.5 0-5.4-.7-.8-.7-2.8-.2-5.7.5-2.5.9-6.2 1-8.3 0-5.1 3.4-11.7 6-11.7 2.5 0 2.5.6-.5 5.4-1.7 2.8-2.2 4.8-1.8 6.8.3 1.7-.1 3.7-1.1 5.3-1.6 2.5-2.2 7.9-.8 7.3.4-.2 3.6-3.4 7.1-7.1 6.6-7.2 7-8.7 4.6-15-.7-1.6-.4-1.8 2.7-1.2 3 .6 4.1.2 7.1-2.4 1.9-1.8 4.4-5.2 5.4-7.6l1.8-4.5h5.2c4.4 0 5.6-.4 7.8-2.7 1.4-1.5 2.5-3 2.5-3.4 0-.3 1.8-1.6 4.1-2.8 3.7-2.1 4.5-2.2 10.3-1.2 8.3 1.5 8.1 1.5 9.4-1.5.9-1.8.9-3.1.1-4.5-1-1.9-1.2-1.9-2.8-.5-1.3 1.2-2 1.3-2.9.4-1.7-1.7-1.5-4.5.3-5.2.8-.3 1.5-1.4 1.5-2.5s2.1-4 4.8-6.5c3.6-3.5 5.5-4.6 7.9-4.6 4.4 0 8.3-1.6 8.3-3.5 0-1.1 1.1-1.5 3.8-1.5 2.1 0 4.7-.7 5.8-1.5 1-.8 3.5-1.9 5.5-2.5 2.1-.6 3.9-1.8 4.2-2.9.3-1.2 1.4-1.8 3.4-1.9 1.6 0 5.3-1 8.3-2.1 6.5-2.5 6-2.4 6-.7 0 1.5-5.7 5.2-9.5 6.2-1.4.3-2.5 1.1-2.5 1.6 0 .6-1.1 2.1-2.5 3.4-2.2 2-2.3 2.6-1.4 5.3 2 5.6 7.8 4.8 15.6-2 1.8-1.5 4.9-3.1 7-3.5 2-.4 5.1-1.5 6.7-2.4 1.7-1 5.1-2.1 7.4-2.4 5.4-.8 12.2-4.2 12.2-6 0-2.5-2.5-3.5-10.5-4.2-7.6-.7-13.5-3.2-15.7-6.7-1.4-2.2-.9-9.7.7-10.3 1.7-.7 2-4 .4-4.9-.5-.4-2.3-.1-4 .5-2.3 1-3.2 1-4.4 0-2.5-2.1-.1-3.4 5.9-3.1 4.8.2 5.9-.2 8.8-2.8 2.9-2.6 3.2-3.2 2.3-5.7-1.6-4.4-4.4-5.3-11.9-3.7-12.2 2.5-17.6 4.2-20.8 6.6-5.1 3.8-13.7 7.2-15 5.9-.8-.8.4-1.8 4.3-3.7 3-1.4 6.9-3.6 8.8-5 2-1.5 4.7-2.5 6.8-2.5 2.7 0 4.4-1 9.1-5.6l5.7-5.6 28.2.5c27 .4 28.3.4 30-1.5.9-1.1 4.5-3.9 7.9-6.3 4.6-3.3 7.6-4.7 12-5.4 6.6-1.1 16.8-6.2 18.8-9.4 2.4-3.8 2.8-9.3 1.1-12.7-1.3-2.4-2.2-3-4.9-3-2.9 0-3.4-.4-3.9-2.7-.3-1.5 0-3.5.7-4.5.9-1.6.7-2.2-.8-3.4-1.1-.8-3.2-1.4-4.7-1.4-1.9 0-3-.6-3.4-2-.5-1.5-1.5-2-4.5-2-3.5 0-3.9-.3-4.2-2.7-.2-2-1.2-3.2-3.3-4.1-5.4-2.4-6-2.9-6.3-5.5-.3-2.2.1-2.6 2.5-2.9 2.7-.3 2.8-.5 2.4-5.3-.2-2.7-.9-5.9-1.7-7-.8-1-1.4-2.9-1.4-4s-.9-3.8-2-6-2-5.5-2-7.5c0-3.5-1.4-6-3.4-6-1.3 0-9.6 9-9.6 10.5s-7 6.5-9.3 6.5c-.9 0-3.4.9-5.6 2.1-4.3 2.2-6 1.8-9.4-1.9-1.1-1.2-2.6-1.8-3.8-1.5-1.7.5-1.9 0-1.9-4 0-4.6 2.9-10.5 6.6-13.2.9-.6 1.5-2 1.2-3.1-.3-1.6-1.3-1.9-6.6-2.2-4.9-.2-6.3-.6-5.8-1.7.3-.8-.8-2.2-2.7-3.4-1.8-1.1-4.4-3-5.9-4.2-2.6-2.1-3.1-2.2-8.3-1-3.8.9-9 1-16.4.6-10.3-.7-11-.6-12 1.3-.6 1.1-1.1 3.6-1.1 5.4 0 1.9-1.1 4.9-2.5 7-1.4 2-2.5 5-2.5 6.6 0 2.9-4.1 6.6-12.7 11.7-3.9 2.3-4.2 5.8-.6 6.3 5.2.8 7.1 9.6 3.2 14.6-1.3 1.7-1.9 3.6-1.6 5.1.3 2 0 2.5-1.7 2.5-2.3 0-5.5 1.9-9.6 5.6-2.5 2.3-7.5 4.4-16 6.8-8.4 2.4-9 3-9 9.2 0 3-.7 7.1-1.6 9.2-.8 2-1.7 4.9-1.9 6.4-.3 2.5-4.6 9.3-6.9 11-.5.3-1.5.4-2.2.1-.8-.3-2.1.2-2.9 1.1-2 1.9-4.9 2.1-6.2.3-1-1.3-3.3-7-5-12.4-.9-2.7-.5-4.5 2.9-13 2.2-5.4 4.4-10.4 5-11 2.5-3 .2-4-10.3-4.1-5.6-.1-10.5-.5-10.8-.8-.3-.3-.6-1.8-.6-3.2 0-2.7-.1-2.7-6.2-2.4-6.1.4-6.3.3-7.4-2.5-2.1-5.4-2.6-5.8-7.8-6.6-3.4-.6-5.4-1.5-6.1-2.8-1.3-2.3-8.5-2.7-11.6-.5-2.3 1.6-5.8 2.4-6.2 1.3-.1-.4.5-1.8 1.4-3.2 1-1.6 1.4-3.4 1-5-.4-1.4-.2-3.4.4-4.6 1.8-3.4.3-5.8-4.1-6.5-5-.8-5.2-3.6-.3-6.2 1.2-.6 2.4-2.5 2.7-4.1.6-2.9 4.4-6.2 11.6-10 1.4-.7 3.7-2.4 5.1-3.6 1.4-1.2 3.3-2.5 4.3-2.8.9-.4 1.7-1.2 1.7-1.9s3.4-2.6 7.5-4.2c7-2.7 7.5-3 7.5-5.8 0-2.7.3-3 2.5-2.4 1.4.3 3.6.9 5 1.2 4.7 1.2 7.4-3.4 3.3-5.4-2-.9-1.7-1.1 2.7-1.2 2.8 0 6.1-.1 7.5-.1 1.3-.1 3-.8 3.6-1.7.8-1.2 2.8-1.7 6.1-1.8 2.6-.1 6.2-.5 7.8-.9 4.2-1.1 15.2-9.1 15.8-11.5.3-1.2 1.4-2 2.5-2 1.2 0 2.3-.4 2.6-.9.3-.5 2.2-1.2 4.2-1.5 3.1-.6 3.5-1 3.2-3.4-.3-2.5 0-2.7 3.8-3 2.8-.2 4.7.2 5.7 1.2.9.9 2.9 1.6 4.6 1.6 2.4 0 3.1-.4 3.1-1.9 0-2.9 1.6-3.4 4.9-1.5 2.6 1.5 3.4 1.6 7.6.4 3.8-1.1 10.2-4.9 14.5-8.7.3-.3-.3-1-1.3-1.7-3.9-2.9-.7-10.3 3.3-7.8 2.3 1.4 4.6.7 5.3-1.6.3-.9.8-2.5 1.2-3.5.6-1.3.2-1.7-1.7-1.7-1.4 0-3.3-.9-4.2-1.9-2-2.2-9.4-3.2-14.3-1.9-2.6.7-3.5 1.6-4.4 4.9-1.2 3.8-3.6 5.5-6.7 4.7-.7-.2-1.8.8-2.5 2.1-.7 1.5-3.2 3.2-6.7 4.5-3 1.2-6.6 2.9-8 3.8-3.3 2.4-6.7 2.3-8-.3-1.9-3.5-.8-6.1 3-7.4 2.9-1 3.5-1.7 3.5-4.1 0-2.6-.4-2.9-3.7-3.2-2.6-.2-4 .2-5 1.5-1.7 2.4-6.8 5.6-7.6 4.9-1-1.1 2.7-7.6 4.4-7.6.9 0 1.4-.7 1.2-1.8-.4-1.8-3.8-2.2-7-.7-1.4.5-1.8.2-1.8-1.4 0-1.6.8-2.3 2.8-2.7 2.8-.6 2.9-.8 2.9-6.5.1-5.6-.1-6.1-2.8-7.4-2.8-1.5-6.5-1.7-10.4-.8zM983.2 105.7c-2.8.5-3.6 2.4-2.8 5.8.7 2.6.7 2.6 9.1 2.1 9.5-.5 10.9-1 9.6-3.3-1.5-2.8-11.1-5.6-15.9-4.6z"/>
  <path d="M678.7 112c-2.1 1.8-4.6 3-6.3 3-3.4 0-6.2 1.5-5.1 2.7.5.4 2.5.8 4.5.9 2 .1 6.7.5 10.3.9 8.1.9 11.2-.3 10.7-4.3-.2-1.9-1-2.8-2.5-3-1.2-.2-2.7-1-3.3-1.8-1.9-2.2-4.6-1.7-8.3 1.6zM814.5 113c-.3.5-2.4 1.4-4.5 2-4.9 1.3-5.5 4-1 4 3 0 8-3.7 8-6 0-1.3-1.7-1.3-2.5 0zM820.4 124.3c-4 2.3-8.5 6.7-7.9 7.7.3.5 3.3 1 6.6 1 5.3 0 6.3-.3 9.6-3.3 4.7-4.4 4.1-6.7-1.9-6.7-2.4.1-5.2.6-6.4 1.3zM833.6 125.9c-.4.6.3 2 1.4 3.1 1.7 1.7 2.4 1.8 4.1 1 3-1.7 2-4.4-1.8-4.8-1.7-.2-3.4.1-3.7.7zM740.1 149.6c-2.9 1.8-6 4.2-6.8 5.3-.8 1.2-2 2.1-2.7 2.1-.7 0-1.8 1.1-2.4 2.5-.9 2-1.9 2.5-4.6 2.5-3.5 0-6.6 2.1-6.6 4.4 0 .8 1.6 1.2 4.8 1.2 4.1-.1 4.7.2 5 2.1.4 2.9 1 2.9 8-.7 3.3-1.7 6.4-3 7-3 .6 0 2-.9 3-2 1.8-2 1.9-2 4.2.5 2.8 3 8.8 4.8 12.6 3.9 1.7-.4 2.9-.2 3.5.7 1.1 1.9 2.7.2 3.5-3.8.6-3.1.5-3.2-3.2-3.5-3-.2-4-.8-4.2-2.3-.6-3-3.2-5.6-7.9-7.6-3.1-1.3-4.3-2.4-4.3-3.9 0-2.8-2.5-2.4-8.9 1.6zM789 165.6c0 1.6 2.3 4.4 3.5 4.4 2.2 0 1.8-2.8-.4-4-2.2-1.1-3.1-1.3-3.1-.4zM780.2 169.2c.2 1.3 1.1 2.4 2.1 2.6 2.2.4 3.5-2.7 1.6-3.9-2.5-1.6-4.1-1-3.7 1.3zM736.3 175.6c-4.3 2.6-5.5 4.8-3 5.6 4.5 1.6 16.7-3 16.7-6.2 0-3.1-8.2-2.7-13.7.6zM758.7 180.5c-1.9 1.4-2 5.6-.2 6.2 1.4.4 6.5-4.5 6.5-6.2 0-1.9-3.9-1.9-6.3 0zM867.7 184.7c-.4.3-.7 1.5-.7 2.5 0 2.8 3.4 1.9 3.8-1 .3-2.1-1.6-3.1-3.1-1.5zM93.2 198.7c-4 .5-4.9 2.4-2.5 5.2 2.3 2.7 3.1 2.6 7.3-.9 2.9-2.5 3.2-3.1 2-4-.8-.5-1.9-.9-2.5-.8-.5.1-2.5.3-4.3.5zM178.5 217.4c-1.1.7-2.4 1.4-3 1.5-.5 0-1 .7-1 1.3 0 .9 1.4 1.2 4.4 1.1 5.3-.3 6.8-1.4 4.6-3.7-2-2-2.5-2-5-.2zM165 225c-1.7 1.7-1.8 2.4-1 4.1 1.1 1.9 1.3 2 3.7.3 1.5-.9 3.8-2 5.2-2.4 4.2-1.1 3.2-3.5-1.6-3.8-3.2-.2-4.7.2-6.3 1.8zM309.4 233.4c-3.1 1.4-4.9 4-3.8 5.7.3.5 1.3.5 2.4-.1 1-.5 3.5-1 5.5-1 3.9 0 5.5-2 3.5-4.5-1.5-1.8-3.5-1.8-7.6-.1zM731 238.2c-2.3 3.8-1.7 5.2 1.8 4.3 5.1-1.3 7.3-7.5 2.7-7.5-1.8 0-3.1 1-4.5 3.2zM306.3 241.7c-.7.2-1.3 1.2-1.3 2.1 0 .8-.7 2.4-1.7 3.4-1.5 1.7-1.5 1.9 0 3.6 1 1 1.7 2.9 1.7 4.1 0 3.2 2.2 2.2 4.2-2 3.6-7.4 4-8.8 3.5-10.3-.6-1.5-3.8-2-6.4-.9zM49.5 253c-2.2 1.1-4.5 2-5.2 2-1.7 0-1.7 3.9.1 4.6.7.3 2.8-.4 4.7-1.5 1.9-1.1 5.1-2.3 7.2-2.6 2.8-.6 3.7-1.1 3.3-2.2-.3-.8-.6-1.7-.6-1.9 0-1.2-6.1-.2-9.5 1.6zM300 254c0 .5.5 1 1 1 .6 0 1-.5 1-1 0-.6-.4-1-1-1-.5 0-1 .4-1 1zM16.6 265.2c-1.5 1.9-2.2 3.6-1.6 4.2 1.2 1.2 5.2 0 8.1-2.3 2-1.6 2.1-2.1 1-3.5-2.1-2.5-4.7-1.9-7.5 1.6zM290 263.8c-2.4 2-2.5 2-.6 4.1 2.6 2.9 6.2 2.7 8.2-.4 1-1.6 2.6-2.5 4.2-2.5 4.4 0 1.1-2-4.4-2.6-4-.5-5.4-.2-7.4 1.4zM3 268.5c-1.3 1.4-2 2.8-1.7 3.2 1.1 1 5.7-1.5 5.7-3.1 0-2.6-1.6-2.6-4-.1zM697.8 270.1c-1 .5-1.8 1.9-1.8 2.9 0 1.6.7 2 3.3 2 3.9 0 7.7-2.4 6.2-3.9-1.6-1.6-5.9-2.2-7.7-1zM290.3 271.7c-2.7.5-2.8 1.4-.4 7.2 1.1 2.6 2.1 4 2.5 3.3.4-.7.5-1.2.2-1.2s.1-2 .8-4.4c1.3-4.1 1.2-5.8-.3-5.5-.3.1-1.6.4-2.8.6zM895.1 288.3c-4.2 1.3-14.2 10.5-19.6 18-2.5 3.5-5.4 6.2-7.7 7.3-2.5 1.1-3.8 2.4-3.8 3.6 0 3.1-1.9 5.8-4 5.8-2.7 0-4.3 3.2-2.6 5.5 1 1.4 2 1.6 4.2 1 1.6-.4 4.6-.7 6.7-.6 9.9.3 13.5.3 16.4-.4 1.8-.4 4-.4 4.9-.1 1.5.6 1.5.8-.1 2.6-1 1.1-2.6 2-3.7 2-2.5 0-2.3 1.7.6 3.5 3 2 5.7.9 8.2-3.5 1.8-2.9 6.9-5.9 8.1-4.6.4.3-.4 2-1.6 3.7-2 2.7-2.1 3.3-.9 4.5 3.5 3.5 9.8 3.4 9.8-.2 0-.6.7-1.7 1.6-2.5 2.4-2 4.7-7 3.7-8-.6-.6-2.3-.5-4.2.2-4.2 1.5-4.8.7-2-3 2.1-2.8 2.1-3.2.6-4.8-1.3-1.6-1.4-2-.1-3.7 1.9-2.7 1.8-4.9-.6-7.7-1.6-1.9-2.1-2.1-2.9-1-.5.7-1.4 1-2 .7-.6-.4-1.8 0-2.7.9-2.4 2.3-4.8 1.4-5.4-2-.5-2.6-1-3-3.3-2.7-1.5.1-2.7-.2-2.7-.8 0-1.2 6-7.1 9.8-9.7 2.7-1.8 3-5.3.5-5.2-1 .1-3.3.6-5.2 1.2zM300.4 297.3c.4 1.7 2 4.4 3.6 5.9 1.7 1.5 3 3.4 3 4.3 0 .8 1.1 2 2.3 2.4 1.3.5 2.9 2.2 3.6 3.9.9 2.1 2.7 3.5 6.7 5.1 6.7 2.8 8.4 2.3 8.4-2.5 0-2.7-.5-3.7-2-4.1-1.3-.3-2-1.4-2-2.9 0-4.8-1.9-7.5-6.7-9.6-2.7-1.1-5.6-2.8-6.6-3.6-1-.9-3.8-1.7-6.4-1.9l-4.5-.2.6 3.2zM824 305.1c0 1.1.8 2.3 1.8 2.6.9.4 2.7 1.7 3.9 3 2 2.1 3.1 2.4 8 2.1 4.6-.2 5.9-.7 6.1-2 .2-1.2-.6-2.2-2.5-2.9-1.5-.6-4.1-1.8-5.8-2.5-1.6-.7-4.9-1.5-7.2-1.8-3.7-.3-4.3-.2-4.3 1.5zM837.2 328.2c-1.4 1.4-1.6 3.8-.2 3.8.9 0 3-3.1 3-4.4 0-1-1.5-.7-2.8.6zM814 335.5c-1.9 2.3-.4 6.4 2.8 7.1 1.5.4 3.6 1.3 4.7 2 2.7 1.9 4.9 1.7 7-.6 1-1.1 2.5-2 3.2-2 .8 0 1.3-.6 1-1.3-.2-.7-2.3-1.2-5.3-1.2-6.1-.1-10.6-1.9-9.8-4 .8-2-1.9-2-3.6 0zM842 336.7c-1.9 1.3-3.8 3.3-4.2 4.4-.4 1-1.2 1.9-1.8 1.9-1.8 0-1.1 2.8 1.2 4.4 2.3 1.6 6.4 2.1 9.2 1 1.7-.7 2.2-5.4.6-5.4-.5 0-1-.7-1-1.5s.4-1.5.9-1.5c1.1 0 1.9-3 1.4-4.8-.7-1.7-2.3-1.4-6.3 1.5zM640.4 556c-.1 4.2.3 6 1.1 6 1.8 0 3.4-2.3 4.1-6 .6-2.6.3-3.6-1.1-4.7-3.3-2.3-4-1.5-4.1 4.7zM647.4 566.5c-1.7 1.3-1.7 1.4-.1 1.5 1 0 1.7.8 1.7 2.1 0 1.4.5 1.9 1.7 1.7 1.9-.4 2.6-3.7 1.1-5.5-1.3-1.7-2-1.6-4.4.2zM641.6 568.7c-1.1 1.1-.6 2.3.9 2.3.8 0 1.5-.4 1.5-.9 0-1.3-1.6-2.2-2.4-1.4zM630.7 571.7c-1.3 1.3-.7 5.1 1 5.7 2.3.9 4.4-1.4 3.7-4.2-.6-2.1-3.3-3-4.7-1.5zM632.2 580.2c.6 1.8 2.8 2.1 2.8.4 0-.9-.7-1.6-1.6-1.6-.9 0-1.4.5-1.2 1.2zM657 588.4c0 3.8 1.6 5.7 2.6 3.2.8-2.1-.3-6.6-1.6-6.6-.6 0-1 1.5-1 3.4zM584.2 590.6c-4 .7-8.6 2.3-10.2 3.4-3.2 2.3-7.5 9.9-6.3 11.1 1.5 1.4 6.3-.3 6.3-2.2 0-1.5.7-1.9 3.9-1.9 3 0 4.2-.5 5.5-2.5 1.7-2.6 6.7-4.4 10.3-3.7 2.6.5 3.1 2.2.8 2.2-2.1 0-1.9 2.6.3 3.5.9.4 5 .9 9.1 1.2 6.3.5 7.1.8 5.6 1.9-2.7 2-.8 3.4 4.6 3.4 6.4 0 8.9 1.3 8.9 4.8 0 3.2.9 4.6 3.3 5.5.9.4 2.1 1.7 2.7 3.1 1.2 3.4 2.9 3.7 17.6 3.4 14.7-.3 16.9-1.4 12.2-5.8-1.3-1.2-3.5-2-5.6-2-2.5 0-3.5-.5-3.9-2-.3-1.1-1.1-2-1.8-2s-1.8-.6-2.5-1.4c-.6-.8-1.7-1.3-2.5-1-1.7.7-5.6-1.4-13.8-7.1-4.1-2.8-7.6-4.5-9.4-4.5-3.3 0-5.4-1.6-4.6-3.5.2-.8-.4-1.8-1.4-2.4-1.7-.8-4.7-1.3-18.3-2.5-1.9-.2-6.8.3-10.8 1zM665.6 596.5c.4 1.5.2 2.5-.5 2.5-.6 0-1.1.4-1.1 1 0 1.6 4.7 1.1 5.4-.6.8-2.1.8-2-1-3.8-2.3-2.3-3.5-1.9-2.8.9z"/>
  <path d="M579.6 604.6c-2.5 2.4-.3 4.6 4.3 4.2 3.1-.3 3.6-.7 3.6-2.8 0-2.1-.5-2.6-3.1-2.8-1.9-.2-3.8.3-4.8 1.4zM672.8 624.8c-4.7.3-8.5 2.7-5.7 3.6.8.2 2.8.9 4.4 1.4 2.3.7 2.9 1.4 2.7 3.1-.2 1.2.2 2.9.9 3.7 2.3 2.9-.4 3.8-6.9 2.5-7.6-1.7-10.6-1.2-11 1.6-.3 1.8.3 2.3 3 2.7 1.8.2 4.2.5 5.3.5 7.6.1 16.5 1.5 16.5 2.6 0 1.3 2.1 2.5 4.6 2.5.7 0 2-1.6 2.8-3.5 1.6-3.6 3.3-4.3 6.8-2.4 1.6.9 2.4.7 3.9-1l2-2.1 3.9 2c5.2 2.7 5.6 2.6 7.6-1.5 2-4.4.7-6.5-4.1-6.5-2 0-3.9-.8-5.1-2.1-1-1.1-4.2-3.2-7.1-4.5-5.2-2.5-13.1-3.3-24.5-2.6zM725 639.4c-4.6 4.6 5.9 8.8 13.3 5.3 4.8-2.2 3.1-3.7-6.1-5.2-4.1-.7-6.5-.8-7.2-.1zM622 641.8c0 1 1.1 2.9 2.5 4.2 2.2 2.1 2.9 2.2 5.9 1.3 1.9-.6 4.5-.9 5.8-.6 3 .6 5.5-1.9 3.6-3.4-1.3-.9-12.8-3.3-16.2-3.3-.9 0-1.6.8-1.6 1.8z"/>
</svg>
