<svg version="1.0" xmlns="http://www.w3.org/2000/svg" viewBox="0 0 1280 1005">
  <path d="M410.4 1.2c-6.9 9.7-4.2 13.7 7.4 11.3 9-1.9 9.4-2.1 9-5.1-.3-3-1-3.4-8.3-5.8-6-1.9-7-2-8.1-.4zM438.1 13.1c-3 2.1-6.6 3.9-8 3.9-5.3 0-7.1 1.1-8.3 5.1-.6 2.2-1.7 4.4-2.5 5-1.7 1.5-1.7 7.3.1 8.8.9.8 2.1.8 4 .1 1.8-.7 3.7-.6 6.3.3 3.5 1.1 3.8 1.5 4.3 5.7.5 4.3.8 4.6 6 7.3s6.1 2.8 16.5 2.5l11-.3.3 3.2c.4 3.7-1.1 4.3-4.4 1.8-2.5-1.9-6.8-1.9-8.5.1-1 1.3-2.9 1.5-9.3 1.2l-8.1-.3-.3 2.8c-.4 3.5 1.7 6 7.4 8.8 5.7 2.7 6.7 4.7 5.8 11.5-.9 7.3 1 10.4 6.4 10.4 3.7 0 8.2-2.8 8.2-5 0-1.3 4.1-5 5.6-5 .7 0 1.9 1.2 2.6 2.7 1 2.2 2.2 2.9 5.4 3.4 5.5.7 8.4 2.8 9.8 6.9.9 2.8 1.7 3.6 4.1 3.8 1.7.2 7.7 1.8 13.5 3.7 5.8 1.9 14.7 4.1 19.8 4.9 9.2 1.3 9.4 1.5 14.2 6.2 2.7 2.7 6.5 6.3 8.5 8.1 2.6 2.3 3.5 3.9 3.5 6.3 0 1.9 1.9 6.6 4.6 11.7 4.4 8 4.7 9.1 5.4 18.6.4 5.6.3 12.1-.3 14.6-.8 3.7-.7 4.6.8 5.7 1.3 1 2.5.9 6.2-.3 11.9-4.1 21.7 3 23 16.6.7 7 2 8.2 7.6 6.9 2.3-.5 7.5-.7 11.5-.3 11.1 1 20.7.8 22.8-.5 3.7-2.3 7.6-9.1 7-11.9-.4-1.4-.8-3.2-.9-3.9-.1-.8 1.5-1.9 3.7-2.7 4.3-1.5 5.6-2.9 5.6-6.2 0-1.6.8-2.4 2.8-2.9 1.5-.3 5.1-1.7 8-3.1l5.2-2.6 6.3 1.8c3.4.9 7 2.2 8.1 2.7 1 .5 4.5 1.4 7.9 1.8 7.6 1.1 9.2 2.7 9.2 9 0 5.8 2.3 8.8 7.6 9.9 3.1.6 3.4 1 3.6 4.6.1 2.2.2 4.6.2 5.3.1.7 1.9 1.9 4.1 2.8 4.6 1.9 8 5.6 8 8.9 0 3.4 2 4.4 8.5 4.2 4.5-.2 7.2.4 10.6 2 2.5 1.3 6.4 2.3 8.8 2.3 3.4 0 5.2.8 9.6 4.1 6.7 5.1 12.2 6.2 15.4 3 1.1-1.1 2.1-2.7 2.1-3.4 0-2.1-4.2-5.5-8.5-6.9-3.7-1.2-4-1.6-4.3-5.3-.4-7-1.1-8.5-3.5-8.5-2.9 0-4.6-1.4-8-6.8-2.6-4-3-4.2-7-4l-4.2.3-.5-4.5c-.8-5.9-3-10-7.7-13.9-7.2-6.1-7.9-6.9-10.5-12.2-4.6-9.3-4.6-11.2.1-15.8 4.3-4.2 5.3-8.1 3.1-12.2-.6-1-6-4.4-11.9-7.4-10.6-5.3-10.9-5.5-12.7-10.2-3.5-9.9-5.3-13.2-9-17.3-4-4.4-10.2-7.9-14.1-8-1.4 0-4.2-2.3-8-6.7-3.2-3.7-7.7-8.6-10-10.9l-4.2-4.2-11.3.1-11.3.2-13-6.3c-15-7.3-14.2-6.8-18.9-10.5-2.9-2.4-5.3-3.1-13.8-4.3-12.6-1.8-13.2-1.9-18.8-5.4-2.5-1.5-5.6-3.1-7-3.5-1.3-.4-3.6-1.7-5.1-2.7-5.6-4.2-17.1-3.1-19 1.9-.5 1.3-.9 3.5-.9 4.9 0 2-.9 2.9-4.2 4.4-2.4 1.1-5.6 2-7.1 2-2 0-3.9 1.1-6.4 3.9-1.9 2.2-4.6 4.2-6 4.6-2.2.5-2.4 1-1.9 3.8.3 1.8.2 3.7-.2 4.3-1.2 1.9-4.9 3.4-8.2 3.4-9.7 0-16.8-10.6-19.1-28.4-1.5-11.4-4.8-23.5-6.8-24.5-.9-.5-3.4-1.3-5.5-1.7-2.2-.4-5.5-1.7-7.4-3-2-1.4-5-2.4-7.1-2.4-2-.1-4.7-.7-6.1-1.5-3.6-2.1-4.9-1.8-10.9 2.6z"/>
  <path d="M502.8 17.1c-2.3 1.3-2.3 2.8.1 5.4 1.1 1.1 3.1 3.2 4.5 4.7 1.8 2 3.5 2.8 6 2.8 4.1 0 5-1 4.1-5-1.2-5.4-10.6-10.4-14.7-7.9zM715.3 39.5c-5.1 2.2-7.1 8.6-3.7 11.9 2.3 2.3 9.8 2 14.5-.6 6.5-3.6 6.3-7.4-.5-10.7-4.9-2.4-6-2.5-10.3-.6zM773.2 54.2c-3.5 3.5.1 7.8 6.4 7.8 3.8 0 4.4-.3 5-2.5.9-3.7-1.9-6.5-6.6-6.5-2 0-4.1.5-4.8 1.2zM793.3 62.6c-.3.8 0 3.3.6 5.5.9 3.1 1.8 4 4.4 4.7 2.1.5 4.1 2.2 5.8 4.7 3 4.4 6.2 6 9 4.5 2.5-1.4 2.6-7.4.2-9.5-12.9-11-18.5-13.8-20-9.9zM826.6 86.8c-2 3.8-3.1 11.1-2.2 14.5.3 1.4 1.5 2.7 2.7 3 3 .8 7.5-1.7 8.3-4.6.8-3.4-1.1-9.4-4.3-13l-2.8-3.1-1.7 3.2zM801.5 92.4c-1.5 2.2-1.5 2.7-.1 5.5.9 1.6 1.6 3.9 1.6 5 0 2.6-2.9 5.4-4.9 4.6-1.1-.4-3 .9-6.1 4.5-5.4 6.1-10 7.4-15.4 4.5-3.3-1.8-3.4-1.8-7 .5-3.1 1.8-4.6 2.1-8.7 1.6-2.7-.3-7.1-.9-9.9-1.2-6.2-.8-8 .5-8 5.6 0 4.5 3.5 8 8.1 8 1.6 0 6.3 1.2 10.5 2.6 6.1 2.1 8.8 2.6 13.8 2.2 7-.6 18-5.2 23.1-9.7 1.9-1.6 4.8-3.2 6.7-3.6 4.9-1.1 7.4-3.1 11.8-9.7 3.3-4.9 4-6.9 4-10.8 0-5.2-.9-6.5-5.5-7.6-1.7-.4-4.1-1.5-5.4-2.6-3.3-2.5-6.7-2.3-8.6.6zM716.4 114.4c-.3.8-.4 2.5-.2 3.8.2 1.9 1 2.4 4 2.6 3 .3 3.8-.1 4.3-1.8 1.3-4.2-6.6-8.6-8.1-4.6zM859.9 117.7c-.1.5 0 1.8.1 3.1.1 1.2-1 3.6-2.4 5.3-1.4 1.7-2.6 3.5-2.6 4 0 1.2 3.7 4.9 4.9 4.9 1.5 0 4.1 6.6 4.1 10.3 0 4.7 2.8 6.7 9.3 6.7 4 0 5.3-.5 7.8-2.9 4.9-4.9 3.8-9.6-3.8-16.7-2.3-2.2-4.3-5-4.3-6.1 0-2.3-2.4-4.7-5.7-5.7-1.1-.4-2.7-1.3-3.3-2.1-1.3-1.6-3.9-2-4.1-.8zM729 123c-1.4 2.6-.1 4.4 2.6 3.8 1.3-.2 1.9-1.2 1.9-2.8 0-3.2-3-3.8-4.5-1zM892.7 145.7c-1.6 1.5-.6 6.1 1.8 8.3 1.5 1.4 2.5 3.5 2.5 5.2 0 1.5.9 3.7 1.9 4.7 2.1 2.1 9.7 3.7 13.5 2.7 3-.7 4-4.3 2-7.4-1.6-2.4-2-2.6-6.6-3.6-1.6-.4-2.9-1.5-3.4-2.9-1.5-4.8-4.4-7.7-7.8-7.7-1.8 0-3.6.3-3.9.7zM543.7 167.2c-8.4 9.1-9.4 10.7-7.7 13.8 1.4 2.5 2.6 2.5 7.5-.1 2.2-1.2 6-2.5 8.4-2.8 5.4-.7 8.1-3.9 8.8-10.3.7-6.3-.8-8.8-5.5-8.8-3.3 0-4.4.8-11.5 8.2zM923.6 162.6c-.9.9-1.6 3.2-1.6 5.4 0 3 .6 4.3 3.1 6.4 1.7 1.4 3.4 2.6 3.8 2.6.4 0 2.7 1.8 5.2 4 2.4 2.2 6.1 4.5 8.1 5.2 3.3 1 4.1.9 5.8-.7 2.7-2.4 2.6-6.1-.2-7.6-1.3-.6-4.8-3.5-7.8-6.4-5.4-5.2-12.5-10.5-14.1-10.5-.4 0-1.5.7-2.3 1.6zM904.2 176.2c-.7.7-1.2 2.3-1.2 3.6 0 1.3-.8 3.7-1.7 5.4-1.8 2.9-1.8 3 .6 4.9 2.8 2.3 3.6 2.4 5.3.3.7-.9 2.7-3 4.5-4.7 3.7-3.5 3.3-5.5-2-8.7-3.8-2.3-3.9-2.4-5.5-.8zM780.2 185.2c-3 3-.5 8.8 3.8 8.8 2.6 0 3-.4 3-2.8 0-3.1-2.5-7.2-4.4-7.2-.6 0-1.7.5-2.4 1.2zM962.7 188.7c-.4.3-.7 3-.7 5.8 0 4.2.6 6 2.9 9.3 3.6 4.9 4.5 5.5 7.2 4.7 3.5-1.1 3.9-4.5 1.3-9.5-1.3-2.5-2.4-5.4-2.4-6.5 0-1.2-.5-2.6-1.2-3.3-1.3-1.3-6-1.6-7.1-.5zM813 195c-3.8 3.8-1.8 7.1 3.8 6.3 4.4-.7 5.9-3.6 3.2-6.3-2.5-2.5-4.5-2.5-7 0zM941.6 199.9c-.4.5-.4 1.6-.1 2.3.3.8.1 2.7-.5 4.2-1.4 3.8.2 6.3 5.3 8.7 5.4 2.4 9.4 2.4 13.5-.1 2.8-1.7 3.3-2.5 3-5.3-.3-3.1-.5-3.2-5.8-3.8-6.1-.7-8.6-1.7-11.4-4.8-2.1-2.3-3.2-2.6-4-1.2zM770.7 202.6c-1.2 1.2-.8 7.9.5 9.2 1.5 1.5 7.2 1.6 9.9.2 3.8-2.1 1.3-7.2-4.1-8.2-1.4-.3-3.2-.8-4.1-1.2-.8-.4-1.8-.3-2.2 0zM781.2 216.2c-3.5 3.5.8 7.9 5.8 5.8 3.3-1.4 4.5-3.7 2.9-5.6-1.4-1.7-7.1-1.8-8.7-.2zM974.4 224.6c-.9 3.6.3 9.5 2.3 11.5 2.6 2.4 13 1 15.6-2.2 2.6-3.3 1.6-4.4-4.1-4.7-4.4-.3-5.7-.8-8.6-3.8-1.8-1.8-3.6-3.4-3.9-3.4-.4 0-1 1.1-1.3 2.6zM800.6 231.6c-2.2 2.1-2 3.7.7 6.2 2.9 2.7 5.3 2.8 6.7.3 1.4-2.8 1.3-3.8-1-6.1-2.4-2.4-4.3-2.5-6.4-.4zM613.2 232.7c-2.3 2.1-5.2 9.3-5.2 13.1 0 1.5-1 4.5-2.1 6.7-3.9 7.2-5.1 11.9-5.8 23.2-.6 10-1 11.5-3.6 15.3-2.6 3.7-2.7 4.4-1.7 7.4 1.7 4.6 1.5 6-1.4 11.7-3.6 7.3-7.7 20.3-11.4 36.9-3.9 17.3-5.9 20.8-15 26.2-11.9 7-20.5 6.1-27.5-3-2.5-3.4-6-6.4-9.5-8.3-3-1.6-9.1-6.5-13.5-10.9-5.9-5.8-9.7-8.7-14.6-10.9-7.6-3.4-8.5-4.4-10.2-10.2-1.1-3.8-1.7-4.5-5.2-5.5-3.8-1-7.5-5.1-7.5-8.1 0-.7 2.9-4.5 6.5-8.5 6.6-7.5 7.4-9.5 5.1-13.7-3.4-6 2.1-12.7 10.2-12.4 6.1.2 7.4-.9 6.6-5.8-.5-3.2-.2-4.3 2-6.9 1.4-1.8 2.6-3.6 2.6-4.2 0-.5-1.6-2.6-3.5-4.5-3.1-3.1-3.9-3.4-7.3-2.9-7.5 1.3-7.7 1.2-8-1.4-.5-3.6-1.6-4.3-5.1-3.5-1.9.4-3.7 1.8-4.8 3.6-1 1.6-2.8 3.2-4 3.5-2.5.7-9.7-1.5-19.3-5.8-3.6-1.6-8.6-3.3-11.2-3.8-2.9-.6-6.6-2.4-9.9-4.9-8.2-6.2-17.9-7.7-19.4-3-1.1 3.2.4 5.6 4.5 7.3 2.1.8 4.1 2 4.5 2.6 1.3 2-1.7 7.1-5.4 9.1-2 1.1-4.9 2.8-6.4 3.7-2.8 1.7-2.8 1.7-4.8-1.1-2.6-3.4-4.2-3.4-7.4.1-1.6 1.8-5.1 3.7-9.6 5.2-9.3 3.2-12.2 6.6-11.7 14.1.3 5.5.1 5.8-5.6 7.5-2.1.7-3.2 1.9-4.1 4.4-.7 2.2-2.5 4.4-4.8 5.9-2 1.3-3.7 3.1-3.7 4 0 1.7 3.2 8.5 5.2 11.3 1.9 2.6-.1 5.1-4.7 6-3.1.7-4.5.4-8.1-1.7-5.1-3-5.9-3.1-9.1-.5-1.4 1.1-3.1 2-3.8 2-1.1 0-3.5-4-8.6-14.5-1.1-2.2-2.3-4.7-2.8-5.5-.4-.8-3.8-3-7.5-4.9-8.1-4.1-10.5-3.7-13.9 2.1-3.6 6.2-6 8-11.4 8.5-6 .7-7.7 2.2-11.8 10.4-3.9 7.7-4.7 8.4-10 9.2-5.5.8-9.2 5.1-10 11.4-.3 2.6-1 5.8-1.5 7-1.3 3.1-7.3 5.4-12.1 4.7-4.7-.8-5.9 1.1-3.4 5.4 1.6 2.7 1.6 3.1 0 6.3-3.8 7.4-7.2 8.8-10.2 4.2-1.3-2-1.7-4.4-1.6-8.5.2-5 0-5.8-1.5-5.8-2.5 0-6.7 4.6-8.7 9.5-.9 2.2-2.7 5.2-4.1 6.6-2.9 3-4.4 7.7-4.4 13.7 0 5.9-.8 7-9.8 14.5-6.4 5.2-8.5 7.8-11.7 13.8-5.8 11.3-7.3 12.9-14.4 16.3-6.2 2.9-7.3 3.1-19.2 3.2-12.8.1-14.9.5-14.9 2.8 0 3-3.4 4.6-8.8 3.9-6.3-.7-10.8.9-12.8 4.8-1.8 3.6-4.8 4.3-13 3.5-5.3-.5-7.1-.3-10.3 1.3-2.2 1.1-5.7 2.3-8 2.7-3 .5-5.4 1.9-9.4 5.8-3.3 3.2-8.6 6.8-14 9.4-7.7 3.8-9.3 5.1-12.9 10.3-4.2 6-6.1 7.1-7.2 4.4-.8-2.3-3.4-1.8-5.1.9-1.3 1.9-1.5 3.8-.9 8.4.7 6.8-.4 10.1-7.6 21.7-5.3 8.6-6.1 13.8-3.2 21.1 4.4 11 4.7 27.1.6 30.5-2.2 1.8-3.2.3-3.9-5.9-.8-7.4-1.8-9.1-4.2-7.6-1.5 1-1.7 2.3-1.5 8.8.3 6.4.1 7.6-1.2 7.6-.9 0-2.1-.9-2.8-2-.7-1.1-2.1-2-3-2-3.1 0-2.4 7.8 1.1 12 5.7 7 6.4 9.5 5.8 20.3l-.5 9.9 3.9 7.6c5.3 10.4 5.7 12.8 2.5 17.2-1.4 1.9-3.3 4.6-4.3 6-2.5 3.4-2.9 15.9-.9 29.3 2.7 18.2 1.8 25-4.6 34.9-2.2 3.4-4.7 8-5.5 10.2-1.9 5.6-3.7 7.2-9.9 9.2-10.6 3.3-12.6 10.6-4 14.9 1.5.8 2.1 2 2.1 4.4.1 4.3 2.1 5.7 9.8 6.5 6.6.7 33.6-1.7 36.5-3.3 1-.5 2.6-1.8 3.6-3 1.9-2.1 11.3-6.1 14.4-6.1.9 0 4.2-1.6 7.2-3.5 4.2-2.7 6.5-3.5 10.1-3.5 2.5 0 6.6-.7 9-1.6 3.4-1.2 6.7-1.4 14.4-1 5.5.3 16.5.7 24.5.8 16.8.3 14.2 1.4 29.4-12.4 7.7-7.1 9.4-8.2 13.8-8.9 3.3-.5 6.1-1.8 8.4-3.8 1.9-1.7 4.5-3.1 5.8-3.1 1.2 0 4.5-1.5 7.2-3.3 4.3-2.8 5.8-3.2 13.1-3.6 6.8-.2 9.2.1 13.5 1.9 5.1 2.1 5.5 2.1 12.3.6 4.1-.9 12.2-4.2 19.4-7.9l12.4-6.2 16.1-.6c8.9-.3 17.8-1.2 19.8-1.9 3.2-1.1 4-1.1 6.3.4 1.4 1 3.5 3.7 4.5 6.2 1.1 2.4 2.1 4.5 2.2 4.5.2.1 7.1.6 15.3 1.3l15 1.1 1 3.2c.6 1.8 2.3 4.5 3.8 6.1 3.1 3.3 3.3 3.9 1.1 6.3-1.5 1.6-1.4 2.3.5 7.9 2.3 6.6 3.1 21.9 1.7 29.1-.6 2.8-.4 4 1 5.3 1.6 1.7 1.9 1.6 5.7-2.8 2.1-2.6 5.6-5.5 7.7-6.6 3.3-1.7 3.9-2.5 4.2-5.7.3-4.2.7-4.5 15.3-10.6 6.6-2.8 8.3-4 9.7-6.8 2.4-4.6 5-6.6 9.9-7.4 5.3-.9 6.6.5 3.4 3.5-1.7 1.6-2.5 3.4-2.5 5.6 0 4.2-3 7.7-9.5 11.2-3.6 1.9-5.3 3.6-6 5.8-.5 1.7-2.1 4.4-3.5 6.2-1.4 1.7-3.3 4.2-4.2 5.6-1.2 1.6-3 2.6-4.9 2.8-3.5.3-5.6 2.6-4.6 5.2.5 1.2 1.9 1.6 5.7 1.6 7.5 0 10.5-1.9 13.6-9 1.8-4.2 4.2-7 6-7 .8 0 2.1 1.2 3.1 2.6 1.6 2.6 1.6 2.8-1.6 9-2.1 4.1-4.5 7.1-6.7 8.5-3.6 2.2-4.1 4.7-.8 4 6-1.3 6.8-.9 8.1 4.9 1.6 7 .5 11.3-4.3 16.8-3.1 3.7-3.5 4.7-3 7.7.4 1.9 2.2 5.2 4.1 7.5 1.9 2.3 3.7 5.8 4.1 7.8 1 5.4 2 6.9 6.7 9.6 5.7 3.2 9.2 3.9 13.4 2.5 3.7-1.2 5.9-.1 14.4 7.2 2.3 1.9 5.2 3.3 7.7 3.6 3.7.5 4.4.2 8.9-3.9 6.1-5.7 8.7-7.1 12.2-6.3 2.7.6 4.1-.3 13.3-7.6 4.2-3.4 5.8-1.4 5.8 7.1 0 5.9.3 7 2.6 9.4 1.5 1.4 4.4 3.1 6.6 3.8 3.5 1 4.1.9 6.6-1.1 6-4.8 12-8.3 17-9.7 4.7-1.4 5.6-2.1 7.4-5.9 1.3-2.6 3.2-4.8 4.7-5.4 5.1-2 14.9-2.8 21.8-1.7 9.8 1.4 15.6 1.3 18.7-.4 2-1 4.1-4.2 7.3-11 6.7-14.3 6.7-14.2 12.8-18.5 3.7-2.6 6.6-5.7 8.5-9.1 1.6-2.9 4.4-6.1 6.2-7.2 4.7-3 9.8-8.5 24.3-26.7 16.4-20.5 16.9-21.1 23.5-25.3 8.3-5.3 29.2-23.7 33.6-29.5 2.2-2.8 8.1-10.1 13.3-16.2 8.8-10.3 14-19 15.7-26.1 1.1-4.9 3.2-8.1 8.2-13.1 4.3-4.3 5.1-5.9 7.2-13.3 1.9-7.2 2.1-9.9 1.6-17.6-.6-7.7-.4-9.8 1.3-14.1 3.4-8.8 4.2-15.7 3.2-31.5-.8-14.3-.9-14.9-4.2-20.4-1.9-3.1-6.7-8.9-10.7-12.9-8.2-8.2-8.2-7.8-6.1-22.4 1.3-9.2 1.3-9.4-.9-11.1-1.2-1-4.7-2.2-7.7-2.5-8.7-1.1-10.9-4.2-12.6-17.8-.5-4.3-2.1-10.8-3.4-14.4-1.4-3.6-2.5-8.5-2.5-10.9 0-4.4-.1-4.5-5.2-6.8-5.8-2.5-8.1-4.7-9.7-8.9-1.1-2.8-1.5-3.1-6.5-4.2-3.1-.7-11.6-9-14.3-13.9-1.9-3.6-1.2-16.6 1.2-22.3 2-4.8 1.9-8.2-.5-13.4-1.7-3.9-2-6.6-2-25.3v-20.9l-4.4-4.1c-3-2.8-4.6-5.1-4.8-7.1-.4-4.2-3.5-4.4-10.7-.4-8.2 4.5-9.6 3.8-8.8-4.9.3-3.7 1.2-9.2 2-12.2 1.1-4.1 1.2-7 .5-11.5-.5-3.3-1.2-9.8-1.6-14.5-.7-6.9-1.3-9.2-3.6-12.5-2.3-3.4-2.7-4.6-2.1-8.3.8-5.6 0-7.9-3.5-9.7-3.8-2-6.3-1.9-8.8.2zM785.1 239.7c-4.7 3.8.6 6.9 7.4 4.3 2-.7 2.6-1.6 2.3-3.3-.4-3-6.4-3.6-9.7-1z"/>
  <path d="M388.8 241.7c-1.5 1.9-.5 5.7 1.9 6.7 1.1.6 2.8 2.5 3.7 4.3 1.9 3.9 4.3 4.2 10.8 1.4 8.6-3.7 13.6-10.3 9.6-12.8-2.1-1.3-24.8-1-26 .4zM816.2 246.2c-.7.7-1.2 2.2-1.2 3.5 0 1.3-.6 2.3-1.2 2.3-1.8.1 4 5 5.8 5 .8 0 3.3-1.7 5.6-3.8 5.1-4.8 4.8-7.2-1.1-7.2-2.2 0-4.5-.2-5.3-.5-.7-.3-1.9 0-2.6.7zM944.4 250.1c-.3.6-.1 2.1.6 3.3.9 1.7 1.8 2.2 3.7 1.8 3-.6 4-2.7 2.3-4.7-1.5-1.7-5.6-2-6.6-.4zM941.7 270.7c-.3.4 0 2.4.7 4.3 1.4 4.3 4.7 5.2 7 1.8 2.5-3.6 2.1-5.7-1.1-5.6-1.6.1-3.5-.2-4.4-.6-1-.4-1.9-.4-2.2.1zM1055.7 324c-1.6 1.3-2.9 3.7-3.5 6.7-1.2 5.4-.2 8.8 2.7 9.8 2.4.7 7.4-1.7 9.5-4.7 1.9-2.6 2.1-10.9.4-12.6-1.8-1.8-6.2-1.4-9.1.8zM1060 345c-2.2 2.2-2.4 2.9-1.1 4.9.5.8 1.6 1.1 2.9.7 2.8-.9 7.4-5.4 6.7-6.6-1.1-1.7-6.4-1.1-8.5 1zM1067.3 354.3c-1.8 1.2-3.2 2.9-3 3.7.6 4.1 8.7.8 8.7-3.5 0-3-1.4-3-5.7-.2zM1266.5 356.5c-4.2 4.1-2.9 14.5 1.8 14.5 4 0 11.7-8 11.7-12.2 0-5.1-9.2-6.7-13.5-2.3zM1250.5 372.1c-1.1.5-4.7 3.1-8 5.7-5.2 4.2-6 5.4-6.3 8.7-.4 4.3 1.3 9.1 3.4 9.9 2.2.8 13.3-1.8 18.9-4.5 3.9-1.9 5.2-3.1 5.9-5.6 1.2-4.5-2.3-11.5-6.8-13.7-3.8-1.8-4.3-1.8-7.1-.5zM974.2 389.2c-2.8 2.8 0 8.8 4.1 8.8 1.7 0 3.7-2.9 3.7-5.4 0-3.6-5.3-5.9-7.8-3.4zM1247.3 405c-2.9 1.3-4.3 2.5-4.3 3.9 0 2.4 1.9 3.1 6.5 2.4 3.9-.6 7.1-4.2 6.1-6.8-.7-2-3.1-1.8-8.3.5zM970 422.9c-1.7 3.2-1.2 5.4 2.5 11.5 1.9 3.1 3.7 7.4 4.1 9.3.5 2.6 2.1 5 5.7 8.2 2.7 2.5 6.2 6.5 7.8 8.8 1.6 2.3 4.5 5 6.3 5.8 2.5 1.2 4 3 5.5 6.4 1.1 2.6 2.6 5.2 3.3 5.8 1.5 1.1 14.8 1.1 16.6 0 2.1-1.4 1.4-7.7-1.3-11.3-4.2-5.6-8.4-7.9-14-7.9h-5l-.6-7c-.8-10.2-3.9-14.5-10.4-14.5-4.9 0-9.5-5-9.5-10.2 0-5.7-8.5-9.5-11-4.9zM1025.7 483.8c-2.8 3-2.1 5 1.8 5.8 4.3.8 6.7-.9 6.3-4.5-.2-2.1-.9-2.7-3.4-2.9-2-.2-3.6.3-4.7 1.6zM1019.9 747.5c-2.8 1.5-7.6 11.1-8.6 16.8-.6 3.9.8 5.4 5.7 5.9 4 .4 5.4 3.2 2 4.3-4.8 1.5-5.9 6.4-6 27.1 0 1.1-3.3 5.9-7.4 10.7-4.1 4.8-8.3 9.9-9.4 11.5-2.3 3.1-4.2 4.2-12.7 7.3-6.7 2.4-15.5 10.2-15.5 13.7 0 1.4 1.8 3.3 5.8 5.9 3.5 2.3 5.8 4.6 6 5.9.7 5-7.8 13.8-16.6 17.4-4.2 1.6-5.7 5.1-4 8.8 1.7 3.5 4.9 3.8 14.4 1.7 8.7-1.9 17.6-7.9 23.1-15.7 3.4-4.7 3.6-4.8 9-4.8 7.5 0 9.3-1.1 9.3-6 0-3.4.6-4.3 5.5-8.5 3.9-3.3 5.8-5.9 6.7-8.7 1.8-6.1 3.9-7 13.9-5.9 10.2 1.2 13.3-.1 16.5-6.8 2.3-4.8 3.8-6.1 7.2-6.1 1.7 0 2.7-1 3.8-3.8.9-2 2.8-5 4.2-6.5 2.3-2.4 2.7-3.7 2.7-9v-6.2l-3.5.1c-2 0-5.3 1.2-7.5 2.7-7.1 4.7-17.2 6-20.5 2.7-2.5-2.5-2.5-4.5-.1-6.9 4.7-4.7 5.7-11.9 1.9-14.5-3.6-2.6-5.4-1.9-9.5 3.3-2.1 2.8-4.4 5.2-5.1 5.5-3.8 1.6-4.3-3.4-.7-7 3.8-3.8 4.6-5.9 4.4-12.6-.1-3.5.2-8.3.6-10.8l.7-4.5-5.2-4.3c-5.7-4.5-7.1-4.9-11.1-2.7zM368.8 759.9c-4.8.7-8.8 3.3-8.8 5.8 0 .9 1.7 1.3 5.8 1.4 3.1.1 6.1.1 6.5 0 .5-.1 3.5-.4 6.8-.8 6-.6 8.7-2.5 7.1-5-.9-1.4-11.5-2.3-17.4-1.4zM511 846.5c-2.7 4.4-3.1 9.3-.9 10.8 2.5 1.6 6.8-.1 8.9-3.6 2.5-4 2.5-6.9.2-9-3-2.7-5.8-2.1-8.2 1.8zM443 847.1c-5.6 3.8-5.9 6.3-.9 6.7 3 .3 4.4-.3 7.4-3.1 7-6.4 1.8-9.2-6.5-3.6zM930.4 863.4c-4.1 2-8.4 5.5-12.7 10.1-3.5 3.8-9.1 8.5-12.3 10.4-12.2 7.1-16 9.9-17.9 13.4-2.2 4.2-3.8 5-12 6.6-5.3.9-6.5 1.6-9.9 5.6-2.1 2.5-4.5 4.5-5.3 4.5-.9 0-3.9 1.3-6.7 2.9-2.8 1.7-9.6 4.1-15.1 5.6-7.5 1.9-11.6 3.6-16.5 6.9-9.5 6.4-11.7 7.3-19.7 7.8-9.4.7-15.6 4.1-17.3 9.5-1.5 4.7-3.4 6.3-7.6 6.3-2 0-4.5 1.1-6.9 3-2.1 1.7-5 3.3-6.4 3.5-1.4.3-4.4 1.1-6.6 1.8-3.6 1.1-4.1 1.7-5.1 5.7l-1.1 4.5-4.7-.3c-4.6-.4-4.6-.3-6.5 4-1.8 4-1.8 4.4-.2 5.6 1.1.9 3.1 1.1 6.2.7 4.3-.6 4.7-.4 7.7 2.9 1.7 2 3.8 4.9 4.7 6.5.8 1.6 2.4 3.3 3.5 3.6 4.2 1.3 23.9-6.4 36.2-14.1 2.1-1.3 6.3-3.4 9.3-4.5 4.1-1.5 6.5-3.3 9.3-6.7 6.7-8.3 12.6-14.4 15.3-15.7 1.4-.8 4.4-2.9 6.6-4.8 3.1-2.5 5.4-3.6 9.2-4 6.1-.7 10.3-2.8 13.9-6.9 2.6-2.9 2.9-3 9.2-2.4 3.6.3 8.2.1 10.2-.4 3.1-.9 3.9-1.8 5.4-5.6 1.8-4.7 8.5-11.4 11.3-11.4 4.3 0 9.1-2.3 10.7-4.9 2.3-3.9 8.6-7.8 16.7-10.2 4.8-1.5 7.3-2.9 8.7-4.9 1.1-1.6 3.5-3.8 5.3-4.9 1.9-1.1 3.9-3.2 4.5-4.6.7-1.5 3-3.3 5.6-4.4 2.4-1.1 5.1-3 6-4.2 2.2-3.2 2-8.2-.4-10.4-2.1-1.9-3.7-1.8-11.2 1.2-5.9 2.2-7.2 1.3-5.6-3.9 1.1-3.6.6-6.9-.9-6.7-.4.1-3.6 1.5-6.9 3.3zM449.7 866.7c-.8 1-3.6 5.8-6.1 10.6-4.3 8.1-4.6 9.2-4 13.8.7 4.9.6 5-3.5 8.8l-4.1 3.8.6 6.4c.4 3.5.8 6.6 1 6.8.2.2-.6 2.1-1.8 4.2-4.4 7.8.4 9 12.7 3 10.1-4.9 22.5-10 28.9-11.7 6.1-1.7 7.3-2.7 8.7-7.5 1.4-4.6 3.1-6.2 8.2-7.9 4.1-1.3 5.5-3.5 7.7-12.2 1.6-6.2 4.3-10.3 7.7-12 1.7-.8 2.8-2.1 2.8-3.3 0-2.7-5.4-3.2-11.2-1-2.8 1.1-5.6 1.5-8.1 1-3.2-.5-4.4-.1-8.7 3-6.3 4.4-9.9 4.6-12 .5-1.6-3.2-4.9-5.5-6.5-4.5-.5.3-3.1-.3-5.6-1.4-5.6-2.5-4.8-2.5-6.7-.4zM738.7 992.8c-1 1-1.7 2.4-1.7 3.1 0 .7-1.6 1.9-3.5 2.7-4.1 1.7-4.3 2.4-1.4 5 2 1.8 2.1 1.8 5.7-.4 2-1.2 5.4-2.9 7.5-3.8 2.3-1 3.7-2.3 3.7-3.4 0-4.6-7.1-6.7-10.3-3.2z"/>
</svg>
