<svg version="1.0" xmlns="http://www.w3.org/2000/svg" viewBox="0 0 898 1280">
  <path d="M483.8 1.1c-3.5 2-1.7 5.9 2.7 5.9 2.2 0 3.9-3.8 2.4-5.6-1.3-1.6-2.7-1.7-5.1-.3zM487.4 11.5c-1.5 1.1-1.7 1.7-.8 3.2 1.6 2.6 5.8 2.4 6.2-.4.4-3-2.9-4.7-5.4-2.8zM492.3 27.7c-2 .7-1.5 5.1.6 6.3 1.1.5 2.2 1 2.4 1 .9 0 2.7-6.2 2.1-7.1-.6-1-3.1-1.1-5.1-.2zM324.5 69.9c-2.7.6-3.4 1.4-6.5 8.1-.5 1-2.2 1.5-4.9 1.6-3.2 0-4.9.7-7.4 3.1-4.6 4.3-6.8 5.3-14.3 6-5.3.5-6.8 1-8 2.9-1.7 2.6-6.2 4.4-10.9 4.4-7.1 0-11.8 6.9-12 17.6-.2 8.7-.7 9.6-5 8.8-2.9-.5-3.6-.2-5.1 2.2-1 1.5-1.8 4.3-1.9 6.3 0 3.3-.3 3.6-4 4.6-3.5 1-4 1.6-4.3 4.4-.3 3.1-.6 3.3-3.2 2.8-2.6-.6-2.8-.3-3.4 3.2-.4 2.7-1.7 4.8-4.1 7-2 1.7-3.9 3.1-4.3 3.1-.4 0-1.3.4-2.1.9-1.2.8-1.2 1.2.2 2.6 1 .9 1.7 3.2 1.7 5.3 0 2.2.8 4.4 2.1 5.8 1.9 2 2.1 3.5 2.2 17 .2 14.7.2 14.8-2.5 18.2-2 2.5-2.8 4.6-2.8 7.6 0 2.2-.7 7.9-1.4 12.6-.9 5.2-1.1 10.1-.7 12.6 1.1 5.6-.1 7.4-4.8 7.4-7 0-11.1 5.6-11.1 15.2 0 2.9-.8 4.5-3.5 7.3-3.1 3-4.2 3.5-8.4 3.5-2.7 0-5.3.6-5.9 1.2-.5.7-1.5 4.2-2.1 7.8-1.4 8.2-3.5 11-9.6 12.9-5.8 1.9-8.8 5.7-10.4 13.2-1.6 7.5-1.2 14.7 1.3 21.4 2 5.5 2.5 6.1 6.1 7.2 2.2.7 5.7 1.5 7.8 1.8 5.7.9 4.6 3.7-4.3 11.2-5.6 4.6-7.9 7.3-9.1 10.5-.9 2.4-2.5 5.9-3.7 7.8-2.8 4.5-2.8 5.8.3 8.6 1.9 1.8 2.3 2.9 1.9 5.2-.3 1.6-.1 4.5.4 6.6.7 2.5.7 4.6 0 6.7-1.9 5.6 3.6 10.1 14.9 11.9 6.7 1.1 8.1 2.3 9.4 8 1.5 6.8 7.6 18.3 12.8 24.1 2.6 3 5.4 7.2 6.1 9.4.7 2.2 2.8 5.7 4.6 7.7 4.1 4.6 5.9 8.2 6.8 13.3 1.2 6.7 11.7 28.5 17.8 37.1 3.2 4.4 7.1 11.1 8.9 15 1.7 3.8 3.9 8.7 5 11 1 2.2 1.9 5.6 1.9 7.5 0 3.9 1.2 5.9 9.1 15.5 10.3 12.6 26.6 25.9 32.7 26.9 5.4.9 8.8 2.4 10.9 4.7 1 1.1 5.4 3.8 9.8 5.9 4.4 2.1 9.8 4.8 12 6 2.2 1.1 4.7 2.4 5.5 2.8.9.5 1.6 2.6 1.8 5.3.4 5.8 2.7 8 11.2 10.8 7 2.4 8 3.2 8 6.9 0 1.3 1.4 6.5 3.1 11.5 2.5 7.1 3.4 11.8 4 21.1.5 6.6 1.1 13.6 1.4 15.5.5 2.4-.4 7.4-2.5 15.5-3.7 13.8-4 18.3-1.6 24.5 1.3 3.3 1.8 7.3 1.8 14.7 0 8.8.3 10.6 2 12.9 1.9 2.4 2 3 .9 7.7-1 4.2-1 8 .2 20.2 1.3 12.4 1.5 21.6.8 31.2-.1.7-1.4 2.5-3.1 4-3.7 3.2-3.8 6.2-.4 10.2 2.4 2.9 2.5 3.6 1.9 9.4-.4 3.7-1.6 7.4-2.8 9.1-2 2.9-2 3-.3 11.3 1 4.7 2.9 11.4 4.2 14.9 1.3 3.6 2.4 7.4 2.4 8.7 0 1.2 1.1 4.6 2.5 7.5 3.2 6.9 3.1 8.7-.6 15.8-3.1 5.8-3.2 6-2.3 14.9 1.5 16.6.5 41.7-2 48.4-2.1 5.7-2 8.3.4 11.4 4 5.1 6 10.9 6 17.9 0 4.2.6 8.1 1.7 10.3 1.6 3.4 1.6 3.6-.5 6.5-2.6 3.4-2.7 4.8-.8 7.5.7 1.1 1.6 4.2 1.9 6.8.7 5.3 7.2 18.6 9.5 19.4.8.4 2.7-.2 4.3-1.1 2.5-1.5 3.3-1.5 5.6-.4 1.5.7 2.9 2.2 3.1 3.3.2 1.1 1.9 3.4 3.8 5.2 3.4 3.2 4.3 6.4 2.5 9.2-.5.7-.4 2.5.2 4.1.8 2.1.6 3.7-.7 7-1.7 4.4-1 7 2 7 2.1 0 2.4 1.4 1.2 5.3-1 3.2-.9 4 .7 5.7 1 1.1 2.4 2 3.1 2 2.3 0 5.4 4.3 5.4 7.4 0 1.7-1.1 5.5-2.5 8.4-2.8 6.1-3 8.6-1 12.2.9 1.6 1.4 5.6 1.5 11.6 0 7.7-.3 9.5-2 11.7-1.1 1.4-2 2.9-2 3.5 0 .5.9 1.7 2 2.7 1.1 1 2 2.3 2 2.9.1 2.7 2.1 4 6.5 4.1 2.7.1 5.3.9 6.2 1.8 1.4 1.4 1.3 1.7-1.5 3.1-3.1 1.6-3.6 2.8-4.7 10.8-.7 4.4-.5 4.9 2 7 7 5.8 7.5 6.6 7.5 11.3 0 4.3 1.8 7.5 4.8 8.6.5.2 2 3.1 3.3 6.4 2 4.9 3.1 6.3 6.1 7.7 2 1 4.4 3.1 5.4 4.7s2.8 3.5 4.1 4.2c1.6.9 2.9 3 3.9 6.6.9 3 2.5 6.5 3.7 7.9l2.2 2.6 5.4-2.8c5-2.6 5.6-2.7 11.4-1.7 3.4.6 7.9 1.8 9.9 2.7 3.2 1.4 3.8 2.1 3.8 4.6 0 6.2-8.3 6.6-11.8.6-3.3-5.5-10.2-5.4-10.2.3 0 3.2 2.3 5.5 6.3 6.5 3.7.9 3.4 2.6-.4 2.6-4 0-3.3 1.8 1.4 3.6 2 .8 5.4 2.1 7.5 2.9 4.6 1.7 9.4 1.9 11 .3.7-.7 1.2-2.8 1.2-4.8 0-2.6 1.3-5.6 4.5-10.5 8.2-12.9 6.8-11.8 15.1-11.1 7.3.7 7.4.7 7.4-1.7 0-3.2-3-5.7-6.8-5.7-2.7 0-3.2-.4-3.2-2.3 0-1.3-1.1-3.4-2.4-4.6-3.4-3.2-5.6-8.2-5.6-12.5 0-4.8 3.2-10.9 6.4-12.4 2.8-1.3 2.9-1.7 2.6-14.2l-.2-7.6 5.1-4.7c2.8-2.6 6.2-5.2 7.6-5.9 5.3-2.4 6.7-10.4 2.9-16.6-1.2-1.8-2.3-2.2-6.8-2.2-4.3 0-6.1-.6-9.4-2.9-2.2-1.6-4.3-3.5-4.7-4-.3-.6-2.4-2-4.5-3.1-4.8-2.5-7-6.4-7-12.6 0-3.9.5-5.1 3.3-7.9 2.2-2.2 4.7-3.6 7.3-4 2.1-.3 4.6-1 5.4-1.4 1.7-.9 3.2-7.5 3.1-13.6 0-2.2-.1-7.2-.2-11v-7.8c.1-.4 1.2-.7 2.6-.7 3.2 0 3.2-1.8-.1-4.9-3.1-3-2.8-5.5.9-5.9 1.9-.2 2.7-.9 2.7-2.2 0-2.4-1.7-3.4-5.1-3.2-1.5.1-3.9-.2-5.3-.8-2.3-.9-2.6-1.5-2.6-6.2 0-5.2-.1-5.3-4.8-8.3-5.3-3.4-6.6-7-3.6-10 2.4-2.3 9.6-1.5 13.8 1.6 2.7 2.1 4.5 2.4 12.8 2.7 8.7.3 9.8.2 11.7-1.7 2.3-2.3 2.9-8.7 1-9.3-.6-.2-1.6-4.2-2.2-9-.9-7.5-.8-9.2.7-13.2 2.1-5.5 4.4-6.4 11-4.2 7 2.4 6.3 2.5 27.1-4 4.4-1.3 9.1-2.4 10.3-2.4 5.3 0 8.2-3.1 14.4-15.5 7.5-15.1 7.5-14.9-3.2-28.9-1.8-2.4-3-5.1-3-7 0-1.7-.8-5.4-1.8-8.1l-1.8-5-4.7.3c-6.1.4-9.8-1.7-12.6-7-1.9-3.5-2.1-4.8-1.2-7.1 1.4-3.6 3.1-3.4 7.4.7 2.7 2.5 4.7 3.4 8.6 3.9 5.4.6 10 2.7 14.4 6.3 3.5 3 5.4 3 11.2.2l4.6-2.2 4.2 2.2c5.3 2.8 5.8 2.8 8.8-.4 1.3-1.4 3.8-3.3 5.4-4.1 5.9-3 8.5-6.3 8.5-10.9 0-3.7.6-4.9 3.9-8.1 4.9-5 6.4-7.9 9.6-19.4 3-10.7 3.6-11.6 7.9-12.7 2.1-.5 3.6-1.9 4.6-3.9.8-1.7 2.7-4.1 4.2-5.3 1.8-1.3 2.9-3.4 3.3-5.8 2.4-15 5.5-22.8 14.4-36.1 9.6-14.4 9.4-13.8 8.6-26-.6-8.5-1.2-11.4-3.1-14.7-3-5.1-3.2-12-.5-17.2 2-3.9 7.2-9.1 15.1-15.1 2.5-1.9 5.7-5.1 7.2-7.2 3.5-4.8 7.3-6.8 15.2-7.8 6-.7 6.8-1.1 13-6.8 9.9-9 11.8-9.8 26.4-10 6.8 0 13.3-.4 14.5-.7 1.2-.3 3.5-2.6 5-5.1 1.6-2.5 5.4-6.7 8.4-9.3l5.5-4.8.3-7.5c.2-4.1.4-8 .4-8.6.1-.7 1.6-1.9 3.4-2.6 4.7-2 6.2-4.3 5.9-9.5-.2-5.1.6-6.4 6.1-9.9 5.1-3.2 5.8-5.6 4.1-12.9-.7-3.2-1.4-8.5-1.4-11.7 0-5.3.3-6.1 3.6-9.3 2.2-2.3 3.3-4.2 2.9-5.2-2.7-7.2-2.7-14 .2-16.4 2.7-2.2 3.3-5.5 1.8-10.5-.7-2.6-1.7-8.4-2-12.8-.4-4.4-1.4-9.8-2.1-12-1.8-5.2-1.7-6.9.2-10.7 1.4-2.8 1.4-3.4 0-7.2-.9-2.2-1.3-5.2-.9-6.6.8-3.6 5.1-7.8 9.2-9.1 4-1.3 7.1-3.6 7.1-5.4 0-.6 1.3-2.9 2.9-5.1 1.6-2.1 3.2-4.9 3.5-6.1.4-1.3 2.7-6.6 5.2-11.8 3.8-8.2 4.8-9.5 6.8-9.5 1.9 0 3.5-1.6 7.2-7.1 2.6-4 7.5-10.3 10.8-14.2l6-7 .7-10.1c.4-6.3 1.4-12.3 2.8-16 2.7-7.6 2.7-8.4-.9-18.6-1.6-4.7-3-10.4-3-12.8 0-3.8-.6-5-4.9-9.5l-5-5.2-9.8-.3c-9.5-.3-9.9-.4-12.5-3.4-1.5-1.7-3.7-3.2-5-3.3-1.3-.1-2.6-.3-2.9-.4-.3 0-3.2-3.6-6.4-7.9-5.6-7.5-15.3-16-22.2-19.6-1.8-.9-4-3-4.8-4.6-1.9-3.7-4.9-3.9-15-1-3.8 1.1-8.7 2-10.9 2-3.9 0-19.4-4.7-25.2-7.7-4-2.1-10-1.3-16.7 2.1-5.4 2.9-7 2.7-4.3-.3 3.2-3.5 2.3-7.4-2.9-13.4-2.8-3.3-5.9-5.9-7.5-6.2-1.5-.3-3.9-1.9-5.4-3.6-2.1-2.4-3.4-2.9-7-2.9-3.4 0-5.2-.7-7.6-2.7-3-2.5-6.1-3.4-16.7-4.9-7.1-1.1-8.9-.1-12.1 6.8-3.6 7.4-13.8 16.8-18.4 16.8-2.4 0-2.8-.4-2.8-2.8 0-3.5 1.6-5.2 5-5.2 3.7 0 6.2-2.1 8.8-7.4 1.2-2.5 3.2-6.7 4.4-9.2 3-6.1 1.9-7.7-5.8-8.5-3.2-.4-10.9-.7-17.1-.8-8.9-.1-11.5.2-12.7 1.5-1.7 1.6-1.7 1.9-2 11.9-.1 6-.1 6-3.2 6.3-1.8.2-4.9 1.8-7.2 3.8-3.2 2.7-4.9 3.4-8.3 3.4h-4.3l7.7-7.4c4.2-4.1 7.7-8.1 7.7-9.1 0-.9 1.1-4 2.5-6.9 1.8-3.8 3.6-5.8 6.4-7.4 2.8-1.6 4.3-3.3 5.1-5.8.7-2 2.5-5 4-6.7 3.7-4.4 6.2-9.4 5.8-12-.2-1.7-1.7-2.6-6.6-4.2-3.5-1.2-6.7-2.8-7.2-3.5-.4-.8-1-5-1.3-9.3-.5-6.5-1-8.4-3.4-11.5-2.3-3.1-2.9-5-3.3-11.1l-.5-7.5-3.3-.8c-2.9-.8-3.8-1.8-6.5-7.6-3.6-7.8-4.2-8.4-8.1-7.7-2.1.4-3.6-.2-5.8-2-1.9-1.6-4.2-2.5-6.3-2.5-2.6 0-3.9-.7-5.6-3.1-3.1-4.4-10-7.3-15.3-6.5-2.7.4-5.7.1-8.5-.9-5.2-1.8-11.5-1.9-19.1-.3-7.1 1.4-10.8.3-13.7-4.3-1.2-1.9-4.6-5.8-7.5-8.6-4.2-4.2-6-5.3-8.5-5.3-4.5 0-7.3-3-7.3-7.8 0-6.9-8.6-17.4-18.4-22.4-3.4-1.8-4.4-1.9-7.9-.8-7.8 2.3-13.2-2.7-8.4-7.8 7.7-8.4.7-16.2-14.7-16.2-7.9 0-8.6-.5-8.6-5.5 0-3.2 2.5-5.5 6-5.5 4.8 0 4.8-2.1 0-5.3-3.4-2.4-7.8-2.1-12.9.8-2.8 1.6-5.9 2.5-8.7 2.5-2.6 0-5.7.8-7.6 2-1.8 1.1-4.1 2-5.1 2s-2.7 1.5-3.8 3.4c-1.1 1.9-2.6 3.6-3.3 3.9-1.6.6-8-2.2-15.8-6.9l-5.9-3.6-10.7.6c-5.9.4-12.5.9-14.8 1.2-5 .7-7.4-1.3-7.4-6.1 0-2.1-.9-4.4-2.3-6.1-2.2-2.5-3-2.7-9.8-2.8l-7.4-.1.3-5.2c.4-5.7-.4-6.6-6.9-7.8-2.6-.5-3.9-.2-4.9 1-1.1 1.4-.8 2.1 2.5 5.6 3.6 3.6 3.8 4 2.3 5.5-.8.9-4.2 1.9-7.5 2.3-6.7.8-11.1 3.4-14.3 8.6-2.9 4.8-5.5 4.7-4.7-.1.5-2.7.1-4-1.4-5.5-1-1-1.9-2.5-1.9-3.2 0-1.7 2.8-4.3 5.6-5.1 3.7-1.1 7.4-5.3 7.4-8.4 0-4.8-2.2-5.9-9.5-4.3zM481 75.4c0 2.1 2.1 3.1 3 1.5.5-.7.6-1.7.4-2.1-.9-1.4-3.4-.9-3.4.6z"/>
  <path d="M485.7 97.2c-2.6.9-2.8 1.4-2.3 4.4.6 2.7.3 3.5-1.4 4.4-1.7.9-1.9 1.4-.9 2.6 1.8 2.2 7.3 1.4 7.7-1.1.3-1.1 1.3-2.8 2.3-3.8 2.3-2.2 2.5-6.3.3-7.1-1.9-.7-2.2-.7-5.7.6zM1.6 289.6c-2 2-2 1.9.6 6.6 2 3.6 2.1 4.1.6 4.9-.8.5-1.9 2-2.2 3.4-1.9 7.7 7.4 9 11.3 1.7 1.9-3.5.5-11.6-2.6-15.2-2.8-3.3-5.4-3.8-7.7-1.4zM19 302.5c-1.1 1.4-1 1.9.7 3.7 1.3 1.3 2.8 1.8 3.8 1.4 2.1-.8 1.6-3.5-1.1-5.3-1.8-1.2-2.3-1.1-3.4.2zM33.6 304.6c-1 2.6-.7 3.4 1.2 3.4 2.1 0 4.2-1.8 4.2-3.7 0-1.9-4.7-1.6-5.4.3zM380 1040c-2.5 2.5-2.5 3.1.1 8.3 1.9 3.6 2 4.8 1.2 9.4-.5 2.9-.7 5.7-.4 6.2.3.5 3.1 1.1 6.1 1.3l5.5.3.3-6.2c.2-4.2-.2-7.2-1.3-9.2-.8-1.7-1.5-3.9-1.5-5.1 0-2.4-4.2-7-6.5-7-.8 0-2.4.9-3.5 2zM525.7 1042.7c-.3.4-.5 2.7-.5 5.1-.1 3.7.3 4.4 2.8 5.7 1.6.8 4 1.5 5.5 1.5 2.1 0 2.5-.5 2.5-2.9 0-1.6-.6-3.1-1.2-3.4-.7-.2-1.3-1.7-1.3-3.3 0-2.6-.4-2.9-3.7-3.2-2-.2-3.8.1-4.1.5zM406.2 1084.9c-2 1.2.3 6.3 2.6 5.9 2.4-.5 2.8-4.4.5-5.7-1.1-.5-2.5-.6-3.1-.2zM394 1092.2c-3.8 6.3-1.9 9.1 5.7 8.6 4.3-.3 4.8-.5 5.1-2.9.4-3.2-4.1-8.9-6.9-8.9-1.1 0-2.8 1.4-3.9 3.2zM397.5 1112.4c-.8 1.2-3.8 3.5-6.6 5-2.7 1.5-4.8 3.3-4.6 3.9.2.7 2.8 1.3 6.3 1.4 3.2.1 8 .4 10.5.8 3.6.5 4.9.3 6.3-1.1 2.3-2.3 1.4-6.1-2.5-9.7-3.6-3.4-7.3-3.5-9.4-.3zM399.3 1147.6c-1.8.8-3.3 1.6-3.3 1.8 0 .2 2.1 1.6 4.7 3 5.3 3 6.6 2.5 6.1-2.5-.4-4-2.4-4.6-7.5-2.3zM401 1160.8c-1.7.6-1.1 2.8 1.6 5.3 2.1 1.9 2.4 3 1.9 5.6-.5 2.9-.3 3.4 2 4.3 2.8 1.1 7.5 1.4 7.5.5 0-.3-.6-1.6-1.4-2.8-1.6-2.5-.6-6.4 1.9-7.3 1.8-.7 2-4 .3-5.1-1.3-.7-11.8-1.1-13.8-.5zM633 1204.7c-3.4.6-4.7 2.1-2.7 2.9 2.4.9 2.1 2.5-1 5l-2.7 2.1 2.4 1.3c2.1 1.1 2.6.9 7.1-4.1 2.6-3 4.7-5.9 4.5-6.4-.3-1.1-3.9-1.5-7.6-.8zM645.3 1208.2c-3.9 4.2-3.4 7.8 1.1 7.8 3.3 0 6.6-2.1 6.6-4.1 0-.5 1-.9 2.3-.9 2.4 0 6.6-2.5 5.7-3.3-.3-.3-3.4-.8-7-1.2-6-.6-6.7-.5-8.7 1.7zM427.4 1210.4c-.8 2.2-.1 5.9 1.3 6.4 1.5.4 3.6-4.5 2.9-6.5-.7-1.7-3.5-1.7-4.2.1zM511.4 1227.8c-1.7 1.1-3.4 4.8-3.4 7.6 0 3.6 3.8 6 7.4 4.6 1.5-.5 3.4-1 4.2-1 2.3 0 1.6 3.7-1.2 5.4-1.8 1.3-2.4 2.4-2.2 4.4.3 2.7.9 3 9.1 4.7 1.6.3 2.7 1.1 2.4 1.8-.6 1.8-8.2 2-11.9.3-1.8-.8-6.8-1.7-11-2-6.9-.6-7.7-.5-8.2 1.2-1 3.1.4 5.2 3.4 5.2 1.5 0 4.7.7 7.1 1.6 2.4.8 8.4 1.6 13.2 1.8 5 .2 9.3.8 9.9 1.4 1.4 1.4 5 1.6 6.4.3 1.3-1.4 13-3.5 18.9-3.5 3 .1 6.4.8 8.5 2 2.6 1.3 5.6 1.8 11.3 1.9 8.2 0 10-.9 9.5-5-.3-1.6-.9-1.9-3.7-1.7-1.9.1-4.1-.4-5-1.1-.9-.8-3.8-1.7-6.4-2.1-7.3-.9-18.9-6.7-25-12.5-3-2.8-6.3-5.1-7.4-5.1-2.7 0-4.6-2.4-3.8-4.9.4-1.3-.1-2.7-1.4-4-1.8-1.8-3.3-2.1-10.8-2.1-4.9 0-9.3.4-9.9.8zM442.7 1228.7c-.9 1.4 2 5.1 5.2 6.7 2.9 1.6 14.7 1.1 15.7-.6.3-.4-2.1-2-5.2-3.5-6.1-2.8-14.7-4.2-15.7-2.6z"/>
  <path d="M501.6 1237.9c-2.1 2.3-1.4 5.7 1.4 6.6 2.7.8 4-.2 4-3 0-5.5-2.3-7-5.4-3.6zM465 1241.6c-2 2.3.2 6.2 3.7 6.6 1.8.2 2.8.9 2.8 2 0 2.6 2 4.1 4.4 3.3 3.2-1 2.8-5.3-.6-6.6-1.5-.5-3.3-1.9-4-2.9-2.2-3.2-4.9-4.2-6.3-2.4zM546 1265.2c-1.9.5-4.1 1.5-4.8 2.1-.7.5-2.9 1.3-4.8 1.6-3.4.6-3.4.7-1.9 2.8 1 1.5 2.6 2.3 4.4 2.3 1.6 0 4.5.7 6.4 1.5 2 .8 4.8 1.5 6.1 1.5 2.3 0 2.5-.3 2-2.9l-.6-2.9 5.3.2c4.9.1 5.4-.1 5.7-2.2.6-3.9-1.4-5.2-8.2-5.1-3.3 0-7.7.5-9.6 1.1zM570.5 1273c-6.1 1.3-9.5 2.8-9.5 4.4 0 2.2 2.9 2.7 11.2 2 8.1-.7 9.7-1.8 7.8-5.5-1.1-2-3-2.2-9.5-.9z"/>
</svg>
