<svg version="1.1" baseProfile="basic" id="Layer_1" xmlns="http://www.w3.org/2000/svg" x="0" y="0" viewBox="0 0 120 124" xml:space="preserve"><style>.st1{fill:#fff}.st9{opacity:.699;fill:none;stroke:#fff;stroke-width:2.5517;stroke-linecap:round;stroke-miterlimit:10}</style><g id="Layer_1_2_" transform="translate(-1 -1.35)"><g id="Path_808_1_" opacity=".501"><path class="st1" d="M405.04 304.65c-.46 0-.92-.12-1.32-.36l-45.95-26.73a2.73 2.73 0 0 1-1.34-2.34v-53.46c0-.96.51-1.86 1.34-2.34l45.95-26.73c.4-.23.86-.36 1.32-.36.46 0 .92.12 1.32.36l45.95 26.73a2.73 2.73 0 0 1 1.34 2.34v53.46c0 .96-.51 1.86-1.34 2.34l-45.95 26.73c-.4.24-.86.36-1.32.36z" transform="translate(-343.917 -185.432)"/><path class="st1" d="M405.04 193.42c-.02 0-.03.01-.04.01l-46.8 27.15c-.03.02 0 .05 0 .11v54.56c0 .07-.03-.02 0 0l46.58 27.58c.01.01-.05-.03 0 0 .01.01.05-.03.06-.04l46.71-26.63c.03-.02 0-1.43 0-1.43v-53.46s.03.02 0 0l-46.48-27.84c0-.01-.01-.01-.03-.01m0-3.64c.9 0 1.8.23 2.6.7l45.95 26.73a5.26 5.26 0 0 1 2.6 4.55v53.46c0 1.88-.99 3.61-2.6 4.55l-45.95 26.73c-.81.47-1.7.7-2.6.7-.9 0-1.8-.23-2.6-.7l-45.95-26.73a5.26 5.26 0 0 1-2.6-4.55v-53.46c0-1.88.99-3.61 2.6-4.55l45.95-26.73c.8-.46 1.7-.7 2.6-.7z" transform="translate(-343.917 -185.432)"/></g></g><g id="Layer_2_1_" transform="translate(1.694 2.146)"><g id="Layer_2-2_1_"><path id="Path_807_1_" d="m58.47 4.5-.3 54.13 46.78 28.61V32.27L58.47 4.5z" opacity=".505" fill="#29abe2"/><circle id="Ellipse_51_1_" cx="58.12" cy="54.64" r="23.69" fill="#f43030"/><radialGradient id="Ellipse_49_2_" cx="35.087" cy="67.758" r="12.872" fx="29.041" fy="62.02" gradientUnits="userSpaceOnUse"><stop offset=".455" stop-color="#fff"/><stop offset=".673" stop-color="#ededed"/><stop offset="1" stop-color="#ccc"/></radialGradient><path id="Ellipse_49_1_" d="M35.92 54.47c1.77 0 6.33 3.47 8.8 7.87 2.24 3.99 3.33 11.19 2.56 12.29-2.58 3.67-6.55 6.4-11.36 6.4-7.34 0-13.28-5.95-13.28-13.28 0-7.33 5.95-13.28 13.28-13.28z" opacity=".997" fill="url(#Ellipse_49_2_)"/><radialGradient id="Ellipse_50_2_" cx="81.508" cy="67.758" r="13.014" fx="75.968" fy="63.784" gradientUnits="userSpaceOnUse"><stop offset="0" stop-color="#fff"/><stop offset=".47" stop-color="#fcfcfc"/><stop offset=".682" stop-color="#ececec"/><stop offset="1" stop-color="#ccc"/></radialGradient><path id="Ellipse_50_1_" d="M80.96 54.47c7.34 0 13.28 5.95 13.28 13.28 0 7.34-5.95 13.28-13.28 13.28-5.01 0-9.33-2.81-11.64-6.88-.72-1.27-1.26-6.4 1.95-11.81 2.84-4.77 8.65-7.87 9.69-7.87z" opacity=".997" fill="url(#Ellipse_50_2_)"/><path id="Path_805_1_" d="m58.17 113.9 46.78-26.67V32.27L58.17 58.63v55.27z" opacity=".42" fill="#29abe2"/><path id="Path_806_1_" d="M104.95 32.34 58.47 4.5 11.59 31.65l46.58 26.98 46.78-26.29z" opacity=".18" fill="#29abe2"/><path id="Path_807-2_1_" d="M11.59 31.65v54.68l46.58 27.58V58.63L11.59 31.65z" opacity=".7" fill="#29abe2"/></g><path id="Path_809_1_" class="st9" d="m11.59 31.65 46.53 26.93 46.83-26.24"/><path id="Line_74_1_" class="st9" d="m58.23 59.28-.06 54.62"/><circle id="Ellipse_52_1_" class="st1" cx="58.12" cy="58.52" r="2.66"/></g></svg>