<svg xmlns="http://www.w3.org/2000/svg" class="d3-component" style="font-family:sans-serif;font-size:1.2rem" viewBox="0 0 1850 1150"><g transform="translate(120,0)"><path fill="none" stroke="#ccc" stroke-width="3px" d="M 240 707.6923076923076
              C 120 707.6923076923076,
                120 737.1794871794872,
                0 737.1794871794872"></path><path fill="none" stroke="#ccc" stroke-width="3px" d="M 240 766.6666666666666
              C 120 766.6666666666666,
                120 737.1794871794872,
                0 737.1794871794872"></path><path fill="none" stroke="#ccc" stroke-width="3px" d="M 480 324.35897435897436
              C 360 324.35897435897436,
                360 707.6923076923076,
                240 707.6923076923076"></path><path fill="none" stroke="#ccc" stroke-width="3px" d="M 480 619.2307692307692
              C 360 619.2307692307692,
                360 707.6923076923076,
                240 707.6923076923076"></path><path fill="none" stroke="#ccc" stroke-width="3px" d="M 480 855.1282051282051
              C 360 855.1282051282051,
                360 707.6923076923076,
                240 707.6923076923076"></path><path fill="none" stroke="#ccc" stroke-width="3px" d="M 480 914.1025641025641
              C 360 914.1025641025641,
                360 707.6923076923076,
                240 707.6923076923076"></path><path fill="none" stroke="#ccc" stroke-width="3px" d="M 480 973.076923076923
              C 360 973.076923076923,
                360 707.6923076923076,
                240 707.6923076923076"></path><path fill="none" stroke="#ccc" stroke-width="3px" d="M 480 1032.051282051282
              C 360 1032.051282051282,
                360 707.6923076923076,
                240 707.6923076923076"></path><path fill="none" stroke="#ccc" stroke-width="3px" d="M 480 1091.0256410256409
              C 360 1091.0256410256409,
                360 707.6923076923076,
                240 707.6923076923076"></path><path fill="none" stroke="#ccc" stroke-width="3px" d="M 720 176.9230769230769
              C 600 176.9230769230769,
                600 324.35897435897436,
                480 324.35897435897436"></path><path fill="none" stroke="#ccc" stroke-width="3px" d="M 720 235.89743589743588
              C 600 235.89743589743588,
                600 324.35897435897436,
                480 324.35897435897436"></path><path fill="none" stroke="#ccc" stroke-width="3px" d="M 720 294.87179487179486
              C 600 294.87179487179486,
                600 324.35897435897436,
                480 324.35897435897436"></path><path fill="none" stroke="#ccc" stroke-width="3px" d="M 720 353.8461538461538
              C 600 353.8461538461538,
                600 324.35897435897436,
                480 324.35897435897436"></path><path fill="none" stroke="#ccc" stroke-width="3px" d="M 720 412.8205128205128
              C 600 412.8205128205128,
                600 324.35897435897436,
                480 324.35897435897436"></path><path fill="none" stroke="#ccc" stroke-width="3px" d="M 720 471.79487179487177
              C 600 471.79487179487177,
                600 324.35897435897436,
                480 324.35897435897436"></path><path fill="none" stroke="#ccc" stroke-width="3px" d="M 720 589.7435897435897
              C 600 589.7435897435897,
                600 619.2307692307692,
                480 619.2307692307692"></path><path fill="none" stroke="#ccc" stroke-width="3px" d="M 720 648.7179487179487
              C 600 648.7179487179487,
                600 619.2307692307692,
                480 619.2307692307692"></path><path fill="none" stroke="#ccc" stroke-width="3px" d="M 720 766.6666666666666
              C 600 766.6666666666666,
                600 855.1282051282051,
                480 855.1282051282051"></path><path fill="none" stroke="#ccc" stroke-width="3px" d="M 720 825.6410256410256
              C 600 825.6410256410256,
                600 855.1282051282051,
                480 855.1282051282051"></path><path fill="none" stroke="#ccc" stroke-width="3px" d="M 720 884.6153846153845
              C 600 884.6153846153845,
                600 855.1282051282051,
                480 855.1282051282051"></path><path fill="none" stroke="#ccc" stroke-width="3px" d="M 720 943.5897435897435
              C 600 943.5897435897435,
                600 855.1282051282051,
                480 855.1282051282051"></path><path fill="none" stroke="#ccc" stroke-width="3px" d="M 960 147.43589743589743
              C 840 147.43589743589743,
                840 176.9230769230769,
                720 176.9230769230769"></path><path fill="none" stroke="#ccc" stroke-width="3px" d="M 960 206.4102564102564
              C 840 206.4102564102564,
                840 176.9230769230769,
                720 176.9230769230769"></path><path fill="none" stroke="#ccc" stroke-width="3px" d="M 960 471.79487179487177
              C 840 471.79487179487177,
                840 471.79487179487177,
                720 471.79487179487177"></path><path fill="none" stroke="#ccc" stroke-width="3px" d="M 1200 88.46153846153845
              C 1080 88.46153846153845,
                1080 206.4102564102564,
                960 206.4102564102564"></path><path fill="none" stroke="#ccc" stroke-width="3px" d="M 1200 147.43589743589743
              C 1080 147.43589743589743,
                1080 206.4102564102564,
                960 206.4102564102564"></path><path fill="none" stroke="#ccc" stroke-width="3px" d="M 1200 206.4102564102564
              C 1080 206.4102564102564,
                1080 206.4102564102564,
                960 206.4102564102564"></path><path fill="none" stroke="#ccc" stroke-width="3px" d="M 1200 265.38461538461536
              C 1080 265.38461538461536,
                1080 206.4102564102564,
                960 206.4102564102564"></path><path fill="none" stroke="#ccc" stroke-width="3px" d="M 1200 324.35897435897436
              C 1080 324.35897435897436,
                1080 206.4102564102564,
                960 206.4102564102564"></path><path fill="none" stroke="#ccc" stroke-width="3px" d="M 1440 58.97435897435897
              C 1320 58.97435897435897,
                1320 88.46153846153845,
                1200 88.46153846153845"></path><path fill="none" stroke="#ccc" stroke-width="3px" d="M 1440 117.94871794871794
              C 1320 117.94871794871794,
                1320 88.46153846153845,
                1200 88.46153846153845"></path><path fill="none" stroke="#ccc" stroke-width="3px" d="M 1440 265.38461538461536
              C 1320 265.38461538461536,
                1320 265.38461538461536,
                1200 265.38461538461536"></path><g class="node" transform="translate(0,737.1794871794872)"><circle class="node" r="15" style="fill: rgb(215, 215, 215); stroke: rgb(186, 186, 186);"></circle><text dy=".35em" x="-20" text-anchor="end" fill="#777" font-weight="700">19A (B)</text></g><g class="node" transform="translate(240,707.6923076923076)"><circle class="node" r="15" style="fill: rgb(198, 198, 198); stroke: rgb(171, 171, 171);"></circle><text dy=".35em" x="-20" text-anchor="end" fill="#777" font-weight="700">20A (B.1)</text></g><g class="node" transform="translate(240,766.6666666666666)"><circle class="node" r="15" style="fill: rgb(206, 206, 206); stroke: rgb(179, 179, 179);"></circle><text dy=".35em" x="20" text-anchor="start" fill="#777" font-weight="700">19B (A)</text></g><g class="node" transform="translate(480,324.35897435897436)"><circle class="node" r="15" style="fill: rgb(189, 189, 189); stroke: rgb(164, 164, 164);"></circle><text dy=".35em" x="-20" text-anchor="end" fill="#777" font-weight="700">20B (B.1.1)</text></g><g class="node" transform="translate(480,619.2307692307692)"><circle class="node" r="15" style="fill: rgb(68, 85, 219); stroke: rgb(59, 74, 190);"></circle><text dy=".35em" x="-20" text-anchor="end" fill="#777" font-weight="700">21A (Delta, B.1.617.2)</text></g><g class="node" transform="translate(480,855.1282051282051)"><circle class="node" r="15" style="fill: rgb(180, 180, 180); stroke: rgb(156, 156, 156);"></circle><text dy=".35em" x="-20" text-anchor="end" fill="#777" font-weight="700">20C</text></g><g class="node" transform="translate(480,914.1025641025641)"><circle class="node" r="15" style="fill: rgb(156, 202, 107); stroke: rgb(135, 175, 93);"></circle><text dy=".35em" x="20" text-anchor="start" fill="#777" font-weight="700">21H (Mu, B.1.621)</text></g><g class="node" transform="translate(480,973.076923076923)"><circle class="node" r="15" style="fill: rgb(98, 178, 178); stroke: rgb(85, 155, 155);"></circle><text dy=".35em" x="20" text-anchor="start" fill="#777" font-weight="700">21D (Eta, B.1.525)</text></g><g class="node" transform="translate(480,1032.051282051282)"><circle class="node" r="15" style="fill: rgb(79, 149, 209); stroke: rgb(69, 129, 182);"></circle><text dy=".35em" x="20" text-anchor="start" fill="#777" font-weight="700">21B (Kappa, B.1.617.1)</text></g><g class="node" transform="translate(480,1091.0256410256409)"><circle class="node" r="15" style="fill: rgb(163, 163, 163); stroke: rgb(142, 142, 142);"></circle><text dy=".35em" x="20" text-anchor="start" fill="#777" font-weight="700">20E (EU1, B.1.177)</text></g><g class="node" transform="translate(720,176.9230769230769)"><circle class="node" r="15" style="fill: rgb(206, 200, 76); stroke: rgb(179, 173, 66);"></circle><text dy=".35em" x="-20" text-anchor="end" fill="#777" font-weight="700">21M (Omicron, B.1.1.529)</text></g><g class="node" transform="translate(720,235.89743589743588)"><circle class="node" r="15" style="fill: rgb(110, 187, 160); stroke: rgb(95, 162, 139);"></circle><text dy=".35em" x="20" text-anchor="start" fill="#777" font-weight="700">21E (Theta, P.3)</text></g><g class="node" transform="translate(720,294.87179487179486)"><circle class="node" r="15" style="fill: rgb(70, 60, 209); stroke: rgb(61, 52, 182);"></circle><text dy=".35em" x="20" text-anchor="start" fill="#777" font-weight="700">20J (Gamma, P.1)</text></g><g class="node" transform="translate(720,353.8461538461538)"><circle class="node" r="15" style="fill: rgb(81, 41, 190); stroke: rgb(70, 35, 165);"></circle><text dy=".35em" x="20" text-anchor="start" fill="#777" font-weight="700">20I (Alpha, B.1.1.7)</text></g><g class="node" transform="translate(720,412.8205128205128)"><circle class="node" r="15" style="fill: rgb(155, 155, 155); stroke: rgb(134, 134, 134);"></circle><text dy=".35em" x="20" text-anchor="start" fill="#777" font-weight="700">20F (D.2)</text></g><g class="node" transform="translate(720,471.79487179487177)"><circle class="node" r="15" style="fill: rgb(172, 172, 172); stroke: rgb(149, 149, 149);"></circle><text dy=".35em" x="-20" text-anchor="end" fill="#777" font-weight="700">20D (B.1.1.1)</text></g><g class="node" transform="translate(720,589.7435897435897)"><circle class="node" r="15" style="fill: rgb(69, 108, 222); stroke: rgb(60, 94, 193);"></circle><text dy=".35em" x="20" text-anchor="start" fill="#777" font-weight="700">21I (Delta)</text></g><g class="node" transform="translate(720,648.7179487179487)"><circle class="node" r="15" style="fill: rgb(73, 131, 220); stroke: rgb(63, 114, 191);"></circle><text dy=".35em" x="20" text-anchor="start" fill="#777" font-weight="700">21J (Delta)</text></g><g class="node" transform="translate(720,766.6666666666666)"><circle class="node" r="15" style="fill: rgb(124, 194, 141); stroke: rgb(107, 169, 122);"></circle><text dy=".35em" x="20" text-anchor="start" fill="#777" font-weight="700">21F (Iota, B.1.526)</text></g><g class="node" transform="translate(720,825.6410256410256)"><circle class="node" r="15" style="fill: rgb(88, 165, 195); stroke: rgb(76, 143, 169);"></circle><text dy=".35em" x="20" text-anchor="start" fill="#777" font-weight="700">21C (Epsilon, B.1.427/429)</text></g><g class="node" transform="translate(720,884.6153846153845)"><circle class="node" r="15" style="fill: rgb(101, 31, 169); stroke: rgb(88, 27, 146);"></circle><text dy=".35em" x="20" text-anchor="start" fill="#777" font-weight="700">20H (Beta, B.1.351)</text></g><g class="node" transform="translate(720,943.5897435897435)"><circle class="node" r="15" style="fill: rgb(146, 146, 146); stroke: rgb(127, 127, 127);"></circle><text dy=".35em" x="20" text-anchor="start" fill="#777" font-weight="700">20G (B.1.2)</text></g><g class="node" transform="translate(960,147.43589743589743)"><circle class="node" r="15" style="fill: rgb(173, 204, 95); stroke: rgb(150, 177, 82);"></circle><text dy=".35em" x="20" text-anchor="start" fill="#777" font-weight="700">21K (Omicron, BA.1)</text></g><g class="node" transform="translate(960,206.4102564102564)"><circle class="node" r="15" style="fill: rgb(190, 203, 84); stroke: rgb(165, 176, 73);"></circle><text dy=".35em" x="-20" text-anchor="end" fill="#777" font-weight="700">21L (Omicron, ~BA.2)</text></g><g class="node" transform="translate(960,471.79487179487177)"><circle class="node" r="15" style="fill: rgb(139, 199, 124); stroke: rgb(120, 172, 107);"></circle><text dy=".35em" x="20" text-anchor="start" fill="#777" font-weight="700">21G (Lambda, C.37)</text></g><g class="node" transform="translate(1200,88.46153846153845)"><circle class="node" r="15" style="fill: rgb(244, 102, 48); stroke: rgb(211, 88, 42);"></circle><text dy=".35em" x="-20" text-anchor="end" fill="#777" font-weight="700">22F (Omicron, XBB)</text></g><g class="node" transform="translate(1200,147.43589743589743)"><circle class="node" r="15" style="fill: rgb(247, 152, 58); stroke: rgb(214, 132, 50);"></circle><text dy=".35em" x="20" text-anchor="start" fill="#777" font-weight="700">22D (Omicron, BA.2.75)</text></g><g class="node" transform="translate(1200,206.4102564102564)"><circle class="node" r="15" style="fill: rgb(242, 171, 62); stroke: rgb(210, 148, 54);"></circle><text dy=".35em" x="20" text-anchor="start" fill="#777" font-weight="700">22C (Omicron, BA.2.12.1)</text></g><g class="node" transform="translate(1200,265.38461538461536)"><circle class="node" r="15" style="fill: rgb(234, 186, 66); stroke: rgb(203, 161, 57);"></circle><text dy=".35em" x="-20" text-anchor="end" fill="#777" font-weight="700">22B (Omicron, BA.5)</text></g><g class="node" transform="translate(1200,324.35897435897436)"><circle class="node" r="15" style="fill: rgb(221, 194, 70); stroke: rgb(192, 169, 61);"></circle><text dy=".35em" x="20" text-anchor="start" fill="#777" font-weight="700">22A (Omicron, BA.4)</text></g><g class="node" transform="translate(1440,58.97435897435897)"><circle class="node" r="15" style="fill: rgb(239, 72, 43); stroke: rgb(208, 62, 37);"></circle><text dy=".35em" x="20" text-anchor="start" fill="#777" font-weight="700">23A (Omicron, XBB.1.5)</text></g><g class="node" transform="translate(1440,117.94871794871794)"><circle class="node" r="15" style="fill: rgb(235, 43, 38); stroke: rgb(204, 37, 33);"></circle><text dy=".35em" x="20" text-anchor="start" fill="#777" font-weight="700">23B (Omicron, XBB.1.16)</text></g><g class="node" transform="translate(1440,265.38461538461536)"><circle class="node" r="15" style="fill: rgb(247, 129, 54); stroke: rgb(214, 112, 47);"></circle><text dy=".35em" x="20" text-anchor="start" fill="#777" font-weight="700">22E (Omicron, BQ.1)</text></g></g></svg>