<svg xmlns="http://www.w3.org/2000/svg" class="d3-component" style="font-family:sans-serif;font-size:1.25rem" viewBox="0 0 1250 850"><g transform="translate(90,0)"><path fill="none" stroke="#ccc" stroke-width="3px" d="M 180 437.1428571428571
              C 90 437.1428571428571,
                90 461.4285714285714,
                0 461.4285714285714"></path><path fill="none" stroke="#ccc" stroke-width="3px" d="M 180 485.71428571428567
              C 90 485.71428571428567,
                90 461.4285714285714,
                0 461.4285714285714"></path><path fill="none" stroke="#ccc" stroke-width="3px" d="M 360 170
              C 270 170,
                270 485.71428571428567,
                180 485.71428571428567"></path><path fill="none" stroke="#ccc" stroke-width="3px" d="M 360 461.4285714285714
              C 270 461.4285714285714,
                270 485.71428571428567,
                180 485.71428571428567"></path><path fill="none" stroke="#ccc" stroke-width="3px" d="M 360 558.5714285714286
              C 270 558.5714285714286,
                270 485.71428571428567,
                180 485.71428571428567"></path><path fill="none" stroke="#ccc" stroke-width="3px" d="M 360 655.7142857142857
              C 270 655.7142857142857,
                270 485.71428571428567,
                180 485.71428571428567"></path><path fill="none" stroke="#ccc" stroke-width="3px" d="M 360 704.2857142857142
              C 270 704.2857142857142,
                270 485.71428571428567,
                180 485.71428571428567"></path><path fill="none" stroke="#ccc" stroke-width="3px" d="M 360 752.8571428571428
              C 270 752.8571428571428,
                270 485.71428571428567,
                180 485.71428571428567"></path><path fill="none" stroke="#ccc" stroke-width="3px" d="M 360 801.4285714285714
              C 270 801.4285714285714,
                270 485.71428571428567,
                180 485.71428571428567"></path><path fill="none" stroke="#ccc" stroke-width="3px" d="M 540 48.57142857142857
              C 450 48.57142857142857,
                450 170,
                360 170"></path><path fill="none" stroke="#ccc" stroke-width="3px" d="M 540 97.14285714285714
              C 450 97.14285714285714,
                450 170,
                360 170"></path><path fill="none" stroke="#ccc" stroke-width="3px" d="M 540 145.71428571428572
              C 450 145.71428571428572,
                450 170,
                360 170"></path><path fill="none" stroke="#ccc" stroke-width="3px" d="M 540 194.28571428571428
              C 450 194.28571428571428,
                450 170,
                360 170"></path><path fill="none" stroke="#ccc" stroke-width="3px" d="M 540 242.85714285714283
              C 450 242.85714285714283,
                450 170,
                360 170"></path><path fill="none" stroke="#ccc" stroke-width="3px" d="M 540 291.42857142857144
              C 450 291.42857142857144,
                450 170,
                360 170"></path><path fill="none" stroke="#ccc" stroke-width="3px" d="M 540 388.57142857142856
              C 450 388.57142857142856,
                450 461.4285714285714,
                360 461.4285714285714"></path><path fill="none" stroke="#ccc" stroke-width="3px" d="M 540 437.1428571428571
              C 450 437.1428571428571,
                450 461.4285714285714,
                360 461.4285714285714"></path><path fill="none" stroke="#ccc" stroke-width="3px" d="M 540 485.71428571428567
              C 450 485.71428571428567,
                450 461.4285714285714,
                360 461.4285714285714"></path><path fill="none" stroke="#ccc" stroke-width="3px" d="M 540 534.2857142857142
              C 450 534.2857142857142,
                450 461.4285714285714,
                360 461.4285714285714"></path><path fill="none" stroke="#ccc" stroke-width="3px" d="M 540 631.4285714285714
              C 450 631.4285714285714,
                450 655.7142857142857,
                360 655.7142857142857"></path><path fill="none" stroke="#ccc" stroke-width="3px" d="M 540 680
              C 450 680,
                450 655.7142857142857,
                360 655.7142857142857"></path><path fill="none" stroke="#ccc" stroke-width="3px" d="M 720 48.57142857142857
              C 630 48.57142857142857,
                630 48.57142857142857,
                540 48.57142857142857"></path><path fill="none" stroke="#ccc" stroke-width="3px" d="M 720 267.1428571428571
              C 630 267.1428571428571,
                630 291.42857142857144,
                540 291.42857142857144"></path><path fill="none" stroke="#ccc" stroke-width="3px" d="M 720 315.7142857142857
              C 630 315.7142857142857,
                630 291.42857142857144,
                540 291.42857142857144"></path><path fill="none" stroke="#ccc" stroke-width="3px" d="M 900 267.1428571428571
              C 810 267.1428571428571,
                810 315.7142857142857,
                720 315.7142857142857"></path><path fill="none" stroke="#ccc" stroke-width="3px" d="M 900 315.7142857142857
              C 810 315.7142857142857,
                810 315.7142857142857,
                720 315.7142857142857"></path><path fill="none" stroke="#ccc" stroke-width="3px" d="M 900 364.2857142857143
              C 810 364.2857142857143,
                810 315.7142857142857,
                720 315.7142857142857"></path><g class="node" transform="translate(0,461.4285714285714)"><circle class="node" r="15" style="fill: rgb(215, 215, 215); stroke: rgb(186, 186, 186);"></circle><text dy=".35em" x="-20" text-anchor="end" fill="#777" font-weight="700">19A (B)</text></g><g class="node" transform="translate(180,437.1428571428571)"><circle class="node" r="15" style="fill: rgb(206, 206, 206); stroke: rgb(179, 179, 179);"></circle><text dy=".35em" x="20" text-anchor="start" fill="#777" font-weight="700">19B (A)</text></g><g class="node" transform="translate(180,485.71428571428567)"><circle class="node" r="15" style="fill: rgb(198, 198, 198); stroke: rgb(171, 171, 171);"></circle><text dy=".35em" x="-20" text-anchor="end" fill="#777" font-weight="700">20A (B.1)</text></g><g class="node" transform="translate(360,170)"><circle class="node" r="15" style="fill: rgb(189, 189, 189); stroke: rgb(164, 164, 164);"></circle><text dy=".35em" x="-20" text-anchor="end" fill="#777" font-weight="700">20B (B.1.1)</text></g><g class="node" transform="translate(360,461.4285714285714)"><circle class="node" r="15" style="fill: rgb(180, 180, 180); stroke: rgb(156, 156, 156);"></circle><text dy=".35em" x="-20" text-anchor="end" fill="#777" font-weight="700">20C</text></g><g class="node" transform="translate(360,558.5714285714286)"><circle class="node" r="15" style="fill: rgb(163, 163, 163); stroke: rgb(142, 142, 142);"></circle><text dy=".35em" x="20" text-anchor="start" fill="#777" font-weight="700">20E (EU1, B.1.177)</text></g><g class="node" transform="translate(360,655.7142857142857)"><circle class="node" r="15" style="fill: rgb(70, 113, 222); stroke: rgb(61, 98, 193);"></circle><text dy=".35em" x="-20" text-anchor="end" fill="#777" font-weight="700">21A (Delta, B.1.617.2)</text></g><g class="node" transform="translate(360,704.2857142857142)"><circle class="node" r="15" style="fill: rgb(97, 177, 180); stroke: rgb(84, 154, 156);"></circle><text dy=".35em" x="20" text-anchor="start" fill="#777" font-weight="700">21B (Kappa, B.1.617.1)</text></g><g class="node" transform="translate(360,752.8571428571428)"><circle class="node" r="15" style="fill: rgb(129, 197, 134); stroke: rgb(112, 170, 116);"></circle><text dy=".35em" x="20" text-anchor="start" fill="#777" font-weight="700">21D (Eta, B.1.525)</text></g><g class="node" transform="translate(360,801.4285714285714)"><circle class="node" r="15" style="fill: rgb(212, 199, 74); stroke: rgb(183, 172, 64);"></circle><text dy=".35em" x="20" text-anchor="start" fill="#777" font-weight="700">21H (Mu, B.1.621)</text></g><g class="node" transform="translate(540,48.57142857142857)"><circle class="node" r="15" style="fill: rgb(172, 172, 172); stroke: rgb(149, 149, 149);"></circle><text dy=".35em" x="-20" text-anchor="end" fill="#777" font-weight="700">20D (B.1.1.1)</text></g><g class="node" transform="translate(540,97.14285714285714)"><circle class="node" r="15" style="fill: rgb(155, 155, 155); stroke: rgb(134, 134, 134);"></circle><text dy=".35em" x="20" text-anchor="start" fill="#777" font-weight="700">20F (D.2)</text></g><g class="node" transform="translate(540,145.71428571428572)"><circle class="node" r="15" style="fill: rgb(72, 55, 204); stroke: rgb(62, 47, 177);"></circle><text dy=".35em" x="20" text-anchor="start" fill="#777" font-weight="700">20I (Alpha, V1, B.1.1.7)</text></g><g class="node" transform="translate(540,194.28571428571428)"><circle class="node" r="15" style="fill: rgb(68, 84, 218); stroke: rgb(59, 73, 189);"></circle><text dy=".35em" x="20" text-anchor="start" fill="#777" font-weight="700">20J (Gamma, V3, P.1)</text></g><g class="node" transform="translate(540,242.85714285714283)"><circle class="node" r="15" style="fill: rgb(149, 201, 114); stroke: rgb(129, 174, 99);"></circle><text dy=".35em" x="20" text-anchor="start" fill="#777" font-weight="700">21E (Theta, P.3)</text></g><g class="node" transform="translate(540,291.42857142857144)"><circle class="node" r="15" style="fill: rgb(247, 151, 58); stroke: rgb(214, 131, 50);"></circle><text dy=".35em" x="-20" text-anchor="end" fill="#777" font-weight="700">21M (Omicron, B.1.1.529)</text></g><g class="node" transform="translate(540,388.57142857142856)"><circle class="node" r="15" style="fill: rgb(146, 146, 146); stroke: rgb(127, 127, 127);"></circle><text dy=".35em" x="20" text-anchor="start" fill="#777" font-weight="700">20G (B.1.2)</text></g><g class="node" transform="translate(540,437.1428571428571)"><circle class="node" r="15" style="fill: rgb(87, 32, 180); stroke: rgb(75, 28, 156);"></circle><text dy=".35em" x="20" text-anchor="start" fill="#777" font-weight="700">20H (Beta, V2, B.1.351)</text></g><g class="node" transform="translate(540,485.71428571428567)"><circle class="node" r="15" style="fill: rgb(112, 188, 157); stroke: rgb(97, 163, 136);"></circle><text dy=".35em" x="20" text-anchor="start" fill="#777" font-weight="700">21C (Epsilon, B.1.427/429)</text></g><g class="node" transform="translate(540,534.2857142857142)"><circle class="node" r="15" style="fill: rgb(170, 204, 96); stroke: rgb(147, 177, 83);"></circle><text dy=".35em" x="20" text-anchor="start" fill="#777" font-weight="700">21F (Iota, B.1.526)</text></g><g class="node" transform="translate(540,631.4285714285714)"><circle class="node" r="15" style="fill: rgb(75, 140, 216); stroke: rgb(65, 121, 187);"></circle><text dy=".35em" x="20" text-anchor="start" fill="#777" font-weight="700">21I (Delta)</text></g><g class="node" transform="translate(540,680)"><circle class="node" r="15" style="fill: rgb(85, 161, 201); stroke: rgb(74, 140, 174);"></circle><text dy=".35em" x="20" text-anchor="start" fill="#777" font-weight="700">21J (Delta)</text></g><g class="node" transform="translate(720,48.57142857142857)"><circle class="node" r="15" style="fill: rgb(192, 203, 83); stroke: rgb(167, 176, 72);"></circle><text dy=".35em" x="20" text-anchor="start" fill="#777" font-weight="700">21G (Lambda, C.37)</text></g><g class="node" transform="translate(720,267.1428571428571)"><circle class="node" r="15" style="fill: rgb(229, 189, 68); stroke: rgb(198, 164, 59);"></circle><text dy=".35em" x="20" text-anchor="start" fill="#777" font-weight="700">21K (Omicron, BA.1)</text></g><g class="node" transform="translate(720,315.7142857142857)"><circle class="node" r="15" style="fill: rgb(241, 174, 62); stroke: rgb(209, 151, 54);"></circle><text dy=".35em" x="-20" text-anchor="end" fill="#777" font-weight="700">21L (Omicron, ~BA.2)</text></g><g class="node" transform="translate(900,267.1428571428571)"><circle class="node" r="15" style="fill: rgb(247, 122, 53); stroke: rgb(214, 106, 46);"></circle><text dy=".35em" x="20" text-anchor="start" fill="#777" font-weight="700">22A (Omicron, BA.4)</text></g><g class="node" transform="translate(900,315.7142857142857)"><circle class="node" r="15" style="fill: rgb(242, 86, 45); stroke: rgb(210, 74, 39);"></circle><text dy=".35em" x="20" text-anchor="start" fill="#777" font-weight="700">22B (Omicron, BA.5)</text></g><g class="node" transform="translate(900,364.2857142857143)"><circle class="node" r="15" style="fill: rgb(236, 50, 39); stroke: rgb(205, 44, 34);"></circle><text dy=".35em" x="20" text-anchor="start" fill="#777" font-weight="700">22C (Omicron, BA.2.12.1)</text></g></g></svg>