<svg xmlns="http://www.w3.org/2000/svg" class="d3-component" style="font-family:sans-serif;font-size:1.3rem" viewBox="0 0 2200 1450"><g transform="translate(120,0)"><path fill="none" stroke="#ccc" stroke-width="3px" d="M 240 944.1860465116279
              C 120 944.1860465116279,
                120 977.9069767441861,
                0 977.9069767441861"></path><path fill="none" stroke="#ccc" stroke-width="3px" d="M 240 1011.6279069767442
              C 120 1011.6279069767442,
                120 977.9069767441861,
                0 977.9069767441861"></path><path fill="none" stroke="#ccc" stroke-width="3px" d="M 480 505.8139534883721
              C 360 505.8139534883721,
                360 944.1860465116279,
                240 944.1860465116279"></path><path fill="none" stroke="#ccc" stroke-width="3px" d="M 480 843.0232558139535
              C 360 843.0232558139535,
                360 944.1860465116279,
                240 944.1860465116279"></path><path fill="none" stroke="#ccc" stroke-width="3px" d="M 480 1112.7906976744187
              C 360 1112.7906976744187,
                360 944.1860465116279,
                240 944.1860465116279"></path><path fill="none" stroke="#ccc" stroke-width="3px" d="M 480 1180.2325581395348
              C 360 1180.2325581395348,
                360 944.1860465116279,
                240 944.1860465116279"></path><path fill="none" stroke="#ccc" stroke-width="3px" d="M 480 1247.6744186046512
              C 360 1247.6744186046512,
                360 944.1860465116279,
                240 944.1860465116279"></path><path fill="none" stroke="#ccc" stroke-width="3px" d="M 480 1315.1162790697674
              C 360 1315.1162790697674,
                360 944.1860465116279,
                240 944.1860465116279"></path><path fill="none" stroke="#ccc" stroke-width="3px" d="M 480 1382.5581395348836
              C 360 1382.5581395348836,
                360 944.1860465116279,
                240 944.1860465116279"></path><path fill="none" stroke="#ccc" stroke-width="3px" d="M 720 337.2093023255814
              C 600 337.2093023255814,
                600 505.8139534883721,
                480 505.8139534883721"></path><path fill="none" stroke="#ccc" stroke-width="3px" d="M 720 404.65116279069764
              C 600 404.65116279069764,
                600 505.8139534883721,
                480 505.8139534883721"></path><path fill="none" stroke="#ccc" stroke-width="3px" d="M 720 472.09302325581393
              C 600 472.09302325581393,
                600 505.8139534883721,
                480 505.8139534883721"></path><path fill="none" stroke="#ccc" stroke-width="3px" d="M 720 539.5348837209302
              C 600 539.5348837209302,
                600 505.8139534883721,
                480 505.8139534883721"></path><path fill="none" stroke="#ccc" stroke-width="3px" d="M 720 606.9767441860465
              C 600 606.9767441860465,
                600 505.8139534883721,
                480 505.8139534883721"></path><path fill="none" stroke="#ccc" stroke-width="3px" d="M 720 674.4186046511628
              C 600 674.4186046511628,
                600 505.8139534883721,
                480 505.8139534883721"></path><path fill="none" stroke="#ccc" stroke-width="3px" d="M 720 809.3023255813953
              C 600 809.3023255813953,
                600 843.0232558139535,
                480 843.0232558139535"></path><path fill="none" stroke="#ccc" stroke-width="3px" d="M 720 876.7441860465116
              C 600 876.7441860465116,
                600 843.0232558139535,
                480 843.0232558139535"></path><path fill="none" stroke="#ccc" stroke-width="3px" d="M 720 1011.6279069767442
              C 600 1011.6279069767442,
                600 1112.7906976744187,
                480 1112.7906976744187"></path><path fill="none" stroke="#ccc" stroke-width="3px" d="M 720 1079.0697674418604
              C 600 1079.0697674418604,
                600 1112.7906976744187,
                480 1112.7906976744187"></path><path fill="none" stroke="#ccc" stroke-width="3px" d="M 720 1146.5116279069766
              C 600 1146.5116279069766,
                600 1112.7906976744187,
                480 1112.7906976744187"></path><path fill="none" stroke="#ccc" stroke-width="3px" d="M 720 1213.953488372093
              C 600 1213.953488372093,
                600 1112.7906976744187,
                480 1112.7906976744187"></path><path fill="none" stroke="#ccc" stroke-width="3px" d="M 960 303.48837209302326
              C 840 303.48837209302326,
                840 337.2093023255814,
                720 337.2093023255814"></path><path fill="none" stroke="#ccc" stroke-width="3px" d="M 960 370.93023255813955
              C 840 370.93023255813955,
                840 337.2093023255814,
                720 337.2093023255814"></path><path fill="none" stroke="#ccc" stroke-width="3px" d="M 960 674.4186046511628
              C 840 674.4186046511628,
                840 674.4186046511628,
                720 674.4186046511628"></path><path fill="none" stroke="#ccc" stroke-width="3px" d="M 1200 67.44186046511628
              C 1080 67.44186046511628,
                1080 370.93023255813955,
                960 370.93023255813955"></path><path fill="none" stroke="#ccc" stroke-width="3px" d="M 1200 134.88372093023256
              C 1080 134.88372093023256,
                1080 370.93023255813955,
                960 370.93023255813955"></path><path fill="none" stroke="#ccc" stroke-width="3px" d="M 1200 370.93023255813955
              C 1080 370.93023255813955,
                1080 370.93023255813955,
                960 370.93023255813955"></path><path fill="none" stroke="#ccc" stroke-width="3px" d="M 1200 488.95348837209303
              C 1080 488.95348837209303,
                1080 370.93023255813955,
                960 370.93023255813955"></path><path fill="none" stroke="#ccc" stroke-width="3px" d="M 1200 606.9767441860465
              C 1080 606.9767441860465,
                1080 370.93023255813955,
                960 370.93023255813955"></path><path fill="none" stroke="#ccc" stroke-width="3px" d="M 1200 674.4186046511628
              C 1080 674.4186046511628,
                1080 370.93023255813955,
                960 370.93023255813955"></path><path fill="none" stroke="#ccc" stroke-width="3px" d="M 1440 134.88372093023256
              C 1320 134.88372093023256,
                1320 134.88372093023256,
                1200 134.88372093023256"></path><path fill="none" stroke="#ccc" stroke-width="3px" d="M 1440 269.7674418604651
              C 1320 269.7674418604651,
                1320 370.93023255813955,
                1200 370.93023255813955"></path><path fill="none" stroke="#ccc" stroke-width="3px" d="M 1440 337.2093023255814
              C 1320 337.2093023255814,
                1320 370.93023255813955,
                1200 370.93023255813955"></path><path fill="none" stroke="#ccc" stroke-width="3px" d="M 1440 404.65116279069764
              C 1320 404.65116279069764,
                1320 370.93023255813955,
                1200 370.93023255813955"></path><path fill="none" stroke="#ccc" stroke-width="3px" d="M 1440 472.09302325581393
              C 1320 472.09302325581393,
                1320 370.93023255813955,
                1200 370.93023255813955"></path><path fill="none" stroke="#ccc" stroke-width="3px" d="M 1440 606.9767441860465
              C 1320 606.9767441860465,
                1320 606.9767441860465,
                1200 606.9767441860465"></path><path fill="none" stroke="#ccc" stroke-width="3px" d="M 1680 269.7674418604651
              C 1560 269.7674418604651,
                1560 269.7674418604651,
                1440 269.7674418604651"></path><path fill="none" stroke="#ccc" stroke-width="3px" d="M 1680 404.65116279069764
              C 1560 404.65116279069764,
                1560 404.65116279069764,
                1440 404.65116279069764"></path><path fill="none" stroke="#ccc" stroke-width="3px" d="M 1920 404.65116279069764
              C 1800 404.65116279069764,
                1800 404.65116279069764,
                1680 404.65116279069764"></path><g class="node" transform="translate(0,977.9069767441861)"><circle class="node" r="15" style="fill: rgb(215, 215, 215); stroke: rgb(186, 186, 186);"></circle><text dy=".35em" x="-20" text-anchor="end" fill="#777" font-weight="700">19A (B)</text></g><g class="node" transform="translate(240,944.1860465116279)"><circle class="node" r="15" style="fill: rgb(198, 198, 198); stroke: rgb(171, 171, 171);"></circle><text dy=".35em" x="-20" text-anchor="end" fill="#777" font-weight="700">20A (B.1)</text></g><g class="node" transform="translate(240,1011.6279069767442)"><circle class="node" r="15" style="fill: rgb(206, 206, 206); stroke: rgb(179, 179, 179);"></circle><text dy=".35em" x="20" text-anchor="start" fill="#777" font-weight="700">19B (A)</text></g><g class="node" transform="translate(480,505.8139534883721)"><circle class="node" r="15" style="fill: rgb(189, 189, 189); stroke: rgb(164, 164, 164);"></circle><text dy=".35em" x="-20" text-anchor="end" fill="#777" font-weight="700">20B (B.1.1)</text></g><g class="node" transform="translate(480,843.0232558139535)"><circle class="node" r="15" style="fill: rgb(69, 68, 213); stroke: rgb(60, 59, 184);"></circle><text dy=".35em" x="-20" text-anchor="end" fill="#777" font-weight="700">21A (Delta, B.1.617.2)</text></g><g class="node" transform="translate(480,1112.7906976744187)"><circle class="node" r="15" style="fill: rgb(180, 180, 180); stroke: rgb(156, 156, 156);"></circle><text dy=".35em" x="-20" text-anchor="end" fill="#777" font-weight="700">20C</text></g><g class="node" transform="translate(480,1180.2325581395348)"><circle class="node" r="15" style="fill: rgb(113, 189, 156); stroke: rgb(98, 164, 135);"></circle><text dy=".35em" x="20" text-anchor="start" fill="#777" font-weight="700">21H (Mu, B.1.621)</text></g><g class="node" transform="translate(480,1247.6744186046512)"><circle class="node" r="15" style="fill: rgb(81, 152, 208); stroke: rgb(70, 132, 181);"></circle><text dy=".35em" x="20" text-anchor="start" fill="#777" font-weight="700">21D (Eta, B.1.525)</text></g><g class="node" transform="translate(480,1315.1162790697674)"><circle class="node" r="15" style="fill: rgb(71, 122, 221); stroke: rgb(61, 106, 192);"></circle><text dy=".35em" x="20" text-anchor="start" fill="#777" font-weight="700">21B (Kappa, B.1.617.1)</text></g><g class="node" transform="translate(480,1382.5581395348836)"><circle class="node" r="15" style="fill: rgb(163, 163, 163); stroke: rgb(142, 142, 142);"></circle><text dy=".35em" x="20" text-anchor="start" fill="#777" font-weight="700">20E (EU1, B.1.177)</text></g><g class="node" transform="translate(720,337.2093023255814)"><circle class="node" r="15" style="fill: rgb(147, 201, 115); stroke: rgb(128, 174, 100);"></circle><text dy=".35em" x="-20" text-anchor="end" fill="#777" font-weight="700">21M (Omicron, B.1.1.529)</text></g><g class="node" transform="translate(720,404.65116279069764)"><circle class="node" r="15" style="fill: rgb(87, 164, 198); stroke: rgb(75, 142, 171);"></circle><text dy=".35em" x="20" text-anchor="start" fill="#777" font-weight="700">21E (Theta, P.3)</text></g><g class="node" transform="translate(720,472.09302325581393)"><circle class="node" r="15" style="fill: rgb(74, 52, 201); stroke: rgb(64, 45, 174);"></circle><text dy=".35em" x="20" text-anchor="start" fill="#777" font-weight="700">20J (Gamma, P.1)</text></g><g class="node" transform="translate(720,539.5348837209302)"><circle class="node" r="15" style="fill: rgb(83, 37, 186); stroke: rgb(72, 32, 161);"></circle><text dy=".35em" x="20" text-anchor="start" fill="#777" font-weight="700">20I (Alpha, B.1.1.7)</text></g><g class="node" transform="translate(720,606.9767441860465)"><circle class="node" r="15" style="fill: rgb(155, 155, 155); stroke: rgb(134, 134, 134);"></circle><text dy=".35em" x="20" text-anchor="start" fill="#777" font-weight="700">20F (D.2)</text></g><g class="node" transform="translate(720,674.4186046511628)"><circle class="node" r="15" style="fill: rgb(172, 172, 172); stroke: rgb(149, 149, 149);"></circle><text dy=".35em" x="-20" text-anchor="end" fill="#777" font-weight="700">20D (B.1.1.1)</text></g><g class="node" transform="translate(720,809.3023255813953)"><circle class="node" r="15" style="fill: rgb(68, 87, 219); stroke: rgb(59, 75, 190);"></circle><text dy=".35em" x="20" text-anchor="start" fill="#777" font-weight="700">21I (Delta)</text></g><g class="node" transform="translate(720,876.7441860465116)"><circle class="node" r="15" style="fill: rgb(68, 105, 223); stroke: rgb(59, 91, 194);"></circle><text dy=".35em" x="20" text-anchor="start" fill="#777" font-weight="700">21J (Delta)</text></g><g class="node" transform="translate(720,1011.6279069767442)"><circle class="node" r="15" style="fill: rgb(95, 174, 185); stroke: rgb(82, 151, 160);"></circle><text dy=".35em" x="20" text-anchor="start" fill="#777" font-weight="700">21F (Iota, B.1.526)</text></g><g class="node" transform="translate(720,1079.0697674418604)"><circle class="node" r="15" style="fill: rgb(75, 139, 217); stroke: rgb(65, 120, 188);"></circle><text dy=".35em" x="20" text-anchor="start" fill="#777" font-weight="700">21C (Epsilon, B.1.427/429)</text></g><g class="node" transform="translate(720,1146.5116279069766)"><circle class="node" r="15" style="fill: rgb(101, 31, 169); stroke: rgb(88, 27, 146);"></circle><text dy=".35em" x="20" text-anchor="start" fill="#777" font-weight="700">20H (Beta, B.1.351)</text></g><g class="node" transform="translate(720,1213.953488372093)"><circle class="node" r="15" style="fill: rgb(146, 146, 146); stroke: rgb(127, 127, 127);"></circle><text dy=".35em" x="20" text-anchor="start" fill="#777" font-weight="700">20G (B.1.2)</text></g><g class="node" transform="translate(960,303.48837209302326)"><circle class="node" r="15" style="fill: rgb(122, 194, 142); stroke: rgb(106, 169, 123);"></circle><text dy=".35em" x="20" text-anchor="start" fill="#777" font-weight="700">21K (Omicron, BA.1)</text></g><g class="node" transform="translate(960,370.93023255813955)"><circle class="node" r="15" style="fill: rgb(134, 198, 128); stroke: rgb(116, 171, 111);"></circle><text dy=".35em" x="-20" text-anchor="end" fill="#777" font-weight="700">21L (Omicron, BA.2)</text></g><g class="node" transform="translate(960,674.4186046511628)"><circle class="node" r="15" style="fill: rgb(103, 183, 171); stroke: rgb(89, 158, 148);"></circle><text dy=".35em" x="20" text-anchor="start" fill="#777" font-weight="700">21G (Lambda, C.37)</text></g><g class="node" transform="translate(1200,67.44186046511628)"><circle class="node" r="15" style="fill: rgb(235, 43, 38); stroke: rgb(204, 37, 33);"></circle><text dy=".35em" x="20" text-anchor="start" fill="#777" font-weight="700">23I (BA.2.86)</text></g><g class="node" transform="translate(1200,134.88372093023256)"><circle class="node" r="15" style="fill: rgb(200, 202, 79); stroke: rgb(173, 175, 69);"></circle><text dy=".35em" x="-20" text-anchor="end" fill="#777" font-weight="700">22D (BA.2.75)</text></g><g class="node" transform="translate(1200,370.93023255813955)"><circle class="node" r="15" style="fill: rgb(223, 193, 70); stroke: rgb(194, 168, 61);"></circle><text dy=".35em" x="-20" text-anchor="end" fill="#777" font-weight="700">22F (XBB)</text></g><g class="node" transform="translate(1200,488.95348837209303)"><circle class="node" r="15" style="fill: rgb(187, 203, 86); stroke: rgb(162, 176, 74);"></circle><text dy=".35em" x="20" text-anchor="start" fill="#777" font-weight="700">22C (BA.2.12.1)</text></g><g class="node" transform="translate(1200,606.9767441860465)"><circle class="node" r="15" style="fill: rgb(173, 204, 95); stroke: rgb(150, 177, 82);"></circle><text dy=".35em" x="-20" text-anchor="end" fill="#777" font-weight="700">22B (BA.5)</text></g><g class="node" transform="translate(1200,674.4186046511628)"><circle class="node" r="15" style="fill: rgb(160, 203, 104); stroke: rgb(139, 176, 90);"></circle><text dy=".35em" x="20" text-anchor="start" fill="#777" font-weight="700">22A (BA.4)</text></g><g class="node" transform="translate(1440,134.88372093023256)"><circle class="node" r="15" style="fill: rgb(245, 164, 60); stroke: rgb(212, 142, 52);"></circle><text dy=".35em" x="20" text-anchor="start" fill="#777" font-weight="700">23C (CH.1.1)</text></g><g class="node" transform="translate(1440,269.7674418604651)"><circle class="node" r="15" style="fill: rgb(232, 187, 67); stroke: rgb(201, 162, 58);"></circle><text dy=".35em" x="-20" text-anchor="end" fill="#777" font-weight="700">23A (XBB.1.5)</text></g><g class="node" transform="translate(1440,337.2093023255814)"><circle class="node" r="15" style="fill: rgb(239, 176, 63); stroke: rgb(208, 153, 55);"></circle><text dy=".35em" x="20" text-anchor="start" fill="#777" font-weight="700">23B (XBB.1.16)</text></g><g class="node" transform="translate(1440,404.65116279069764)"><circle class="node" r="15" style="fill: rgb(247, 149, 57); stroke: rgb(214, 129, 49);"></circle><text dy=".35em" x="-20" text-anchor="end" fill="#777" font-weight="700">23D (XBB.1.9)</text></g><g class="node" transform="translate(1440,472.09302325581393)"><circle class="node" r="15" style="fill: rgb(247, 131, 54); stroke: rgb(214, 114, 47);"></circle><text dy=".35em" x="20" text-anchor="start" fill="#777" font-weight="700">23E (XBB.2.3)</text></g><g class="node" transform="translate(1440,606.9767441860465)"><circle class="node" r="15" style="fill: rgb(212, 199, 74); stroke: rgb(183, 172, 64);"></circle><text dy=".35em" x="20" text-anchor="start" fill="#777" font-weight="700">22E (BQ.1)</text></g><g class="node" transform="translate(1680,269.7674418604651)"><circle class="node" r="15" style="fill: rgb(235, 43, 38); stroke: rgb(204, 37, 33);"></circle><text dy=".35em" x="20" text-anchor="start" fill="#777" font-weight="700">23G (XBB.1.5.70)</text></g><g class="node" transform="translate(1680,404.65116279069764)"><circle class="node" r="15" style="fill: rgb(245, 111, 49); stroke: rgb(212, 96, 43);"></circle><text dy=".35em" x="-20" text-anchor="end" fill="#777" font-weight="700">23F (EG.5.1)</text></g><g class="node" transform="translate(1920,404.65116279069764)"><circle class="node" r="15" style="fill: rgb(238, 66, 42); stroke: rgb(207, 57, 36);"></circle><text dy=".35em" x="20" text-anchor="start" fill="#777" font-weight="700">23H (HK.3)</text></g></g></svg>
