<svg xmlns="http://www.w3.org/2000/svg" class="d3-component" style="font-family:sans-serif;font-size:1.25rem" viewBox="0 0 1550 950"><g transform="translate(120,0)"><path fill="none" stroke="#ccc" stroke-width="3px" d="M 180 584.6153846153845
              C 90 584.6153846153845,
                90 608.9743589743589,
                0 608.9743589743589"></path><path fill="none" stroke="#ccc" stroke-width="3px" d="M 180 633.3333333333333
              C 90 633.3333333333333,
                90 608.9743589743589,
                0 608.9743589743589"></path><path fill="none" stroke="#ccc" stroke-width="3px" d="M 360 267.94871794871796
              C 270 267.94871794871796,
                270 584.6153846153845,
                180 584.6153846153845"></path><path fill="none" stroke="#ccc" stroke-width="3px" d="M 360 511.5384615384615
              C 270 511.5384615384615,
                270 584.6153846153845,
                180 584.6153846153845"></path><path fill="none" stroke="#ccc" stroke-width="3px" d="M 360 706.4102564102564
              C 270 706.4102564102564,
                270 584.6153846153845,
                180 584.6153846153845"></path><path fill="none" stroke="#ccc" stroke-width="3px" d="M 360 755.1282051282051
              C 270 755.1282051282051,
                270 584.6153846153845,
                180 584.6153846153845"></path><path fill="none" stroke="#ccc" stroke-width="3px" d="M 360 803.8461538461538
              C 270 803.8461538461538,
                270 584.6153846153845,
                180 584.6153846153845"></path><path fill="none" stroke="#ccc" stroke-width="3px" d="M 360 852.5641025641025
              C 270 852.5641025641025,
                270 584.6153846153845,
                180 584.6153846153845"></path><path fill="none" stroke="#ccc" stroke-width="3px" d="M 360 901.2820512820513
              C 270 901.2820512820513,
                270 584.6153846153845,
                180 584.6153846153845"></path><path fill="none" stroke="#ccc" stroke-width="3px" d="M 540 146.15384615384613
              C 450 146.15384615384613,
                450 267.94871794871796,
                360 267.94871794871796"></path><path fill="none" stroke="#ccc" stroke-width="3px" d="M 540 194.87179487179486
              C 450 194.87179487179486,
                450 267.94871794871796,
                360 267.94871794871796"></path><path fill="none" stroke="#ccc" stroke-width="3px" d="M 540 243.5897435897436
              C 450 243.5897435897436,
                450 267.94871794871796,
                360 267.94871794871796"></path><path fill="none" stroke="#ccc" stroke-width="3px" d="M 540 292.30769230769226
              C 450 292.30769230769226,
                450 267.94871794871796,
                360 267.94871794871796"></path><path fill="none" stroke="#ccc" stroke-width="3px" d="M 540 341.025641025641
              C 450 341.025641025641,
                450 267.94871794871796,
                360 267.94871794871796"></path><path fill="none" stroke="#ccc" stroke-width="3px" d="M 540 389.7435897435897
              C 450 389.7435897435897,
                450 267.94871794871796,
                360 267.94871794871796"></path><path fill="none" stroke="#ccc" stroke-width="3px" d="M 540 487.1794871794872
              C 450 487.1794871794872,
                450 511.5384615384615,
                360 511.5384615384615"></path><path fill="none" stroke="#ccc" stroke-width="3px" d="M 540 535.8974358974359
              C 450 535.8974358974359,
                450 511.5384615384615,
                360 511.5384615384615"></path><path fill="none" stroke="#ccc" stroke-width="3px" d="M 540 633.3333333333333
              C 450 633.3333333333333,
                450 706.4102564102564,
                360 706.4102564102564"></path><path fill="none" stroke="#ccc" stroke-width="3px" d="M 540 682.051282051282
              C 450 682.051282051282,
                450 706.4102564102564,
                360 706.4102564102564"></path><path fill="none" stroke="#ccc" stroke-width="3px" d="M 540 730.7692307692307
              C 450 730.7692307692307,
                450 706.4102564102564,
                360 706.4102564102564"></path><path fill="none" stroke="#ccc" stroke-width="3px" d="M 540 779.4871794871794
              C 450 779.4871794871794,
                450 706.4102564102564,
                360 706.4102564102564"></path><path fill="none" stroke="#ccc" stroke-width="3px" d="M 720 121.7948717948718
              C 630 121.7948717948718,
                630 146.15384615384613,
                540 146.15384615384613"></path><path fill="none" stroke="#ccc" stroke-width="3px" d="M 720 170.5128205128205
              C 630 170.5128205128205,
                630 146.15384615384613,
                540 146.15384615384613"></path><path fill="none" stroke="#ccc" stroke-width="3px" d="M 720 389.7435897435897
              C 630 389.7435897435897,
                630 389.7435897435897,
                540 389.7435897435897"></path><path fill="none" stroke="#ccc" stroke-width="3px" d="M 900 48.717948717948715
              C 810 48.717948717948715,
                810 121.7948717948718,
                720 121.7948717948718"></path><path fill="none" stroke="#ccc" stroke-width="3px" d="M 900 97.43589743589743
              C 810 97.43589743589743,
                810 121.7948717948718,
                720 121.7948717948718"></path><path fill="none" stroke="#ccc" stroke-width="3px" d="M 900 146.15384615384613
              C 810 146.15384615384613,
                810 121.7948717948718,
                720 121.7948717948718"></path><path fill="none" stroke="#ccc" stroke-width="3px" d="M 900 194.87179487179486
              C 810 194.87179487179486,
                810 121.7948717948718,
                720 121.7948717948718"></path><path fill="none" stroke="#ccc" stroke-width="3px" d="M 1080 97.43589743589743
              C 990 97.43589743589743,
                990 97.43589743589743,
                900 97.43589743589743"></path><g class="node" transform="translate(0,608.9743589743589)"><circle class="node" r="15" style="fill: rgb(215, 215, 215); stroke: rgb(186, 186, 186);"></circle><text dy=".35em" x="-20" text-anchor="end" fill="#777" font-weight="700">19A (B)</text></g><g class="node" transform="translate(180,584.6153846153845)"><circle class="node" r="15" style="fill: rgb(198, 198, 198); stroke: rgb(171, 171, 171);"></circle><text dy=".35em" x="-20" text-anchor="end" fill="#777" font-weight="700">20A (B.1)</text></g><g class="node" transform="translate(180,633.3333333333333)"><circle class="node" r="15" style="fill: rgb(206, 206, 206); stroke: rgb(179, 179, 179);"></circle><text dy=".35em" x="20" text-anchor="start" fill="#777" font-weight="700">19B (A)</text></g><g class="node" transform="translate(360,267.94871794871796)"><circle class="node" r="15" style="fill: rgb(189, 189, 189); stroke: rgb(164, 164, 164);"></circle><text dy=".35em" x="-20" text-anchor="end" fill="#777" font-weight="700">20B (B.1.1)</text></g><g class="node" transform="translate(360,511.5384615384615)"><circle class="node" r="15" style="fill: rgb(67, 96, 222); stroke: rgb(58, 83, 193);"></circle><text dy=".35em" x="-20" text-anchor="end" fill="#777" font-weight="700">21A (Delta, B.1.617.2)</text></g><g class="node" transform="translate(360,706.4102564102564)"><circle class="node" r="15" style="fill: rgb(180, 180, 180); stroke: rgb(156, 156, 156);"></circle><text dy=".35em" x="-20" text-anchor="end" fill="#777" font-weight="700">20C</text></g><g class="node" transform="translate(360,755.1282051282051)"><circle class="node" r="15" style="fill: rgb(187, 203, 86); stroke: rgb(162, 176, 74);"></circle><text dy=".35em" x="20" text-anchor="start" fill="#777" font-weight="700">21H (Mu, B.1.621)</text></g><g class="node" transform="translate(360,803.8461538461538)"><circle class="node" r="15" style="fill: rgb(113, 189, 156); stroke: rgb(98, 164, 135);"></circle><text dy=".35em" x="20" text-anchor="start" fill="#777" font-weight="700">21D (Eta, B.1.525)</text></g><g class="node" transform="translate(360,852.5641025641025)"><circle class="node" r="15" style="fill: rgb(87, 164, 198); stroke: rgb(75, 142, 171);"></circle><text dy=".35em" x="20" text-anchor="start" fill="#777" font-weight="700">21B (Kappa, B.1.617.1)</text></g><g class="node" transform="translate(360,901.2820512820513)"><circle class="node" r="15" style="fill: rgb(163, 163, 163); stroke: rgb(142, 142, 142);"></circle><text dy=".35em" x="20" text-anchor="start" fill="#777" font-weight="700">20E (EU1, B.1.177)</text></g><g class="node" transform="translate(540,146.15384615384613)"><circle class="node" r="15" style="fill: rgb(237, 183, 64); stroke: rgb(206, 158, 56);"></circle><text dy=".35em" x="-20" text-anchor="end" fill="#777" font-weight="700">21M (Omicron, B.1.1.529)</text></g><g class="node" transform="translate(540,194.87179487179486)"><circle class="node" r="15" style="fill: rgb(129, 195, 135); stroke: rgb(112, 169, 117);"></circle><text dy=".35em" x="20" text-anchor="start" fill="#777" font-weight="700">21E (Theta, P.3)</text></g><g class="node" transform="translate(540,243.5897435897436)"><circle class="node" r="15" style="fill: rgb(69, 68, 213); stroke: rgb(60, 59, 184);"></circle><text dy=".35em" x="20" text-anchor="start" fill="#777" font-weight="700">20J (Gamma, V3, P.1)</text></g><g class="node" transform="translate(540,292.30769230769226)"><circle class="node" r="15" style="fill: rgb(78, 44, 193); stroke: rgb(68, 38, 168);"></circle><text dy=".35em" x="20" text-anchor="start" fill="#777" font-weight="700">20I (Alpha, V1, B.1.1.7)</text></g><g class="node" transform="translate(540,341.025641025641)"><circle class="node" r="15" style="fill: rgb(155, 155, 155); stroke: rgb(134, 134, 134);"></circle><text dy=".35em" x="20" text-anchor="start" fill="#777" font-weight="700">20F (D.2)</text></g><g class="node" transform="translate(540,389.7435897435897)"><circle class="node" r="15" style="fill: rgb(172, 172, 172); stroke: rgb(149, 149, 149);"></circle><text dy=".35em" x="-20" text-anchor="end" fill="#777" font-weight="700">20D (B.1.1.1)</text></g><g class="node" transform="translate(540,487.1794871794872)"><circle class="node" r="15" style="fill: rgb(71, 122, 221); stroke: rgb(61, 106, 192);"></circle><text dy=".35em" x="20" text-anchor="start" fill="#777" font-weight="700">21I (Delta)</text></g><g class="node" transform="translate(540,535.8974358974359)"><circle class="node" r="15" style="fill: rgb(77, 145, 213); stroke: rgb(67, 126, 184);"></circle><text dy=".35em" x="20" text-anchor="start" fill="#777" font-weight="700">21J (Delta)</text></g><g class="node" transform="translate(540,633.3333333333333)"><circle class="node" r="15" style="fill: rgb(147, 201, 115); stroke: rgb(128, 174, 100);"></circle><text dy=".35em" x="20" text-anchor="start" fill="#777" font-weight="700">21F (Iota, B.1.526)</text></g><g class="node" transform="translate(540,682.051282051282)"><circle class="node" r="15" style="fill: rgb(98, 179, 178); stroke: rgb(85, 156, 155);"></circle><text dy=".35em" x="20" text-anchor="start" fill="#777" font-weight="700">21C (Epsilon, B.1.427/429)</text></g><g class="node" transform="translate(540,730.7692307692307)"><circle class="node" r="15" style="fill: rgb(101, 31, 169); stroke: rgb(88, 27, 146);"></circle><text dy=".35em" x="20" text-anchor="start" fill="#777" font-weight="700">20H (Beta, V2, B.1.351)</text></g><g class="node" transform="translate(540,779.4871794871794)"><circle class="node" r="15" style="fill: rgb(146, 146, 146); stroke: rgb(127, 127, 127);"></circle><text dy=".35em" x="20" text-anchor="start" fill="#777" font-weight="700">20G (B.1.2)</text></g><g class="node" transform="translate(720,121.7948717948718)"><circle class="node" r="15" style="fill: rgb(223, 193, 70); stroke: rgb(194, 168, 61);"></circle><text dy=".35em" x="-20" text-anchor="end" fill="#777" font-weight="700">21L (Omicron, ~BA.2)</text></g><g class="node" transform="translate(720,170.5128205128205)"><circle class="node" r="15" style="fill: rgb(206, 201, 76); stroke: rgb(179, 174, 66);"></circle><text dy=".35em" x="20" text-anchor="start" fill="#777" font-weight="700">21K (Omicron, BA.1)</text></g><g class="node" transform="translate(720,389.7435897435897)"><circle class="node" r="15" style="fill: rgb(166, 204, 98); stroke: rgb(144, 177, 85);"></circle><text dy=".35em" x="20" text-anchor="start" fill="#777" font-weight="700">21G (Lambda, C.37)</text></g><g class="node" transform="translate(900,48.717948717948715)"><circle class="node" r="15" style="fill: rgb(245, 164, 60); stroke: rgb(212, 142, 52);"></circle><text dy=".35em" x="20" text-anchor="start" fill="#777" font-weight="700">22A (Omicron, BA.4)</text></g><g class="node" transform="translate(900,97.43589743589743)"><circle class="node" r="15" style="fill: rgb(247, 140, 56); stroke: rgb(214, 121, 48);"></circle><text dy=".35em" x="-20" text-anchor="end" fill="#777" font-weight="700">22B (Omicron, BA.5)</text></g><g class="node" transform="translate(900,146.15384615384613)"><circle class="node" r="15" style="fill: rgb(245, 111, 49); stroke: rgb(212, 96, 43);"></circle><text dy=".35em" x="20" text-anchor="start" fill="#777" font-weight="700">22C (Omicron, BA.2.12.1)</text></g><g class="node" transform="translate(900,194.87179487179486)"><circle class="node" r="15" style="fill: rgb(239, 76, 43); stroke: rgb(208, 66, 37);"></circle><text dy=".35em" x="20" text-anchor="start" fill="#777" font-weight="700">22D (Omicron, BA.2.75)</text></g><g class="node" transform="translate(1080,97.43589743589743)"><circle class="node" r="15" style="fill: rgb(235, 43, 38); stroke: rgb(204, 37, 33);"></circle><text dy=".35em" x="20" text-anchor="start" fill="#777" font-weight="700">22E (Omicron, BQ.1)</text></g></g></svg>