<svg xmlns="http://www.w3.org/2000/svg" class="d3-component" style="font-family:sans-serif;font-size:1.3rem" viewBox="0 0 2200 1450"><g transform="translate(120,0)"><path fill="none" stroke="#ccc" stroke-width="3px" d="M 240 955.6818181818181
              C 120 955.6818181818181,
                120 988.6363636363636,
                0 988.6363636363636"></path><path fill="none" stroke="#ccc" stroke-width="3px" d="M 240 1021.590909090909
              C 120 1021.590909090909,
                120 988.6363636363636,
                0 988.6363636363636"></path><path fill="none" stroke="#ccc" stroke-width="3px" d="M 480 527.2727272727273
              C 360 527.2727272727273,
                360 955.6818181818181,
                240 955.6818181818181"></path><path fill="none" stroke="#ccc" stroke-width="3px" d="M 480 856.8181818181818
              C 360 856.8181818181818,
                360 955.6818181818181,
                240 955.6818181818181"></path><path fill="none" stroke="#ccc" stroke-width="3px" d="M 480 1120.4545454545455
              C 360 1120.4545454545455,
                360 955.6818181818181,
                240 955.6818181818181"></path><path fill="none" stroke="#ccc" stroke-width="3px" d="M 480 1186.3636363636363
              C 360 1186.3636363636363,
                360 955.6818181818181,
                240 955.6818181818181"></path><path fill="none" stroke="#ccc" stroke-width="3px" d="M 480 1252.2727272727273
              C 360 1252.2727272727273,
                360 955.6818181818181,
                240 955.6818181818181"></path><path fill="none" stroke="#ccc" stroke-width="3px" d="M 480 1318.181818181818
              C 360 1318.181818181818,
                360 955.6818181818181,
                240 955.6818181818181"></path><path fill="none" stroke="#ccc" stroke-width="3px" d="M 480 1384.090909090909
              C 360 1384.090909090909,
                360 955.6818181818181,
                240 955.6818181818181"></path><path fill="none" stroke="#ccc" stroke-width="3px" d="M 720 362.5
              C 600 362.5,
                600 527.2727272727273,
                480 527.2727272727273"></path><path fill="none" stroke="#ccc" stroke-width="3px" d="M 720 428.4090909090909
              C 600 428.4090909090909,
                600 527.2727272727273,
                480 527.2727272727273"></path><path fill="none" stroke="#ccc" stroke-width="3px" d="M 720 494.3181818181818
              C 600 494.3181818181818,
                600 527.2727272727273,
                480 527.2727272727273"></path><path fill="none" stroke="#ccc" stroke-width="3px" d="M 720 560.2272727272727
              C 600 560.2272727272727,
                600 527.2727272727273,
                480 527.2727272727273"></path><path fill="none" stroke="#ccc" stroke-width="3px" d="M 720 626.1363636363636
              C 600 626.1363636363636,
                600 527.2727272727273,
                480 527.2727272727273"></path><path fill="none" stroke="#ccc" stroke-width="3px" d="M 720 692.0454545454545
              C 600 692.0454545454545,
                600 527.2727272727273,
                480 527.2727272727273"></path><path fill="none" stroke="#ccc" stroke-width="3px" d="M 720 823.8636363636364
              C 600 823.8636363636364,
                600 856.8181818181818,
                480 856.8181818181818"></path><path fill="none" stroke="#ccc" stroke-width="3px" d="M 720 889.7727272727273
              C 600 889.7727272727273,
                600 856.8181818181818,
                480 856.8181818181818"></path><path fill="none" stroke="#ccc" stroke-width="3px" d="M 720 1021.590909090909
              C 600 1021.590909090909,
                600 1120.4545454545455,
                480 1120.4545454545455"></path><path fill="none" stroke="#ccc" stroke-width="3px" d="M 720 1087.5
              C 600 1087.5,
                600 1120.4545454545455,
                480 1120.4545454545455"></path><path fill="none" stroke="#ccc" stroke-width="3px" d="M 720 1153.4090909090908
              C 600 1153.4090909090908,
                600 1120.4545454545455,
                480 1120.4545454545455"></path><path fill="none" stroke="#ccc" stroke-width="3px" d="M 720 1219.3181818181818
              C 600 1219.3181818181818,
                600 1120.4545454545455,
                480 1120.4545454545455"></path><path fill="none" stroke="#ccc" stroke-width="3px" d="M 960 329.5454545454545
              C 840 329.5454545454545,
                840 362.5,
                720 362.5"></path><path fill="none" stroke="#ccc" stroke-width="3px" d="M 960 395.45454545454544
              C 840 395.45454545454544,
                840 362.5,
                720 362.5"></path><path fill="none" stroke="#ccc" stroke-width="3px" d="M 960 692.0454545454545
              C 840 692.0454545454545,
                840 692.0454545454545,
                720 692.0454545454545"></path><path fill="none" stroke="#ccc" stroke-width="3px" d="M 1200 65.9090909090909
              C 1080 65.9090909090909,
                1080 395.45454545454544,
                960 395.45454545454544"></path><path fill="none" stroke="#ccc" stroke-width="3px" d="M 1200 197.72727272727272
              C 1080 197.72727272727272,
                1080 395.45454545454544,
                960 395.45454545454544"></path><path fill="none" stroke="#ccc" stroke-width="3px" d="M 1200 428.4090909090909
              C 1080 428.4090909090909,
                1080 395.45454545454544,
                960 395.45454545454544"></path><path fill="none" stroke="#ccc" stroke-width="3px" d="M 1200 543.75
              C 1080 543.75,
                1080 395.45454545454544,
                960 395.45454545454544"></path><path fill="none" stroke="#ccc" stroke-width="3px" d="M 1200 659.090909090909
              C 1080 659.090909090909,
                1080 395.45454545454544,
                960 395.45454545454544"></path><path fill="none" stroke="#ccc" stroke-width="3px" d="M 1200 725
              C 1080 725,
                1080 395.45454545454544,
                960 395.45454545454544"></path><path fill="none" stroke="#ccc" stroke-width="3px" d="M 1440 65.9090909090909
              C 1320 65.9090909090909,
                1320 65.9090909090909,
                1200 65.9090909090909"></path><path fill="none" stroke="#ccc" stroke-width="3px" d="M 1440 197.72727272727272
              C 1320 197.72727272727272,
                1320 197.72727272727272,
                1200 197.72727272727272"></path><path fill="none" stroke="#ccc" stroke-width="3px" d="M 1440 329.5454545454545
              C 1320 329.5454545454545,
                1320 428.4090909090909,
                1200 428.4090909090909"></path><path fill="none" stroke="#ccc" stroke-width="3px" d="M 1440 395.45454545454544
              C 1320 395.45454545454544,
                1320 428.4090909090909,
                1200 428.4090909090909"></path><path fill="none" stroke="#ccc" stroke-width="3px" d="M 1440 461.3636363636364
              C 1320 461.3636363636364,
                1320 428.4090909090909,
                1200 428.4090909090909"></path><path fill="none" stroke="#ccc" stroke-width="3px" d="M 1440 527.2727272727273
              C 1320 527.2727272727273,
                1320 428.4090909090909,
                1200 428.4090909090909"></path><path fill="none" stroke="#ccc" stroke-width="3px" d="M 1440 659.090909090909
              C 1320 659.090909090909,
                1320 659.090909090909,
                1200 659.090909090909"></path><path fill="none" stroke="#ccc" stroke-width="3px" d="M 1680 65.9090909090909
              C 1560 65.9090909090909,
                1560 65.9090909090909,
                1440 65.9090909090909"></path><path fill="none" stroke="#ccc" stroke-width="3px" d="M 1680 329.5454545454545
              C 1560 329.5454545454545,
                1560 329.5454545454545,
                1440 329.5454545454545"></path><path fill="none" stroke="#ccc" stroke-width="3px" d="M 1680 461.3636363636364
              C 1560 461.3636363636364,
                1560 461.3636363636364,
                1440 461.3636363636364"></path><path fill="none" stroke="#ccc" stroke-width="3px" d="M 1920 461.3636363636364
              C 1800 461.3636363636364,
                1800 461.3636363636364,
                1680 461.3636363636364"></path><g class="node" transform="translate(0,988.6363636363636)"><circle class="node" r="15" style="fill: rgb(215, 215, 215); stroke: rgb(186, 186, 186);"></circle><text dy=".35em" x="-20" text-anchor="end" fill="#777" font-weight="700">19A (B)</text></g><g class="node" transform="translate(240,955.6818181818181)"><circle class="node" r="15" style="fill: rgb(198, 198, 198); stroke: rgb(171, 171, 171);"></circle><text dy=".35em" x="-20" text-anchor="end" fill="#777" font-weight="700">20A (B.1)</text></g><g class="node" transform="translate(240,1021.590909090909)"><circle class="node" r="15" style="fill: rgb(206, 206, 206); stroke: rgb(179, 179, 179);"></circle><text dy=".35em" x="20" text-anchor="start" fill="#777" font-weight="700">19B (A)</text></g><g class="node" transform="translate(480,527.2727272727273)"><circle class="node" r="15" style="fill: rgb(189, 189, 189); stroke: rgb(164, 164, 164);"></circle><text dy=".35em" x="-20" text-anchor="end" fill="#777" font-weight="700">20B (B.1.1)</text></g><g class="node" transform="translate(480,856.8181818181818)"><circle class="node" r="15" style="fill: rgb(69, 64, 212); stroke: rgb(60, 56, 183);"></circle><text dy=".35em" x="-20" text-anchor="end" fill="#777" font-weight="700">21A (Delta, B.1.617.2)</text></g><g class="node" transform="translate(480,1120.4545454545455)"><circle class="node" r="15" style="fill: rgb(180, 180, 180); stroke: rgb(156, 156, 156);"></circle><text dy=".35em" x="-20" text-anchor="end" fill="#777" font-weight="700">20C</text></g><g class="node" transform="translate(480,1186.3636363636363)"><circle class="node" r="15" style="fill: rgb(105, 184, 168); stroke: rgb(91, 159, 145);"></circle><text dy=".35em" x="20" text-anchor="start" fill="#777" font-weight="700">21H (Mu, B.1.621)</text></g><g class="node" transform="translate(480,1252.2727272727273)"><circle class="node" r="15" style="fill: rgb(77, 145, 213); stroke: rgb(67, 126, 184);"></circle><text dy=".35em" x="20" text-anchor="start" fill="#777" font-weight="700">21D (Eta, B.1.525)</text></g><g class="node" transform="translate(480,1318.181818181818)"><circle class="node" r="15" style="fill: rgb(70, 116, 221); stroke: rgb(61, 101, 192);"></circle><text dy=".35em" x="20" text-anchor="start" fill="#777" font-weight="700">21B (Kappa, B.1.617.1)</text></g><g class="node" transform="translate(480,1384.090909090909)"><circle class="node" r="15" style="fill: rgb(163, 163, 163); stroke: rgb(142, 142, 142);"></circle><text dy=".35em" x="20" text-anchor="start" fill="#777" font-weight="700">20E (EU1, B.1.177)</text></g><g class="node" transform="translate(720,362.5)"><circle class="node" r="15" style="fill: rgb(135, 198, 127); stroke: rgb(117, 171, 110);"></circle><text dy=".35em" x="-20" text-anchor="end" fill="#777" font-weight="700">21M (Omicron, B.1.1.529)</text></g><g class="node" transform="translate(720,428.4090909090909)"><circle class="node" r="15" style="fill: rgb(83, 158, 204); stroke: rgb(72, 137, 177);"></circle><text dy=".35em" x="20" text-anchor="start" fill="#777" font-weight="700">21E (Theta, P.3)</text></g><g class="node" transform="translate(720,494.3181818181818)"><circle class="node" r="15" style="fill: rgb(75, 49, 199); stroke: rgb(65, 43, 172);"></circle><text dy=".35em" x="20" text-anchor="start" fill="#777" font-weight="700">20J (Gamma, P.1)</text></g><g class="node" transform="translate(720,560.2272727272727)"><circle class="node" r="15" style="fill: rgb(84, 35, 186); stroke: rgb(73, 31, 161);"></circle><text dy=".35em" x="20" text-anchor="start" fill="#777" font-weight="700">20I (Alpha, B.1.1.7)</text></g><g class="node" transform="translate(720,626.1363636363636)"><circle class="node" r="15" style="fill: rgb(155, 155, 155); stroke: rgb(134, 134, 134);"></circle><text dy=".35em" x="20" text-anchor="start" fill="#777" font-weight="700">20F (D.2)</text></g><g class="node" transform="translate(720,692.0454545454545)"><circle class="node" r="15" style="fill: rgb(172, 172, 172); stroke: rgb(149, 149, 149);"></circle><text dy=".35em" x="-20" text-anchor="end" fill="#777" font-weight="700">20D (B.1.1.1)</text></g><g class="node" transform="translate(720,823.8636363636364)"><circle class="node" r="15" style="fill: rgb(68, 82, 218); stroke: rgb(59, 71, 189);"></circle><text dy=".35em" x="20" text-anchor="start" fill="#777" font-weight="700">21I (Delta)</text></g><g class="node" transform="translate(720,889.7727272727273)"><circle class="node" r="15" style="fill: rgb(67, 100, 223); stroke: rgb(58, 87, 194);"></circle><text dy=".35em" x="20" text-anchor="start" fill="#777" font-weight="700">21J (Delta)</text></g><g class="node" transform="translate(720,1021.590909090909)"><circle class="node" r="15" style="fill: rgb(89, 168, 192); stroke: rgb(77, 145, 167);"></circle><text dy=".35em" x="20" text-anchor="start" fill="#777" font-weight="700">21F (Iota, B.1.526)</text></g><g class="node" transform="translate(720,1087.5)"><circle class="node" r="15" style="fill: rgb(73, 132, 220); stroke: rgb(63, 115, 191);"></circle><text dy=".35em" x="20" text-anchor="start" fill="#777" font-weight="700">21C (Epsilon, B.1.427/429)</text></g><g class="node" transform="translate(720,1153.4090909090908)"><circle class="node" r="15" style="fill: rgb(101, 31, 169); stroke: rgb(88, 27, 146);"></circle><text dy=".35em" x="20" text-anchor="start" fill="#777" font-weight="700">20H (Beta, B.1.351)</text></g><g class="node" transform="translate(720,1219.3181818181818)"><circle class="node" r="15" style="fill: rgb(146, 146, 146); stroke: rgb(127, 127, 127);"></circle><text dy=".35em" x="20" text-anchor="start" fill="#777" font-weight="700">20G (B.1.2)</text></g><g class="node" transform="translate(960,329.5454545454545)"><circle class="node" r="15" style="fill: rgb(114, 190, 154); stroke: rgb(99, 165, 133);"></circle><text dy=".35em" x="20" text-anchor="start" fill="#777" font-weight="700">21K (Omicron, BA.1)</text></g><g class="node" transform="translate(960,395.45454545454544)"><circle class="node" r="15" style="fill: rgb(125, 194, 140); stroke: rgb(108, 169, 121);"></circle><text dy=".35em" x="-20" text-anchor="end" fill="#777" font-weight="700">21L (Omicron, BA.2)</text></g><g class="node" transform="translate(960,692.0454545454545)"><circle class="node" r="15" style="fill: rgb(97, 177, 180); stroke: rgb(84, 154, 156);"></circle><text dy=".35em" x="20" text-anchor="start" fill="#777" font-weight="700">21G (Lambda, C.37)</text></g><g class="node" transform="translate(1200,65.9090909090909)"><circle class="node" r="15" style="fill: rgb(242, 85, 45); stroke: rgb(210, 74, 39);"></circle><text dy=".35em" x="-20" text-anchor="end" fill="#777" font-weight="700">23I (BA.2.86)</text></g><g class="node" transform="translate(1200,197.72727272727272)"><circle class="node" r="15" style="fill: rgb(184, 203, 87); stroke: rgb(159, 176, 75);"></circle><text dy=".35em" x="-20" text-anchor="end" fill="#777" font-weight="700">22D (BA.2.75)</text></g><g class="node" transform="translate(1200,428.4090909090909)"><circle class="node" r="15" style="fill: rgb(208, 200, 75); stroke: rgb(181, 173, 65);"></circle><text dy=".35em" x="-20" text-anchor="end" fill="#777" font-weight="700">22F (XBB)</text></g><g class="node" transform="translate(1200,543.75)"><circle class="node" r="15" style="fill: rgb(172, 204, 96); stroke: rgb(149, 177, 83);"></circle><text dy=".35em" x="20" text-anchor="start" fill="#777" font-weight="700">22C (BA.2.12.1)</text></g><g class="node" transform="translate(1200,659.090909090909)"><circle class="node" r="15" style="fill: rgb(159, 203, 104); stroke: rgb(138, 176, 90);"></circle><text dy=".35em" x="-20" text-anchor="end" fill="#777" font-weight="700">22B (BA.5)</text></g><g class="node" transform="translate(1200,725)"><circle class="node" r="15" style="fill: rgb(147, 201, 115); stroke: rgb(128, 174, 100);"></circle><text dy=".35em" x="20" text-anchor="start" fill="#777" font-weight="700">22A (BA.4)</text></g><g class="node" transform="translate(1440,65.9090909090909)"><circle class="node" r="15" style="fill: rgb(238, 64, 41); stroke: rgb(207, 56, 35);"></circle><text dy=".35em" x="-20" text-anchor="end" fill="#777" font-weight="700">24A (JN.1)</text></g><g class="node" transform="translate(1440,197.72727272727272)"><circle class="node" r="15" style="fill: rgb(237, 183, 64); stroke: rgb(206, 158, 56);"></circle><text dy=".35em" x="20" text-anchor="start" fill="#777" font-weight="700">23C (CH.1.1)</text></g><g class="node" transform="translate(1440,329.5454545454545)"><circle class="node" r="15" style="fill: rgb(219, 197, 71); stroke: rgb(190, 170, 61);"></circle><text dy=".35em" x="-20" text-anchor="end" fill="#777" font-weight="700">23A (XBB.1.5)</text></g><g class="node" transform="translate(1440,395.45454545454544)"><circle class="node" r="15" style="fill: rgb(229, 190, 68); stroke: rgb(198, 165, 59);"></circle><text dy=".35em" x="20" text-anchor="start" fill="#777" font-weight="700">23B (XBB.1.16)</text></g><g class="node" transform="translate(1440,461.3636363636364)"><circle class="node" r="15" style="fill: rgb(242, 171, 62); stroke: rgb(210, 148, 54);"></circle><text dy=".35em" x="-20" text-anchor="end" fill="#777" font-weight="700">23D (XBB.1.9)</text></g><g class="node" transform="translate(1440,527.2727272727273)"><circle class="node" r="15" style="fill: rgb(247, 160, 59); stroke: rgb(214, 139, 51);"></circle><text dy=".35em" x="20" text-anchor="start" fill="#777" font-weight="700">23E (XBB.2.3)</text></g><g class="node" transform="translate(1440,659.090909090909)"><circle class="node" r="15" style="fill: rgb(197, 203, 81); stroke: rgb(170, 176, 70);"></circle><text dy=".35em" x="20" text-anchor="start" fill="#777" font-weight="700">22E (BQ.1)</text></g><g class="node" transform="translate(1680,65.9090909090909)"><circle class="node" r="15" style="fill: rgb(235, 43, 38); stroke: rgb(204, 37, 33);"></circle><text dy=".35em" x="20" text-anchor="start" fill="#777" font-weight="700">24B (JN.1.11.1)</text></g><g class="node" transform="translate(1680,329.5454545454545)"><circle class="node" r="15" style="fill: rgb(242, 85, 45); stroke: rgb(210, 74, 39);"></circle><text dy=".35em" x="20" text-anchor="start" fill="#777" font-weight="700">23G (XBB.1.5.70)</text></g><g class="node" transform="translate(1680,461.3636363636364)"><circle class="node" r="15" style="fill: rgb(247, 143, 56); stroke: rgb(214, 124, 48);"></circle><text dy=".35em" x="-20" text-anchor="end" fill="#777" font-weight="700">23F (EG.5.1)</text></g><g class="node" transform="translate(1920,461.3636363636364)"><circle class="node" r="15" style="fill: rgb(245, 106, 49); stroke: rgb(212, 92, 43);"></circle><text dy=".35em" x="20" text-anchor="start" fill="#777" font-weight="700">23H (HK.3)</text></g></g></svg>