<svg xmlns="http://www.w3.org/2000/svg" viewBox="0 0 193.863 41.419"><path d="M32.97 30.41a4.704 4.704 0 00-3.306 2.823 4.705 4.705 0 007.515-1.73 4.705 4.705 0 00-4.209-1.092M29.92 35.356a3.413 3.413 0 00-2.571 1.828 3.413 3.413 0 005.542-.77 3.413 3.413 0 00-2.972-1.058M25.562 38a2.932 2.932 0 00-2.421 1.21 2.93 2.93 0 004.801.08 2.927 2.927 0 00-2.38-1.29M24.41 34.722a2.265 2.265 0 00-1.87.935 2.265 2.265 0 003.709.061c-.4-.59-1.07-.984-1.838-.996M8.122 36.697c1.548.069 2.944-.557 3.818-1.571-.78-1.087-2.116-1.836-3.663-1.905-1.548-.07-2.944.558-3.817 1.572.78 1.086 2.114 1.836 3.662 1.904M11.684 39.58c1.16.038 2.201-.444 2.847-1.211-.596-.807-1.602-1.356-2.762-1.394-1.16-.038-2.201.444-2.847 1.212.595.807 1.602 1.356 2.762 1.394M15.125 36.752a2.701 2.701 0 002.15-1.266 2.7 2.7 0 00-4.42.23 2.7 2.7 0 002.27 1.036" fill="#75a932"/><path d="M20.818 31.089h-2.724a9.394 9.394 0 01-.021-.58c0-.205.01-.41.024-.618h2.72a8.4 8.4 0 01.024.588c0 .204-.01.407-.023.61M20.5 32.93h-2.092a8.438 8.438 0 01-.25-1.198h2.594a8.589 8.589 0 01-.252 1.198m-1.882.645h1.669c-.23.612-.52 1.15-.836 1.577a6.586 6.586 0 01-.833-1.577m1.943 5.03H18.34a13.095 13.095 0 011.113-1.26c.278.28.61.636.938 1.04.056.07.113.145.17.22m.465.645c.162.25.315.504.445.764v.002h-4.04L17.44 40a7.84 7.84 0 01.438-.75zm-1.563-13.567c.237.386.447.777.62 1.17.08.183.15.367.216.55h-1.677c.064-.175.133-.351.208-.528.174-.4.386-.8.633-1.192m1.292 3.564h-2.592c.057-.396.14-.797.253-1.197h2.09c.112.4.194.801.249 1.197m10.555-6.312a9.068 9.068 0 01-.723.985c-.2.236-.412.459-.64.66a7.058 7.058 0 01-1.159.862c-.668.403-1.394.69-2.16.962l-.018.007c-.32.115-.643.229-.972.35-.467.177-.941.371-1.413.612a7.678 7.678 0 00-1.985 1.436 10.579 10.579 0 00-1.809-4.44c.309-.357.65-.706 1.03-1.047.373-.333.82-.596 1.255-.875.035-.021.07-.045.106-.066.406-.253.833-.484 1.276-.706.39-.194.792-.379 1.2-.558.596-.264 1.205-.519 1.818-.793.243-.108.488-.219.731-.331.79-.373 1.575-.8 2.289-1.361.462-.373.88-.818 1.178-1.34a3.533 3.533 0 00.48-1.67c-.179.357-.38.683-.608.977-.1.13-.205.255-.316.37-.364.38-.776.698-1.221.972-.359.222-.739.41-1.135.577l-.002.003c-.59.252-1.21.462-1.835.672-.026.01-.051.017-.077.026.299-.601.476-1.25.526-1.893a6.514 6.514 0 00-.35-2.686c-.301-.837-.785-1.641-1.501-2.149.506.704.786 1.498.952 2.302.165.804.177 1.635.009 2.403-.17.771-.506 1.479-1.014 2.023a4.157 4.157 0 01-1.053.823c-.232.088-.46.174-.69.27-.537.22-1.07.475-1.586.775-.518.296-.985.683-1.448 1.088-.358.32-.686.645-.988.977a12.598 12.598 0 00-1.002-.979c-.264-.214-1.337-.969-1.337-.969a22.496 22.496 0 01-1.231-.853c-.787-.594-1.483-1.283-2.026-2.085a6.71 6.71 0 01-1.067-2.707 7.456 7.456 0 01-.106-.815v-.003c-.059-.73-.033-1.483.014-2.25-.108.26-.21.524-.294.792v.004a5.75 5.75 0 00-.19.723 6.74 6.74 0 00-.148 1.618v.016c.003.062.007.118.009.18a4.701 4.701 0 00-.988-.276c-.681-.112-1.424-.079-2.067.223-.65.296-1.118.847-1.424 1.43a4.804 4.804 0 00-.22.494c-.168.427-.28.868-.356 1.312-.002.019-.008.035-.01.054.006-.017.01-.035.017-.052.12-.4.271-.795.462-1.163.092-.18.194-.357.307-.526.359-.513.837-.935 1.4-1.112.56-.182 1.167-.135 1.738.03.439.125.86.321 1.257.557a7.24 7.24 0 00.707 2.035c.014.028.031.057.047.085v.002c.51.966 1.231 1.804 2.018 2.528.406.375.833.719 1.265 1.034l.127.096.508.372c.202.151 1.31 1.07 1.621 1.426a11.355 11.355 0 00-.797 1.33c-.103-.11-.21-.22-.337-.33l-.003-.002c-.03-.026-.063-.055-.096-.08a2.623 2.623 0 00-.647-.39 1.963 1.963 0 00-.626-.141h-.003a2.032 2.032 0 00-1.05.243 3.164 3.164 0 00-.562.396c-.432.398-.741.804-1.016 1.207-.119.17-.23.338-.34.505l-.205.325c-.18.26-.382.5-.606.712-.233.222-.49.415-.767.568a3 3 0 01-1.837.347c-.657-.078-1.317-.337-1.92-.705a5.728 5.728 0 01-.854-.63 4.215 4.215 0 01-.418-.412 2.384 2.384 0 01-.286-.394c.055.149.128.292.213.427.106.177.234.342.363.502.231.285.493.552.773.795.566.484 1.226.888 1.984 1.108a3.905 3.905 0 001.777.102 12.2 12.2 0 01-.382.495c-.396.493-.83.946-1.316 1.33a4.975 4.975 0 01-1.636.874 5.121 5.121 0 01-.939.191 6.708 6.708 0 01-.985.012 4.652 4.652 0 002.014.25c.695-.064 1.379-.306 1.992-.655 1.238-.703 2.179-1.764 3.028-2.806.11-.139.222-.278.33-.417.304-.39.6-.78.891-1.153.156-.196.31-.394.47-.578.242-.288.49-.547.73-.73.095-.07.187-.121.26-.153a.264.264 0 01.143-.025.358.358 0 01.09.037c.047.03.113.069.188.14.15.134.316.346.467.582.112.172.217.356.321.547-.243.92-.353 1.835-.353 2.712 0 1.266.226 2.456.603 3.5.313.864.731 1.626 1.227 2.248-.302.304-.663.689-1.026 1.134-.455.557-.917 1.208-1.276 1.92-.278.558-.5 1.16-.582 1.792a20.01 20.01 0 001.513.252c.024-.221.08-.455.16-.695h4.582c.088.262.146.517.168.759a18.693 18.693 0 001.518-.215c-.07-.67-.302-1.303-.594-1.893-.54-1.068-1.306-2-1.94-2.679-.127-.137-.248-.259-.36-.372a8.073 8.073 0 001.231-2.261c.098-.27.184-.547.26-.835l.003-.003c.092-.356.22-.695.343-1.033.263-.71.588-1.376 1.015-1.966a6.03 6.03 0 011.585-1.516c.431-.292.907-.55 1.407-.804.228-.116.46-.23.695-.347.75-.373 1.524-.785 2.215-1.325.337-.257.653-.542.94-.848.31-.326.586-.678.83-1.047.267-.408.5-.831.7-1.265.515-1.094.845-2.254 1.101-3.407-.404 1.165-.892 2.313-1.549 3.332" fill="#8e3c04"/><path d="M17.28 3.987a4.383 4.383 0 002.854 2.875A4.385 4.385 0 0018.001 0a4.385 4.385 0 00-.72 3.987M26.006 4.723a4.386 4.386 0 00.18 4.047 4.388 4.388 0 003.033-6.515 4.384 4.384 0 00-3.213 2.468M31.19 5.816a2.84 2.84 0 00-1.037 2.41 2.84 2.84 0 003.606-2.942 2.838 2.838 0 00-2.569.532M32.409 9.02a4.881 4.881 0 00-2.372 3.838 4.88 4.88 0 004.504-.256 4.88 4.88 0 002.373-3.838 4.883 4.883 0 00-4.505.256M36.223 14.924a4.014 4.014 0 002.073 3.079 4.015 4.015 0 00-.738-6.543 4.016 4.016 0 00-1.335 3.464M28.286 15.086a2.931 2.931 0 00-.685 2.623 2.934 2.934 0 003.228-3.565 2.934 2.934 0 00-2.543.942M37.04 21.03a3.99 3.99 0 00-.22 3.68 3.99 3.99 0 003.363-5.608 3.99 3.99 0 00-3.142 1.928M36.512 25.958a3.653 3.653 0 00-1.446 3.051 3.652 3.652 0 004.775-3.615 3.653 3.653 0 00-3.329.564M31.815 25.472a3.725 3.725 0 00-2.272 2.589 3.727 3.727 0 005.696-2.211 3.727 3.727 0 00-3.424-.378M33.568 20.471a3.377 3.377 0 00-.413 3.092 3.374 3.374 0 003.184-4.525 3.372 3.372 0 00-2.771 1.433" fill="#75a932"/><path d="M26.767 20.85a5.095 5.095 0 00-1.513 4.46 5.098 5.098 0 006.037-5.776 5.098 5.098 0 00-4.524 1.315" fill="#00b2a1"/><path d="M32.41 16.276a3.65 3.65 0 001.246 3.134 3.65 3.65 0 00.607-5.951 3.65 3.65 0 00-1.853 2.817M25.898 29.647a4.489 4.489 0 00-2.145 3.549 4.489 4.489 0 006.283-3.825 4.489 4.489 0 00-4.138.276" fill="#75a932"/><path d="M19.328 9.781a6.604 6.604 0 00-.013 6.101 6.6 6.6 0 005.02-9.587 6.6 6.6 0 00-5.007 3.486" fill="#fbb03b"/><path d="M11.772 7.969a4.718 4.718 0 00.908 4.264 4.717 4.717 0 002.066-7.453 4.718 4.718 0 00-2.974 3.189M6.234 21.773c.01 1.1.567 2.066 1.41 2.646a3.245 3.245 0 00-.05-5.317 3.242 3.242 0 00-1.36 2.671M1.321 23.969a5.829 5.829 0 004.46 3.02 5.826 5.826 0 00-.081-5.386 5.826 5.826 0 00-4.461-3.02 5.829 5.829 0 00.082 5.386M5.731 32.667a4.148 4.148 0 003.111-2.205 4.143 4.143 0 00-3.6-1.256 4.143 4.143 0 00-3.11 2.205 4.146 4.146 0 003.6 1.256M22.654 16.663a3.74 3.74 0 00-.007 3.454 3.738 3.738 0 002.842-5.428 3.738 3.738 0 00-2.835 1.974" fill="#75a932"/><path d="M9.425 22.154a4.784 4.784 0 003.57 2.613 4.788 4.788 0 00-3.474-7.036 4.788 4.788 0 00-.096 4.423" fill="#00b9cc"/><path d="M16.31 19.004a3.944 3.944 0 002.616 2.54 3.946 3.946 0 00-2.035-6.14 3.945 3.945 0 00-.581 3.6M22.045 24.564c-.15.911.17 1.79.78 2.392a2.721 2.721 0 00.732-4.402 2.721 2.721 0 00-1.512 2.01M15.31 32.697c.767-.981.954-2.23.617-3.338a3.674 3.674 0 00-3.705 4.746 3.674 3.674 0 003.088-1.408M8.961 27.593c.944.65 2.102.751 3.1.38a3.378 3.378 0 00-4.565-3.138 3.378 3.378 0 001.465 2.758M9.724 5.505a2.646 2.646 0 00.128 2.441A2.645 2.645 0 0011.65 4a2.646 2.646 0 00-1.926 1.505" fill="#75a932"/><path d="M6.437 13.567a5.297 5.297 0 004.762 1.134 5.297 5.297 0 00-6.562-5.686 5.297 5.297 0 001.8 4.552" fill="#f15a24"/><path d="M1.399 17.4a3.908 3.908 0 003.527.777 3.908 3.908 0 00-4.912-4.113A3.906 3.906 0 001.4 17.399M1.58 11.286a2.897 2.897 0 001.198 2.398A2.901 2.901 0 002.86 8.93a2.9 2.9 0 00-1.28 2.356" fill="#75a932"/><path d="M4.767 15.63c.03.792.45 1.478 1.07 1.878.586-.447.955-1.16.926-1.953a2.342 2.342 0 00-1.07-1.878 2.339 2.339 0 00-.926 1.953M6.439 4.803a2.902 2.902 0 00-.574 2.619 2.899 2.899 0 003.048-3.65 2.9 2.9 0 00-2.474 1.031M13.67 1.371a2.902 2.902 0 00-.574 2.619A2.899 2.899 0 0016.144.34a2.9 2.9 0 00-2.474 1.031M23.63 1.31a3.446 3.446 0 00-1.72 2.68 3.445 3.445 0 004.902-2.808 3.447 3.447 0 00-3.183.127M14.329 13.026a3.383 3.383 0 00.55 3.082 3.385 3.385 0 001.66-5.299 3.39 3.39 0 00-2.21 2.217M16.708 8.404a2.9 2.9 0 002.028 1.75 2.902 2.902 0 00-1.755-4.417 2.902 2.902 0 00-.273 2.667M26.865 11.395a3.305 3.305 0 001.259 2.78 3.3 3.3 0 00.296-5.405 3.302 3.302 0 00-1.555 2.625M.57 28.215a2.846 2.846 0 002.305 1.263 2.844 2.844 0 00-2.592-3.876 2.844 2.844 0 00.287 2.613M54.11 29.504c-4.438 0-7.72-3.2-7.72-7.556 0-4.352 3.282-7.551 7.72-7.551 2.163 0 4.015.73 5.537 2.329l1.82-1.77c-1.795-2.019-4.435-3.061-7.468-3.061-5.984 0-10.422 4.24-10.422 10.053 0 5.818 4.438 10.058 10.394 10.058 3.061 0 5.7-1.068 7.496-3.091l-1.82-1.77c-1.522 1.604-3.374 2.359-5.538 2.359M70.852 29.589c-2.863 0-5.027-2.079-5.027-5.25 0-3.172 2.164-5.222 5.027-5.222 2.87 0 4.999 2.05 4.999 5.222 0 3.171-2.13 5.25-5 5.25m0-12.831c-4.462 0-7.75 3.144-7.75 7.58 0 4.438 3.288 7.61 7.75 7.61 4.47 0 7.727-3.172 7.727-7.61 0-4.436-3.257-7.58-7.726-7.58M95.851 12.118l-7.13 16.152-7.077-16.152h-3.036l8.652 19.665h2.778l8.624-19.665z" fill="#75a932"/><path d="M108.747 27.23c-.674 1.717-2.274 2.64-4.292 2.64-2.053 0-3.29-.923-3.29-2.413 0-1.263.76-2.306 3.428-2.306h4.154zm-3.678-10.472c-2.384 0-4.605.67-6.152 1.905l1.126 2.026c1.148-.983 2.95-1.604 4.72-1.604 2.665 0 3.984 1.323 3.984 3.597v.531h-4.267c-4.437 0-5.982 1.966-5.982 4.357 0 2.583 2.136 4.378 5.503 4.378 2.334 0 3.991-.787 4.889-2.131v1.967h2.557v-8.992c0-4.069-2.306-6.034-6.378-6.034M119.029 19.392v-2.497h-2.583v14.889h2.7v-7.418c0-3.257 1.795-5.027 4.686-5.027.195 0 .393 0 .621.026v-2.608c-2.614 0-4.467.898-5.424 2.635M127.77 31.782h2.692V16.893h-2.693zm1.343-21.264c-1.035 0-1.822.787-1.822 1.77s.787 1.742 1.822 1.742c1.068 0 1.828-.784 1.828-1.8 0-.952-.787-1.712-1.828-1.712M144.703 27.23c-.67 1.717-2.274 2.64-4.292 2.64-2.053 0-3.29-.923-3.29-2.413 0-1.263.76-2.306 3.428-2.306h4.154zm-3.678-10.472c-2.384 0-4.605.67-6.152 1.905L136 20.69c1.148-.983 2.95-1.604 4.718-1.604 2.667 0 3.986 1.323 3.986 3.597v.531h-4.267c-4.437 0-5.982 1.966-5.982 4.357 0 2.583 2.136 4.378 5.503 4.378 2.334 0 3.991-.787 4.889-2.131v1.967h2.557v-8.992c0-4.069-2.306-6.034-6.378-6.034M160.351 16.757c-2.36 0-4.267.865-5.367 2.386v-2.248H152.4v14.888h2.7V24.11c0-3.224 1.855-4.941 4.718-4.941 2.557 0 4.019 1.434 4.019 4.352v8.262h2.693v-8.57c0-4.378-2.555-6.456-6.18-6.456M179.06 28.972c-.557.451-1.319.702-2.104.702-1.489 0-2.334-.897-2.334-2.497v-8.062h4.272v-2.221h-4.272v-3.257h-2.692v3.257h-2.53v2.22h2.53v8.174c0 3.003 1.71 4.66 4.718 4.66 1.206 0 2.444-.336 3.256-1.035zM184.426 21.108c0-1.18 1.153-2.05 3.512-2.05 1.462 0 2.949.308 4.3 1.178l1.146-2.136c-1.291-.837-3.48-1.344-5.418-1.344-3.82 0-6.207 1.798-6.207 4.463 0 5.926 9.41 3.036 9.41 6.378 0 1.263-1.042 2.023-3.539 2.023-1.94 0-3.963-.647-5.222-1.545l-1.128 2.136c1.238.983 3.682 1.738 6.154 1.738 3.959 0 6.429-1.713 6.429-4.412 0-5.786-9.437-2.916-9.437-6.429" fill="#8e3c04"/></svg>