<svg xmlns="http://www.w3.org/2000/svg" viewBox="0 0 247.58 235.85">
  <defs>
    <style>
      .cls-1,.cls-10,.cls-11,.cls-12,.cls-13,.cls-2,.cls-3,.cls-4,.cls-9{fill:none}.cls-1,.cls-10{stroke:#6988de}.cls-1,.cls-10,.cls-11,.cls-12,.cls-13,.cls-2,.cls-9{stroke-width:6.79px}.cls-2{stroke:#c50000}.cls-13,.cls-3{stroke:#69d086}.cls-3,.cls-4{stroke-width:15px}.cls-4{stroke:#ec6b00}.cls-9{stroke:#ec9200}.cls-10,.cls-11,.cls-12,.cls-13{stroke-linecap:square}.cls-11{stroke:#b7d000}.cls-12{stroke:#ecd000}
    </style>
  </defs>
  <g id="Layer_2" data-name="Layer 2">
    <g id="svg2">
      <path id="path3755-6-5-6-1-7-8-8" class="cls-1" d="M194.12 84.67l14.56-14.56"/>
      <ellipse id="path3757-0-4-2-11-4-7-4" class="cls-2" cx="210.63" cy="68.49" rx="4.53" ry="10.03" transform="rotate(-45 210.619 68.489)"/>
      <g id="g3780-4-2-2-1-7-5-7-0">
        <path id="path3755-1-0-4-0-0-4-8-2-5" class="cls-3" d="M212.89 111.74l19.19-7.46"/>
        <ellipse id="path3757-7-9-8-9-2-5-8-1-5" class="cls-4" cx="234.51" cy="103.58" rx="4.53" ry="10.03" transform="rotate(-21.25 234.465 103.554)"/>
      </g>
      <path id="path3755-1-5-0-6-1-12-8-8-5" class="cls-1" d="M202.84 178.91L218.77 192"/>
      <ellipse id="path3757-7-1-0-0-8-6-6-8-4" class="cls-2" cx="220.57" cy="193.73" rx="10.03" ry="4.53" transform="rotate(-50.67 220.584 193.729)"/>
      <g id="g3911-6-1-2-1-1-1-2">
        <path id="path3755-5-1-6-0-8-7-8-9" class="cls-3" d="M173.27 201l7.35 19.23"/>
        <ellipse id="path3757-76-3-5-8-2-0-6-7" class="cls-4" cx="181.31" cy="222.62" rx="10.03" ry="4.53" transform="rotate(-20.92 181.275 222.592)"/>
      </g>
      <g id="g3780-4-1-8-7-4-2-2-8-4" stroke-width="15" fill="none">
        <path id="path3755-1-0-8-9-5-7-2-1-6-5" d="M137.69 200.92L133.08 221" stroke="#6988de"/>
        <ellipse id="path3757-7-9-9-3-4-3-9-4-4-0" cx="132.29" cy="223.39" rx="4.53" ry="10.03" transform="rotate(-77.05 132.279 223.387)" stroke="#c50000"/>
      </g>
      <path id="path3755-1-8-7-4-2-8-7-5-3-1" d="M102 187.83l-13.5 15.55" stroke="#69d086" stroke-width="6.79" fill="none"/>
      <ellipse id="path3757-7-2-9-6-0-0-1-7-1-9" cx="86.64" cy="205.14" rx="4.53" ry="10.03" transform="rotate(-49.05 86.632 205.133)" stroke="#ec6b00" stroke-width="6.79" fill="none"/>
      <path id="path3755-4-6-1-0-0-6-8-5" class="cls-9" d="M107.44 62.55l-9.12-15"/>
      <path id="path3755-4-6-9-3-4-6-6-2-2" class="cls-9" d="M66.15 162.43l-15.35 5.43"/>
      <path id="path4954-1-0-6" class="cls-10" d="M3.6 145.2l19.24-1.2"/>
      <path id="path4952-5-2-8" class="cls-10" d="M46.14 63.57L30 52.68"/>
      <path id="path4950-8-5-7" class="cls-10" d="M79.89 31.28l-10.74-14.7"/>
      <path id="path4948-2-4-6" class="cls-10" d="M197.63 20.89l7.51-16.39"/>
      <path id="path4942-6-0-8" class="cls-11" d="M28.82 154.32l18.92-3.2"/>
      <path id="path4940-3-8-6" class="cls-11" d="M43.43 200l18-10.56"/>
      <path id="path4938-2-5-5" class="cls-12" d="M50.61 108.93a101.82 101.82 0 0195.13-73.84"/>
      <path id="path4936-3-5-7" class="cls-12" d="M61.4 189.46a101.12 101.12 0 01-13.66-38.34"/>
      <path id="path4934-7-2-4" class="cls-11" d="M50.61 108.93L29.3 102.8"/>
      <path id="path3755-4-1-9-1-7-7-2-9-8-3-9-0" class="cls-13" d="M22.84 144q-.2-3.56-.2-7.18a125.3 125.3 0 0123.5-73.25"/>
      <path id="path3755-4-1-9-1-7-1-3-6-8-2-3-8-2" class="cls-11" d="M145.74 35.09l-.86-22.68"/>
      <path id="path4946-2-7-1" class="cls-13" d="M79.89 31.28a126.09 126.09 0 01117.74-10.39"/>
      <path id="path3755-4-1-9-1-7-1-3-6-6-7-6-5-5-8" d="M86.62 109.95l-12.39-5" stroke-linecap="square" stroke="#c50000" stroke-width="6.79" fill="none"/>
      <path id="path2985-8-1-4-1-8-9-2" d="M68.9 161.5a83.61 83.61 0 0139.17-97.85" stroke-linecap="square" stroke="#ec6b00" stroke-width="6.79" fill="none"/>
      <g id="g3780-4-1-8-7-1-5-8-6-4-8-4-9">
        <path id="path3755-1-0-8-9-5-1-0-6-6-8-0-2-3" class="cls-3" d="M164.46 69.15l4.86-20"/>
        <ellipse id="path3757-7-9-9-3-4-3-2-0-4-2-7-9-4" class="cls-4" cx="170.13" cy="46.75" rx="4.53" ry="10.03" transform="rotate(-76.36 170.133 46.75)"/>
      </g>
      <path d="M217.88 144.93H111.17q2.31 14.09 12.35 22.41t25.61 8.32a44.32 44.32 0 0032-13l28 13.12q-10.47 14.82-25.06 21.93t-34.68 7.11q-31.15 0-50.74-19.62t-19.6-49.14q0-30.25 19.53-50.23t49-20q31.27 0 50.86 20T218 138.61zm-33.22-26.12a33.28 33.28 0 00-13-18 37.67 37.67 0 00-22.49-6.92 39.81 39.81 0 00-24.37 7.77q-6.58 4.86-12.19 17.13z" fill="#7366f7"/>
    </g>
  </g>
</svg>
