<svg xmlns="http://www.w3.org/2000/svg" viewBox="0 0 54.781 55.982"><path d="M44.563 41.104a6.358 6.358 0 00-4.47 3.814 6.359 6.359 0 0010.158-2.338 6.36 6.36 0 00-5.688-1.476M40.44 47.787a4.614 4.614 0 00-3.475 2.472 4.613 4.613 0 007.491-1.042 4.613 4.613 0 00-4.016-1.43M34.55 51.36a3.962 3.962 0 00-3.272 1.636 3.961 3.961 0 006.49.108 3.956 3.956 0 00-3.217-1.743M32.994 46.93a3.061 3.061 0 00-2.53 1.265 3.062 3.062 0 005.014.082 3.06 3.06 0 00-2.484-1.347M10.978 49.6c2.092.093 3.98-.753 5.16-2.124-1.055-1.468-2.86-2.481-4.95-2.574-2.092-.094-3.98.754-5.16 2.124 1.055 1.47 2.858 2.482 4.95 2.575M15.792 53.498c1.569.05 2.975-.602 3.848-1.638-.805-1.09-2.165-1.833-3.733-1.884-1.569-.052-2.975.6-3.848 1.638.805 1.091 2.165 1.833 3.733 1.884M20.443 49.675a3.65 3.65 0 002.906-1.712 3.65 3.65 0 00-5.975.313 3.649 3.649 0 003.07 1.399" fill="#75a932"/><path d="M28.138 42.02h-3.681c-.016-.257-.03-.52-.03-.784 0-.277.014-.554.033-.835h3.678c.019.268.032.532.032.794 0 .277-.013.552-.032.825m-.43 2.489h-2.827a11.405 11.405 0 01-.337-1.62h3.504a11.609 11.609 0 01-.34 1.62m-2.544.871h2.256a8.854 8.854 0 01-1.13 2.131 8.901 8.901 0 01-1.126-2.131m2.627 6.798h-3.003a17.7 17.7 0 011.505-1.703c.376.379.825.86 1.267 1.406.077.096.154.197.23.297m.628.872c.22.339.427.682.602 1.034v.002h-5.459c.003-.01.007-.015.01-.023.172-.343.376-.681.592-1.013zm-2.112-18.337c.321.522.605 1.05.838 1.583.108.246.204.495.292.742H25.17c.087-.236.18-.474.28-.713.237-.541.523-1.081.856-1.612m1.746 4.818H24.55c.077-.535.188-1.078.342-1.619h2.826c.15.541.262 1.084.335 1.62M42.32 31c-.3.467-.624.914-.979 1.331-.27.319-.557.62-.863.893a9.54 9.54 0 01-1.568 1.163c-.902.546-1.883.934-2.92 1.301l-.024.009c-.431.156-.868.31-1.314.474-.63.24-1.272.501-1.909.827a10.378 10.378 0 00-2.684 1.94 14.298 14.298 0 00-1.523-4.506c-.27-.503-.58-1.004-.92-1.495a15.58 15.58 0 011.391-1.415c.504-.45 1.107-.806 1.696-1.182l.144-.09a21.156 21.156 0 011.724-.953c.528-.263 1.071-.512 1.622-.755.806-.356 1.628-.7 2.457-1.071.329-.146.66-.297.989-.449 1.067-.503 2.128-1.08 3.093-1.839.625-.503 1.19-1.105 1.592-1.81.4-.699.634-1.482.65-2.257a8.004 8.004 0 01-.822 1.32 6.22 6.22 0 01-.427.5 8.252 8.252 0 01-1.651 1.314c-.485.3-.999.554-1.534.78l-.003.003c-.797.341-1.635.625-2.48.908-.035.013-.07.024-.104.035a6.967 6.967 0 00.71-2.558 8.805 8.805 0 00-.471-3.63c-.408-1.132-1.062-2.219-2.03-2.905.684.951 1.063 2.025 1.287 3.111.223 1.087.24 2.21.012 3.249-.229 1.042-.685 1.998-1.37 2.733a5.619 5.619 0 01-1.157.96c-.086.054-.179.105-.267.153-.313.118-.622.236-.933.366-.725.297-1.445.64-2.143 1.046-.7.4-1.332.923-1.957 1.472-.484.43-.927.87-1.335 1.32a17.027 17.027 0 00-1.355-1.323c-.357-.29-1.807-1.31-1.807-1.31a30.406 30.406 0 01-1.664-1.153c-1.063-.803-2.004-1.735-2.738-2.819a9.07 9.07 0 01-1.442-3.658 10.077 10.077 0 01-.144-1.102v-.003c-.08-.988-.044-2.006.02-3.042-.147.352-.284.708-.399 1.071v.004a7.772 7.772 0 00-.256.979 9.11 9.11 0 00-.2 2.186v.022c.003.084.01.159.012.243a6.354 6.354 0 00-1.335-.374c-.92-.15-1.925-.105-2.795.303-.876.4-1.51 1.144-1.924 1.932-.113.22-.211.442-.297.668a8.965 8.965 0 00-.481 1.773c-.003.026-.01.047-.013.073.007-.023.013-.047.023-.07a9.113 9.113 0 01.623-1.572c.125-.244.262-.483.416-.71.484-.695 1.131-1.265 1.892-1.504.756-.246 1.577-.182 2.349.04.593.17 1.163.435 1.698.753.18.954.501 1.887.957 2.75.019.038.042.078.064.115v.003c.688 1.307 1.664 2.438 2.727 3.418.548.506 1.126.97 1.709 1.398l.172.128.686.504c.273.204 1.771 1.447 2.192 1.927-.315.453-.602.912-.858 1.378-.075.14-.149.28-.22.42a5.822 5.822 0 00-.456-.446l-.003-.003a3.546 3.546 0 00-1.004-.635 2.653 2.653 0 00-.846-.191h-.005a2.343 2.343 0 00-.334.004c-.41.032-.784.162-1.084.324-.3.164-.544.347-.76.535-.584.539-1.002 1.087-1.374 1.633-.16.228-.31.455-.46.681l-.276.44a6.107 6.107 0 01-.82.962c-.315.3-.662.562-1.035.769a4.056 4.056 0 01-2.483.468c-.889-.105-1.782-.455-2.595-.953a7.742 7.742 0 01-1.156-.85 5.697 5.697 0 01-.564-.558 3.222 3.222 0 01-.387-.532c.074.2.173.395.288.577.144.239.316.461.49.678.313.385.666.746 1.046 1.074.765.654 1.656 1.201 2.68 1.498.752.227 1.591.278 2.403.137a16.49 16.49 0 01-.517.67 11.297 11.297 0 01-1.778 1.797c-.656.517-1.395.936-2.211 1.182-.408.125-.832.21-1.27.258-.436.042-.882.04-1.33.016.846.294 1.78.44 2.721.339.94-.087 1.864-.414 2.693-.886 1.673-.95 2.945-2.385 4.092-3.793.15-.188.3-.376.446-.564.41-.527.81-1.055 1.205-1.558.21-.265.42-.533.634-.782.329-.389.663-.739.988-.985.128-.095.252-.165.35-.207.099-.04.16-.04.194-.035.04.01.061.02.122.051.064.04.153.093.255.188.2.182.427.469.63.787.151.233.294.482.435.74a14.364 14.364 0 00-.478 3.665c0 1.712.305 3.32.815 4.73.424 1.17.988 2.2 1.658 3.04-.408.411-.896.93-1.386 1.532-.615.753-1.24 1.633-1.725 2.595-.376.755-.676 1.568-.787 2.422.673.138 1.354.255 2.046.342.032-.3.108-.615.217-.94h6.192c.118.354.198.698.227 1.025.691-.07 1.376-.165 2.052-.29-.096-.905-.409-1.762-.804-2.56-.729-1.442-1.765-2.7-2.621-3.62-.173-.185-.336-.35-.488-.503.671-.848 1.238-1.88 1.665-3.056.132-.363.25-.74.352-1.129l.003-.003c.124-.481.296-.94.464-1.396.355-.96.795-1.86 1.372-2.658a8.15 8.15 0 012.142-2.049c.583-.395 1.227-.742 1.902-1.087.309-.156.621-.31.94-.468 1.014-.504 2.058-1.061 2.993-1.792.456-.347.883-.732 1.27-1.146.419-.44.792-.916 1.124-1.415.36-.551.675-1.123.946-1.709.694-1.479 1.14-3.047 1.487-4.605-.547 1.574-1.206 3.126-2.093 4.504" fill="#8e3c04"/><path d="M23.356 5.389a5.924 5.924 0 003.858 3.886A5.926 5.926 0 0024.33 0a5.927 5.927 0 00-.974 5.389M35.15 6.383a5.928 5.928 0 00.243 5.471 5.928 5.928 0 004.1-8.806 5.925 5.925 0 00-4.343 3.335M42.157 7.861a3.838 3.838 0 00-1.402 3.257 3.84 3.84 0 004.875-3.976 3.836 3.836 0 00-3.473.719M43.804 12.192a6.597 6.597 0 00-3.206 5.187c1.898.851 4.166.8 6.089-.346a6.595 6.595 0 003.206-5.187 6.6 6.6 0 00-6.089.346M48.96 20.171a5.425 5.425 0 002.801 4.161 5.427 5.427 0 001.805-4.68 5.425 5.425 0 00-2.802-4.162 5.428 5.428 0 00-1.804 4.681M38.232 20.391a3.962 3.962 0 00-.926 3.545 3.966 3.966 0 004.363-4.818 3.966 3.966 0 00-3.437 1.273M50.065 28.425a5.393 5.393 0 00-.3 4.974 5.392 5.392 0 004.547-7.58 5.392 5.392 0 00-4.247 2.606M49.35 35.085a4.937 4.937 0 00-1.954 4.124 4.937 4.937 0 006.453-4.886 4.937 4.937 0 00-4.498.762M43.002 34.428a5.035 5.035 0 00-3.07 3.5 5.037 5.037 0 007.697-2.989 5.037 5.037 0 00-4.627-.51M45.37 27.669a4.564 4.564 0 00-.558 4.179 4.564 4.564 0 004.303-6.116 4.558 4.558 0 00-3.744 1.937" fill="#75a932"/><path d="M36.18 28.18a6.886 6.886 0 00-2.047 6.03 6.891 6.891 0 008.16-7.808 6.89 6.89 0 00-6.114 1.778" fill="#00b2a1"/><path d="M43.806 22a4.933 4.933 0 001.684 4.234 4.934 4.934 0 00.82-8.043 4.934 4.934 0 00-2.504 3.808M35.004 40.071a6.067 6.067 0 00-2.9 4.797 6.067 6.067 0 008.493-5.17 6.067 6.067 0 00-5.593.373" fill="#75a932"/><path d="M26.125 13.22a8.926 8.926 0 00-.02 8.247 8.92 8.92 0 006.768-4.712 8.922 8.922 0 00.02-8.246 8.92 8.92 0 00-6.768 4.711" fill="#fbb03b"/><path d="M15.91 10.771a6.377 6.377 0 001.229 5.763A6.378 6.378 0 0019.93 6.46a6.377 6.377 0 00-4.02 4.311M8.426 29.43a4.383 4.383 0 001.905 3.575 4.386 4.386 0 00-.068-7.186 4.382 4.382 0 00-1.837 3.61M1.786 32.397a7.878 7.878 0 006.028 4.081 7.874 7.874 0 00-.11-7.28 7.875 7.875 0 00-6.03-4.081 7.878 7.878 0 00.112 7.28M7.747 44.153a5.606 5.606 0 004.205-2.98 5.6 5.6 0 00-4.867-1.698 5.6 5.6 0 00-4.205 2.98 5.604 5.604 0 004.867 1.698M30.62 22.522a5.055 5.055 0 00-.01 4.669 5.053 5.053 0 003.841-7.338 5.053 5.053 0 00-3.831 2.669" fill="#75a932"/><path d="M12.74 29.944a6.467 6.467 0 004.824 3.532 6.472 6.472 0 00-4.696-9.51 6.472 6.472 0 00-.129 5.978" fill="#00b9cc"/><path d="M22.044 25.686a5.331 5.331 0 003.537 3.432 5.333 5.333 0 00-2.751-8.297 5.333 5.333 0 00-.786 4.865M29.796 33.201a3.682 3.682 0 001.055 3.233 3.678 3.678 0 002.043-2.718 3.674 3.674 0 00-1.054-3.232 3.678 3.678 0 00-2.044 2.717M20.694 44.194a4.964 4.964 0 00.833-4.511 4.966 4.966 0 00-5.008 6.414 4.966 4.966 0 004.175-1.903M12.112 37.295a4.565 4.565 0 004.19.513 4.566 4.566 0 00-1.98-3.727 4.566 4.566 0 00-4.19-.514 4.566 4.566 0 001.98 3.728M13.143 7.44a3.577 3.577 0 00.174 3.3 3.575 3.575 0 002.43-5.334 3.576 3.576 0 00-2.604 2.035" fill="#75a932"/><path d="M8.7 18.338a7.159 7.159 0 006.436 1.532 7.159 7.159 0 00-8.87-7.685A7.16 7.16 0 008.7 18.338" fill="#f15a24"/><path d="M1.89 23.517a5.282 5.282 0 004.768 1.05 5.282 5.282 0 00-6.639-5.559 5.28 5.28 0 001.871 4.51M2.136 15.254a3.916 3.916 0 001.619 3.242 3.921 3.921 0 00.11-6.426 3.92 3.92 0 00-1.73 3.184" fill="#75a932"/><path d="M6.443 21.126a3.16 3.16 0 001.446 2.538 3.165 3.165 0 001.252-2.64 3.166 3.166 0 00-1.446-2.537 3.161 3.161 0 00-1.252 2.639M8.703 6.492a3.923 3.923 0 00-.776 3.54 3.918 3.918 0 004.12-4.933 3.92 3.92 0 00-3.344 1.393M18.477 1.854a3.923 3.923 0 00-.776 3.539A3.918 3.918 0 0021.82.46a3.92 3.92 0 00-3.344 1.394M31.938 1.77a4.658 4.658 0 00-2.324 3.623 4.66 4.66 0 006.626-3.795 4.66 4.66 0 00-4.302.172M19.367 17.607a4.573 4.573 0 00.744 4.164 4.576 4.576 0 002.243-7.16 4.581 4.581 0 00-2.987 2.996M22.582 11.358a3.919 3.919 0 002.742 2.368 3.922 3.922 0 00-2.373-5.972 3.922 3.922 0 00-.369 3.604M36.31 15.402a4.467 4.467 0 001.702 3.756 4.467 4.467 0 00.4-7.304 4.463 4.463 0 00-2.101 3.548M.77 38.136a3.847 3.847 0 003.116 1.707 3.844 3.844 0 00-3.503-5.24 3.845 3.845 0 00.388 3.533" fill="#75a932"/></svg>
