<svg xmlns="http://www.w3.org/2000/svg" viewBox="0 0 69.905 53.387"><path d="M47.658 30.41a4.704 4.704 0 00-3.307 2.823 4.705 4.705 0 007.515-1.73 4.705 4.705 0 00-4.208-1.092M44.607 35.356a3.413 3.413 0 00-2.57 1.828 3.413 3.413 0 005.542-.77 3.413 3.413 0 00-2.972-1.058M40.25 38a2.932 2.932 0 00-2.422 1.21 2.93 2.93 0 004.802.08A2.927 2.927 0 0040.25 38M39.098 34.722a2.265 2.265 0 00-1.871.935 2.265 2.265 0 003.71.061c-.401-.59-1.071-.984-1.839-.996M22.81 36.697c1.548.069 2.944-.557 3.817-1.571-.78-1.087-2.115-1.836-3.662-1.905-1.548-.07-2.944.558-3.818 1.572.78 1.086 2.115 1.836 3.663 1.904M26.372 39.58c1.16.038 2.2-.444 2.846-1.211-.595-.807-1.601-1.356-2.762-1.394-1.16-.038-2.2.444-2.846 1.212.595.807 1.601 1.356 2.762 1.394M29.813 36.752a2.701 2.701 0 002.15-1.266 2.7 2.7 0 00-4.421.23 2.7 2.7 0 002.27 1.036" fill="#75a932"/><path d="M35.505 31.089h-2.723a9.394 9.394 0 01-.022-.58c0-.205.01-.41.024-.618h2.721a8.4 8.4 0 01.024.588c0 .204-.01.407-.024.61m-.318 1.841h-2.091a8.438 8.438 0 01-.25-1.198h2.593a8.589 8.589 0 01-.252 1.198m-1.882.645h1.67c-.23.612-.52 1.15-.837 1.577a6.586 6.586 0 01-.833-1.577m1.943 5.03h-2.221a13.095 13.095 0 011.113-1.26c.279.28.61.636.938 1.04.057.07.114.145.17.22m.465.645c.163.25.316.504.445.764v.002H32.12c.002-.007.006-.012.008-.017a7.84 7.84 0 01.438-.75zM34.15 25.683c.238.386.448.777.62 1.17.08.183.15.367.216.55H33.31c.064-.175.132-.351.207-.528.175-.4.387-.8.633-1.192m1.292 3.564H32.85c.057-.396.14-.797.253-1.197h2.09c.112.4.195.801.25 1.197m10.555-6.312a9.068 9.068 0 01-.724.985c-.2.236-.412.459-.639.66a7.058 7.058 0 01-1.16.862c-.667.403-1.393.69-2.16.962l-.018.007c-.319.115-.642.229-.972.35-.467.177-.941.371-1.412.612a7.678 7.678 0 00-1.986 1.436 10.579 10.579 0 00-1.808-4.44c.308-.357.649-.706 1.03-1.047.372-.333.819-.596 1.254-.875.036-.021.071-.045.106-.066.406-.253.833-.484 1.277-.706.39-.194.792-.379 1.2-.558.596-.264 1.204-.519 1.817-.793.243-.108.489-.219.732-.331.79-.373 1.574-.8 2.288-1.361.463-.373.88-.818 1.178-1.34a3.533 3.533 0 00.48-1.67c-.178.357-.38.683-.607.977-.1.13-.206.255-.316.37-.364.38-.776.698-1.222.972-.358.222-.738.41-1.134.577l-.003.003c-.59.252-1.21.462-1.834.672-.026.01-.052.017-.078.026.3-.601.477-1.25.526-1.893a6.514 6.514 0 00-.349-2.686c-.302-.837-.786-1.641-1.502-2.149.506.704.787 1.498.953 2.302.165.804.177 1.635.008 2.403-.169.771-.506 1.479-1.013 2.023a4.157 4.157 0 01-1.054.823c-.231.088-.46.174-.69.27-.537.22-1.069.475-1.586.775-.518.296-.985.683-1.447 1.088-.359.32-.686.645-.988.977a12.598 12.598 0 00-1.002-.979c-.265-.214-1.337-.969-1.337-.969a22.496 22.496 0 01-1.232-.853c-.786-.594-1.482-1.283-2.025-2.085a6.71 6.71 0 01-1.067-2.707 7.456 7.456 0 01-.106-.815v-.003c-.06-.73-.034-1.483.014-2.25-.109.26-.21.524-.295.792v.004a5.75 5.75 0 00-.19.723 6.74 6.74 0 00-.147 1.618v.016l.008.18a4.701 4.701 0 00-.988-.276c-.68-.112-1.423-.079-2.067.223-.649.296-1.118.847-1.424 1.43a4.804 4.804 0 00-.22.494c-.167.427-.28.868-.356 1.312-.002.019-.007.035-.01.054.006-.017.01-.035.018-.052.12-.4.27-.795.461-1.163.092-.18.194-.357.307-.526.36-.513.838-.935 1.4-1.112.56-.182 1.168-.135 1.738.03.44.125.861.321 1.257.557a7.24 7.24 0 00.708 2.035c.014.028.03.057.047.085v.002c.51.966 1.231 1.804 2.018 2.528.406.375.833.719 1.264 1.034l.128.096.507.372c.202.151 1.31 1.07 1.622 1.426a11.355 11.355 0 00-.798 1.33c-.102-.11-.21-.22-.337-.33l-.002-.002c-.03-.026-.063-.055-.096-.08a2.623 2.623 0 00-.647-.39 1.963 1.963 0 00-.626-.141h-.004a2.032 2.032 0 00-1.05.243 3.164 3.164 0 00-.562.396c-.431.398-.74.804-1.016 1.207-.119.17-.229.338-.34.505l-.205.325c-.18.26-.382.5-.606.712-.233.222-.49.415-.766.568a3 3 0 01-1.837.347c-.657-.078-1.318-.337-1.92-.705a5.728 5.728 0 01-.855-.63 4.215 4.215 0 01-.418-.412 2.384 2.384 0 01-.285-.394c.054.149.127.292.213.427.106.177.233.342.363.502.23.285.492.552.773.795.566.484 1.225.888 1.983 1.108a3.905 3.905 0 001.777.102 12.2 12.2 0 01-.382.495c-.396.493-.83.946-1.316 1.33a4.975 4.975 0 01-1.635.874 5.121 5.121 0 01-.94.191 6.708 6.708 0 01-.984.012 4.652 4.652 0 002.014.25c.694-.064 1.378-.306 1.992-.655 1.237-.703 2.178-1.764 3.027-2.806.11-.139.222-.278.33-.417.304-.39.6-.78.892-1.153.155-.196.31-.394.469-.578.243-.288.49-.547.731-.73.094-.07.186-.121.26-.153a.264.264 0 01.143-.025.358.358 0 01.09.037c.047.03.113.069.188.14.149.134.316.346.467.582.111.172.217.356.32.547-.242.92-.352 1.835-.352 2.712 0 1.266.225 2.456.602 3.5.314.864.731 1.626 1.227 2.248-.302.304-.663.689-1.025 1.134-.455.557-.918 1.208-1.277 1.92-.278.558-.5 1.16-.582 1.792a20.01 20.01 0 001.514.252c.023-.221.08-.455.16-.695h4.581c.088.262.147.517.168.759a18.693 18.693 0 001.518-.215c-.07-.67-.302-1.303-.594-1.893-.54-1.068-1.306-2-1.94-2.679-.127-.137-.248-.259-.36-.372a8.073 8.073 0 001.232-2.261c.097-.27.184-.547.26-.835l.002-.003c.092-.356.22-.695.344-1.033.262-.71.587-1.376 1.015-1.966a6.03 6.03 0 011.584-1.516c.431-.292.908-.55 1.408-.804.228-.116.46-.23.695-.347.75-.373 1.523-.785 2.215-1.325.337-.257.653-.542.94-.848.309-.326.585-.678.83-1.047.267-.408.5-.831.7-1.265.514-1.094.844-2.254 1.1-3.407-.404 1.165-.892 2.313-1.548 3.332" fill="#8e3c04"/><path d="M31.968 3.987a4.383 4.383 0 002.854 2.875A4.385 4.385 0 0032.688 0a4.385 4.385 0 00-.72 3.987M40.693 4.723a4.386 4.386 0 00.18 4.047 4.388 4.388 0 003.034-6.515 4.384 4.384 0 00-3.214 2.468M45.878 5.816a2.84 2.84 0 00-1.038 2.41 2.84 2.84 0 003.607-2.942 2.838 2.838 0 00-2.57.532M47.096 9.02a4.881 4.881 0 00-2.372 3.838 4.88 4.88 0 004.505-.256A4.88 4.88 0 0051.6 8.764a4.883 4.883 0 00-4.505.256M50.91 14.924a4.014 4.014 0 002.073 3.079 4.015 4.015 0 00-.737-6.543 4.016 4.016 0 00-1.335 3.464M42.974 15.086a2.931 2.931 0 00-.686 2.623 2.934 2.934 0 003.228-3.565 2.934 2.934 0 00-2.542.942M51.728 21.03a3.99 3.99 0 00-.221 3.68 3.99 3.99 0 003.363-5.608 3.99 3.99 0 00-3.142 1.928M51.2 25.958a3.653 3.653 0 00-1.447 3.051 3.652 3.652 0 004.775-3.615 3.653 3.653 0 00-3.328.564M46.503 25.472a3.725 3.725 0 00-2.272 2.589 3.727 3.727 0 005.695-2.211 3.727 3.727 0 00-3.423-.378M48.255 20.471a3.377 3.377 0 00-.413 3.092 3.374 3.374 0 003.184-4.525 3.372 3.372 0 00-2.77 1.433" fill="#75a932"/><path d="M41.455 20.85a5.095 5.095 0 00-1.514 4.46 5.098 5.098 0 006.037-5.776 5.098 5.098 0 00-4.523 1.315" fill="#00b2a1"/><path d="M47.097 16.276a3.65 3.65 0 001.247 3.134 3.65 3.65 0 00.607-5.951 3.65 3.65 0 00-1.854 2.817M40.586 29.647a4.489 4.489 0 00-2.146 3.549 4.489 4.489 0 006.283-3.825 4.489 4.489 0 00-4.137.276" fill="#75a932"/><path d="M34.016 9.781a6.604 6.604 0 00-.014 6.101 6.6 6.6 0 005.02-9.587 6.6 6.6 0 00-5.006 3.486" fill="#fbb03b"/><path d="M26.459 7.969a4.718 4.718 0 00.909 4.264 4.717 4.717 0 002.065-7.453 4.718 4.718 0 00-2.974 3.189M20.921 21.773c.011 1.1.568 2.066 1.41 2.646a3.245 3.245 0 00-.05-5.317 3.242 3.242 0 00-1.36 2.671M16.008 23.969a5.829 5.829 0 004.46 3.02 5.826 5.826 0 00-.081-5.386 5.826 5.826 0 00-4.46-3.02 5.829 5.829 0 00.081 5.386M20.419 32.667a4.148 4.148 0 003.11-2.205 4.143 4.143 0 00-3.6-1.256 4.143 4.143 0 00-3.11 2.205 4.146 4.146 0 003.6 1.256M37.342 16.663a3.74 3.74 0 00-.008 3.454 3.738 3.738 0 002.843-5.428 3.738 3.738 0 00-2.835 1.974" fill="#75a932"/><path d="M24.113 22.154a4.784 4.784 0 003.569 2.613 4.788 4.788 0 00-3.474-7.036 4.788 4.788 0 00-.095 4.423" fill="#00b9cc"/><path d="M30.997 19.004a3.944 3.944 0 002.616 2.54 3.946 3.946 0 00-2.035-6.14 3.945 3.945 0 00-.58 3.6M36.733 24.564c-.151.911.169 1.79.78 2.392a2.721 2.721 0 00.731-4.402 2.721 2.721 0 00-1.511 2.01M29.998 32.697c.766-.981.954-2.23.616-3.338a3.674 3.674 0 00-3.705 4.746 3.674 3.674 0 003.089-1.408M23.649 27.593c.944.65 2.101.751 3.1.38a3.378 3.378 0 00-4.566-3.138 3.378 3.378 0 001.466 2.758M24.411 5.505a2.646 2.646 0 00.129 2.441A2.645 2.645 0 0026.337 4a2.646 2.646 0 00-1.926 1.505" fill="#75a932"/><path d="M21.124 13.567a5.297 5.297 0 004.762 1.134 5.297 5.297 0 00-6.562-5.686 5.297 5.297 0 001.8 4.552" fill="#f15a24"/><path d="M16.086 17.4a3.908 3.908 0 003.527.777 3.908 3.908 0 00-4.911-4.113 3.906 3.906 0 001.384 3.335M16.268 11.286a2.897 2.897 0 001.198 2.398 2.901 2.901 0 00.081-4.754 2.9 2.9 0 00-1.28 2.356" fill="#75a932"/><path d="M19.455 15.63c.03.792.45 1.478 1.07 1.878a2.342 2.342 0 00-.143-3.83 2.339 2.339 0 00-.927 1.952M21.126 4.803a2.902 2.902 0 00-.574 2.619 2.899 2.899 0 003.048-3.65 2.9 2.9 0 00-2.474 1.031M28.357 1.371a2.902 2.902 0 00-.573 2.619A2.899 2.899 0 0030.832.34a2.9 2.9 0 00-2.475 1.031M38.317 1.31a3.446 3.446 0 00-1.72 2.68A3.445 3.445 0 0041.5 1.182a3.447 3.447 0 00-3.183.127M29.016 13.026a3.383 3.383 0 00.55 3.082 3.385 3.385 0 001.66-5.299 3.39 3.39 0 00-2.21 2.217M31.395 8.404a2.9 2.9 0 002.029 1.75 2.902 2.902 0 00-1.756-4.417 2.902 2.902 0 00-.273 2.667M41.552 11.395a3.305 3.305 0 001.26 2.78 3.3 3.3 0 00.296-5.405 3.302 3.302 0 00-1.556 2.625M15.258 28.215a2.846 2.846 0 002.305 1.263 2.844 2.844 0 00-2.592-3.876 2.844 2.844 0 00.287 2.613M4.899 52.223c-2.064 0-3.59-1.488-3.59-3.514 0-2.025 1.526-3.513 3.59-3.513 1.006 0 1.868.34 2.576 1.084l.846-.824c-.835-.938-2.063-1.423-3.474-1.423C2.064 44.033 0 46.005 0 48.709c0 2.706 2.064 4.678 4.835 4.678 1.423 0 2.651-.497 3.486-1.438l-.846-.823c-.708.746-1.57 1.097-2.576 1.097M12.687 52.263c-1.332 0-2.339-.967-2.339-2.442s1.007-2.43 2.339-2.43c1.335 0 2.325.955 2.325 2.43s-.99 2.442-2.325 2.442m0-5.968c-2.076 0-3.606 1.462-3.606 3.526s1.53 3.54 3.606 3.54c2.079 0 3.593-1.476 3.593-3.54s-1.514-3.526-3.593-3.526M24.315 44.137L21 51.65l-3.292-7.513h-1.412l4.024 9.146h1.292l4.011-9.146z" fill="#75a932"/><path d="M30.314 51.166c-.314.798-1.058 1.228-1.997 1.228-.955 0-1.53-.43-1.53-1.122 0-.588.353-1.073 1.594-1.073h1.933zm-1.711-4.871c-1.11 0-2.142.311-2.862.886l.524.942c.534-.457 1.372-.746 2.195-.746 1.24 0 1.854.616 1.854 1.673v.248h-1.985c-2.064 0-2.783.914-2.783 2.026 0 1.201.994 2.036 2.56 2.036 1.086 0 1.856-.366 2.274-.991v.915h1.19v-4.182c0-1.893-1.073-2.807-2.967-2.807M35.096 47.52V46.36h-1.201v6.925h1.255v-3.45c0-1.515.836-2.339 2.18-2.339.091 0 .183 0 .29.012v-1.213c-1.217 0-2.079.418-2.524 1.226M39.162 53.283h1.252v-6.925h-1.252zm.625-9.89c-.482 0-.848.365-.848.823 0 .457.366.81.848.81.497 0 .85-.365.85-.837 0-.443-.366-.797-.85-.797M47.038 51.166c-.311.798-1.057 1.228-1.996 1.228-.955 0-1.53-.43-1.53-1.122 0-.588.353-1.073 1.594-1.073h1.932zm-1.71-4.871c-1.11 0-2.143.311-2.862.886l.523.942c.535-.457 1.373-.746 2.195-.746 1.24 0 1.854.616 1.854 1.673v.248h-1.984c-2.065 0-2.783.914-2.783 2.026 0 1.201.994 2.036 2.56 2.036 1.085 0 1.856-.366 2.274-.991v.915h1.19v-4.182c0-1.893-1.074-2.807-2.967-2.807M54.317 46.294c-1.097 0-1.985.403-2.497 1.11v-1.046h-1.2v6.926h1.255v-3.57c0-1.5.863-2.298 2.195-2.298 1.189 0 1.869.667 1.869 2.025v3.843h1.252v-3.987c0-2.036-1.188-3.003-2.874-3.003M63.02 51.976c-.26.21-.614.327-.98.327-.692 0-1.085-.418-1.085-1.162v-3.75h1.987v-1.033h-1.987v-1.515h-1.252v1.515h-1.177v1.033h1.177v3.802c0 1.397.795 2.167 2.194 2.167.561 0 1.137-.156 1.515-.481zM65.515 48.318c0-.549.537-.953 1.634-.953.68 0 1.371.143 2 .548l.533-.994c-.6-.39-1.619-.625-2.52-.625-1.777 0-2.887.836-2.887 2.076 0 2.756 4.377 1.412 4.377 2.966 0 .588-.485.941-1.646.941-.903 0-1.844-.3-2.43-.718l-.524.993c.576.458 1.713.809 2.863.809 1.841 0 2.99-.797 2.99-2.053 0-2.69-4.39-1.356-4.39-2.99" fill="#8e3c04"/></svg>