<?xml version="1.0" encoding="UTF-8" standalone="no"?>
<!-- Created with Inkscape (http://www.inkscape.org/) -->

<svg
   xmlns:dc="http://purl.org/dc/elements/1.1/"
   xmlns:cc="http://creativecommons.org/ns#"
   xmlns:rdf="http://www.w3.org/1999/02/22-rdf-syntax-ns#"
   xmlns:svg="http://www.w3.org/2000/svg"
   xmlns="http://www.w3.org/2000/svg"
   xmlns:sodipodi="http://sodipodi.sourceforge.net/DTD/sodipodi-0.dtd"
   xmlns:inkscape="http://www.inkscape.org/namespaces/inkscape"
   width="3.0188949in"
   height="3.0297344in"
   viewBox="0 0 76.679932 76.955256"
   version="1.1"
   id="svg1137"
   inkscape:version="0.92.3 (2405546, 2018-03-11)"
   sodipodi:docname="circular-tree.svg">
  <defs
     id="defs1131" />
  <sodipodi:namedview
     id="base"
     pagecolor="#ffffff"
     bordercolor="#666666"
     borderopacity="1.0"
     inkscape:pageopacity="0.0"
     inkscape:pageshadow="2"
     inkscape:zoom="1.18125"
     inkscape:cx="166.49425"
     inkscape:cy="2.781788"
     inkscape:document-units="mm"
     inkscape:current-layer="layer1"
     showgrid="false"
     fit-margin-top="0"
     fit-margin-left="0"
     fit-margin-right="0"
     fit-margin-bottom="0"
     units="in"
     inkscape:window-width="1920"
     inkscape:window-height="1025"
     inkscape:window-x="0"
     inkscape:window-y="27"
     inkscape:window-maximized="1" />
  <metadata
     id="metadata1134">
    <rdf:RDF>
      <cc:Work
         rdf:about="">
        <dc:format>image/svg+xml</dc:format>
        <dc:type
           rdf:resource="http://purl.org/dc/dcmitype/StillImage" />
        <dc:title></dc:title>
      </cc:Work>
    </rdf:RDF>
  </metadata>
  <g
     inkscape:label="Layer 1"
     inkscape:groupmode="layer"
     id="layer1"
     transform="translate(-20.120353,-72.614083)">
    <g
       style="display:inline"
       id="g1091"
       transform="translate(-67.686291,70.652559)">
      <path
         id="path1057"
         d="m 124.85172,78.879522 -0.6404,-0.03133 -0.94668,-0.413326 c -0.52067,-0.227325 -0.96537,-0.428951 -0.98822,-0.448057 -0.0229,-0.01911 0.78531,-0.717856 1.79591,-1.552783 l 1.83745,-1.518044 1.80823,1.214333 c 0.99452,0.667877 1.80268,1.231635 1.7959,1.252791 -0.007,0.02116 -0.43833,0.358741 -0.959,0.750193 l -0.94668,0.711736 -0.38981,0.0399 c -0.43354,0.04438 -1.39375,0.04218 -2.3667,-0.0054 z"
         style="fill:#a6be55;fill-opacity:1;stroke-width:1"
         inkscape:connector-curvature="0" />
      <path
         id="path1055"
         d="m 129.64284,78.727791 c 0.001,-0.02566 0.22597,-0.211855 0.49968,-0.41376 l 0.49766,-0.367105 0.61405,0.140866 c 0.33773,0.07748 0.614,0.154965 0.61392,0.172195 -5e-5,0.01723 -0.13163,0.09841 -0.29235,0.180392 -0.22422,0.114365 -0.43479,0.163486 -0.90479,0.211071 -0.3369,0.03411 -0.70652,0.07574 -0.82138,0.09251 -0.11485,0.01677 -0.20791,0.0095 -0.20679,-0.01617 z"
         style="fill:#b9bc4a;fill-opacity:1;stroke-width:1"
         inkscape:connector-curvature="0" />
      <path
         id="path1053"
         d="m 117.05554,77.674733 c -0.50536,-0.07606 -1.09425,-0.178354 -1.30865,-0.227314 -0.54346,-0.12411 -2.70301,-0.840083 -2.80874,-0.931204 -0.0478,-0.04123 -0.27014,-0.170035 -0.49401,-0.286226 -0.32454,-0.168442 -0.39226,-0.22468 -0.33412,-0.277488 0.14938,-0.135709 7.09127,-4.003072 7.17225,-3.995694 0.0987,0.009 5.40951,2.34042 5.47357,2.402884 0.0238,0.02324 -0.81564,0.754147 -1.86551,1.624228 l -1.90886,1.581974 -0.91883,0.09447 c -1.61926,0.166482 -1.98489,0.168231 -3.0071,0.01437 z"
         style="fill:#92bc63;fill-opacity:1;stroke-width:1"
         inkscape:connector-curvature="0" />
      <path
         id="path1051"
         d="m 134.45365,77.591383 c -0.59034,-0.06692 -1.37723,-0.213604 -2.31129,-0.430828 l -1.41623,-0.329349 -2.31072,-1.556419 -2.31073,-1.556419 -3.09063,-1.355205 c -1.69985,-0.745365 -3.17663,-1.395416 -3.28173,-1.444554 -0.12954,-0.06057 -1.21658,-1.240723 -3.37425,-3.663298 l -3.18314,-3.573948 0.0633,-0.463361 c 0.0348,-0.254846 0.53799,-3.848039 1.1182,-7.984867 l 1.05491,-7.521507 5.39032,-3.306489 c 4.70839,-2.888181 5.46931,-3.336828 6.0147,-3.546288 0.3434,-0.131889 0.65718,-0.239797 0.69729,-0.239797 0.0401,0 2.38445,1.169006 5.20965,2.597791 l 5.13672,2.597791 4.63866,10.288795 4.63868,10.288793 -1.76499,3.555008 -1.76499,3.555004 -1.44348,1.163374 c -1.42817,1.151034 -1.45277,1.167768 -2.31949,1.577947 -0.4818,0.228016 -0.91359,0.447896 -0.95953,0.488615 -0.0871,0.07715 -1.64025,0.578655 -2.56913,0.829525 -0.61419,0.16588 -0.65497,0.166532 -1.86207,0.02969 z"
         style="fill:#80b974;fill-opacity:1;stroke-width:1"
         inkscape:connector-curvature="0" />
      <path
         id="path1049"
         d="m 109.95544,75.113737 c -0.45941,-0.16314 -0.87685,-0.29802 -0.92764,-0.299735 -0.11156,-0.0038 -1.19718,-0.576461 -2.19616,-1.158535 l -0.72926,-0.424914 -0.82393,-1.329166 -0.82392,-1.329165 -1.04541,-3.017796 -1.0454,-3.017797 0.6217,-0.034 c 0.34194,-0.0187 2.59095,-0.04376 4.9978,-0.05569 l 4.37609,-0.02168 2.99339,3.359548 c 1.64636,1.847751 2.98482,3.368123 2.97434,3.378598 -0.0131,0.01308 -6.90439,3.896816 -7.50845,4.231528 -0.0153,0.0085 -0.40373,-0.118051 -0.86315,-0.281192 z"
         style="fill:#6eb389;fill-opacity:1;stroke-width:1"
         inkscape:connector-curvature="0" />
      <path
         id="path1047"
         d="m 145.18038,72.820073 c 0.002,-0.02297 0.68446,-1.39496 1.51747,-3.048864 l 1.51457,-3.007099 2.67298,-1.654489 2.67298,-1.654489 0.0157,0.178783 c 0.009,0.09833 -0.0469,1.016205 -0.12347,2.039721 l -0.13915,1.860937 -0.67007,0.677789 c -0.36855,0.37278 -0.67008,0.704402 -0.67008,0.736929 0,0.06183 -0.99099,0.924733 -1.8529,1.613397 -0.3322,0.265438 -0.85957,0.592939 -1.55488,0.965591 -0.89919,0.481926 -1.21962,0.619874 -2.20369,0.94874 -1.28136,0.42821 -1.18338,0.39971 -1.17944,0.343054 z"
         style="fill:#6eb389;fill-opacity:1;stroke-width:1"
         inkscape:connector-curvature="0" />
      <path
         id="path1045"
         d="m 103.38438,71.377701 c -0.32965,-0.252624 -0.30347,-0.290168 0.095,-0.136232 0.12338,0.04767 0.37521,0.396781 0.28404,0.393774 -0.0247,-8.36e-4 -0.19527,-0.116709 -0.37904,-0.257542 z"
         style="fill:#80b974;fill-opacity:1;stroke-width:1"
         inkscape:connector-curvature="0" />
      <path
         id="path1043"
         d="m 102.10358,69.614127 c -0.78408,-0.271268 -0.88443,-0.323124 -1.63623,-0.845574 -0.44051,-0.306117 -1.026476,-0.769583 -1.302149,-1.02992 -0.575485,-0.543472 -1.878551,-1.943772 -1.878551,-2.018732 0,-0.02768 -0.241873,-0.417998 -0.537494,-0.867387 -0.45413,-0.690341 -1.278488,-2.22165 -1.224863,-2.275277 0.01465,-0.01465 5.548127,1.763925 5.596527,1.798841 0.0276,0.01989 1.90159,5.425915 1.90159,5.485544 0,0.07022 -0.002,0.0696 -0.91883,-0.247495 z"
         style="fill:#549db2;fill-opacity:1;stroke-width:1"
         inkscape:connector-curvature="0" />
      <path
         id="path1041"
         d="m 154.54997,65.859196 c 0.0182,-0.206738 0.0764,-1.006632 0.12935,-1.777546 l 0.0963,-1.401659 1.24732,-0.90037 c 0.68603,-0.495202 1.26271,-0.884989 1.28151,-0.866189 0.0188,0.0188 -0.0168,0.570073 -0.0791,1.225053 l -0.11333,1.190867 -0.49054,0.631479 c -1.02087,1.314214 -1.89261,2.274252 -2.06508,2.274252 -0.0217,0 -0.0246,-0.169149 -0.006,-0.375887 z"
         style="fill:#b9bc4a;fill-opacity:1;stroke-width:1"
         inkscape:connector-curvature="0" />
      <path
         id="path1039"
         d="m 143.5084,55.655159 c -2.45913,-5.45424 -4.46159,-9.92506 -4.4499,-9.935155 0.0624,-0.05392 20.94426,-7.611956 20.98922,-7.596906 0.0294,0.0098 0.80014,1.249601 1.71278,2.75503 l 1.65935,2.737144 0.21417,1.869332 0.21417,1.869331 -0.147,0.909865 c -0.0808,0.500426 -0.14699,0.996921 -0.14699,1.103321 0,0.196812 -0.30541,1.385578 -0.61888,2.408903 -0.1,0.32636 -0.39534,1.012202 -0.69905,1.623202 l -0.52593,1.058054 -1.0214,1.169427 c -0.56177,0.643185 -1.4813,1.725451 -2.0434,2.405033 l -1.02201,1.235611 -1.84467,1.329856 c -1.46962,1.059468 -2.43228,1.693582 -4.73472,3.118813 -1.58953,0.983928 -2.92932,1.804031 -2.97733,1.822452 -0.0703,0.02696 -0.95815,-1.898081 -4.55841,-9.883313 z"
         style="fill:#a6be55;fill-opacity:1;stroke-width:1"
         inkscape:connector-curvature="0" />
      <path
         id="path1037"
         d="m 98.188256,62.25854 -3.469824,-1.131042 -1.114591,-1.10615 -1.11459,-1.106156 -0.69193,-1.39369 c -0.380562,-0.766531 -0.69193,-1.457961 -0.69193,-1.536509 0,-0.07855 -0.13864,-1.162825 -0.308089,-2.409505 l -0.308089,-2.26669 2.376325,-3.019938 c 1.306979,-1.660966 2.429191,-3.074127 2.493804,-3.140359 l 0.117479,-0.120421 9.369119,1.405646 c 5.15302,0.773106 9.38065,1.417168 9.39473,1.431251 0.0303,0.03029 -2.11294,15.353235 -2.15308,15.393368 -0.0264,0.02644 -1.87647,0.05188 -7.70085,0.105922 l -2.72866,0.02532 z"
         style="fill:#60aa9e;fill-opacity:1;stroke-width:1"
         inkscape:connector-curvature="0" />
      <path
         id="path1035"
         d="m 158.43276,61.287699 c -9.4e-4,-0.04113 0.0271,-0.379218 0.0625,-0.751313 l 0.0642,-0.676541 0.39294,-0.466624 c 0.21612,-0.256639 0.4002,-0.444795 0.40906,-0.418115 0.009,0.02668 -0.0167,0.299101 -0.0569,0.605379 -0.0689,0.525602 -0.0906,0.585014 -0.38586,1.058053 -0.38476,0.616367 -0.48358,0.748384 -0.48593,0.649161 z"
         style="fill:#cbb742;fill-opacity:1;stroke-width:1"
         inkscape:connector-curvature="0" />
      <path
         id="path1033"
         d="m 89.250551,49.220094 -0.657569,-0.972785 -0.13494,-0.690077 c -0.303825,-1.553737 -0.389647,-2.380779 -0.35975,-3.466805 l 0.02784,-1.011433 2.059662,-1.703561 c 1.132814,-0.936958 2.083414,-1.695643 2.112445,-1.685966 0.02903,0.0097 0.550496,1.064071 1.158811,2.343098 l 1.106027,2.325505 -0.489441,0.622487 c -2.541582,3.232464 -4.095831,5.190807 -4.127461,5.200572 -0.02093,0.0065 -0.333965,-0.426003 -0.695628,-0.961035 z"
         style="fill:#549db2;fill-opacity:1;stroke-width:1"
         inkscape:connector-curvature="0" />
      <path
         id="path1031"
         d="m 105.11067,45.358311 -9.522475,-1.431518 -0.160458,-0.331302 c -0.08825,-0.182215 -0.661789,-1.383786 -1.274526,-2.670156 l -1.114069,-2.338854 -0.634878,-2.164208 -0.634878,-2.164207 -0.166376,-1.70604 c -0.114526,-1.174367 -0.252153,-2.187495 -0.441619,-3.250937 -0.217246,-1.219371 -0.288769,-1.776728 -0.339435,-2.645133 l -0.06419,-1.100237 0.361244,-0.807462 c 0.198684,-0.444104 0.500257,-1.084622 0.670163,-1.423374 0.294793,-0.587749 0.344151,-0.650586 1.079449,-1.374251 0.686761,-0.675894 0.943336,-0.878376 2.360021,-1.862458 l 1.589491,-1.104118 5.761196,-0.574933 c 10.35046,-1.032913 14.83194,-1.447891 14.90047,-1.379761 0.0343,0.03406 2.1411,3.256973 4.68186,7.162025 l 4.61956,7.100095 0.0996,4.13961 c 0.0557,2.317009 0.0784,4.158418 0.0515,4.182328 -0.0264,0.02349 -0.31886,0.14629 -0.64985,0.272878 -0.51879,0.198413 -1.35293,0.691113 -6.04749,3.572088 -2.99513,1.838061 -5.48082,3.33957 -5.52377,3.336686 -0.043,-0.0029 -4.3632,-0.649427 -9.60056,-1.436761 z"
         style="fill:#e56a2f;fill-opacity:1;stroke-width:1"
         inkscape:connector-curvature="0" />
      <path
         id="path1029"
         d="m 133.20477,42.229978 c -2.77182,-1.404613 -5.0556,-2.560952 -5.07506,-2.569642 -0.0195,-0.0087 -0.0808,-1.890235 -0.13633,-4.181208 l -0.10093,-4.165406 6.3038,-6.303753 6.30381,-6.303753 4.80286,-0.85188 c 2.64157,-0.468533 4.85298,-0.850762 4.91424,-0.849397 0.0613,0.0014 1.34652,0.329654 2.85615,0.729529 l 2.74478,0.727047 1.45959,0.711999 1.45959,0.711998 0.45355,0.774684 c 0.24945,0.426076 0.59737,1.035665 0.77314,1.35464 l 0.31959,0.579957 0.59819,2.538516 c 0.37527,1.592495 0.69736,3.122086 0.86428,4.104444 l 0.26608,1.565927 -1.07305,3.08599 -1.07306,3.085991 -10.72015,3.896039 c -5.89608,2.142822 -10.76093,3.899657 -10.81077,3.904079 -0.0498,0.0044 -2.35848,-1.141189 -5.1303,-2.545801 z"
         style="fill:#cbb742;fill-opacity:1;stroke-width:1"
         inkscape:connector-curvature="0" />
      <path
         id="path1027"
         d="m 163.41275,41.471463 c -1.51793,-2.490107 -2.47564,-4.097502 -2.47471,-4.153476 0.002,-0.132529 1.76379,-5.129804 1.81368,-5.145094 0.0279,-0.0085 0.35138,0.438728 0.71887,0.993945 l 0.66818,1.009483 0.1205,0.840748 c 0.0663,0.462411 0.15071,1.179046 0.18765,1.592523 0.0639,0.714992 0.0599,0.802179 -0.0816,1.781984 -0.13176,0.912623 -0.61489,3.441972 -0.6675,3.494587 -0.011,0.01103 -0.13932,-0.175585 -0.28508,-0.4147 z"
         style="fill:#b9bc4a;fill-opacity:1;stroke-width:1"
         inkscape:connector-curvature="0" />
      <path
         id="path1025"
         d="m 87.968234,41.638277 c -0.01543,-0.05521 -0.04517,-0.275799 -0.0661,-0.490194 -0.02093,-0.214395 -0.05682,-0.427398 -0.07975,-0.473339 -0.05148,-0.103139 0.0348,-3.05937 0.09394,-3.218433 0.03593,-0.09664 2.741679,-2.087551 2.941074,-2.164066 0.03988,-0.0153 0.09108,0.06981 0.12896,0.214408 0.03455,0.131885 0.247661,0.87117 0.47358,1.642858 l 0.410761,1.403068 -1.872281,1.543926 c -1.029754,0.849159 -1.901497,1.566028 -1.937206,1.593041 -0.04253,0.03217 -0.0746,0.01449 -0.09298,-0.05127 z"
         style="fill:#e04929;fill-opacity:1;stroke-width:1"
         inkscape:connector-curvature="0" />
      <path
         id="path1023"
         d="m 88.074523,35.704678 c 0.0137,-0.09954 0.08731,-0.59307 0.16356,-1.096732 0.07625,-0.503661 0.138644,-0.945346 0.138644,-0.981522 0,-0.03618 0.355876,-0.338276 0.790835,-0.671332 1.14068,-0.873439 1.216271,-0.928024 1.245161,-0.899135 0.03151,0.03151 0.18883,1.546317 0.190384,1.833179 0.0011,0.201465 -0.0091,0.210386 -1.254139,1.099818 -0.690381,0.493189 -1.265166,0.896706 -1.2773,0.896706 -0.01213,0 -0.01085,-0.08144 0.0029,-0.180982 z"
         style="fill:#e68634;fill-opacity:1;stroke-width:1"
         inkscape:connector-curvature="0" />
      <path
         id="path1021"
         d="m 88.766536,31.781794 c 0,-0.02129 0.113866,-0.475729 0.253036,-1.009856 l 0.253035,-0.971141 0.340338,-0.382941 c 0.187186,-0.210618 0.349406,-0.373873 0.36049,-0.362789 0.01108,0.01108 0.0853,0.388607 0.164922,0.838941 0.130054,0.735562 0.135969,0.825559 0.05819,0.885384 -0.859154,0.660825 -1.369183,1.041116 -1.396294,1.041116 -0.01854,0 -0.03372,-0.01742 -0.03372,-0.03871 z"
         style="fill:#e29d39;fill-opacity:1;stroke-width:1"
         inkscape:connector-curvature="0" />
      <path
         id="path1019"
         d="m 163.28552,30.915853 c -0.13845,-0.201231 -0.32213,-0.804873 -0.26319,-0.864923 0.008,-0.0085 0.0796,0.06906 0.15837,0.172328 0.13334,0.174823 0.35577,0.853923 0.29845,0.911236 -0.0141,0.01408 -0.10121,-0.08431 -0.19363,-0.218641 z"
         style="fill:#deb857;fill-opacity:1;stroke-width:1"
         inkscape:connector-curvature="0" />
      <path
         id="path1017"
         d="m 122.90268,23.317552 c -2.46555,-3.786531 -4.48823,-6.924418 -4.49485,-6.973083 -0.007,-0.04866 1.47276,-3.220876 3.28753,-7.0493585 l 3.29956,-6.9608768 0.72194,-0.1906581 c 0.67549,-0.1783896 0.77211,-0.1899214 1.50156,-0.1792107 1.16097,0.017046 2.47627,0.1145907 2.72866,0.2023608 0.12251,0.042603 0.54852,0.1451903 0.94668,0.2279718 0.51626,0.1073338 0.75874,0.1841511 0.84528,0.2677721 0.0667,0.064493 0.58229,0.7111456 1.14568,1.4370056 l 1.02434,1.3197453 1.63732,1.469668 1.63732,1.4696683 1.20908,4.8397072 1.20908,4.839708 -6.08025,6.083806 c -3.34414,3.346094 -6.09282,6.083034 -6.10819,6.082091 -0.0154,-9.44e-4 -2.0452,-3.099786 -4.51074,-6.886317 z"
         style="fill:#e29d39;fill-opacity:1;stroke-width:1"
         inkscape:connector-curvature="0" />
      <path
         id="path1015"
         d="m 94.279551,19.344044 c 0,-0.331562 0.554991,-1.211905 1.63529,-2.593941 0.373658,-0.478023 0.759251,-0.824626 0.759251,-0.682475 0,0.123402 -0.518687,1.971482 -0.572814,2.040938 -0.03026,0.03883 -0.295906,0.236816 -0.590328,0.439976 -0.294421,0.20316 -0.691932,0.480567 -0.883356,0.61646 -0.191424,0.135893 -0.348043,0.216462 -0.348043,0.179042 z"
         style="fill:#e68634;fill-opacity:1;stroke-width:1"
         inkscape:connector-curvature="0" />
      <path
         id="path1013"
         d="m 156.94666,17.785775 c -0.50131,-0.237076 -0.46128,-0.173483 -0.60669,-0.963914 -0.0368,-0.20031 -0.0326,-0.209579 0.0668,-0.147466 0.12502,0.07808 1.09457,1.354174 1.01121,1.330936 -0.01,-0.0026 -0.22156,-0.101438 -0.47132,-0.219556 z"
         style="fill:#d9ad3d;fill-opacity:1;stroke-width:1"
         inkscape:connector-curvature="0" />
      <path
         id="path1011"
         d="m 97.396868,17.745615 c -6.35e-4,-0.02297 0.179934,-0.718362 0.401266,-1.545314 l 0.402421,-1.50355 0.576548,-0.890992 c 0.317101,-0.490046 0.65651,-0.974706 0.75424,-1.077023 0.233251,-0.244197 1.484167,-1.375484 1.882477,-1.702445 l 0.3126,-0.256613 1.21879,0.136812 c 0.67033,0.07525 2.45867,0.227398 3.97408,0.338115 1.51541,0.110717 2.76135,0.207362 2.76875,0.214766 0.01,0.0097 -3.74452,5.347355 -3.85691,5.48361 -0.0184,0.02234 -8.058365,0.840847 -8.279967,0.842948 -0.08423,7.96e-4 -0.15366,-0.01734 -0.154295,-0.04031 z"
         style="fill:#e04929;fill-opacity:1;stroke-width:1"
         inkscape:connector-curvature="0" />
      <path
         id="path1009"
         d="m 139.50061,13.06679 c -0.61959,-2.47866 -1.13063,-4.5487205 -1.13565,-4.6001341 -0.007,-0.071899 0.52436,-0.3314263 2.30187,-1.1242223 l 2.31101,-1.0307438 0.99846,0.2546517 c 0.94791,0.2417574 1.0325,0.2747163 1.67061,0.6508838 0.36969,0.2179272 0.98539,0.6020072 1.36824,0.8535104 l 0.69609,0.4572784 0.48237,0.9125748 0.48236,0.9125751 0.45886,2.773098 c 0.26682,1.612533 0.43784,2.791297 0.40863,2.816582 -0.0276,0.02392 -2.00485,0.390066 -4.39382,0.813667 -2.38897,0.4236 -4.38385,0.780701 -4.43305,0.793558 -0.0752,0.01965 -0.26889,-0.694426 -1.21598,-4.483279 z"
         style="fill:#b9bc4a;fill-opacity:1;stroke-width:1"
         inkscape:connector-curvature="0" />
      <path
         id="path1007"
         d="m 153.00151,16.571417 c -1.22512,-0.323833 -2.24006,-0.606399 -2.25542,-0.627926 -0.0456,-0.06393 -0.85509,-5.004295 -0.82488,-5.034504 0.0153,-0.01525 0.30726,0.03771 0.64892,0.117681 l 0.62122,0.145401 0.48742,0.423751 c 0.8763,0.761817 1.92376,1.86347 2.53498,2.666133 l 0.59969,0.787516 0.2232,1.016395 c 0.12276,0.559018 0.21626,1.033933 0.20777,1.055367 -0.008,0.02143 -1.01779,-0.225982 -2.2429,-0.549814 z"
         style="fill:#a6be55;fill-opacity:1;stroke-width:1"
         inkscape:connector-curvature="0" />
      <path
         id="path1005"
         d="m 107.32867,16.761811 c 0.0255,-0.06636 3.16933,-4.51174 5.89104,-8.3298492 1.30465,-1.8302061 1.72255,-2.3680528 2.85571,-3.675343 0.73008,-0.8422661 1.3586,-1.5646483 1.39672,-1.6052937 0.0381,-0.040646 0.4173,-0.1607667 0.84264,-0.266936 0.42533,-0.1061693 0.91116,-0.2398393 1.07961,-0.2970444 0.32998,-0.1120567 1.4322,-0.2878063 2.59177,-0.4132597 0.65559,-0.070928 0.77001,-0.069247 1.25064,0.018371 0.29096,0.053043 0.5243,0.1208195 0.51852,0.1506137 -0.0312,0.1612107 -6.37209,13.4734863 -6.43266,13.5050653 -0.0397,0.02071 -2.25236,0.240368 -4.91699,0.488142 -2.66462,0.247773 -4.9026,0.459433 -4.97329,0.470356 -0.0807,0.01248 -0.1193,-0.0042 -0.10371,-0.04482 z"
         style="fill:#e68634;fill-opacity:1;stroke-width:1"
         inkscape:connector-curvature="0" />
      <path
         id="path1003"
         d="m 107.50876,10.17785 c -1.37631,-0.103867 -2.51378,-0.2002489 -2.52771,-0.2141824 -0.0139,-0.013933 0.0561,-0.4359018 0.15563,-0.9377075 l 0.18096,-0.9123738 0.81535,-0.4995543 c 0.96779,-0.5929486 1.92202,-1.1311157 2.00559,-1.1311157 0.0329,0 0.4718,-0.1471363 0.97533,-0.3269694 l 0.91551,-0.3269693 1.6114,0.2573606 c 0.88627,0.1415482 1.61904,0.278942 1.62838,0.3053199 0.009,0.026378 -0.61578,0.9347722 -1.38915,2.0186542 l -1.40614,1.9706947 -0.23139,-0.0072 c -0.12726,-0.0039 -1.35746,-0.09214 -2.73376,-0.196007 z"
         style="fill:#e29d39;fill-opacity:1;stroke-width:1"
         inkscape:connector-curvature="0" />
      <path
         id="path1001"
         d="m 103.28335,9.8387461 c -0.14745,-0.011552 -0.26021,-0.043363 -0.25059,-0.070692 0.0328,-0.093275 0.90842,-0.7172788 0.92811,-0.6614426 0.0108,0.030613 -0.0108,0.2171092 -0.0481,0.4144362 -0.0754,0.3996662 -0.009,0.3662858 -0.62945,0.3176983 z"
         style="fill:#e68634;fill-opacity:1;stroke-width:1"
         inkscape:connector-curvature="0" />
      <path
         id="path999"
         d="m 136.53274,6.3019335 c -0.66156,-0.5895863 -1.20478,-1.0970342 -1.20715,-1.1276621 -0.002,-0.030628 0.5657,-0.3652141 1.26237,-0.7435252 l 1.26668,-0.6878381 0.67723,0.2256407 c 0.37247,0.1241024 1.04465,0.3670919 1.49372,0.5399767 0.67798,0.2610076 0.90033,0.3772116 1.3106,0.6849455 0.27176,0.2038353 0.49545,0.383269 0.49709,0.3987417 0.004,0.035383 -3.95719,1.7839372 -4.03817,1.7826453 -0.0327,-5.012e-4 -0.6008,-0.4833383 -1.26237,-1.0729245 z"
         style="fill:#e68634;fill-opacity:1;stroke-width:1"
         inkscape:connector-curvature="0" />
      <path
         id="path997"
         d="m 112.82553,5.15829 c -0.94527,-0.1561451 -1.1736,-0.2100257 -1.09236,-0.2577742 0.0565,-0.033202 0.16897,-0.1142944 0.24994,-0.1802063 0.15024,-0.1222868 1.74537,-0.7221349 2.65004,-0.9965479 0.27565,-0.083613 0.62422,-0.16069 0.7746,-0.1712826 l 0.27342,-0.019259 -0.11059,0.1244381 c -0.0608,0.068441 -0.41987,0.4815311 -0.79787,0.9179781 -0.378,0.436447 -0.70186,0.7905074 -0.71969,0.7868009 -0.0178,-0.00371 -0.5702,-0.095573 -1.22749,-0.2041471 z"
         style="fill:#cbb742;fill-opacity:1;stroke-width:1"
         inkscape:connector-curvature="0" />
      <path
         id="path985"
         d="m 133.89071,3.6045839 c -0.30069,-0.3885963 -0.56773,-0.7411567 -0.59341,-0.7834675 -0.0931,-0.1534259 0.96046,-0.045441 1.98648,0.2036029 0.51558,0.1251463 0.96227,0.2428974 0.99264,0.261669 0.0471,0.029127 -1.69395,1.0180888 -1.801,1.0229935 -0.0209,9.573e-4 -0.28401,-0.3162016 -0.58471,-0.7047979 z"
         style="fill:#d9ad3d;fill-opacity:1;stroke-width:1"
         inkscape:connector-curvature="0" />
    </g>
  </g>
</svg>
