<svg xmlns="http://www.w3.org/2000/svg" viewBox="0 0 46.152 22.425"><g opacity=".99"><path d="M.546 11.128h45.498M.546.838H45.95" fill="#ccc" stroke="#e6e6e6" stroke-width=".265"/><path d="M45.857 22.017L.5 21.923c-.519.078 10.832-.176 14.836-6.71 1.111-1.814 4.704-5.342 8.959-5.536 4.657-.212 3.693 3.763 9.136-2.574C38.1 1.666 44.26 1.007 46.09.838" fill="#ffbb8b" stroke="#000" stroke-width=".265"/><path d="M46.046 21.923H.5c-.519.078 18.61.6 21.167-4.63 2.557-5.23 6.453 10.105 10.376-.057 3.923-10.161 4.502-5.057 6.301-8.715 2.816-5.725 6.237.723 7.702.456" fill="#a3d8f3" stroke="#000" stroke-width=".265"/><path d="M46.14 21.875l-12.473.142s4.596-1.742 6.52-2.173c1.704-.381 2.27-3.168 3.308-4.441 1.038-1.274 2.646-1.418 2.646-1.418" fill="#e06666" stroke="#000" stroke-width=".265"/><path d="M46.14 21.734L.5 21.923V0" fill="none" stroke="#8a8a8a" stroke-dashoffset="14.211"/></g></svg>
