<svg xmlns="http://www.w3.org/2000/svg" viewBox="0 0 46.267 22.425"><path d="M.546 11.127h45.498M.546.838H45.95" fill="#ccc" stroke="#e6e6e6" stroke-width=".265"/><path d="M20.89 21.407s7.55-15.571 9.474-16.002c1.703-.381 8.033.612 9.071-.661 1.039-1.274 6.52-2.457 6.52-2.457" fill="none" stroke="#ffea97" stroke-width=".7"/><path d="M18.463 21.77c-.519.079 7.46-2.424 10.017-7.654 2.557-5.23 1.009-5.058 5.652-12.34 4.643-7.281.628 23.291 2.427 19.633 2.815-5.725 7.7.393 9.166.125" fill="none" stroke="#57aa51" stroke-width=".7"/><path d="M.5 21.923c-.519.078 5.664.376 9.49-4.037 1.394-1.608 2.526-6.84 6.688-5.937 4.516.98 10.785 5.945 16.753-4.846C36.899.831 44.404.642 46.235.473" fill="none" stroke="#e32224" stroke-width=".7"/><path d="M.5 21.923c-.519.078 14.734.733 17.291-4.497 2.558-5.23 10.33 9.972 14.252-.19 3.923-10.161 5.056-4.833 6.301-8.715 5.422-16.896 6.285 1.148 7.75.881" fill="none" stroke="#ffbb8b" stroke-width=".7"/><path d="M33.667 22.017s3.794-8.29 5.719-8.721c1.703-.382 3.07 3.38 4.109 2.107 1.038-1.274 2.646-1.418 2.646-1.418" fill="none" stroke="#a114d0" stroke-width=".7"/><path d="M46.14 21.734L.5 21.923V0" fill="none" stroke="#8a8a8a" stroke-dashoffset="14.211"/></svg>