<svg xmlns="http://www.w3.org/2000/svg" viewBox="0 0 46.267 22.926"><path d="M.546 11.629h45.498M.546 1.34H45.95" fill="#ccc" stroke="#e6e6e6" stroke-width=".265"/><path d="M20.89 21.908s7.55-15.57 9.474-16.002c1.703-.38 8.033.613 9.071-.661 1.039-1.274 6.52-2.457 6.52-2.457" fill="none" stroke="#ffea97" stroke-width=".7"/><path d="M18.463 22.272c-.519.078 7.46-2.424 10.017-7.654 2.557-5.23 1.729-2.179 5.652-12.34 3.923-10.162.628 23.29 2.427 19.632 2.815-5.725 7.7.393 9.166.126" fill="none" stroke="#57aa51" stroke-width=".7"/><path d="M.5 22.424c-.519.079 5.664.376 9.49-4.036 1.394-1.608 2.526-6.841 6.688-5.938 4.516.98 10.785 5.946 16.753-4.845C36.899 1.332 44.404 1.143 46.235.974" fill="none" stroke="#e32224" stroke-width=".7"/><path d="M.5 22.424c-.519.079 14.734.733 17.291-4.496 2.558-5.23 10.33 9.972 14.252-.19 3.923-10.162 5.056-4.834 6.301-8.716 5.422-16.895 6.285 1.148 7.75.882" fill="none" stroke="#ffbb8b" stroke-width=".7"/><path d="M33.667 22.519s3.794-8.291 5.719-8.722c1.703-.381 3.07 3.38 4.109 2.107 1.038-1.274 2.646-1.417 2.646-1.417" fill="none" stroke="#a114d0" stroke-width=".7"/><path d="M46.14 22.235l-45.64.19V.501" fill="none" stroke="#8a8a8a" stroke-dashoffset="14.211"/></svg>
