<svg xmlns="http://www.w3.org/2000/svg" viewBox="-153 -46 652 652"><path d="M168.3 240.9c-23.4 0-40.3 15.3-40.3 38.2 0 22.9 19 38.2 42.4 38.2 14.2 0 26.6-5.6 34.4-15l-16.2-9.4c-4.3 4.7-10.8 7.4-18.1 7.4-10.2 0-18.8-5.3-22-13.8H208c.5-2.4.7-4.8.7-7.4-.1-23-16.9-38.2-40.4-38.2zm-20.1 30.7c2.7-8.5 9.9-13.8 20.1-13.8 10.2 0 17.4 5.3 20.1 13.8h-40.2zm248.6-30.7c-23.4 0-40.3 15.3-40.3 38.2 0 22.9 19 38.2 42.4 38.2 14.2 0 26.6-5.6 34.4-15l-16.2-9.4c-4.3 4.7-10.8 7.4-18.1 7.4-10.2 0-18.8-5.3-22-13.8h59.5c.5-2.4.7-4.8.7-7.4 0-23-16.9-38.2-40.4-38.2zm-20 30.7c2.7-8.5 9.9-13.8 20.1-13.8 10.2 0 17.4 5.3 20.1 13.8h-40.2zm-82.8 7.5c0 12.7 8.3 21.2 21.2 21.2 8.7 0 15.3-4 18.7-10.4l16.3 9.4c-6.7 11.2-19.4 18-35 18-23.5 0-40.3-15.3-40.3-38.2 0-22.9 16.9-38.2 40.3-38.2 15.6 0 28.2 6.8 35 18l-16.3 9.4c-3.4-6.5-9.9-10.4-18.7-10.4-12.9-.1-21.2 8.4-21.2 21.2zm175-61.6v97.6h-19.1v-97.6H469zm-521.6-10.6l78.4 135.8H-131l78.4-135.8zm196.1 10.6L84.7 319.4 25.9 217.5H48l36.8 63.7 36.8-63.7h21.9zm125 25.5v20.6c-2.1-.6-4.4-1-6.8-1-12.3 0-21.2 8.5-21.2 21.2v31.4h-19.1V243h19.1v19.5c0-10.8 12.5-19.5 28-19.5z"/></svg>
