<svg xmlns="http://www.w3.org/2000/svg" viewBox="0 0 600 135.8"><g data-name="Layer 2"><path d="M299.3 34C275.9 34 259 49.3 259 72.2s19 38.2 42.4 38.2c14.2 0 26.6-5.6 34.4-15L319.6 86c-4.3 4.7-10.8 7.4-18.1 7.4-10.2 0-18.8-5.3-22-13.8H339a35.74 35.74 0 00.7-7.4c-.1-23-16.9-38.2-40.4-38.2zm-20.1 30.7c2.7-8.5 9.9-13.8 20.1-13.8s17.4 5.3 20.1 13.8zM527.8 34c-23.4 0-40.3 15.3-40.3 38.2s19 38.2 42.4 38.2c14.2 0 26.6-5.6 34.4-15L548.1 86c-4.3 4.7-10.8 7.4-18.1 7.4-10.2 0-18.8-5.3-22-13.8h59.5a35.74 35.74 0 00.7-7.4c0-23-16.9-38.2-40.4-38.2zm-20 30.7c2.7-8.5 9.9-13.8 20.1-13.8s17.4 5.3 20.1 13.8zM425 72.2c0 12.7 8.3 21.2 21.2 21.2 8.7 0 15.3-4 18.7-10.4l16.3 9.4c-6.7 11.2-19.4 18-35 18-23.5 0-40.3-15.3-40.3-38.2S422.8 34 446.2 34c15.6 0 28.2 6.8 35 18l-16.3 9.4C461.5 54.9 455 51 446.2 51c-12.9-.1-21.2 8.4-21.2 21.2zm175-61.6v97.6h-19.1V10.6zM78.4 0l78.4 135.8H0zm196.1 10.6l-58.8 101.9-58.8-101.9H179l36.8 63.7 36.8-63.7h21.9zm125 25.5v20.6a24.82 24.82 0 00-6.8-1c-12.3 0-21.2 8.5-21.2 21.2v31.4h-19.1V36.1h19.1v19.5c0-10.8 12.5-19.5 28-19.5z" data-name="Layer 1"/></g></svg>
